<svg xmlns="http://www.w3.org/2000/svg" xmlns:xlink="http://www.w3.org/1999/xlink" fill="none" version="1.1"
    viewBox="0 0 528 975.6686401367188">

    <g>
        <path
            d="M310.973,953.424Q288.215,959.829,264.527,959.829Q240.839,959.829,218.081,953.424Q195.716,947.13,175.804,935.096Q155.891,923.062,139.903,906.178Q123.633,888.997,112.586,868.003L110.359,863.772L75.3646,863.772Q63.2515,863.772,52.2016,859.09Q41.5216,854.565,33.2789,846.309Q25.035,838.051,20.5163,827.35Q15.84,816.276,15.84,804.135L15.8398,171.533Q15.8398,159.393,20.5163,148.318Q25.0352,137.617,33.279,129.359Q41.5216,121.103,52.2015,116.578Q63.2514,111.897,75.365,111.897L110.359,111.897L112.586,107.665Q123.633,86.6717,139.903,69.4901Q155.891,52.6065,175.804,40.5726Q195.717,28.539,218.081,22.2448Q240.839,15.84,264.527,15.84Q288.215,15.8401,310.973,22.2448Q333.337,28.539,353.25,40.5726Q373.163,52.6065,389.15,69.4901Q405.421,86.672,416.468,107.665L418.695,111.897L452.635,111.897Q464.748,111.897,475.798,116.578Q486.479,121.103,494.721,129.359Q502.965,137.617,507.484,148.318Q512.16,159.393,512.16,171.533L512.16,804.135Q512.16,816.276,507.484,827.35Q502.965,838.051,494.721,846.309Q486.478,854.565,475.798,859.09Q464.749,863.772,452.635,863.772L418.695,863.772L416.468,868.003Q405.421,888.997,389.151,906.178Q373.163,923.062,353.25,935.096Q333.337,947.129,310.973,953.424Z"
            fill-rule="evenodd" fill="#e62825" fill-opacity="1" />
    </g>
</svg>