<svg xmlns="http://www.w3.org/2000/svg" xmlns:xlink="http://www.w3.org/1999/xlink" fill="none" version="1.1"
    viewBox="0 0 560 1034.800048828125">
    <g>
        <path
            d="M226.747,1027.38Q253.116,1034.8,280.559,1034.8Q308.002,1034.8,334.371,1027.38Q360.281,1020.09,383.348,1006.15Q406.414,992.208,424.934,972.65Q442.027,954.599,454.141,932.921L480.068,932.921Q496.327,932.921,511.188,926.625Q525.535,920.547,536.593,909.47Q547.651,898.395,553.717,884.028Q560,869.149,560,852.87L560,181.929Q560,165.651,553.717,150.772Q547.65,136.406,536.594,125.33Q525.535,114.253,511.188,108.175Q496.326,101.879,480.067,101.879L454.142,101.879Q442.028,80.2008,424.935,62.1501Q406.414,42.5924,383.348,28.6531Q360.281,14.7133,334.371,7.42139Q308.002,0.00011158,280.559,0Q253.116,0.00000286102,226.747,7.42139Q200.837,14.7135,177.77,28.6531Q154.704,42.5923,136.184,62.1501Q119.091,80.2007,106.977,101.879L79.9326,101.879Q63.6734,101.879,48.8115,108.175Q34.465,114.253,23.4072,125.33Q12.35,136.405,6.2832,150.772Q0.000200272,165.652,0,181.929L0,852.87Q0,869.149,6.28293,884.028Q12.3494,898.395,23.4066,909.47Q34.4652,920.547,48.8117,926.625Q63.6731,932.921,79.9322,932.921L106.976,932.921Q119.09,954.6,136.183,972.65Q154.704,992.208,177.77,1006.15Q200.836,1020.09,226.747,1027.38Z"
            fill="#fff" fill-opacity="1" />
    </g>
</svg>