<svg xmlns="http://www.w3.org/2000/svg" viewBox="0 0 1025 1024" width="32.031" height="32">
    <path d="M1024 402.149c0-15.181-11.484-24.616-34.47-28.312l-308.912-44.915-138.46-280.006c-7.79-16.821-17.85-25.228-30.155-25.228-12.303 0-22.356 8.407-30.152 25.228L343.385 328.922 34.457 373.837C11.489 377.533 0 386.967 0 402.149c0 8.62 5.13 18.465 15.388 29.542L239.39 649.538l-52.923 307.688c-.821 5.747-1.229 9.862-1.229 12.312 0 8.616 2.151 15.895 6.458 21.848 4.304 5.962 10.762 8.928 19.382 8.928 7.389 0 15.59-2.451 24.615-7.378l276.303-145.247 276.322 145.247c8.63 4.927 16.834 7.378 24.606 7.378 8.232 0 14.474-2.966 18.78-8.928 4.295-5.945 6.448-13.232 6.448-21.848 0-5.326-.207-9.428-.619-12.312l-52.927-307.688 223.384-217.847c10.683-10.667 16.009-20.518 16.009-29.542z" />
</svg>