<svg xmlns="http://www.w3.org/2000/svg" xmlns:xlink="http://www.w3.org/1999/xlink" fill="none" version="1.1" width="105.74446868896484" height="131.02577209472656" viewBox="0 0 105.74446868896484 131.02577209472656"><g><path d="M78.4745,36.5159L79.8963,35.774C79.8795,35.7727,80.553,35.4582,80.7354,35.4087Q81.4066,35.2291,81.9868,35.1439C82.1995,35.1125,82.3848,35.1686,82.5685,35.2241C82.742,35.2766,82.914,35.3286,83.1063,35.3063Q83.7003,35.2383,84.1698,35.1266Q84.3553,35.0817,84.9468,35.1957Q85.0078,35.2084,85.0688,35.1946Q85.3615,35.1278,85.618,35.2775Q85.6491,35.2395,85.7039,35.2602C85.7381,35.2729,85.774,35.2614,85.794,35.2375L85.8809,35.3176L88.4234,35.3176Q88.4442,35.3736,88.5007,35.4087Q88.7834,35.3845,89.0548,35.3304Q89.1657,35.3074,89.2827,35.1508Q89.3306,35.0864,89.3456,35.0924Q89.3606,35.0984,89.3425,35.175Q89.3413,35.1819,89.3562,35.2084Q89.3761,35.2418,89.416,35.2487Q89.6252,35.2855,89.8344,35.2395Q90.3412,35.1278,90.8555,35.038C90.9399,35.0227,91.0463,35.0326,91.1521,35.0424C91.2929,35.0555,91.4326,35.0685,91.5179,35.0219Q92.0061,34.7548,92.5054,34.5049C92.747,34.3829,92.9687,34.3656,93.2351,34.3461C93.284,34.3425,93.3149,34.2958,93.2962,34.2539Q93.1766,33.9811,93.4207,33.7589Q93.8553,33.364,94.3484,33.0243Q94.5725,32.8689,94.6597,32.6571Q94.8266,32.2472,94.9723,31.827C95.042,31.6278,95.2076,31.5092,95.4255,31.4471Q95.5588,31.4079,95.5488,31.2513C95.5339,31.0038,95.5737,30.7632,95.7306,30.5559Q96.083,30.0919,95.7655,29.4587C95.6971,29.3225,95.7113,29.2018,95.7278,29.0614L95.7306,29.0374C95.743,28.9215,95.7296,28.8145,95.7164,28.7087C95.7017,28.5914,95.6873,28.4758,95.7082,28.3512C95.723,28.2654,95.6571,28.1856,95.5637,28.1762Q95.4666,28.167,95.4417,28.0933Q95.4293,28.0541,95.4417,28.0161Q95.7219,27.1941,95.1939,26.7117C94.9224,26.4642,94.849,26.0865,94.6734,25.7987Q94.1678,24.9732,93.3173,24.203C93.0023,23.9175,92.8566,23.5813,92.5116,23.3084Q92.1555,23.0275,91.8131,22.6464Q91.5927,22.4023,91.2378,22.1272Q90.965,21.9165,90.7347,21.6632C90.5578,21.4686,90.3238,21.4306,90.1519,21.2004Q89.5579,20.4014,88.9938,20.003Q88.5269,19.6714,87.3302,19.1718Q86.9018,18.9922,86.5606,18.7297C86.4548,18.6476,86.3262,18.5946,86.1895,18.5765Q85.8807,18.5362,85.5246,18.4292C85.3054,18.3647,85.0501,18.3497,84.8185,18.2657Q84.3964,18.1114,84.3777,18.1056C83.7352,17.9191,83.1487,17.7246,82.4575,17.568Q81.9109,17.4436,81.3767,17.2813C81.1276,17.2053,80.8873,17.226,80.6407,17.1247C80.1526,16.9244,79.6084,17.0038,79.0891,16.9014Q77.4591,16.5779,75.8652,16.4869Q75.5763,16.4696,75.2762,16.4892Q74.8964,16.5145,74.6748,16.5088Q73.1493,16.465,71.8705,16.5111Q67.6042,16.6642,62.9421,17.6347C61.388,17.9583,59.9012,18.4568,58.3969,18.8333Q58.0943,18.9093,57.7867,18.8966C57.7311,18.8947,57.6871,18.8525,57.6871,18.801Q57.6834,18.3704,57.6498,17.918C57.6331,17.6874,57.7249,17.5396,57.8353,17.3619C57.8484,17.3409,57.8617,17.3195,57.8752,17.2974Q58.0159,17.0648,58.0943,16.8403Q58.3621,16.0667,58.8128,15.3678Q58.9212,15.1986,59.0606,14.7599Q59.0781,14.7035,59.0631,14.6482Q58.9872,14.3558,59.017,14.182Q59.3109,12.4631,59.0183,10.7522C58.9685,10.4563,58.8166,10.1696,58.7157,9.87491C58.6136,9.57557,58.4442,9.32112,58.2301,9.12425C57.6311,8.57738,57.1704,7.93379,56.417,7.45024Q55.9899,7.17623,55.5926,6.89186C55.2128,6.62015,54.8069,6.37722,54.4831,6.06522Q54.1033,5.69909,53.6899,5.46884Q53.1706,5.1787,52.9403,4.73199Q52.8406,4.53972,52.6788,4.41768Q51.8233,3.7718,51.0948,3.13052C50.8022,2.87378,50.4261,2.67115,50.0749,2.50075Q49.862,2.39713,49.2767,2.03447Q48.8185,1.7501,48.2668,1.59697Q47.374,1.34829,46.536,1.02016Q46.1923,0.885457,45.7863,0.81753Q45.3816,0.750756,44.9806,0.672462C44.8682,0.650811,44.7468,0.674042,44.6224,0.697847C44.5153,0.718341,44.406,0.739257,44.2982,0.732334C43.7503,0.696643,43.2161,0.621805,42.6881,0.360457C42.1813,0.109476,41.5263,0.0645698,40.9187,0.00931359Q40.5538,-0.024082,40.2002,0.0622743C39.5501,0.219996,38.9499,0.344339,38.3373,0.625261C37.5851,0.970653,36.0572,1.54401,36.0149,2.46966Q36.0012,2.75634,35.9887,3.05913C35.9863,3.12987,36.0141,3.19821,36.0659,3.2491C36.5292,3.70963,37.0858,4.07229,37.437,4.61802Q37.7408,5.09006,37.8989,5.41472C38.0359,5.69104,38.0633,6.01686,38.1829,6.3162Q38.7843,7.82787,39.0159,8.91241Q39.1504,9.53988,39.1629,10.2767Q39.189,11.6548,39.2313,13.0226C39.27,14.281,39.1927,15.529,38.9661,16.7137Q38.6996,18.1114,38.1629,20.2517C38.1007,20.4992,37.9836,20.7191,37.7881,20.8676C37.2116,21.3051,36.6512,21.8244,36.0149,22.164Q34.6787,22.879,33.4435,23.3314C32.8101,23.5632,32.0982,23.5737,31.4322,23.5836C31.2942,23.5857,31.1582,23.5877,31.0252,23.5916C30.3089,23.6122,29.6167,23.441,28.9292,23.271C28.694,23.2128,28.4595,23.1548,28.2246,23.1046Q27.6219,22.9757,27.1313,22.8007C26.0579,22.4185,24.9696,22.0569,23.9136,21.631Q22.443,21.038,20.6635,20.8101Q19.6686,20.6823,18.8641,20.6938Q18.4706,20.6995,18.0273,20.8607Q17.6077,21.0127,17.2079,21.1486C16.7198,21.3143,16.2603,21.7611,15.8245,22.0616C15.2679,22.4461,14.7598,22.7846,14.2978,23.2647Q13.4361,24.1615,12.7139,25.2553C12.5433,25.5155,12.3577,25.7032,12.1398,25.9138Q12.0962,25.9564,12.0813,26.0129Q11.9941,26.3237,11.8932,26.4596Q11.4126,27.1112,10.9095,27.7398Q10.7775,27.9056,10.3242,28.4053Q10.0403,28.7184,9.7701,29.0777Q9.1425,29.9089,8.67677,30.6273C8.25588,31.2801,7.75156,31.8869,7.38421,32.5661Q7.11897,33.0566,6.86743,33.516Q6.01569,35.0737,5.29718,37.0585C5.17141,37.4074,4.9784,37.7562,4.83021,38.1097C4.51268,38.8615,4.0731,39.5638,3.75059,40.288C3.56279,40.7106,3.23157,41.1333,3.02815,41.6234L2.92112,41.7881L2.74702,42.2701C2.63373,42.4503,2.58853,42.6887,2.59749,42.8531Q2.60122,42.9095,2.57507,42.9613C1.93004,44.2312,1.51662,45.1465,1.16919,46.3209C0.913917,47.1809,0.644944,47.9534,0.430762,48.7801Q0.389669,48.9366,0.44197,49.1358Q0.459403,49.198,0.4208,49.2509Q0.256428,49.4858,0.243976,49.7898Q0.231523,50.0822,0.160544,50.3896Q-0.0598634,51.3475,0.022322,52.0037Q0.131903,52.8879,0.539098,54.5217C0.796865,55.5613,1.219,56.5756,1.70963,57.4679C1.92381,57.8582,2.27373,58.2323,2.70333,58.4534C3.12796,58.6721,3.4704,59.0475,3.8116,59.2846Q4.16276,59.5299,4.51517,59.7762C4.76421,59.9501,5.03194,59.9973,5.27975,60.1976Q5.55494,60.4187,5.83886,60.5626Q6.58725,60.9414,7.63575,61.3512C8.25588,61.593,8.83119,61.5804,9.43762,61.7576C9.74893,61.8486,10.0391,61.7669,10.3429,61.6805Q10.7638,61.5608,11.2158,61.6563C11.6268,61.7438,12.2108,61.8095,12.5159,61.5124Q13.1397,60.908,13.7636,60.3047C13.9902,60.0871,14.2617,59.8327,14.2791,59.5184Q14.3414,58.397,14.6328,57.0891C14.7433,56.5943,14.671,56.063,14.6019,55.5556C14.5916,55.4798,14.5813,55.4045,14.5718,55.3299C14.5107,54.8406,14.5568,54.3351,14.4971,53.8435Q14.3638,52.736,14.2492,51.7113C14.2207,51.4524,14.2208,51.1889,14.2209,50.9258C14.221,50.7303,14.2211,50.5352,14.2094,50.3424Q14.1895,49.982,14.2169,49.6355C14.2538,49.16,14.1841,48.6987,14.1145,48.2372C14.0831,48.0295,14.0517,47.8217,14.0301,47.6126C14.0148,47.4718,13.9785,47.3284,13.9422,47.1853C13.8865,46.9658,13.8309,46.7468,13.852,46.5385Q13.9255,45.8028,13.7374,45.2248C13.5715,44.7148,13.6249,44.1432,13.6757,43.599C13.6863,43.4859,13.6967,43.374,13.7051,43.2641C13.7115,43.1864,13.7452,43.1128,13.801,43.0546C14.1907,42.6493,14.5282,42.183,14.9503,41.833C15.4509,41.4197,15.9652,41.095,16.4508,40.6437Q16.7323,40.3824,17.0809,40.1556C17.3325,39.9921,17.4956,39.7998,17.6911,39.6029Q17.7351,39.5588,17.7653,39.5658Q17.7956,39.5728,17.8119,39.6317Q17.8268,39.6893,17.787,39.7434Q17.7571,39.7848,17.7661,39.794Q17.7751,39.8033,17.8231,39.7803C18.1693,39.6156,18.4507,39.3531,18.7396,39.1942Q19.5291,38.7567,19.9226,38.4839Q21.4829,37.4028,23.2524,36.6487C23.6347,36.4852,24.2623,36.3574,24.515,36.1363C25.3531,35.4018,26.2036,34.9021,27.2795,34.3737Q27.4812,34.2747,27.729,34.0962Q28.0055,33.8982,28.2072,33.8521Q29.4574,33.5666,29.9468,33.3329Q30.679,32.9829,31.3676,32.6767C31.7611,32.5028,31.7873,32.0964,32.1571,31.9479Q32.5743,31.7798,32.9092,31.5691C33.1981,31.3883,33.5256,31.3158,33.8345,31.1454C34.1084,30.9934,34.421,30.9002,34.68,30.7609Q35.0174,30.5778,35.3425,30.4166C35.4364,30.3707,35.5521,30.393,35.6177,30.4696L35.7945,30.6757Q35.893,30.7912,35.9337,30.7759Q35.9752,30.7603,35.9564,30.6077Q35.9464,30.5283,35.9738,30.4615Q35.9974,30.4017,36.0535,30.3648Q37.1443,29.6602,38.2127,29.2929Q38.2734,29.2727,38.3061,29.2923Q38.3385,29.3117,38.3435,29.3701Q38.3485,29.4322,38.4145,29.4415C38.6686,29.4798,38.8101,29.4132,38.9964,29.3256C39.0283,29.3106,39.0616,29.2949,39.0969,29.2791C39.2422,29.2137,39.3792,29.232,39.5261,29.2516C39.5755,29.2582,39.626,29.265,39.6784,29.2688C39.7844,29.2768,39.8886,29.2395,39.9611,29.1675Q40.2948,28.8336,40.7667,28.4594Q41.0818,28.2096,41.4715,28.3051Q41.9796,28.4295,42.5412,28.5918C42.6817,28.6319,42.817,28.5177,42.7853,28.3857L42.7467,28.2188C42.7388,28.1825,42.7489,28.1452,42.7741,28.1175Q42.8749,28.0046,43.0555,28.0069Q43.109,28.0081,43.1476,28.0403Q43.1838,28.0714,43.2124,28.1071Q43.2672,28.1716,43.3045,28.1831Q43.3469,28.1946,43.3842,28.1796Q43.4182,28.1663,43.4242,28.1459Q43.4301,28.1258,43.4091,28.099Q43.368,28.0449,43.312,28.023C43.2524,27.9992,43.241,27.9256,43.2908,27.8872Q44.0679,27.2851,45.0641,27.5188Q46.4089,27.8342,47.6778,27.8584C48.0402,27.8653,48.3005,27.9701,48.6317,28.0749C48.7496,28.1124,48.9667,28.0866,49.1804,28.0613C49.3209,28.0446,49.4599,28.0281,49.5681,28.03Q50.1646,28.0415,50.6913,27.977Q50.8744,27.9551,51.0288,27.9885C51.0774,27.9994,51.1264,28.0137,51.1757,28.0281C51.3604,28.0819,51.5488,28.1368,51.7286,28.0196C52.2267,27.6938,52.9216,27.3864,53.5317,27.4059C53.8322,27.416,54.0189,27.2014,54.2128,26.9783C54.3725,26.7947,54.5372,26.6053,54.7745,26.5309C54.9787,26.4676,55.1257,26.4216,55.2614,26.2569C55.5876,25.8609,55.6885,25.3958,55.8716,24.9479Q56.0459,24.5208,56.5129,24.4148Q57.0944,24.2836,57.6186,24.1788C57.7153,24.1596,57.8001,24.1068,57.8552,24.0314C57.9586,23.8898,58.0781,23.7321,58.2599,23.6653Q58.5576,23.556,58.7344,23.762C58.766,23.7994,58.8136,23.8224,58.8651,23.8254C59.2362,23.8518,59.8053,23.7033,59.9796,23.351Q60.1913,22.9227,60.7504,22.8237C60.8982,22.798,61.0258,22.8211,61.1565,22.8448C61.2361,22.8593,61.317,22.8739,61.4042,22.8778C61.4523,22.8801,61.5,22.8705,61.5424,22.8502Q62.363,22.4495,63.3953,22.4092Q63.4501,22.4069,63.4962,22.3793Q63.678,22.2711,63.871,22.2389C63.9311,22.2288,63.9824,22.2799,63.9682,22.3356Q63.9333,22.4645,63.8063,22.567C63.7735,22.594,63.7676,22.6395,63.7926,22.6729Q63.8673,22.7731,63.998,22.7397Q64.8946,22.5071,65.7638,22.5808C65.9419,22.5958,66.0776,22.6729,66.2444,22.7236Q66.4038,22.7731,66.6143,22.7639Q67.806,22.7155,69.0388,22.8491Q70.2766,22.9826,71.4795,22.727C71.9925,22.6188,72.6064,22.5762,73.1008,22.6775Q74.2788,22.9181,75.5402,23.2014Q75.7992,23.2601,76.0819,23.3602C76.1075,23.3693,76.1256,23.3906,76.129,23.4156C76.1324,23.4405,76.1204,23.4649,76.0981,23.4788Q75.798,23.6711,75.4804,23.8288Q72.193,25.4602,68.8507,26.9754C68.4311,27.1653,67.9816,27.3288,67.5769,27.5568Q66.9592,27.9045,66.6541,28.038C66.034,28.3097,65.4213,28.6712,64.79,28.9487C64.1935,29.2112,63.6245,29.5313,62.9981,29.7327Q62.9383,29.7512,62.8835,29.7247C62.6943,29.6349,62.5685,29.5013,62.3655,29.4599C62.1974,29.4253,62.0492,29.4426,61.8936,29.362C61.6134,29.2181,61.3606,29.0546,61.0605,28.943Q60.3021,28.6597,59.5376,28.4663Q58.89,28.3017,58.2201,28.327Q58.0022,28.3351,57.8054,28.2671C57.4992,28.1623,57.1214,28.2895,56.809,28.3946C56.7644,28.4096,56.7212,28.4242,56.6797,28.4375Q56.6262,28.4548,56.5751,28.4341L56.3921,28.3569C56.3029,28.3189,56.1994,28.3717,56.1866,28.4617Q56.1493,28.7115,55.9014,28.7921Q53.3113,29.6268,51.1259,31.0326Q50.5581,31.3987,49.9355,31.7026C49.0177,32.1528,48.1685,32.687,47.3068,33.2178Q47.2993,33.2224,46.399,33.813Q45.9034,34.1388,45.3604,34.4025C43.8711,35.1244,42.4428,35.9487,40.9747,36.7097C40.6659,36.8697,40.2524,36.9941,39.9997,37.1299C39.265,37.526,38.3086,37.9105,37.7258,38.1696Q35.9402,38.9617,34.2354,39.687Q32.4585,40.4434,30.0016,41.7789Q28.0491,42.8416,25.1389,43.9883Q23.7368,44.5409,21.6211,45.2455Q21.1429,45.4044,20.661,45.5207C20.1081,45.6542,18.7956,45.896,18.5229,46.4153C18.46,46.5356,18.4987,46.6803,18.6151,46.7595Q18.9202,46.9679,18.8467,47.3294C18.8331,47.3953,18.8641,47.4623,18.9251,47.4986C19.1456,47.6276,19.3597,47.7416,19.6088,47.8222Q21.1666,48.3241,22.2773,48.8296C22.8576,49.0944,23.3296,49.5491,23.8986,49.784Q25.4091,50.4069,26.632,50.8041C26.8593,50.8783,27.0746,50.8524,27.2667,50.8293C27.3904,50.8144,27.5043,50.8007,27.6057,50.8156Q27.9482,50.8674,28.4301,51.0631C29.0154,51.3003,29.6442,51.4338,30.2058,51.6768Q30.7525,51.9139,31.1771,52.0383Q33.2791,52.6577,35.142,52.7901Q35.2117,52.7958,35.2117,52.8592Q35.2105,53.0307,35.0872,53.1654C34.1321,54.2085,33.1023,55.2332,32.1135,56.2832Q30.7438,57.7384,28.7514,59.797Q27.9046,60.672,26.8823,61.7784C25.0854,63.7229,23.5126,65.4534,22.0769,67.4451Q21.3795,68.4111,21.1965,68.8693C20.8702,69.6833,20.4917,70.5479,20.3248,71.4149Q20.1841,72.1402,20.1741,72.6168Q20.1642,73.0843,20.3348,73.7612Q20.4157,74.079,20.4269,74.3956C20.4692,75.5204,21.6522,76.6556,22.5276,77.4247Q22.9871,77.8277,23.5973,78.0257Q23.6558,78.0453,23.6757,78.0994Q23.7928,78.4344,24.1726,78.4079Q25.51,78.3124,26.6295,78.2801Q26.9271,78.2709,27.2608,78.3319Q27.5597,78.3849,27.8386,78.3538Q29.4574,78.1685,31.1771,77.8599Q31.5258,77.7977,31.7424,77.9106Q32.0812,78.0867,32.2293,78.5023C32.246,78.5495,32.21,78.5983,32.1571,78.6002Q32.055,78.6048,31.9741,78.5369Q31.7661,78.3596,31.5096,78.2801Q31.4786,78.2704,31.4677,78.28Q31.4566,78.2898,31.466,78.3193Q31.476,78.3469,31.5021,78.3619C31.5185,78.3701,31.5284,78.3863,31.5277,78.4038C31.5269,78.4213,31.5156,78.437,31.4984,78.4448C31.2282,78.5622,31.0289,78.5852,30.7375,78.5208Q30.2693,78.4172,29.7762,78.5542Q28.8796,78.8017,28.0615,79.2208C27.1512,79.6882,26.297,80.1752,25.4714,80.7958C24.6707,81.3967,23.9136,82.0472,23.1154,82.6528C22.6011,83.0431,22.2562,83.4841,21.8116,83.9101Q21.7948,83.9256,21.7954,83.9405Q21.796,83.9555,21.8141,83.9699L21.8477,83.9976Q21.854,84.0027,21.8599,84.0024Q21.8658,84.0022,21.8714,83.9964Q23.1789,82.6816,23.6235,82.3569C24.0032,82.0818,24.3544,81.7594,24.7591,81.543Q25.317,81.2448,25.7379,80.95Q26.8312,80.181,27.9058,79.6329C28.6654,79.2461,29.7301,78.7625,30.6006,78.8903C30.6507,78.8976,30.6919,78.9308,30.7065,78.9758C30.7211,79.0207,30.7065,79.0694,30.669,79.101Q30.4499,79.2875,30.1635,79.4395Q29.3117,79.892,28.6231,80.3467C28.4039,80.493,28.1898,80.7578,27.8971,80.9351Q27.4912,81.1814,27.145,81.4958Q27.14,81.5004,27.1487,81.5084L27.1736,81.5303Q27.1898,81.5453,27.2085,81.5314C27.6755,81.1769,28.1474,80.8683,28.6206,80.5148Q28.8585,80.3364,29.1436,80.1625C29.6878,79.8287,30.1909,79.504,30.8123,79.2921C30.8629,79.275,30.9197,79.2856,30.9592,79.3197C30.9987,79.3537,31.0141,79.4054,30.999,79.4533C30.8745,79.8494,30.4798,80.2132,30.1485,80.4814Q29.43,81.0652,28.5509,81.756C28.1923,82.0369,27.7103,82.2464,27.414,82.5331Q27.1985,82.7426,26.9707,82.8681C26.4838,83.1352,26.0455,83.6441,25.6818,84.039Q25.7135,84.1046,25.7518,84.108Q25.8021,84.1125,25.8636,84.0091Q25.8948,83.9584,25.9483,83.9296L26.1239,83.8352Q26.1787,83.8053,26.2148,83.7581Q26.4726,83.4196,26.7901,83.2411Q26.9693,83.1399,27.0067,83.1735Q27.0201,83.1855,27.0154,83.2147Q26.7342,83.3983,26.4986,83.7019Q26.4591,83.7526,26.3991,83.7847L26.207,83.8861Q26.1484,83.917,26.1144,83.9713Q26.0469,84.0825,25.9918,84.0775Q25.9501,84.0737,25.9155,84.0035Q25.722,84.1567,25.6648,84.3471C25.6532,84.386,25.6312,84.4217,25.6007,84.4509Q25.4108,84.6302,25.3039,84.8506Q25.1845,84.9338,25.0542,85.0073Q24.3743,85.515,23.9833,86.2277Q23.9447,86.3002,23.8663,86.3359Q23.5637,86.4729,23.2113,86.5834C22.8203,86.7054,22.6185,87.0278,22.3707,87.2949C22.2537,87.4216,22.1927,87.5298,22.2026,87.7002C22.2126,87.8779,22.0671,88.0304,21.8751,88.0433Q21.3098,88.0824,21.1379,88.6132Q21.1081,88.7064,21.199,88.7744C21.3118,88.8584,21.2997,89.0208,21.1753,89.091C21.0172,89.1796,20.8939,89.236,20.7793,89.38C20.5539,89.6632,20.0782,90.2308,19.6984,90.3286Q19.6509,90.3408,19.636,90.3256Q19.6213,90.3106,19.6387,90.2688Q19.9176,89.586,20.4755,89.3063Q20.5564,89.2648,20.5303,89.1819L20.4555,88.9505Q20.4443,88.917,20.4281,88.9148Q20.4119,88.9126,20.3908,88.9413L20.2551,89.1278Q20.2202,89.1739,20.1754,89.2118Q19.5652,89.7334,19.4382,90.3586Q19.4257,90.4207,19.3797,90.4679L17.8866,91.9865C17.88,91.9934,17.875,92.0012,17.8717,92.0095Q17.7334,92.3469,17.5068,92.5484Q16.5729,93.3796,16.005,94.2304Q15.8058,94.5298,15.5568,94.7036C15.238,94.9258,14.7934,95.1342,14.5705,95.4462Q14.0961,96.1059,13.6403,96.7806C13.4336,97.0868,13.4647,97.5612,13.1671,97.9054Q12.9691,98.1345,12.7823,98.3705Q12.6566,98.5294,12.5607,98.5858Q12.4256,98.663,12.3786,98.6307Q12.3316,98.5985,12.3727,98.4569Q12.4125,98.3164,12.5109,98.1345Q12.5297,98.0986,12.5175,98.0822Q12.5056,98.066,12.4636,98.0689L12.3689,98.0758Q12.2656,98.0827,12.2531,98.1771Q12.212,98.4868,12.1946,98.8127C12.1821,99.0705,12.0464,99.2018,11.8459,99.3515Q11.8196,99.3706,11.7967,99.3676Q11.7742,99.3645,11.755,99.34Q11.7388,99.3192,11.7475,99.2927Q11.7606,99.257,11.7475,99.234Q11.7345,99.211,11.6952,99.2006Q11.6342,99.1845,11.5745,99.211Q11.2968,99.3376,11.1137,99.1396C11.0756,99.0982,11.0817,99.0356,11.1274,99.0003C11.3105,98.8599,11.496,98.724,11.6342,98.5444Q11.902,98.1967,12.2058,97.8271Q12.2108,97.8214,12.2046,97.8167L12.1659,97.7811Q12.1535,97.7707,12.1423,97.7799Q11.5782,98.2024,11.1187,98.7159Q10.9904,98.8576,10.7962,98.884Q10.7152,98.8944,10.704,98.8207Q10.6156,98.2589,10.7613,97.9204Q10.8485,97.7201,10.8348,97.714Q10.8211,97.708,10.7065,97.8962C10.6859,97.9306,10.6581,97.9696,10.6282,98.0116C10.5118,98.1749,10.3627,98.3839,10.4737,98.5479Q10.5571,98.6711,10.6243,98.8057Q10.6517,98.8599,10.6405,98.9186L10.5496,99.3987Q10.5435,99.4323,10.5587,99.4515Q10.5742,99.4711,10.6119,99.4758Q10.8759,99.5057,10.8721,99.7199Q10.8709,99.8087,10.8318,99.8265Q10.7929,99.8441,10.7165,99.7913Q10.5932,99.7061,10.4899,99.5599Q10.455,99.5115,10.3989,99.4873Q10.1835,99.3929,10.0129,99.1903C9.96945,99.1376,9.88876,99.1255,9.82863,99.1626Q9.70908,99.2363,9.72901,99.3618Q9.74021,99.4251,9.80248,99.5115Q9.94568,99.7095,10.0391,99.9386Q10.0602,99.9904,10.0254,100.036L9.08397,101.272Q9.0491,101.317,8.99556,101.342L8.75024,101.455Q8.68674,101.485,8.67927,101.552C8.62198,102.141,8.71413,102.576,9.08895,103.086Q9.30064,103.375,9.51358,103.762C9.65803,104.025,9.86474,104.232,10.003,104.478C10.3056,105.019,10.6243,105.525,10.8858,106.087Q11.359,107.103,12.3141,107.684Q12.7101,107.924,13.0551,108.215Q13.5905,108.668,14.3202,109.1C14.5045,109.209,14.6975,109.264,14.898,109.347Q14.9541,109.371,14.9727,109.424Q15.9141,112.167,16.3338,112.966Q16.7671,113.79,17.1432,114.544C17.3474,114.952,17.706,115.378,17.8978,115.832Q18.0759,116.257,18.2627,116.506Q18.7433,117.147,19.2128,117.794Q19.2738,117.878,19.9176,118.847Q20.275,119.383,20.6921,119.859C20.9362,120.135,21.0956,120.422,21.2911,120.719C21.4405,120.944,21.6883,121.096,21.8614,121.306Q22.4106,121.975,22.9448,122.656C23.2125,122.999,23.6571,123.117,23.9721,123.432C24.337,123.796,24.8787,124.129,25.2174,124.393C25.8512,124.888,26.3294,125.256,27.0429,125.519C27.216,125.583,27.2733,125.684,27.3131,125.84Q27.3281,125.895,27.3754,125.932C27.6568,126.151,28.0553,126.329,28.2894,126.467Q29.2271,127.023,30.2208,127.494C30.3203,127.541,30.3994,127.544,30.489,127.547C30.5283,127.548,30.5696,127.55,30.6155,127.555Q30.6778,127.563,30.7201,127.605Q30.9542,127.837,31.3178,127.982Q32.8644,128.601,34.2989,128.908Q34.8556,129.028,35.4371,129.159C35.9389,129.272,36.498,129.588,37.0933,129.628Q37.5901,129.66,37.8466,129.746Q38.3074,129.9,38.7407,130.07C38.925,130.142,39.1143,130.144,39.3011,130.197Q39.5053,130.255,39.6946,130.246C39.9117,130.235,40.1123,130.279,40.3099,130.323C40.4986,130.365,40.6847,130.406,40.8801,130.398Q41.2362,130.383,41.6272,130.386Q41.7854,130.387,41.804,130.4Q41.946,130.501,41.9284,130.539Q41.9106,130.578,41.7306,130.553Q41.2693,130.489,41.1385,130.652Q41.0885,130.714,41.0868,130.809Q41.0891,130.804,41.0927,130.803Q41.114,130.797,41.1802,130.925C41.3408,130.987,41.4691,131.036,41.6534,131.024Q42.6022,130.964,43.6208,130.96Q44.0031,130.957,44.3991,130.908C44.8636,130.85,45.2484,130.843,45.7353,130.739Q45.9582,130.69,46.2334,130.688Q46.6231,130.686,47.1113,130.478C47.2865,130.404,47.437,130.436,47.5835,130.468C47.7534,130.505,47.918,130.541,48.1099,130.407Q48.166,130.368,48.2307,130.394Q48.8534,130.659,49.4947,130.329Q50.4784,129.823,51.4273,129.265C51.9876,128.934,52.6003,128.491,53.1905,128.103Q53.3201,128.018,53.9526,127.73Q54.3661,127.541,54.7135,127.201C55.0061,126.915,55.3797,126.755,55.6761,126.452Q55.7259,126.402,55.7159,126.334L55.6773,126.049Q55.6686,125.985,55.7234,125.946C55.8305,125.87,55.9126,125.817,55.9986,125.719C56.7084,124.901,57.1068,124.182,57.7631,123.179Q58.1267,122.623,58.4567,121.932C58.692,121.441,59.0283,121.003,59.2424,120.523C59.7704,119.341,60.1415,117.985,60.6682,116.731Q61.6109,114.482,62.0106,111.961Q62.0866,111.482,62.1887,110.977C62.3543,110.163,62.5075,109.349,62.5523,108.525Q62.6133,107.411,62.6718,106.214Q62.7366,104.922,62.4141,103.554Q62.3954,103.472,62.4091,103.404Q62.4172,103.367,62.4412,103.353Q62.4652,103.338,62.505,103.345Q63.3169,103.503,64.0877,103.707C65.2719,104.021,66.6554,104.643,67.6715,104.987Q68.6752,105.328,70.3488,105.744Q70.8232,105.861,71.6488,106.338C72.0186,106.551,72.4682,106.64,72.8779,106.833Q73.7508,107.246,74.7084,107.46C75.0795,107.543,75.4393,107.515,75.8005,107.59Q76.504,107.735,76.9299,107.941Q78.6371,108.766,80.4863,109.026C81.1339,109.117,81.8162,109.32,82.4239,109.547C83.4201,109.918,84.4001,110.271,85.3851,110.729Q86.0762,111.05,86.8607,111.301C88.1433,111.711,89.274,112.44,90.5691,112.798C91.6425,113.096,92.4083,113.541,93.2775,114.02C93.6162,114.207,94.0383,114.354,94.3857,114.558C94.778,114.786,95.2313,114.755,95.5662,114.946Q96.8663,115.69,98.1514,116.737Q98.3332,116.886,98.4278,117.09Q98.5511,117.352,98.8499,117.504C99.1227,117.641,99.2659,117.883,99.5323,118.033Q100.007,118.297,100.561,118.255Q101.105,118.212,101.612,118.135Q101.993,118.078,102.267,117.782C102.538,117.487,102.785,117.208,103.121,116.962C104.136,116.221,104.958,115.472,105.246,114.301Q105.385,113.73,105.603,113.137Q105.756,112.723,105.612,112.25C105.6,112.21,105.599,112.169,105.609,112.13Q105.724,111.654,105.744,111.182C105.753,110.958,105.683,110.72,105.614,110.486C105.593,110.414,105.572,110.342,105.553,110.271Q105.532,110.192,105.558,110.136Q105.587,110.069,105.644,110.016Q105.689,109.975,105.681,109.916Q105.649,109.622,105.669,109.363C105.7,108.964,105.498,108.509,105.333,108.152C105.3,108.083,105.317,108.002,105.375,107.949Q105.66,107.69,105.482,107.35Q105.199,106.806,105.133,106.218C105.113,106.031,105.168,105.879,105.227,105.718C105.241,105.677,105.256,105.636,105.27,105.594C105.283,105.557,105.281,105.519,105.265,105.484Q105.03,104.98,104.929,104.818C104.774,104.569,104.625,104.399,104.6,104.099Q104.578,103.814,104.488,103.556C104.475,103.517,104.472,103.475,104.48,103.435C104.539,103.117,104.576,102.85,104.414,102.544C104.155,102.052,104.135,101.469,103.734,101.028Q103.568,100.846,103.511,100.658Q103.461,100.496,103.408,100.333L103.408,100.291L103.383,100.257Q103.32,100.068,103.253,99.8776C103.183,99.6784,103.035,99.5483,102.847,99.4378C102.105,99.0015,101.266,98.732,100.436,98.4465Q99.9296,98.2715,99.4103,98.0516Q98.632,97.7224,97.9571,97.5082Q96.6758,97.1029,95.5015,96.6781Q95.3894,96.6378,95.1565,96.6378Q95.0943,96.639,95.0395,96.6113C94.6746,96.4283,94.2089,96.3615,93.9101,96.2671Q91.3772,95.4635,89.269,94.9581Q87.1807,94.4561,85.5445,93.9748C83.9605,93.5086,82.2682,93.1517,80.6681,92.7372Q80.4776,92.6877,80.1314,92.622C79.7205,92.5438,79.1738,92.3768,78.9248,92.3158Q77.2985,91.9151,75.6722,91.5168C75.0695,91.3683,74.356,91.2796,73.8454,91.1771C72.4146,90.8893,71.0075,90.6337,69.5568,90.3125Q67.2257,89.7967,64.9183,89.4306Q64.8336,89.4168,64.7614,89.3707C64.7292,89.349,64.734,89.3034,64.7701,89.2878Q65.719,88.8849,66.4972,88.2171Q66.5895,88.1376,66.5741,88.1108Q66.5587,88.0842,66.4362,88.1101Q66.3092,88.1365,66.176,88.1515Q66.0989,88.1606,66.0693,88.1303Q66.054,88.1145,66.0514,88.0882C66.0483,88.0483,66.0714,88.0106,66.11,87.9926C66.496,87.813,66.8534,87.5125,67.1535,87.3341C67.74,86.9875,68.3464,86.664,68.8918,86.2679Q69.1309,86.0929,69.2928,85.7982Q69.4746,85.4678,70.101,84.9946Q70.8008,84.465,71.5467,83.9158C71.8506,83.6925,71.9589,83.3425,72.249,83.1249Q72.437,82.9844,72.7509,82.9073Q72.9269,82.8641,72.9442,82.8954Q72.9614,82.9268,72.8193,83.0328Q72.2988,83.4208,72.0398,83.8444C71.8867,84.0954,71.6525,84.2624,71.4122,84.4385Q71.1084,84.6619,70.9079,84.8576Q69.9578,85.7855,68.9541,86.6663C68.7287,86.8655,68.4959,87.0025,68.2443,87.1614Q68.0837,87.2627,68.0413,87.3939Q68.0145,87.4746,68.0364,87.4881Q68.0582,87.5015,68.1285,87.448C68.4996,87.1648,68.8906,86.9323,69.2318,86.6053C69.7174,86.139,70.2541,85.7464,70.7572,85.2939C71.0399,85.0395,71.3674,84.8254,71.6264,84.5536C72.1369,84.0194,72.7459,83.5635,73.3125,83.0685Q74.0932,82.3846,75.1181,81.8354Q75.6946,81.5268,76.2139,81.2379C76.91,80.851,77.5214,80.349,78.1689,79.8666Q78.6483,79.5097,79.1527,79.2622Q79.6869,78.9997,80.231,78.7533C80.4876,78.6382,80.5722,78.4114,80.8238,78.2824Q81.343,78.0165,81.8561,77.7367C82.1886,77.5548,82.4152,77.2727,82.7552,77.0862Q83.5509,76.6499,84.435,76.2527Q84.8273,76.0765,84.9119,75.7058C84.9308,75.6262,84.9896,75.5599,85.0701,75.5273Q85.3789,75.4042,85.7238,75.2787Q86.5743,74.969,87.4198,74.4025Q87.6502,74.2482,87.8295,74.17Q88.0489,74.074,88.0375,74.034Q88.0301,74.0079,87.9251,74.0055L89.3862,73.3313L90.0592,73.0207Q90.8821,72.7513,91.889,72.5915Q92.6175,72.4764,93.8702,72.5178Q94.2463,72.5293,94.4679,72.4119Q95.3371,71.9502,95.3894,71.1236Q95.4006,70.9543,95.4691,70.7885C95.496,70.7237,95.5252,70.6647,95.5534,70.608C95.6387,70.4361,95.7139,70.2846,95.682,70.0517Q95.5749,69.2849,95.3346,68.5481C95.1902,68.1083,95.1503,67.6973,95.0756,67.2575Q94.9461,66.5045,94.5153,65.8655C94.3571,65.6318,94.1168,65.4729,93.8914,65.2853Q93.8453,65.2461,93.8528,65.1897C93.9388,64.4593,93.7188,63.9122,93.4691,63.2915C93.4259,63.1842,93.382,63.0748,93.3385,62.9619C92.9612,61.981,92.275,61.205,91.4445,60.5154Q91.2216,60.3289,91.0248,60.0813C90.6151,59.5632,89.985,59.1856,89.269,58.7401C89.025,58.5881,88.9079,58.397,88.6975,58.2461Q87.8221,57.6152,86.8595,57.2802C86.258,57.0718,86.1223,56.4789,85.4897,56.2924Q85.1908,56.2049,84.8907,56.0333C84.8509,56.0108,84.8049,56,84.7587,56.0022C84.3677,56.0195,84.1487,55.8138,83.9392,55.617C83.8138,55.4992,83.6918,55.3846,83.5384,55.323Q83.2856,55.2217,83.0279,55.1296C82.7726,55.0374,82.6344,54.8774,82.328,54.8728Q82.2838,54.8722,82.2651,54.8518Q82.2465,54.8313,82.2533,54.7911L82.3156,54.418C82.3226,54.3747,82.2833,54.3372,82.2371,54.3432L82.206,54.3467C82.1134,54.3575,82.0339,54.4121,81.9968,54.4906L81.8025,54.905Q81.7764,54.9615,81.7091,54.9684Q80.952,55.0374,80.4303,55.5521Q80.373,55.6085,80.2958,55.5763Q80.0467,55.468,79.7454,55.5187C79.588,55.5464,79.4208,55.5102,79.2586,55.4751C79.2386,55.4708,79.2186,55.4665,79.1987,55.4623Q79.0244,55.4254,78.8003,55.4508C78.6831,55.464,78.5714,55.4583,78.4618,55.4526C78.3139,55.445,78.17,55.4376,78.022,55.4772Q77.6546,55.5774,77.2001,55.5129C77.0028,55.4843,76.8167,55.4988,76.625,55.5137C76.5699,55.5179,76.5144,55.5223,76.4579,55.5256Q76.3994,55.5291,76.3521,55.5601L76.1267,55.7018C76.0779,55.7325,76.0146,55.7354,75.9628,55.7092C75.911,55.6829,75.8795,55.632,75.8814,55.5774Q75.8901,55.3345,76.1429,55.1687C76.1688,55.1512,76.1845,55.1235,76.1852,55.0939L76.1852,55.0294C76.185,55.0088,76.1714,54.9904,76.1509,54.983C76.1305,54.9756,76.1073,54.9808,76.0931,54.996L75.6735,55.4346Q75.6261,55.4853,75.651,55.5475L75.7021,55.6787Q75.7183,55.7215,75.7019,55.7422Q75.6857,55.7628,75.6373,55.7616C75.5693,55.7601,75.5056,55.7558,75.4436,55.7516C75.2774,55.7405,75.124,55.7302,74.9363,55.7754Q74.7868,55.8111,74.6262,55.81Q74.5241,55.81,74.5042,55.7179L74.4755,55.5901Q74.4499,55.4747,74.3978,55.4634Q74.3459,55.4521,74.2676,55.544Q74.0708,55.7777,73.7209,55.8756Q73.2141,55.97,72.9389,56.2164Q71.868,56.3638,70.8755,56.7402Q70.7248,56.7966,70.4957,56.8519Q70.2977,56.9003,70.0985,56.982C69.6141,57.1812,69.1272,57.2952,68.6515,57.507Q67.7475,57.9088,66.3515,58.5984Q65.9742,58.7838,65.587,59.021C64.9618,59.4044,64.3081,59.7832,63.7477,60.1826Q62.1314,61.3351,60.9584,62.3828Q60.6657,62.6453,60.3557,63.0045Q60.0718,63.3315,59.7331,63.6239Q59.0606,64.2042,58.4853,64.7948Q58.3969,64.8858,58.2799,64.9525Q58.1142,65.047,58.1578,65.2323Q58.1728,65.2956,58.1416,65.3532Q58.0682,65.4891,57.9088,65.6307Q57.8565,65.6767,57.8689,65.7573Q57.8746,65.7947,57.8953,65.8042Q57.9155,65.8135,57.9499,65.7965C58.1765,65.6848,58.2873,65.4752,58.3384,65.253Q58.377,65.0815,58.4828,64.9698Q58.6995,64.7384,58.9162,64.5346Q58.9672,64.4874,59.0332,64.5116L59.0806,64.5289Q59.1441,64.553,59.1976,64.5151Q60.2436,63.7828,61.1178,62.8802C61.2323,62.7604,61.4179,62.6741,61.5287,62.5302Q61.7105,62.2988,61.7852,62.2389Q62.2011,61.905,62.6469,61.608Q62.8673,61.4629,63.2148,61.0208Q63.3493,60.8493,63.5497,60.733Q63.754,60.6156,63.9059,60.4659Q64.1275,60.2483,64.3903,60.1032Q65.049,59.7394,65.7289,59.2754Q66.2308,58.9323,66.7637,58.7239Q67.2905,58.5179,67.7487,58.3026Q68.786,57.8167,69.7423,57.3873C69.8992,57.317,70.0786,57.3032,70.2479,57.2814Q70.4322,57.256,70.619,57.1835Q71.4197,56.8715,72.2802,56.7379Q72.3461,56.7287,72.3997,56.6919Q72.7571,56.4443,73.1817,56.4881Q73.224,56.4927,73.2299,56.5088Q73.2359,56.5249,73.2054,56.5526Q72.9102,56.822,72.6326,56.8231C72.0199,56.8266,71.4944,57.0845,70.9353,57.3055C70.7062,57.3965,70.4658,57.3953,70.233,57.492Q69.4609,57.8121,68.6689,58.0907C68.3452,58.2059,68.0525,58.3521,67.7599,58.5029Q67.5943,58.5869,67.0713,58.808Q66.6653,58.9784,66.3017,59.2248C66.0402,59.4021,65.7463,59.4838,65.4749,59.6807Q64.9967,60.0261,64.5048,60.3565Q64.455,60.391,64.3928,60.4026Q64.2421,60.4302,64.1412,60.5361Q64.0976,60.5822,64.1412,60.6271Q64.1724,60.6593,64.216,60.6685C64.2393,60.6738,64.2571,60.6913,64.2614,60.7132C64.2657,60.7351,64.2557,60.7573,64.2359,60.7698Q63.8723,61.0035,63.4402,61.266C62.9433,61.5677,62.5311,62.0271,62.0168,62.3794C61.5847,62.6741,61.2822,63.0529,60.875,63.3845C60.6695,63.5514,60.4952,63.8312,60.3258,63.9474Q59.3906,64.5922,58.6958,65.4499Q58.4044,65.8103,58.2736,65.9565C57.8913,66.3813,57.5389,66.7463,57.265,67.2471C57.0956,67.558,56.7532,67.7848,56.5253,68.0726Q56.2426,68.4306,55.9811,68.7058C55.8242,68.8705,55.8205,69.0662,55.5764,69.1894Q55.5229,69.2159,55.4905,69.2654C55.4133,69.3828,55.3498,69.5244,55.2626,69.628Q54.5479,70.4719,53.9638,71.2687C53.5965,71.7683,53.0996,72.3302,52.7149,72.9024C52.5878,73.09,52.4434,73.2328,52.2853,73.3894Q52.1607,73.5149,52.0163,73.4089Q51.5045,73.0348,50.9914,72.6088Q50.7162,72.3808,49.9268,71.9548C49.2967,71.6152,48.7064,71.1973,48.1124,70.7828Q47.7027,70.4973,47.3342,70.2946Q44.8661,68.9349,41.9049,67.9563Q41.7841,67.916,40.9734,67.7203C40.5077,67.6086,40.0993,67.3841,39.6261,67.3001Q39.5893,67.2936,39.5758,67.2737Q39.5628,67.2545,39.5713,67.2229C39.6398,66.9604,39.9025,66.9363,40.1391,67.0076C40.2732,67.0475,40.4196,67.0039,40.5027,66.8994Q40.6821,66.6726,40.9224,66.5241C41.3072,66.2858,41.4753,66.1407,41.7355,65.8817C41.8999,65.7182,42.1253,65.6249,42.2909,65.4418C42.5026,65.2081,42.647,65.0919,42.8637,64.9261Q42.8862,64.8639,42.8737,64.8213Q42.8563,64.7626,42.7915,64.7706Q42.6595,64.7868,42.5661,64.7545C42.5414,64.746,42.5244,64.725,42.5225,64.7007C42.5207,64.6764,42.5343,64.6534,42.5574,64.6417Q42.5879,64.6259,42.6168,64.611Q42.6349,64.6096,42.654,64.6069Q42.7138,64.5984,42.7299,64.6605Q42.7414,64.7055,42.7207,64.7712C42.8576,64.6678,42.9439,64.5412,43.0923,64.4463Q43.2093,64.373,43.3052,64.2741Q43.3979,64.2412,43.4951,64.2272Q43.6457,64.2053,43.718,64.0637C43.7349,64.0294,43.7388,63.9909,43.7292,63.9544Q43.7198,63.9202,43.7156,63.8875Q44.0239,63.662,44.2383,63.3342C44.2648,63.2934,44.2912,63.2609,44.3188,63.2343Q44.3899,63.1883,44.4602,63.1438C44.4884,63.1319,44.5188,63.1212,44.5524,63.1104Q44.5437,63.1034,44.5358,63.0963Q44.5561,63.0836,44.5759,63.0713C44.6097,63.05,44.6539,63.0491,44.6887,63.069C44.7234,63.0889,44.7422,63.126,44.7366,63.1634Q44.7216,63.267,44.8462,63.3545C45.1251,63.2808,45.1276,62.9619,45.338,62.7915Q45.8424,62.3828,46.4052,61.8072C46.6343,61.5723,46.9369,61.4387,47.1486,61.1809Q47.3254,60.9679,47.4936,60.748C47.6978,60.4797,47.9804,60.2932,48.2146,60.0365C48.3167,59.9236,48.3565,59.7659,48.4636,59.6358Q48.5034,59.5886,48.5645,59.5702L48.9629,59.4516Q49.0352,59.4297,49.0476,59.3595L49.1074,59.0083C49.1106,58.9888,49.1197,58.9704,49.1335,58.9554Q49.2033,58.8794,49.3054,58.8333Q49.4237,58.7792,49.5345,58.7055Q50.1671,58.2795,50.8433,57.9146C51.2766,57.6797,51.3277,57.545,51.5244,57.2169C51.705,56.9141,52.0312,56.7506,52.2504,56.4593Q52.4571,56.1865,52.7622,56.0045C52.9652,55.7409,53.1532,55.7317,53.4147,55.6097Q53.4882,55.5751,53.5728,55.4588Q53.731,55.2424,53.9526,55.2228Q54.4171,54.8049,54.9688,54.5792Q55.2788,54.4514,55.493,54.2925Q55.8404,54.0347,56.2987,53.8643Q56.7432,53.6996,57.0695,53.4394C57.2837,53.2679,57.5153,53.2782,57.7394,53.0733Q58.3944,52.4746,59.1017,51.8782Q59.0569,51.7723,58.8091,51.8449C58.7832,51.8528,58.7546,51.8489,58.7319,51.8345Q58.6593,51.7898,58.6593,51.7451Q58.6593,51.7,58.7331,51.6549Q59.0307,51.4753,59.2972,51.3613Q59.5214,51.2335,59.7318,51.1138Q59.9186,51.009,60.1863,50.9042C60.9908,50.5911,61.6507,50.1697,62.241,49.533Q62.7204,49.0161,63.3642,48.4727C63.8212,48.0858,64.4214,47.7485,64.9232,47.3536Q65.6754,46.7607,66.0639,46.4993Q67.0638,45.8269,68.1696,45.013Q68.8881,44.4834,70.3214,43.8121Q70.3874,43.7822,70.4559,43.8052Q70.8294,43.933,71.2902,43.7983C71.4162,43.7614,71.4713,43.6253,71.4023,43.522C71.3076,43.3804,71.2217,43.2192,71.2192,43.0431Q71.208,42.472,70.8656,41.7628Q70.5518,41.1146,70.2429,40.547Q69.9627,40.0324,69.9764,39.664Q70.0038,38.9479,69.8494,38.6761Q69.2383,37.5997,68.6981,36.4667L68.7011,36.4641C68.6989,36.4623,68.6966,36.4605,68.6943,36.4587L68.6889,36.4472Q68.6867,36.4491,68.6847,36.4508C68.3699,36.1882,68.4005,35.8197,68.3664,35.4523Q68.3616,35.3988,68.4047,35.3627L68.5111,35.2698Q68.5577,35.2305,68.5326,35.1769L68.3066,34.6918Q68.2863,34.6492,68.2481,34.6186Q67.9719,34.4055,67.8559,34.0646Q67.8332,33.9969,67.8667,33.9739Q67.9038,33.9488,67.991,33.9564L67.9058,33.9383L68.3612,33.8332Q68.3963,33.83,68.4174,33.8225Q68.4268,33.8192,68.4365,33.8159L68.9384,33.7L68.9605,33.6796Q69.2154,33.6353,69.47,33.6337Q69.7788,33.6315,70.0285,33.5404Q70.7657,33.2702,71.6777,33.052Q71.7802,33.0271,71.9366,32.8969Q71.9826,32.8578,72.047,32.8513Q72.4714,32.81,72.6199,33.1356Q72.6541,33.2094,72.7434,33.2354L73.2783,33.3906C73.3202,33.4023,73.349,33.4343,73.3505,33.4709Q73.3528,33.5218,73.3264,33.5481Q73.2919,33.5825,73.2086,33.5751C72.9432,33.5523,72.7474,33.5599,72.6987,33.2951C72.6919,33.2607,72.6711,33.229,72.6396,33.205Q72.3452,32.9793,72.0075,33.1237Q70.9536,33.574,69.8563,33.944Q69.7447,33.982,69.6868,34.0732Q69.6708,34.0987,69.6785,34.1091Q69.6872,34.1208,69.7263,34.1133Q70.2795,34.0026,70.859,33.7954Q71.0785,33.7172,71.4503,33.8236Q71.5305,33.8475,71.608,33.8182Q71.8603,33.7238,72.1455,33.7259Q72.2204,33.7259,72.2756,33.7672Q72.5305,33.9549,72.8407,33.8377Q73.3019,33.6652,73.6712,33.6131Q73.7652,33.6001,73.8906,33.5161L74.1351,33.5913C73.757,33.7256,73.4384,33.954,73.0642,34.1302C73.0221,34.1508,72.9976,34.1928,73.0023,34.2365C73.0069,34.2803,73.0398,34.3171,73.0855,34.3298Q73.3927,34.4117,73.5493,34.1486C73.5684,34.1163,73.6055,34.0964,73.6457,34.0971C73.686,34.0978,73.7226,34.1189,73.7411,34.1521Q73.8176,34.2905,73.7725,34.4601C73.76,34.5078,73.7862,34.5571,73.8351,34.5778Q74.0156,34.654,74.1723,34.5524Q74.7803,34.1567,75.4622,33.9871C75.5846,33.9564,75.6784,33.9641,75.7777,33.9723C75.839,33.9773,75.9025,33.9825,75.9761,33.979Q76.1194,33.9722,76.1793,33.9035Q76.241,33.8327,76.2143,33.6964C76.2089,33.6691,76.189,33.6464,76.1617,33.6364Q76.1378,33.6271,76.124,33.6087Q75.9966,33.4451,75.8617,33.2776L75.9298,33.2567L76.2363,33.6345C76.2631,33.6669,76.2995,33.6913,76.3409,33.7048Q76.4119,33.7286,76.4328,33.7727Q76.4533,33.8159,76.4256,33.8786Q76.3658,34.0133,76.3309,34.1492Q76.316,34.209,76.2512,34.2056Q76.0931,34.1998,75.9648,34.1123C75.9331,34.0903,75.893,34.0816,75.854,34.0882Q75.5925,34.1342,75.3596,34.2447Q74.9898,34.4209,74.9761,34.4266C74.747,34.5211,74.422,34.6132,74.2912,34.8215Q74.2519,34.8838,74.2695,34.9039Q74.2869,34.924,74.361,34.9021L76.0869,34.3829Q76.1058,34.3776,76.1174,34.3839Q76.1286,34.39,76.1329,34.4071Q76.1404,34.4359,76.1292,34.4669C76.1235,34.4819,76.1126,34.4948,76.0981,34.5038Q75.7644,34.7202,75.4418,34.9758C75.189,35.1773,74.9487,35.2763,74.6548,35.3926C74.6188,35.4075,74.6088,35.4504,74.6349,35.4778L74.6611,35.5043C74.7027,35.5471,74.7697,35.5605,74.8279,35.5377Q75.3895,35.3155,75.9835,35.0956Q76.1902,35.0196,76.4032,34.9493Q76.6148,34.8803,76.8079,34.764C76.9174,34.6972,77.0619,34.6569,77.1615,34.7317C77.1949,34.7567,77.2101,34.797,77.2009,34.8357C77.1917,34.8745,77.1596,34.9051,77.1179,34.9148Q76.3945,35.0864,75.8104,35.4893C75.5576,35.6655,75.3273,35.715,75.0421,35.7909Q74.7395,35.8704,74.4544,36.0005Q73.9064,36.2515,73.3461,36.4449C73.2265,36.4863,73.1269,36.5612,73.0173,36.6084Q72.9021,36.6568,72.9078,36.6812Q72.9134,36.7057,73.0397,36.7062L73.112,36.7062Q73.1493,36.7051,73.1842,36.6913Q73.4818,36.5635,73.7545,36.4127Q73.9276,36.3183,74.1231,36.2964Q74.3174,36.2757,74.4755,36.1939Q74.7109,36.0742,75.0072,35.9763C75.3036,35.8784,75.5651,35.7242,75.8615,35.6424Q76.321,35.5146,76.758,35.3327Q76.768,35.3281,77.1466,35.1209Q77.4093,34.977,77.8215,34.8941Q78.4553,34.7686,78.9111,34.2459C79.0241,34.2013,79.1282,34.1501,79.2292,34.1003C79.4912,33.9713,79.7334,33.852,80.0604,33.8844C80.0834,33.8867,80.1053,33.8828,80.1243,33.8744L80.3307,33.9697L80.4714,33.9697C80.4673,33.98,80.4607,33.9897,80.452,33.9979C80.4284,34.0199,80.3932,34.0272,80.3618,34.0168Q80.2398,33.9753,80.1152,34.0122Q79.7753,34.1123,79.4665,34.1952Q79.3942,34.2148,79.3668,34.2793Q79.2466,34.5601,79.3392,34.6464Q79.3779,34.6825,79.454,34.6845L81.2995,34.0421L81.4199,33.9697L81.4992,33.9697L81.5664,34.0316C81.5285,34.0482,81.4951,34.0749,81.4713,34.1112Q81.4663,34.1192,81.4028,34.1987Q81.363,34.247,81.3655,34.2965L81.4028,34.4762Q81.4153,34.5395,81.4775,34.566L81.81,34.7087C81.8704,34.7347,81.8799,34.8102,81.8275,34.8469C81.5186,35.0691,81.2995,34.6811,81.226,34.46Q81.2173,34.4324,81.1874,34.4266Q81.1687,34.4232,81.1525,34.414Q80.7279,34.4888,80.5971,34.597C80.3879,34.7697,80.2124,34.9044,79.9421,35.0081Q79.1302,35.3201,78.337,35.6689Q78.0108,35.8128,77.687,36.0074Q77.6403,36.0356,77.6447,36.0465Q77.649,36.0575,77.7044,36.0511Q78.2773,35.989,78.728,35.7058C78.9447,35.5688,79.2149,35.601,79.449,35.4928Q79.5984,35.4225,79.7442,35.35C79.7681,35.3379,79.7974,35.339,79.8202,35.3531C79.8429,35.3671,79.8554,35.3916,79.8525,35.4168Q79.84,35.5215,79.7442,35.6217Q79.7459,35.6346,79.7482,35.6462Q79.7087,35.7065,79.6438,35.7214C79.1227,35.8453,78.6842,35.9811,78.3845,36.3767Q78.2615,36.5386,78.2921,36.569Q78.3199,36.5967,78.4745,36.5159ZM19.9114,22.618C20.2098,22.7867,20.4816,22.9402,20.8752,22.8525Q20.96,22.8335,20.9658,22.802Q20.9716,22.7707,20.8989,22.727Q20.6423,22.5727,20.4244,22.4127Q20.2906,22.3149,20.3083,22.2763Q20.326,22.2377,20.4954,22.2584Q20.7469,22.2884,21.0147,22.3966Q22.2026,22.8778,23.4006,23.2796C23.9696,23.4708,24.5175,23.7736,25.0866,24.0176C25.2311,24.0786,25.3531,24.1995,25.3469,24.3412C25.3435,24.4334,25.4141,24.514,25.5125,24.53Q25.7678,24.5714,25.9994,24.6923Q26.6519,25.0354,27.216,25.4717Q27.5896,25.7607,28.0067,25.9449Q28.6791,26.242,29.4275,26.6035Q29.7799,26.7727,30.425,26.7624Q30.8073,26.7554,31.1871,26.7601Q31.5955,26.7647,32.0264,26.661Q32.8158,26.4722,33.5431,26.3018C33.5923,26.2899,33.6407,26.3238,33.6414,26.3709Q33.6414,26.4078,33.6178,26.4331Q33.5169,26.5425,33.4048,26.5793Q31.9927,27.0502,30.7512,27.5522Q29.7563,27.9551,28.5982,28.3938C27.2882,28.8888,25.9944,29.5128,24.7952,30.0436Q23.865,30.4558,23.1191,30.853Q21.5265,31.7003,20.0309,32.5178Q19.6374,32.7319,19.2726,32.9944Q17.9688,33.9293,16.731,34.7732C16.1582,35.1646,15.6514,35.6827,15.172,36.0753C14.6315,36.5174,14.1621,36.9745,13.649,37.412Q13.5532,37.4926,13.4286,37.5525C13.4047,37.5635,13.3763,37.5618,13.3543,37.5482C13.3323,37.5345,13.3202,37.511,13.3228,37.4868Q13.3713,36.9918,13.5195,36.552C13.5619,36.4261,13.5572,36.3101,13.5526,36.1962C13.5478,36.0756,13.543,35.9573,13.5942,35.8324Q13.7823,35.3765,13.7972,34.8918C13.8018,34.7483,13.8634,34.6252,13.9238,34.5046C13.9943,34.3638,14.063,34.2264,14.0376,34.064Q14.0064,33.8648,13.9566,33.6725Q13.9429,33.6173,13.9653,33.5643C14.0899,33.2673,14.1583,32.9553,14.2941,32.679Q14.7038,31.8443,15.0761,30.9957C15.1608,30.8023,15.3463,30.6964,15.4011,30.5099C15.6215,29.7696,15.7996,29.0005,16.0997,28.312C16.4932,27.4071,16.8319,26.5344,17.3287,25.6341Q17.9725,24.4678,18.6014,23.3948Q18.9401,22.8168,19.5839,23.0045Q19.7047,23.0396,19.733,23.0068Q19.7613,22.9739,19.6972,22.8732L19.5278,22.6073Q19.4942,22.5543,19.5415,22.5106Q19.6038,22.453,19.6959,22.5002C19.7705,22.5384,19.8417,22.5786,19.9114,22.618ZM78.057,33.8166L78.1943,34.07Q77.8642,34.0481,77.4815,34.1112Q77.0532,34.1814,76.7307,34.3817Q76.6584,34.4266,76.58,34.3933L76.514,34.3633C76.4918,34.3538,76.4775,34.3333,76.4772,34.3107C76.477,34.2881,76.4908,34.2674,76.5127,34.2574Q76.8627,34.0951,77.2923,33.9995Q77.6871,33.9119,78.057,33.8166ZM57.6348,52.462L58.0482,52.3226C58.0613,52.318,58.076,52.3243,58.0806,52.3365L58.0831,52.3422C58.1168,52.4282,58.0511,52.5292,57.9362,52.5679L57.8913,52.5829C57.7767,52.6212,57.6566,52.5832,57.6224,52.4977L57.6199,52.4907C57.6157,52.479,57.6223,52.4663,57.6348,52.462ZM56.3502,53.3728C56.4623,53.2761,56.586,53.2301,56.6263,53.2701C56.6666,53.3101,56.6084,53.4209,56.4962,53.5176C56.3841,53.6143,56.2605,53.6603,56.2201,53.6203C56.1798,53.5803,56.238,53.4695,56.3502,53.3728ZM66.4089,61.2146C66.6292,61.2004,66.8132,61.2619,66.82,61.3519C66.8268,61.442,66.6538,61.5266,66.4336,61.5408C66.2134,61.555,66.0293,61.4936,66.0225,61.4035C66.0157,61.3134,66.1887,61.2289,66.4089,61.2146ZM58.4006,67.3807Q58.1591,67.7399,57.9125,68.0876Q57.8925,68.1159,57.8998,68.1245Q57.907,68.133,57.9412,68.1221Q58.4617,67.9575,58.6646,67.6731Q58.7082,67.6109,58.778,67.6489Q58.9224,67.7272,59.1017,67.7583Q59.1702,67.7698,59.2175,67.7215Q59.3097,67.6282,59.2163,67.5257Q59.0955,67.3933,58.9336,67.2655C58.8614,67.2078,58.848,67.1089,58.9025,67.0364Q59.4043,66.3744,60.3183,66.09C60.4091,66.0623,60.4824,65.9988,60.5188,65.9162L60.7193,65.4672C60.7378,65.4266,60.7816,65.4008,60.829,65.4026C60.8763,65.4044,60.9172,65.4335,60.931,65.4752L60.9945,65.6606C61.0171,65.725,61.0982,65.7535,61.1614,65.7193Q61.7143,65.4188,62.0019,64.9514C62.0302,64.9051,62.0744,64.8686,62.1277,64.8478Q62.6108,64.6567,63.0504,64.4575Q63.363,64.3147,63.5572,63.9544Q63.6282,63.822,63.8112,63.8104Q63.8489,63.8082,63.8624,63.8237Q63.8761,63.8395,63.8648,63.8738L63.8262,63.9935Q63.8063,64.0545,63.871,64.0729Q63.9756,64.104,64.0628,64.0407C64.2446,63.9072,64.4301,63.7057,64.6779,63.5779C65.2669,63.2762,65.8634,62.9285,66.4761,62.7144Q66.9443,62.5509,67.344,62.3494Q67.4888,62.2765,67.5279,62.3096Q67.567,62.3428,67.4997,62.483Q67.3502,62.7915,66.9094,62.7305Q66.8235,62.7178,66.7998,62.7961L66.7575,62.9366Q66.7406,62.9932,66.7616,63.0104Q66.7825,63.0275,66.8409,63.0057Q67.4698,62.772,67.9865,62.4623C68.0109,62.4475,68.0247,62.4216,68.0223,62.3947C68.02,62.3678,68.002,62.3443,67.9753,62.3333L67.8334,62.2757C67.7663,62.2479,67.7206,62.189,67.7136,62.1213C67.7066,62.0537,67.7395,61.9878,67.7998,61.9488Q67.9703,61.8382,68.1248,61.7565C68.3365,61.6437,68.6104,61.5999,68.8495,61.4813Q68.9105,61.4503,68.9815,61.4537Q69.1372,61.4618,69.2754,61.4226Q69.3555,61.3991,69.3996,61.4259Q69.4441,61.4529,69.4522,61.5308Q69.4644,61.6461,69.53,61.6855Q69.5922,61.7229,69.7025,61.692Q70.2006,61.5516,70.6626,61.4295Q70.7021,61.4193,70.7211,61.433Q70.7404,61.4471,70.7385,61.4859Q70.7348,61.5493,70.685,61.5988Q70.5859,61.699,70.6097,61.7442Q70.6334,61.7893,70.7796,61.7795Q71.0386,61.7611,71.2765,61.6598C71.4398,61.5904,71.5675,61.5895,71.7035,61.5885C71.7864,61.5879,71.8723,61.5873,71.9713,61.5711Q72.5802,61.4744,73.1269,61.3512Q73.5802,61.2499,73.9936,61.2534C74.0939,61.2546,74.1941,61.255,74.2941,61.2554C74.764,61.2573,75.2312,61.2591,75.6983,61.3455C76.1491,61.4284,76.6622,61.38,77.0893,61.5688C77.148,61.5943,77.1651,61.664,77.1242,61.7105Q76.3172,62.6315,75.5601,63.5571Q75.0894,64.1328,74.5789,64.7211Q73.955,65.4396,73.2838,66.318Q72.5653,67.2586,71.416,68.4019C71.2665,68.5504,71.1432,68.7208,70.9988,68.8739Q70.2516,69.6637,69.4161,70.5134Q68.6926,71.2479,68.0065,71.9157Q67.4324,72.4752,66.5968,73.3203Q64.4189,75.5204,61.6893,77.7321C60.8438,78.4183,60.1826,79.2392,59.3383,79.9369Q59.1329,80.1061,59.0183,80.2731C58.8489,80.5229,58.7319,80.8303,58.3932,80.9247Q58.113,81.0018,57.986,80.752Q57.0608,78.9318,56.0197,77.6884Q55.2987,76.8272,54.1469,75.5573Q53.7845,75.1566,53.5579,74.5407Q53.538,74.4866,53.5616,74.4324Q53.6513,74.2275,53.736,74.0272C53.9439,73.5367,54.3412,73.0866,54.7135,72.6353Q54.8691,72.4464,54.7894,72.1586Q54.767,72.0746,54.6774,72.0481L54.6276,72.0343Q54.5867,72.0222,54.5692,72.0358Q54.5516,72.0496,54.5578,72.0895C54.5865,72.2853,54.5753,72.4315,54.442,72.6042Q54.2365,72.8724,54.0784,73.1672C53.9601,73.3905,53.7845,73.5321,53.6363,73.7198Q53.5598,73.8176,53.5339,73.8073Q53.5081,73.797,53.533,73.6784Q53.6015,73.3456,53.7322,72.9403Q53.7621,72.846,53.8954,72.7596C54.1469,72.5927,54.3299,72.3532,54.3611,72.0861Q54.3673,72.0262,54.4296,72.0101Q54.5491,71.9813,54.5342,71.857Q54.5267,71.789,54.5665,71.7315Q54.7222,71.5058,54.8542,71.2721C55.0173,70.9866,55.3124,70.8795,55.4706,70.5997C55.5403,70.4777,55.5876,70.3603,55.6736,70.2497Q56.1729,69.6039,56.6361,68.9234C56.9537,68.4594,57.3596,68.0185,57.7021,67.5476C57.8789,67.3047,58.1578,67.2298,58.3035,66.9846C58.7194,66.2881,59.1976,65.8563,59.7978,65.3348Q60.1627,65.0182,60.6633,64.9767C60.7119,64.9722,60.7568,65.0023,60.7679,65.047Q60.7741,65.0769,60.7629,65.1057Q60.7417,65.1644,60.6757,65.1529Q60.4889,65.1218,60.4416,65.2933C60.4297,65.3356,60.421,65.3807,60.4123,65.4259C60.3756,65.6169,60.3385,65.8094,60.0556,65.8011Q59.9858,65.7988,59.9335,65.8425Q59.7331,66.0152,59.5176,66.1637C59.2038,66.3813,59.0432,66.6887,58.8751,66.9892Q58.8465,67.0399,58.7917,67.0652Q58.5351,67.1792,58.4006,67.3807ZM65.5686,61.9813Q65.5714,61.9856,65.5633,61.996Q65.3267,62.3126,64.9643,62.521Q64.4264,62.8295,63.9694,63.1841Q63.8038,63.3108,63.6083,63.4052C63.1886,63.6078,63.0217,63.9797,62.5971,64.1708Q62.5076,64.2116,62.4904,64.1936Q62.4731,64.1755,62.5286,64.0983Q62.7752,63.7563,63.0541,63.571C63.4277,63.3211,63.7066,63.0011,64.1064,62.803C64.6617,62.5279,65.0042,62.2573,65.4886,61.9799Q65.5023,61.973,65.5185,61.9753Q65.5434,61.9799,65.5521,61.9787Q65.5658,61.977,65.5686,61.9813ZM62.0903,64.0246C61.8861,64.2169,61.6296,64.3147,61.3643,64.393Q61.2025,64.4402,61.1813,64.5956Q61.1626,64.7292,61.0319,64.7971C61.001,64.8127,60.9627,64.8035,60.9447,64.7764Q60.9285,64.7511,60.9198,64.7211Q60.8886,64.6187,60.9646,64.5381C61.2622,64.2226,61.6632,64.0994,61.9832,63.8266Q62.3481,63.5157,62.7578,63.2175Q62.7813,63.201,62.7971,63.2059Q62.8121,63.2106,62.82,63.2348L62.835,63.2797Q62.8437,63.3039,62.825,63.3234Q62.4539,63.6838,62.0903,64.0246ZM62.1983,64.3737Q62.2136,64.3993,62.1426,64.469Q61.9297,64.6751,61.6756,64.8086C61.6312,64.8318,61.5966,64.8679,61.5773,64.9111Q61.4615,65.1621,61.2299,65.2404C61.1882,65.2548,61.1416,65.2379,61.1215,65.2012Q61.1128,65.1863,61.1116,65.1713Q61.1003,65.0608,61.1788,65.0032Q61.4017,64.8397,61.5611,64.789Q61.6346,64.766,61.6582,64.6981Q61.7528,64.4252,62.0816,64.3665Q62.183,64.3481,62.1983,64.3737ZM56.554,68.2718C56.7133,68.0979,56.8491,67.8124,57.0682,67.703C57.1101,67.6821,57.1374,67.643,57.1405,67.5994Q57.1454,67.5246,57.199,67.4751C57.3086,67.3749,57.3995,67.3887,57.4742,67.2437Q57.529,67.1354,57.5962,67.0456Q57.9175,66.6173,58.2624,66.3019Q58.6796,65.9185,59.0594,65.4776Q59.4205,65.0573,59.8713,64.6555Q59.9908,64.5484,60.149,64.5012Q60.1956,64.4869,60.2053,64.4986Q60.215,64.5104,60.1876,64.5484Q59.8489,65.0101,59.4467,65.4039C59.1067,65.7354,58.8315,66.1603,58.4579,66.4516Q58.3272,66.554,58.2599,66.7037C58.2437,66.7405,58.2164,66.7717,58.1815,66.7935C58.0321,66.8845,57.9362,66.9489,57.8615,67.1124Q57.7793,67.2909,57.6498,67.4428Q57.6124,67.4866,57.6024,67.5418Q57.5663,67.7514,57.3522,67.8354Q57.2949,67.8585,57.2637,67.9068Q57.0969,68.1636,56.8864,68.3846C56.7059,68.5723,56.6137,68.7807,56.4518,68.9683Q55.7657,69.7616,55.2203,70.579C55.0372,70.853,54.8206,71.0729,54.6338,71.34C54.4906,71.5461,54.2353,71.6693,54.1979,71.9145C54.1925,71.9521,54.1652,71.9836,54.127,71.9963Q54.0684,72.0147,54.0087,72.0055C53.9544,71.9972,53.9232,71.9435,53.9452,71.8961Q54.1867,71.3884,54.6525,71.0131Q54.6998,70.9762,54.721,70.9221C54.9451,70.3729,55.3735,69.8974,55.7147,69.4058C55.8678,69.1836,56.1019,68.9315,56.2613,68.6621Q56.3809,68.4606,56.554,68.2718ZM41.9497,65.4983Q41.931,65.5938,41.8451,65.6445Q41.819,65.6606,41.8053,65.6859Q41.7816,65.732,41.7044,65.7872Q41.3682,66.0302,40.9585,66.1568Q40.8105,66.2022,40.7852,66.1687Q40.7598,66.1351,40.8576,66.0221Q41.1403,65.694,41.545,65.5213Q41.7119,65.4499,41.8339,65.344Q41.8763,65.306,41.8837,65.2519Q41.9003,65.1187,41.9805,65.0615Q42.057,65.007,42.1913,65.0216C42.2575,65.0286,42.2974,65.0932,42.271,65.1506Q42.1925,65.3164,42.012,65.4154Q41.9597,65.443,41.9497,65.4983ZM40.6409,66.5998C40.5515,66.7055,40.4251,66.7521,40.3584,66.704C40.2918,66.6558,40.3101,66.5311,40.3995,66.4254C40.4888,66.3197,40.6153,66.273,40.6819,66.3211C40.7486,66.3693,40.7302,66.494,40.6409,66.5998ZM57.1007,66.7716C57.0681,66.8141,57.0659,66.8643,57.0956,66.8838C57.1253,66.9032,57.1758,66.8845,57.2083,66.842C57.2408,66.7995,57.2431,66.7493,57.2134,66.7298C57.1837,66.7104,57.1332,66.7291,57.1007,66.7716ZM56.6998,69.9317C56.9233,69.7169,56.9468,69.4504,57.1748,69.2356Q57.3771,69.0456,57.433,68.7564Q57.4374,68.7321,57.4293,68.7277Q57.4212,68.7234,57.4005,68.7388L57.2351,68.8617Q57.1904,68.8948,57.1759,68.9464Q57.0697,69.2997,56.9032,69.4928Q56.4964,69.9617,56.0885,70.4864Q56.0818,70.4936,55.7342,70.8985Q55.4403,71.2403,55.2883,71.6679Q55.2849,71.6783,55.295,71.6813L55.324,71.6917Q55.343,71.6979,55.352,71.6813Q55.6627,71.0627,55.9398,70.7797Q56.1611,70.5545,56.3098,70.3655Q56.4953,70.129,56.6998,69.9317ZM55.1381,69.0274C55.0797,69.0865,55.0595,69.1572,55.0929,69.1856C55.1263,69.2138,55.2009,69.1889,55.2593,69.1299C55.3177,69.0708,55.3379,69,55.3045,68.9717C55.2711,68.9434,55.1965,68.9684,55.1381,69.0274ZM53.6139,72.8436Q53.4483,72.9058,53.3512,73.0071Q53.2914,73.0693,53.2665,73.1499Q53.2441,73.2236,53.1818,73.2731Q53.1549,73.2945,53.1317,73.2915Q53.1089,73.2885,53.0897,73.2616Q53.0374,73.189,53.0909,73.1142C53.2678,72.8667,53.4657,72.4649,53.7384,72.3152C53.7553,72.3064,53.7757,72.3065,53.7923,72.3153C53.8087,72.3241,53.8186,72.3404,53.8181,72.3578Q53.8169,72.5719,53.7272,72.7458Q53.6911,72.8149,53.6139,72.8436ZM47.0652,81.3576Q47.1088,81.2897,47.0764,81.1849Q47.0627,81.1377,46.9955,81.1285C46.9628,81.1235,46.9305,81.1384,46.9158,81.1653Q46.2284,82.3466,45.4015,83.4311C45.1052,83.8191,44.8723,84.252,44.632,84.6791C44.4414,85.0199,44.1588,85.386,43.9745,85.766C43.7366,86.2622,43.4241,86.6133,43.0704,86.9714C42.9615,87.0824,42.8028,87.1395,42.6421,87.1257Q41.677,87.0416,40.7107,87.0313L40.6674,87.0307C40.2674,87.026,39.824,87.0207,39.4804,87.2374Q38.9761,87.554,38.61,87.9362C38.3236,88.2344,38.3597,88.6258,38.1019,88.9401Q37.9799,89.0887,37.8491,89.2188Q37.7308,89.3362,37.5665,89.2821L37.4706,89.2499Q37.3897,89.2234,37.3787,89.1814Q37.3678,89.1394,37.427,89.0817Q38.1156,88.4186,37.9637,87.653C37.8354,87.0071,37.3685,86.4429,37.1692,85.8328C37.0961,85.6087,37.1682,85.3954,37.2398,85.1835C37.3158,84.9589,37.3912,84.7358,37.2925,84.503C37.0833,84.0114,37.2128,83.4611,37.0522,82.951Q36.8654,82.3604,36.5068,81.6109Q36.3586,81.3012,36.2938,80.6921C36.2693,80.4686,36.3773,80.3007,36.4905,80.1249C36.498,80.1133,36.5055,80.1017,36.513,80.09C36.529,80.0656,36.5289,80.0349,36.5126,80.0105C36.4963,79.9863,36.4666,79.9725,36.4358,79.9749L35.5629,80.0347C35.5443,80.0362,35.5265,80.028,35.5165,80.0135C35.5065,79.999,35.5062,79.9805,35.5155,79.9657L35.8069,79.481C35.8708,79.3745,35.8363,79.2406,35.7272,79.1724C35.5342,79.0527,35.3238,78.9686,35.208,78.7798Q35.0436,78.5127,34.883,78.2537C34.8595,78.2154,34.8495,78.1716,34.8543,78.1282Q34.8942,77.8127,34.792,77.5088Q34.7783,77.4695,34.7934,77.4459Q34.8083,77.4224,34.8518,77.4144Q35.1606,77.3591,35.3138,77.3614Q36.3249,77.3798,37.1854,77.3257Q38.1056,77.2693,38.5726,77.2693C38.6406,77.2693,38.7087,77.2692,38.7768,77.269C39.3304,77.268,39.8877,77.267,40.433,77.3326Q41.7231,77.4869,42.4379,77.6723Q43.1825,77.8645,43.8624,78.028C43.9977,78.0606,44.1236,78.1212,44.231,78.2053C44.8275,78.6727,45.5323,79.0642,46.0852,79.5915Q46.597,80.0785,47.1486,80.8499Q47.2532,80.9972,47.4251,81.087C47.4817,81.1166,47.5026,81.1828,47.4724,81.2367C47.1698,81.7663,46.912,82.1981,46.4849,82.7069C46.0603,83.2135,45.7465,83.765,45.3306,84.2762Q45.3206,84.2877,45.3094,84.2854Q45.3057,84.2854,45.3032,84.2842Q45.3007,84.2833,45.2998,84.2816Q45.2984,84.2792,45.3007,84.275Q45.5348,83.8755,45.7764,83.5313C45.9669,83.2573,46.1113,82.8232,46.3504,82.4986C46.6219,82.1278,46.8186,81.7364,47.0652,81.3576ZM32.2891,77.7471C32.6465,77.838,32.7374,77.8576,33.0948,77.739Q33.1304,77.7275,33.1516,77.7388Q33.1726,77.7501,33.1795,77.7839C33.2293,78.0361,32.7088,78.3112,32.5157,78.393C32.4804,78.4078,32.4394,78.388,32.4323,78.3527Q32.3788,78.0775,32.2306,77.8139C32.2216,77.7973,32.224,77.7774,32.2366,77.7631C32.2492,77.7487,32.2697,77.7424,32.2891,77.7471ZM77.1545,79.8119C77.5448,79.5951,77.8821,79.4516,77.908,79.4914C77.9338,79.5312,77.6384,79.7392,77.2482,79.9559C76.8579,80.1728,76.5207,80.3162,76.4948,80.2765C76.4689,80.2367,76.7643,80.0287,77.1545,79.8119ZM27.6408,81.7481C27.6157,81.7636,27.6091,81.795,27.6259,81.8181C27.6428,81.8413,27.6769,81.8475,27.702,81.8319L28.7901,81.1584C28.8152,81.1429,28.8219,81.1115,28.805,81.0883C28.7881,81.0652,28.7541,81.059,28.7289,81.0746L27.6408,81.7481ZM74.2611,81.4783C74.3398,81.4339,74.4131,81.4124,74.4249,81.4303C74.4368,81.4483,74.3826,81.4988,74.3039,81.5431C74.2252,81.5876,74.1519,81.609,74.1401,81.5911C74.1282,81.5732,74.1824,81.5227,74.2611,81.4783ZM48.1261,82.5308C48.1386,82.2913,48.1062,82.0461,47.8347,81.9494Q47.7812,81.9298,47.7526,81.8838Q47.6953,81.7939,47.7737,81.6984C47.8183,81.6426,47.9075,81.6393,47.958,81.6915C48.1697,81.9148,48.4399,82.2084,48.4661,82.4917Q48.473,82.5599,48.4393,82.5936Q48.4059,82.6269,48.3328,82.6263L48.2245,82.6252C48.1687,82.6252,48.124,82.5824,48.1261,82.5308ZM27.3293,82.7668C27.5696,82.3846,28.0266,82.4606,28.3467,82.2418Q28.5459,82.1048,28.7078,81.8826C28.7283,81.8535,28.7696,81.8436,28.8037,81.8596L28.8311,81.8722Q28.8483,81.8802,28.8516,81.8916Q28.8548,81.9032,28.8435,81.9183Q28.6381,82.1946,28.4749,82.4467C28.4151,82.5388,28.313,82.6056,28.1947,82.6321Q27.8286,82.7115,27.4825,82.8474Q27.4015,82.8796,27.3467,82.8416Q27.3019,82.8117,27.3293,82.7668ZM46.6157,85.0637Q46.6729,85.1178,46.7402,85.1512Q46.7784,85.17,46.7962,85.1594Q46.8143,85.1487,46.8112,85.1074C46.8036,85.0091,46.7609,84.936,46.7204,84.8668C46.6543,84.7537,46.5944,84.6511,46.7041,84.4661Q46.7389,84.4086,46.8062,84.4293L47.0428,84.5018C47.1354,84.5301,47.237,84.4958,47.2881,84.4189L47.3989,84.252Q47.4325,84.2013,47.4973,84.1933Q48.151,84.1184,48.7749,83.8525C48.8501,83.821,48.8938,83.7473,48.882,83.6717Q48.8148,83.2262,48.623,82.8359Q48.5731,82.7332,48.5929,82.7201Q48.6126,82.7071,48.7014,82.7829C49.0414,83.0731,49.2755,83.4495,49.4361,83.8824Q49.5171,84.1,49.6428,84.298C50.2393,85.2364,50.5369,86.0918,50.4535,87.1303Q50.4448,87.2466,50.319,87.2466L46.653,87.2719C46.6202,87.2723,46.5896,87.2564,46.5731,87.2301C46.5566,87.2039,46.5567,87.1714,46.5733,87.1452C46.7576,86.8528,46.9718,86.6686,46.988,86.3071Q46.9905,86.2472,46.9332,86.2207Q46.8622,86.1885,46.8037,86.223Q46.7638,86.2461,46.7402,86.3163Q46.6094,86.7078,46.3417,86.9449Q46.2255,87.0472,46.1738,87.0245Q46.1219,87.0016,46.135,86.8528Q46.1636,86.5166,46.3529,86.1332C46.4612,85.9133,46.4488,85.7153,46.3106,85.5058C46.1885,85.3204,46.2159,85.0729,46.4899,85.0268Q46.5634,85.0142,46.6157,85.0637ZM64.2986,88.9006C64.4385,88.8352,64.5769,88.8278,64.6076,88.8839C64.6383,88.9401,64.5497,89.0387,64.4098,89.104C64.2698,89.1694,64.1314,89.1769,64.1008,89.1207C64.07,89.0645,64.1586,88.9659,64.2986,88.9006ZM17.797,91.1567C17.731,91.2913,17.7136,91.4155,17.7582,91.434C17.8027,91.4525,17.8923,91.3585,17.9583,91.2238C18.0242,91.0892,18.0416,90.965,17.9971,90.9465C17.9526,90.928,17.863,91.022,17.797,91.1567ZM16.9383,93.7856C16.6799,94.0682,16.4569,94.2868,16.4401,94.2736C16.4232,94.2605,16.6191,94.0207,16.8774,93.7381C17.1358,93.4554,17.3588,93.2369,17.3756,93.25C17.3924,93.2632,17.1966,93.5029,16.9383,93.7856ZM35.5629,94.4595C35.5443,94.4363,35.5549,94.4031,35.584,94.3928L35.9464,94.2684C35.9664,94.2609,35.9894,94.2668,36.0023,94.2828C36.0152,94.2987,36.0147,94.3208,36.0012,94.3363L35.7696,94.6219C35.7506,94.6454,35.7125,94.6454,35.6936,94.6219L35.5629,94.4595ZM14.0699,94.9205Q14.1833,94.8659,14.2561,94.7675C14.3201,94.6796,14.4219,94.5945,14.4612,94.5253Q14.504,94.451,14.4893,94.4395Q14.4745,94.428,14.4015,94.48Q14.1979,94.6251,13.9841,94.806Q13.9593,94.8273,13.9564,94.85Q13.955,94.8726,13.9651,94.8899Q13.9824,94.9214,14.0081,94.9293Q14.0345,94.9373,14.0699,94.9205ZM34.6583,94.9928C34.6445,94.982,34.6393,94.9646,34.6451,94.9488L34.746,94.6944C34.7508,94.6819,34.762,94.6725,34.7759,94.6691L35.0996,94.5896C35.1172,94.5857,35.1356,94.5922,35.1459,94.606C35.1561,94.6198,35.1561,94.6381,35.1457,94.6518L34.9963,94.8418C34.9926,94.8465,34.988,94.8504,34.9826,94.8533L34.7074,94.9972C34.6916,95.0052,34.6721,95.0035,34.6583,94.9928ZM32.6776,95.6638Q32.9192,95.4842,33.2193,95.4186Q33.634,95.0536,34.2118,94.8556Q34.3101,94.8222,34.3824,94.8924L34.4695,94.9753Q34.5077,95.0123,34.5009,95.04Q34.4943,95.0675,34.4434,95.0859L33.1047,95.5556Q33.1204,95.5592,33.121,95.5644Q33.1222,95.574,33.0711,95.589Q32.4859,95.9148,31.8632,96.1635Q31.6553,96.2464,31.5283,96.4214Q31.4286,96.5607,31.2593,96.5653C31.1789,96.5672,31.1114,96.509,31.1074,96.434C31.0937,96.1646,31.6129,95.9701,31.8371,95.9229C32.1932,95.848,32.3925,95.7755,32.6776,95.6638ZM31.1915,95.104C31.0526,95.0005,30.9145,94.8977,30.7238,94.9465Q30.7674,94.904,30.8571,94.9097Q31.3228,94.9396,31.5581,95.2758Q31.593,95.3265,31.6553,95.3426Q31.7736,95.3725,31.9255,95.346Q31.992,95.3345,32.0005,95.35Q32.009,95.3656,31.9591,95.4082Q31.4697,95.8296,31.1522,96.015Q30.9418,96.137,30.5819,96.1048Q30.5346,96.1002,30.5258,96.0575Q30.4686,95.7663,30.562,95.5222C30.5816,95.4701,30.637,95.437,30.6964,95.4416L30.7375,95.445Q30.7815,95.4485,30.7978,95.4699Q30.8142,95.4915,30.8023,95.5314Q30.7824,95.6005,30.7263,95.6638Q30.6056,95.799,30.6391,95.854Q30.6727,95.909,30.8608,95.8837Q31.2493,95.8296,31.4809,95.4416C31.5248,95.3691,31.4927,95.2774,31.4112,95.2424C31.3331,95.2094,31.2622,95.1566,31.1915,95.104ZM30.4623,95.1377Q30.4711,95.0053,30.7238,94.9465L30.5184,95.1595Q30.4872,95.1912,30.4732,95.1857Q30.4592,95.1802,30.4623,95.1377ZM30.4576,97.4814Q30.4862,97.4916,30.5246,97.4783Q30.7126,97.4103,30.8633,97.2399C30.8884,97.2127,30.8793,97.1708,30.8446,97.1547L30.5931,97.0339Q30.5022,96.9901,30.4903,96.9325Q30.4785,96.875,30.5458,96.8036L30.7076,96.6298Q30.7585,96.5758,30.8113,96.5742Q30.8644,96.5726,30.9193,96.624Q31.1858,96.8727,31.1397,97.1294Q31.1341,97.1638,31.1501,97.1811Q31.1657,97.1979,31.202,97.1985Q31.4249,97.2054,31.5009,97.0108Q31.5208,96.959,31.5793,96.9567L31.862,96.9452Q31.9218,96.9418,31.9678,96.9072L32.0662,96.8335C32.104,96.8053,32.1512,96.7902,32.1995,96.7909L32.502,96.7955Q32.5693,96.7967,32.6191,96.7529C32.8208,96.5779,33.0574,96.4789,33.1857,96.2464Q33.2399,96.1467,33.2143,96.124Q33.1887,96.1014,33.0836,96.1554Q32.9902,96.2038,32.9055,96.274Q32.7847,96.3753,32.6415,96.3316C32.5968,96.3182,32.5834,96.2655,32.6166,96.2337Q32.8383,96.0242,33.0923,96.023Q33.1558,96.0219,33.2106,95.9919L33.5481,95.8066Q33.5941,95.7813,33.6162,95.7933Q33.6383,95.8054,33.6365,95.8549Q33.634,95.9021,33.6053,95.9436C33.5884,95.9681,33.591,95.9999,33.6116,96.0219Q33.6801,96.0944,33.7635,96.0426Q33.9864,95.9044,34.2143,95.7456Q34.2666,95.7087,34.3313,95.7041L34.477,95.6949Q34.5455,95.6903,34.5941,95.6465L34.8867,95.3794C34.918,95.351,34.9696,95.356,34.9938,95.3898Q35.0286,95.4393,34.9925,95.4923Q34.8431,95.7202,34.5891,95.7766C34.5466,95.7857,34.5075,95.8047,34.4758,95.8319L33.761,96.449C33.7514,96.4571,33.7448,96.4674,33.7417,96.4786C33.703,96.43,33.6528,96.4061,33.6002,96.4185L33.4467,96.4533C33.3424,96.4769,33.2685,96.6346,33.2819,96.8048L33.2856,96.8548C33.2889,96.89,33.308,96.9142,33.3284,96.909L33.784,96.8048C33.8049,96.8004,33.8197,96.7671,33.8167,96.7311L33.8129,96.6811C33.809,96.6331,33.7986,96.5891,33.7833,96.5515C33.7862,96.5524,33.7891,96.5532,33.7921,96.5538L33.8282,96.5607C33.8882,96.5724,33.9507,96.5589,33.9988,96.5238Q34.3089,96.2936,34.4322,96.2636Q34.6948,96.2003,34.7232,96.2504Q34.7517,96.3004,34.5455,96.464Q34.2217,96.7219,33.751,96.8727Q33.6925,96.8911,33.6713,96.9452C33.5642,97.2077,33.3924,97.1386,33.1981,97.2607Q33.0998,97.324,33.025,97.3919C32.9997,97.4153,32.962,97.423,32.9284,97.4117C32.8947,97.4003,32.8712,97.372,32.8681,97.339Q32.8445,97.0868,33.0213,96.898Q33.0518,96.8658,33.044,96.8473Q33.0362,96.8289,32.9902,96.8243Q32.5643,96.7783,32.2617,97.1191Q32.2256,97.1605,32.1708,97.1766Q31.6092,97.3413,31.1746,97.7074Q31.1298,97.7465,31.07,97.7615Q30.547,97.8881,30.2482,98.2865Q30.2424,98.2942,30.2446,98.298Q30.2466,98.3015,30.2556,98.3015L30.496,98.3015Q30.5333,98.3015,30.552,98.2704Q30.7189,97.9964,31.0787,97.8502C31.3079,97.7557,31.4822,97.6867,31.7225,97.5439C31.9392,97.4138,32.2144,97.2722,32.4647,97.4046C32.5777,97.4644,32.5888,97.6108,32.4859,97.6832Q32.375,97.7627,32.3638,97.91C32.3597,97.9648,32.4213,98.0031,32.4746,97.9791Q33.0749,97.7143,33.6203,97.3459Q33.7834,97.2365,33.9702,97.1985Q34.0066,97.1911,34.024,97.2046Q34.0418,97.2183,34.0399,97.2538Q34.0337,97.4034,33.9179,97.5059C33.502,97.8709,33.116,98.3395,32.7723,98.6711Q31.8944,99.5196,31.593,99.8419Q29.8908,101.664,28.6306,102.834Q28.0976,103.328,27.1238,104.353C26.4128,105.101,25.7864,106.031,24.9546,106.742Q24.1714,107.411,23.3893,108.174Q23.3806,108.182,23.0656,108.443Q22.7157,108.734,22.6895,109.192Q22.687,109.249,22.7456,109.268Q22.9435,109.33,22.9685,109.537Q22.9747,109.596,22.9149,109.617Q22.5812,109.733,22.4878,110.055Q22.3558,110.507,22.0968,110.823C22.0146,110.924,22.0084,111.102,22.0233,111.224Q22.0893,111.757,21.9598,112.201Q21.8303,112.647,21.8477,112.923C21.8951,113.703,22.0831,114.468,22.2935,115.179Q22.3732,115.447,22.4106,115.71C22.4467,115.968,22.4529,116.165,22.5874,116.41Q22.8763,116.935,22.9784,117.519C23.0232,117.779,23.4566,117.923,23.6733,118.043Q23.8563,118.143,24.0331,118.195Q24.5624,118.348,25.0791,118.591Q25.5723,118.821,26.0865,118.94C26.9532,119.139,27.8137,119.207,28.6692,119.397C29.4674,119.574,30.2556,119.026,30.8583,118.506C31.527,117.927,32.197,117.295,32.9404,116.801Q33.4721,116.447,33.5991,116.292Q34.228,115.527,34.9838,114.872Q35.0299,114.832,35.0262,114.773Q35.0174,114.635,34.878,114.591Q34.7784,114.561,34.7933,114.466C34.8356,114.2,35.1831,114.283,35.1943,114.032Q35.198,113.94,35.2553,113.867Q35.7858,113.197,36.1631,112.51Q36.4296,112.026,36.7346,111.68C37.2215,111.127,37.7557,110.587,38.1791,109.986Q38.8839,108.989,39.5364,107.961C39.9523,107.305,40.4019,106.689,40.8377,106.028Q41.5625,104.93,42.2735,103.989C42.5176,103.667,42.6608,103.342,42.9721,103.014C43.3108,102.656,43.5947,102.246,43.9259,101.911C44.5112,101.318,45.0205,100.809,45.3057,100.121C45.3836,99.9334,45.3889,99.7494,45.3942,99.5628C45.3976,99.4451,45.401,99.3264,45.4227,99.2053Q45.4725,98.9289,45.4327,98.8023Q45.0715,97.6671,44.6208,96.6252C44.5729,96.5137,44.5918,96.3873,44.6706,96.2924Q44.8225,96.1094,45.1388,95.9839C45.3989,95.8809,45.8258,95.9762,46.1673,96.0524C46.2574,96.0725,46.3416,96.0913,46.4152,96.1048C47.105,96.2291,47.8621,96.2418,48.4873,96.4789Q49.2419,96.7645,50.0002,97.0155C50.4336,97.1594,50.9827,97.4288,51.507,97.5589Q51.5643,97.5727,51.568,97.6279Q51.6116,98.2197,51.5394,98.7516C51.4509,99.4044,51.4422,99.9812,51.3687,100.609Q51.3625,100.672,51.3899,100.731C51.4921,100.944,51.4339,101.078,51.3692,101.227C51.3361,101.303,51.3013,101.383,51.2853,101.479Q51.0163,103.102,50.9927,103.672Q50.9566,104.576,50.7536,105.306C50.4958,106.237,49.8969,107.025,49.5631,107.93Q49.4461,108.247,49.3477,108.567Q48.5321,111.219,47.2968,113.732Q47.2084,113.912,46.9867,114.194Q45.9656,115.491,44.8262,116.558C43.7404,117.574,42.4329,118.289,40.9573,118.869C39.6996,119.364,38.6722,119.747,37.4967,120.013Q36.9139,120.145,36.381,120.211C36.21,120.232,36.0395,120.257,35.869,120.282C35.3481,120.358,34.8275,120.433,34.2927,120.409Q32.0787,120.305,29.9057,120.006Q29.6691,119.974,29.4089,119.969Q29.12,119.963,28.912,119.928Q27.8535,119.744,26.0791,119.359Q25.6719,119.271,25.307,119.133Q24.8637,118.966,24.1041,118.917Q23.8713,118.902,23.7019,118.826C23.3308,118.66,23.1403,118.596,23.0108,118.204Q22.9934,118.15,22.9423,118.119Q22.7231,117.992,22.6671,117.933Q21.3434,116.498,20.1056,115Q19.9076,114.761,19.691,114.336Q19.2726,113.514,18.5279,112.936Q18.0647,112.876,17.9638,113.197Q17.9489,113.244,17.9663,113.259Q17.9837,113.274,18.0335,113.258L18.3648,113.151C18.4527,113.122,18.5505,113.154,18.5989,113.228C18.7682,113.484,19.0621,113.697,19.1605,113.982Q19.2402,114.218,19.0908,114.324C19.0469,114.355,19.025,114.406,19.0336,114.456C19.0421,114.507,19.0799,114.549,19.1319,114.566Q19.3249,114.631,19.422,114.786Q19.5627,115.013,19.61,115.058C19.7669,115.204,19.9151,115.324,20.0434,115.504C20.2463,115.789,20.5091,116.006,20.6535,116.316Q20.7557,116.534,20.8578,116.755Q21.0084,117.078,21.2924,117.161Q21.3521,117.178,21.3882,117.226C21.5962,117.505,21.7556,117.724,21.9274,118.082Q22.1653,118.58,22.6957,118.897C22.7308,118.918,22.7595,118.947,22.7792,118.981Q23.2586,119.806,23.5027,119.983C23.8389,120.228,24.0991,120.418,24.4154,120.751Q24.7031,121.053,25.048,121.267Q25.3979,121.484,25.7292,121.717Q26.3929,122.182,26.8574,122.6C26.8673,122.609,26.8684,122.624,26.8598,122.634L26.8362,122.661Q26.8318,122.666,26.8268,122.667Q26.8219,122.667,26.8163,122.663Q26.363,122.339,25.9234,122.05C25.3992,121.705,24.9272,121.27,24.4129,120.894C23.9036,120.522,23.5238,120.118,23.0892,119.699C22.7231,119.345,22.2425,119.049,21.8378,118.688Q21.5588,118.44,21.3708,118.067C21.2064,117.74,21.0757,117.416,20.8266,117.129C20.4319,116.674,19.9923,116.256,19.681,115.769Q19.5141,115.507,19.3597,115.25Q19.2389,115.051,18.9886,114.793Q18.7097,114.504,18.4943,114.089Q18.3884,113.883,18.2751,113.766C18.1406,113.624,17.975,113.52,17.9103,113.334Q17.8903,113.28,17.8455,113.241Q17.3935,112.86,17.3113,112.724Q17.1058,112.387,16.8692,112.079Q16.7049,111.867,16.6326,111.626Q16.5181,111.241,16.1682,110.912Q16.0767,110.826,16.0733,110.737Q16.0692,110.629,16.1931,110.518C16.2267,110.488,16.2334,110.44,16.2093,110.402L16.1657,110.334C16.1545,110.317,16.134,110.306,16.1123,110.307C16.0905,110.308,16.0709,110.319,16.0611,110.337C15.9403,110.556,15.9029,110.789,16.0549,111.02Q16.4334,111.592,16.6439,112.12C16.797,112.501,17.0984,112.695,17.3362,113.014Q17.8418,113.693,18.1792,114.23Q18.3038,114.427,18.6151,114.736C18.8803,115,18.9712,115.31,19.2427,115.567C19.5141,115.826,19.7707,116.135,19.8217,116.505Q19.8765,116.891,20.2053,117.337Q20.6884,117.992,21.1068,118.425Q21.6074,118.943,21.981,119.433C22.5401,120.163,23.1552,120.866,23.9248,121.475Q24.9397,122.28,25.9321,123.003Q26.1999,123.197,26.2671,123.337Q26.294,123.392,26.2807,123.402Q26.2675,123.412,26.2148,123.377Q25.4415,122.866,24.6309,122.366Q24.276,122.147,23.3346,121.343Q22.6509,120.758,22.1105,120.174Q21.3422,119.343,20.8341,118.653Q20.4705,118.16,20.1056,117.769C19.757,117.395,19.5366,116.98,19.4108,116.52C19.3886,116.439,19.2858,116.403,19.2115,116.451Q19.0783,116.535,18.9351,116.574C18.8932,116.585,18.8482,116.575,18.8156,116.549Q18.7147,116.467,18.6948,116.298Q18.635,116.181,18.6238,116.057C18.6189,115.998,18.6389,115.94,18.6601,115.879C18.6818,115.816,18.7047,115.749,18.7035,115.675Q18.2975,115.267,17.914,114.823Q17.7621,114.647,17.6811,114.378Q17.6064,114.134,17.4956,113.903C17.3823,113.666,17.1419,113.612,17.0124,113.383Q16.2304,111.995,15.7697,110.966L15.7654,110.956C15.62,110.632,15.4842,110.329,15.9552,110.146Q16.0063,110.127,16.0287,110.079Q16.1072,109.91,15.9889,109.755C15.9378,109.689,15.8295,109.696,15.7896,109.769L15.6937,109.942Q15.6246,110.069,15.5717,110.064Q15.5188,110.058,15.482,109.921L15.3662,109.48Q15.3525,109.428,15.3723,109.412Q15.3919,109.397,15.4447,109.417Q15.634,109.491,15.7448,109.461Q15.8158,109.443,15.8033,109.375L15.766,109.171Q15.7448,109.051,15.873,109.031L16.0773,108.996C16.1388,108.986,16.1968,109.026,16.203,109.084Q16.2491,109.52,16.5779,109.872Q16.6588,109.96,16.7136,110.071Q16.7634,110.173,16.7597,110.281Q16.7559,110.375,16.8022,110.407Q16.8483,110.438,16.944,110.408Q17.0697,110.367,17.1619,110.429Q17.2565,110.492,17.2291,110.614Q17.1382,111.013,17.3038,111.327Q17.5068,111.712,17.9937,112.093Q17.5865,111.152,17.4022,110.257C17.3636,110.069,17.0037,109.794,16.8655,109.621Q16.6588,109.364,16.4135,109.108C16.3608,109.053,16.3876,108.967,16.4633,108.947C16.6277,108.902,16.7734,108.899,16.9265,108.805C17.2827,108.585,17.7334,108.484,18.0784,108.293Q18.5005,108.059,18.9202,107.822C19.1281,107.704,19.2763,107.678,19.5054,107.65Q19.6324,107.634,19.7358,107.575Q20.407,107.19,21.1379,107.051C21.2329,107.034,21.3201,106.991,21.3882,106.928Q21.8552,106.498,22.3122,106.03Q22.3682,105.973,22.3658,105.93C22.3645,105.91,22.3517,105.892,22.3321,105.883C22.3126,105.874,22.2893,105.875,22.2711,105.886Q21.7344,106.214,21.1828,106.49Q21.1554,106.503,21.1392,106.479L21.1379,106.478Q21.1218,106.455,21.1454,106.438Q21.6746,106.058,22.0632,105.552C22.1752,105.406,22.3384,105.31,22.4716,105.185Q22.5892,105.076,22.5659,105.035Q22.5426,104.994,22.3782,105.022Q22.3072,105.033,22.2462,105.015Q22.21,105.004,22.2079,104.989Q22.2058,104.974,22.2375,104.955Q22.6136,104.73,22.7717,104.524C23.205,103.956,23.7579,103.41,24.1589,102.896C24.5599,102.382,24.9745,101.696,25.5598,101.356Q25.6319,101.314,25.6662,101.332Q25.7005,101.351,25.6968,101.43L25.693,101.514C25.6883,101.619,25.6359,101.718,25.5486,101.785Q25.3942,101.903,25.3045,102.059Q25.2841,102.095,25.2917,102.101Q25.2993,102.107,25.3357,102.084C25.6308,101.892,26.0455,101.905,26.1115,101.498Q26.1887,101.028,26.4178,100.636C26.434,100.608,26.429,100.574,26.4053,100.551Q26.1426,100.286,26.4215,100.031Q26.764,99.7153,27.0404,99.3526Q27.3754,98.9105,27.7913,98.4557Q27.9557,98.2761,28.1001,98.0528Q28.2221,97.8651,28.3977,97.6947Q28.4401,97.6533,28.4488,97.5969Q28.5173,97.1467,29.0378,96.8911Q29.1635,96.8036,29.2134,96.7265Q29.2906,96.487,29.3827,96.4467Q29.8609,96.2418,30.3665,96.152Q30.4274,96.141,30.4343,96.1542Q30.4412,96.1675,30.3938,96.2049Q30.1622,96.3857,29.8659,96.4329Q29.7426,96.4525,29.7438,96.5687L29.7438,96.6678C29.7445,96.7156,29.7867,96.7541,29.8385,96.7541L30.0975,96.7541Q30.1859,96.7541,30.2046,96.8347Q30.2145,96.875,30.1983,96.9164Q30.1859,96.951,30.1373,96.9809Q30.0526,97.0339,29.9817,97.0868C29.9545,97.1075,29.9415,97.1401,29.9477,97.1721C29.9539,97.2041,29.9783,97.2305,30.0116,97.2411L30.3851,97.3631Q30.4045,97.4626,30.4576,97.4814ZM32.2854,96.5331Q32.2405,96.6079,32.1596,96.6666Q32.1222,96.6942,32.0899,96.7265Q31.8881,96.9303,31.6142,96.8451C31.5593,96.8282,31.5415,96.7647,31.5806,96.7253L31.928,96.3707C31.9706,96.3279,32.0375,96.3145,32.0949,96.3373L32.2331,96.3914Q32.2891,96.4133,32.3022,96.4487Q32.3153,96.4841,32.2854,96.5331ZM13.1081,96.5952C13.0267,96.6803,12.9757,96.7616,12.9943,96.7767C13.0129,96.7918,13.0939,96.735,13.1754,96.6499C13.2569,96.5648,13.3079,96.4835,13.2893,96.4684C13.2707,96.4533,13.1897,96.5101,13.1081,96.5952ZM29.1325,96.9097Q29.241,96.9879,29.4518,97.0004Q29.4888,97.0023,29.5063,97.0203Q29.5269,97.0414,29.5207,97.0847Q29.4925,97.2993,29.264,97.3952Q29.2118,97.4171,29.1648,97.3858Q29.0459,97.3056,28.9853,97.0587Q29.0907,96.9795,29.1325,96.9097ZM30.0175,97.5234Q29.9721,97.5113,29.9564,97.4042Q29.904,97.6331,29.7403,97.6795Q29.6961,97.6931,29.6548,97.6682Q29.2989,97.4518,28.9669,97.6387Q28.9302,97.6591,28.9338,97.7079L28.9375,97.7566Q28.9401,97.795,28.9568,97.8012Q28.9696,97.806,28.9908,97.7917L29.1251,97.7011Q29.1646,97.675,29.2079,97.6897Q29.3541,97.7373,29.3955,97.8665Q29.4037,97.8926,29.3835,97.905Q29.2051,98.0195,29.0948,98.2404Q29.0709,98.2892,29.092,98.339Q29.1076,98.3764,29.1389,98.3945C29.1809,98.4188,29.1971,98.4822,29.1738,98.5316Q29.0341,98.8285,28.8373,99.0042C28.7233,99.1061,28.589,99.1775,28.4897,99.3033Q28.4395,99.3675,28.4513,99.3793Q28.4617,99.3897,28.521,99.3588Q28.9945,99.1118,29.3761,98.696Q29.4111,98.6574,29.4157,98.6008Q29.4479,98.1486,29.6538,97.9481Q29.8635,97.7441,30.0594,97.5175Q30.036,97.5283,30.0175,97.5234ZM31.2816,98.2564C31.2631,98.2282,31.2729,98.1915,31.3034,98.1745L32.1243,97.7166C32.1549,97.6995,32.1946,97.7085,32.2132,97.7367C32.2317,97.7649,32.222,97.8016,32.1914,97.8187L31.3706,98.2766C31.34,98.2936,31.3002,98.2846,31.2816,98.2564ZM28.5826,97.9503Q28.4262,98.1358,28.1004,98.2247Q27.9868,98.2558,27.931,98.2998C27.9076,98.3187,27.9066,98.3425,27.9285,98.3619C27.9503,98.3813,27.9915,98.3933,28.0361,98.3931Q28.6919,98.3898,28.9642,98.0993C29,98.0608,28.9919,98.0154,28.9427,97.9803L28.8806,97.9353C28.845,97.9098,28.7846,97.8959,28.7228,97.899C28.661,97.9022,28.6073,97.9218,28.5826,97.9503ZM27.5007,99.1783C27.4819,99.1431,27.4976,99.1004,27.5358,99.0831L28.5803,98.6097C28.6185,98.5923,28.6648,98.6069,28.6836,98.6422C28.7024,98.6774,28.6867,98.7201,28.6485,98.7374L27.604,99.2108C27.5658,99.2281,27.5195,99.2136,27.5007,99.1783ZM28.5144,99.8729Q28.7702,99.7469,29.2803,99.593Q29.5582,99.5082,29.9562,99.2246Q30.0762,99.1398,30.0566,99.0016Q30.0514,98.9604,30.0214,98.9301C29.9711,98.8754,29.8811,98.8727,29.827,98.9241C29.5621,99.1737,29.3155,99.4331,28.9737,99.5506Q28.7088,99.6415,28.4531,99.8136Q28.4466,99.8172,28.4505,99.8233L28.4701,99.8596C28.478,99.8744,28.4978,99.8803,28.5144,99.8729ZM10.2483,100.206L10.4027,100.302C10.4179,100.311,10.4223,100.33,10.4126,100.344L10.1698,100.68C9.81545,101.171,9.49555,101.536,9.44385,101.507L9.41396,101.488C9.36594,101.454,9.60456,101.045,9.96062,100.551L10.2034,100.215C10.213,100.201,10.2332,100.197,10.2483,100.206ZM8.9285,100.746C8.89004,100.848,8.90206,100.945,8.95534,100.962C9.00865,100.979,9.08301,100.91,9.1215,100.808C9.15996,100.707,9.14794,100.61,9.09467,100.593C9.04135,100.576,8.96699,100.645,8.9285,100.746ZM19.7582,107.077Q19.9002,106.939,20.3111,106.802Q20.7108,106.668,21.0582,106.488Q21.0769,106.479,21.0881,106.497Q21.0993,106.514,21.0819,106.525Q20.4219,106.934,19.8827,107.223Q19.5796,107.385,19.5484,107.348Q19.5172,107.312,19.7582,107.077ZM19.3138,115.875Q19.224,115.78,18.9688,115.698C18.9716,115.757,18.9199,115.81,18.871,115.86C18.8232,115.909,18.7782,115.955,18.7893,116.002Q18.8145,116.1,18.9492,116.193Q18.9043,116.05,19.2465,115.95Q19.3209,115.929,19.3242,115.9Q19.3256,115.888,19.3138,115.875ZM22.4683,118.081C22.5697,118.194,22.6228,118.308,22.5869,118.335C22.5509,118.363,22.4394,118.294,22.338,118.181C22.2365,118.068,22.1834,117.954,22.2194,117.926C22.2553,117.898,22.3668,117.967,22.4683,118.081Z" fill-rule="evenodd" fill="#0C0C0C" fill-opacity="1"/></g></svg>