<svg xmlns="http://www.w3.org/2000/svg" xmlns:xlink="http://www.w3.org/1999/xlink" fill="none" version="1.1" width="133.0009765625" height="116.9990234375" viewBox="0 0 133.0009765625 116.9990234375"><g><path d="M49.5942,58.6882Q44.4682,63.0078,43.7122,63.7043Q41.4529,65.7865,39.13,67.1773Q37.641,68.0713,35.8751,69.3532Q34.8182,70.1204,32.7331,71.7271Q30.0937,73.7609,28.7163,74.7283Q28.7142,74.7298,28.7126,74.7299Q28.7247,73.9173,29.0176,72.3254Q29.2997,70.7918,29.3365,69.9706Q29.4626,67.44,30.4058,64.8379Q30.4481,64.7231,30.5506,64.6702Q30.6522,64.6176,30.7567,64.6528Q32.272,65.1716,34.0944,64.986Q35.1611,64.8774,37.2446,64.3453Q38.088,64.1298,38.5086,64.0334Q40.0251,63.6869,41.1304,62.9533Q42.6775,61.9262,42.9391,60.3991Q43.0047,60.0242,42.7914,59.7694Q42.5759,59.5119,42.2258,59.5473L42.2334,59.529L42.1784,59.1548Q42.0336,58.1974,42.1191,57.9443Q42.222,57.6397,42.9222,57.534Q43.164,57.4983,43.3109,57.2966Q43.4437,57.1143,43.4375,56.8732L43.4371,56.857L43.4231,56.677Q43.3913,56.2877,43.1382,56.0755Q42.8875,55.8653,42.5337,55.9258Q42.2812,55.9697,41.894,56.1598Q41.6205,56.294,41.4966,56.2958L41.9706,55.2216Q42.1911,54.7125,41.9668,54.3364Q41.7427,53.9606,41.2281,53.9672Q40.6497,53.9714,39.6179,53.6415Q39.0104,53.4473,38.6837,53.3781Q38.1147,53.2574,37.5938,53.2909Q34.4152,53.5018,31.7471,54.3569Q31.7316,54.3619,31.7181,54.3522Q31.7036,54.3417,31.7016,54.3222Q31.3833,51.1481,31.6115,47.6918Q31.71,46.2599,32.5262,45.1003Q33.3566,43.9205,34.5393,43.6221Q35.0239,43.495,35.3388,43.0685L36.1401,41.9554Q36.1952,41.8789,36.2768,41.8566Q36.592,41.7723,37.1929,41.5826Q38.4107,41.1981,39.0616,41.1289Q40.8663,40.9451,42.6402,40.1566Q43.1366,39.9339,43.2777,39.369L43.2842,39.3422Q43.5273,38.3381,43.6113,37.8838Q43.7533,37.1164,43.7463,36.5247Q43.7298,35.1102,42.8091,33.8037Q42.6442,33.5717,42.3819,33.467Q42.2429,33.4149,42.0956,33.388L42.089,33.3868L42.0823,33.3858Q41.9681,33.3681,41.8806,33.2847Q40.8837,32.3286,40.4502,30.9665Q40.7245,30.8122,40.9473,30.3867Q41.2357,29.8386,40.9099,29.3227L39.5757,27.1639Q39.2734,26.6672,38.7246,26.6314L35.8095,26.453Q35.6944,26.4462,35.6373,26.3368Q35.5793,26.2257,35.6366,26.1086Q35.7855,25.7983,36.0727,25.5074Q36.2627,25.3149,36.7138,24.9555Q37.4175,24.3949,37.7359,24.0081Q41.5734,19.3364,46.3922,15.5078Q46.7179,15.249,47.5217,14.9863Q48.1149,14.7925,48.4089,14.6427Q48.939,14.3726,49.2904,13.9392Q49.9511,13.1236,49.8368,11.9702Q49.7761,11.358,49.3767,10.2476Q49.3457,10.1587,49.3936,10.0869L49.9914,9.20068Q50.3925,8.59707,50.1149,7.92267Q49.3864,6.13709,48.2788,4.26481Q47.1316,2.31822,45.055,1.67741Q43.1922,1.10256,41.1292,1.71952Q40.9321,1.77863,40.5367,1.89711Q36.4055,3.135,34.3498,3.81817Q30.9063,4.96252,28.2684,6.11262Q25.8106,7.18293,22.6856,8.09942Q21.8905,8.33511,21.4717,8.19953Q21.2221,8.11869,20.7474,7.68386Q20.1317,7.11999,19.6397,6.83607Q19.2675,6.62457,18.8885,6.82144Q18.5108,7.01758,18.4294,7.46578Q18.3688,7.81248,18.1802,8.09873Q18.0919,8.23022,17.9435,8.21441Q17.7951,8.1986,17.7332,8.05304Q16.942,6.1736,15.6786,4.75565Q15.3806,4.41716,14.76,3.99609Q14.3315,3.70531,14.1727,3.53688Q13.9415,3.29169,13.8463,2.93776Q13.682,2.32218,13.1186,2.0898Q11.7042,1.51894,10.3033,1.59781Q10.2321,1.60015,10.1868,1.55269L9.27624,0.573615Q8.95679,0.220638,8.50543,0.116845Q7.31768,-0.155058,5.94644,0.205769Q5.61719,0.286154,5.43741,0.551901Q5.25967,0.814646,5.28508,1.17542Q5.32135,1.69858,5.31145,2.67334Q5.29904,3.89563,5.37986,4.52275Q5.51691,5.5862,5.98756,6.53149Q6.05924,6.67704,6.04981,6.83894Q5.91842,8.99618,6.56934,10.777Q6.76691,11.3175,7.29408,12.3039Q7.71019,13.0825,7.87154,13.4741Q8.12509,14.0897,8.17686,14.626Q8.33309,16.198,8.7033,17.8552Q8.81725,18.363,9.2331,19.1266Q9.59965,19.7996,9.66438,20.1872Q9.81688,21.0846,10.2358,22.8052Q10.6925,24.681,10.8399,25.6467Q11.4367,29.4964,12.4609,33.2417Q12.5942,33.732,12.6551,34.7785Q12.7165,35.8354,12.8492,36.3603Q13.0843,37.2906,13.7079,37.934Q13.8645,38.0967,13.8989,38.3292Q13.9333,38.5623,13.832,38.7687Q12.9208,40.6076,12.729,43.0105Q12.5489,45.2076,13.8008,46.4908Q15.0568,47.7784,17.1466,47.5051Q20.1975,47.1005,23.173,46.1654Q23.2527,46.1404,23.3191,46.1942Q23.3867,46.249,23.387,46.3417Q23.3963,49.0468,22.9277,51.559Q22.3225,54.7912,21.6431,59.5794Q21.3236,61.8309,21.1354,63.0518Q21.0096,63.864,20.9673,64.6525Q20.3862,63.2737,19.4916,62.2914Q17.268,59.8469,14.8058,57.2115Q12.7685,55.0468,10.2491,54.5868Q8.20552,54.2159,6.1442,53.9215Q4.89322,53.7487,3.66287,53.9452Q3.10494,54.0382,2.82349,54.5629Q1.8072,56.445,3.7817,59.9043Q4.49679,61.1572,5.48609,62.4055Q6.36184,63.5105,7.11417,64.2012Q9.11763,66.0455,9.69597,69.5918Q10.3733,73.7746,10.5262,77.7906Q10.806,85.0397,6.84326,90.6713C6.81998,90.6478,6.79675,90.6239,6.77354,90.5999Q5.20295,88.9644,2.98801,89.9884Q2.79112,90.0806,2.85824,90.299Q2.97906,90.6678,2.92089,91.0706Q2.88509,91.3084,3.03275,91.4831Q3.63683,92.2257,3.65025,93.2303Q3.65025,93.5069,3.41757,93.5991L3.0954,93.7204Q2.9633,93.7723,2.93206,93.8644Q2.90192,93.9533,2.96563,94.0796L3.08274,94.3137Q2.6328,94.5057,2.40947,94.6279Q1.96443,94.8713,1.6871,95.1788Q0.972596,95.9711,1.16069,97.3767Q1.19921,97.6593,1.03395,97.8759Q-0.750658,100.225,0.544986,103.673Q0.981602,104.822,2.0187,105.664Q2.48012,106.039,2.98445,106.295Q3.0003,106.415,3.01486,106.538Q3.10882,107.368,3.93663,107.799Q4.13351,107.901,4.26328,108.095Q4.97027,109.173,5.70411,110.221Q5.722,110.245,6.87198,112.255Q7.56108,113.463,8.73343,114.22Q8.92136,114.341,9.02875,114.55Q9.55229,115.564,10.4785,116.161Q10.6799,116.292,10.8678,116.137L11.3735,115.705Q11.5793,115.531,11.7807,115.705Q12.2057,116.074,12.4071,116.457Q12.6443,116.914,13.1051,116.758Q15.5214,115.958,17.5753,114.249Q18.6358,113.361,19.7365,112.633C19.875,112.542,19.9673,112.384,19.9871,112.206Q20.0453,111.648,20.5196,111.352Q21.1595,110.949,21.5577,110.129Q21.6092,110.022,21.589,110.003Q21.5689,109.983,21.4772,110.051L19.3293,111.667Q19.2699,111.713,19.2214,111.702Q19.1711,111.69,19.1325,111.619L19.0736,111.507Q19.6287,111.229,20.1801,110.839Q21.1276,110.17,21.2605,108.985Q21.3398,108.252,21.5205,107.553Q22.2253,107.069,22.4571,106.839Q24.1754,105.101,25.9563,103.441C26.35,103.072,26.8825,102.985,27.2405,102.573Q28.2115,101.466,29.1691,100.772Q30.055,100.127,31.4869,98.297Q31.5496,98.2193,31.4824,98.1416L31.4064,98.0592C31.3857,98.0373,31.3533,98.0352,31.3303,98.0543L30.4756,98.9133C30.4204,98.9667,30.3827,99.04,30.3683,99.122Q30.328,99.3792,30.1445,99.5442C29.7687,99.8743,29.4241,99.7772,29.084,100.083C28.0907,100.981,27.1957,102.112,26.0189,102.941Q25.2717,103.47,24.5602,104.043Q24.5512,104.05,24.5434,104.049Q24.5356,104.048,24.5289,104.038L24.4573,103.941C24.4102,103.878,24.4181,103.785,24.4752,103.732C26.4127,101.917,28.3905,100.117,30.1356,98.0737Q30.941,97.1225,31.8225,96.2683Q31.8516,96.2392,31.8807,96.2392Q31.9098,96.2392,31.9389,96.2683L32.0194,96.3606Q32.1536,96.5013,32.0328,96.6615Q31.8852,96.8459,31.827,97.0837Q31.7935,97.2218,31.8359,97.2595Q31.8783,97.2973,31.997,97.2341Q32.5832,96.9284,32.7756,96.1859C33.1917,94.5843,34.2299,93.9777,35.2053,92.8663Q35.8363,92.1431,36.7222,91.5414Q38.002,90.6726,38.7537,89.4788Q38.879,89.2846,39.0893,89.241Q39.5189,89.1439,39.8768,88.8285Q43.3178,85.7952,45.5775,82.2136Q45.7968,81.8642,46.3203,81.2478C46.9512,80.5053,47.1347,79.9132,48.0699,79.1319Q48.1375,79.0732,48.1325,79.0231Q48.1275,78.9738,48.052,78.9329L47.6314,78.7048Q47.4748,78.6174,47.3719,78.7775Q46.5619,80.0539,45.2464,80.9469Q44.9019,81.1799,44.5484,81.7914Q44.4365,81.9855,44.2262,82.0098Q43.9711,82.0389,43.9219,82.364Q43.8861,82.597,43.7474,82.7814Q43.0986,83.6453,42.3424,84.349Q41.5683,85.0721,40.8926,85.8826Q40.0335,86.9114,39.0759,87.6345Q37.9751,88.4596,37.1205,89.2895Q35.5991,90.7649,33.6929,92.1965Q33.0392,92.6894,32.9836,92.6199Q32.9281,92.5504,33.4692,91.9199C33.6616,91.6967,33.7869,90.9008,34.1851,90.4834Q35.2188,89.3914,36.3732,88.4548Q37.0623,87.8918,37.4695,87.0813Q37.5053,87.0037,37.4382,86.9551Q37.3845,86.9163,37.3308,86.8969Q37.2012,86.8484,37.162,86.7552Q37.1226,86.6617,37.1742,86.5232Q37.7156,85.0721,39.1296,84.5431Q39.3656,84.4535,39.5119,84.5408Q39.6431,84.619,39.7023,84.8392Q39.7784,85.1304,39.5457,85.2953L39.3309,85.4506Q39.264,85.499,39.2672,85.5414Q39.2703,85.584,39.3444,85.6205Q39.4697,85.6885,39.6128,85.5331Q40.6733,84.3539,41.8412,83.4803C42.1562,83.2449,42.2517,82.7865,42.0605,82.4271Q42.0381,82.3835,41.9083,82.3689Q41.7428,82.3495,41.6756,82.5194Q41.5504,82.8154,41.2371,82.8203Q41.1036,82.8203,41.0731,82.7594Q41.0433,82.7,41.1118,82.5825Q41.34,82.1942,41.6935,81.9127Q41.8725,81.7719,41.971,81.5584C42.3334,80.7771,42.5795,80.2772,43.2641,79.6899Q44.1143,78.9523,44.7273,77.9428Q44.8482,77.7439,45.0585,77.6662Q45.5373,77.4915,45.9579,77.1906C46.5754,76.7441,46.7499,75.8948,47.5777,75.4483Q47.7701,75.3512,47.8193,75.1232Q48.0296,74.1767,48.9782,73.5167C49.1638,73.3867,49.3922,73.3463,49.6092,73.4051L50.0164,73.5216Q50.1999,73.5725,50.2121,73.6539Q50.2244,73.7352,50.0656,73.8468Q49.3496,74.3418,48.8485,75.2736Q48.7992,75.3609,48.7321,75.4143Q48.6426,75.4823,48.5397,75.5016Q48.3983,75.5309,48.3695,75.609Q48.3409,75.6866,48.4234,75.8123Q48.674,76.186,48.9335,76.3024Q49.0419,76.3515,49.1025,76.3126Q49.1618,76.2746,49.1751,76.152C49.278,75.2056,50.0119,75.0455,50.4146,74.4971Q50.7949,73.9875,51.0947,73.3081Q51.1932,73.0751,51.4259,73.0363L51.5959,73.0072Q51.8644,72.9586,51.8957,72.6674L51.9807,71.8375Q52.012,71.5269,52.3029,71.5464Q52.5803,71.5706,52.8398,71.7502Q52.9424,71.8227,52.9883,71.7928Q53.0345,71.7628,53.0233,71.6288Q53.0144,71.5027,52.9428,71.3862Q52.8264,71.1969,52.9383,71.0028Q53.3142,70.3331,53.0323,69.5469Q52.9562,69.3284,53.1307,69.1925Q54.6207,68.0569,55.2248,66.6738Q55.8199,65.3073,56.3884,64.0694Q57.2357,64.8098,58.0971,65.5486Q58.2703,65.6992,58.2696,65.9217L58.2777,66.5966Q58.2787,66.7153,58.3327,66.749Q58.3919,66.7861,58.5149,66.721Q59.8217,66.0238,61.0895,66.7416Q61.1148,66.756,61.365,66.9587Q61.6828,67.2148,62.2606,67.0807Q64.0988,66.6502,65.5998,66.2748C65.5788,66.3478,65.5575,66.4206,65.5359,66.493Q64.9457,68.4745,64.4976,70.0542Q63.8586,71.2407,63.2233,72.4817Q61.9401,74.9954,60.2866,77.8697C60.0327,78.3101,59.7227,78.6397,59.502,79.1097C58.9059,80.3684,58.1167,81.4603,57.372,82.6137C57.3167,82.702,57.2056,82.7098,57.139,82.6301L56.2233,81.5129C56.0068,81.2445,55.64,81.2528,55.4381,81.5307L54.3652,83.0323Q54.2369,83.2067,54.2783,83.4318Q54.333,83.7453,54.5492,83.9141Q54.6421,83.9865,54.7077,83.9625Q54.7719,83.9391,54.8098,83.8235L55.0485,83.093Q55.0888,82.9694,55.1613,82.9354Q55.2344,82.9012,55.3401,82.958L55.7516,83.1743Q55.9454,83.2794,55.9581,83.5262Q55.9955,84.1834,55.6361,84.6068Q55.3456,84.9393,55.1474,85.2488Q53.8618,87.2224,52.7459,88.8774C52.4676,89.2942,52.1061,89.516,51.8064,89.9216Q49.2905,93.3028,46.7305,96.64C46.3382,97.1478,45.9364,97.3419,45.4641,97.7329Q45.1649,97.9801,44.4342,98.3907Q43.8005,98.7504,43.3962,99.3674C43.2277,99.6271,42.9692,99.7872,42.6872,99.8067Q41.5154,99.8911,40.2398,100.094C39.91,100.147,39.6169,100.08,39.3274,100.014C39.0512,99.9503,38.7783,99.8877,38.4801,99.9312Q38.0872,99.9886,38.054,99.8895Q38.0209,99.7905,38.3461,99.5358Q38.3557,99.5285,38.4662,99.3902Q38.5254,99.3157,38.5179,99.2502Q38.5103,99.184,38.4346,99.127Q38.2267,98.9777,38.0251,99.0156Q37.1209,99.1832,36.2993,99.8802C35.8037,100.3,35.3696,100.42,34.8426,100.722Q34.687,100.812,34.5281,100.727Q34.3746,100.65,34.2136,100.685Q34.0526,100.719,33.8835,100.976Q32.9756,102.332,31.4291,103.24Q30.6358,103.704,30.114,104.783Q30.0326,104.95,30.0686,104.998Q30.1044,105.045,30.2564,104.973L32.0375,104.136C32.1143,104.102,32.1987,104.167,32.2025,104.263L32.2085,104.481C32.2135,104.608,32.1417,104.72,32.0352,104.752Q31.0301,105.051,30.6818,106.052Q30.636,106.187,30.6739,106.237Q30.7113,106.287,30.8306,106.254Q31.606,106.05,32.1247,105.68Q32.4164,105.475,32.461,105.532Q32.5057,105.588,32.3022,105.909L31.6392,106.945Q31.5913,107.021,31.6068,107.048Q31.6225,107.076,31.7022,107.054C31.8611,107.01,32.0161,106.912,32.1713,106.815C32.4849,106.617,32.7992,106.419,33.1473,106.66Q33.296,106.765,33.4647,106.715Q34.194,106.507,34.9464,106.574C35.0795,106.588,35.1894,106.639,35.3009,106.69C35.4446,106.756,35.5909,106.823,35.7922,106.815Q36.1137,106.807,36.4307,106.845Q38.4881,107.091,39.4814,107.882Q41.2305,109.284,43.0312,111.483Q43.4193,111.953,43.9486,112.367C44.5953,112.865,45.1411,113.494,45.8362,113.846Q46.327,114.096,46.8289,114.329Q46.9939,114.408,47.112,114.254C47.3887,113.895,47.6143,113.911,48.0172,114.091Q49.1624,114.599,50.3325,113.785Q50.6142,113.591,50.8381,113.842Q50.9674,113.992,50.9244,114.194Q50.8751,114.433,50.9561,114.602Q51.0455,114.791,51.3213,114.797Q52.6143,114.813,52.9837,113.485Q53.0458,113.269,53.2394,113.277L54.451,113.331Q54.6447,113.339,54.7896,113.204Q55.6613,112.4,56.5047,111.555Q57.3568,110.7,57.9972,109.679Q59.6957,106.98,60.6926,105.844C61.1076,105.369,61.4963,105.135,61.8587,104.548Q62.5939,103.353,63.6918,102.601C63.9553,102.426,64.3526,101.859,64.4692,101.539Q64.9789,100.152,65.6762,98.876Q65.7745,98.7017,65.9217,98.592Q66.1622,98.4151,66.205,98.1165Q66.2361,97.8963,66.414,97.8214Q67.0714,97.5469,67.4356,96.6781Q67.5194,96.4905,67.6599,96.3521L68.9708,95.0964Q69.1219,94.9548,69.0874,94.7276Q68.9761,93.9956,69.5168,93.5756Q69.663,93.4617,69.69,93.2559Q69.8372,92.135,70.6691,91.5141Q70.8354,91.3899,70.8886,91.1674Q71.0012,90.6855,71.4169,90.6148C71.5426,90.5916,71.6569,90.5172,71.7398,90.4045Q72.0421,89.9938,72.4956,89.7798Q72.6621,89.704,72.7255,89.5093Q72.815,89.2496,72.6697,88.9982Q72.5756,88.8372,72.6562,88.6681Q72.7548,88.463,72.6415,88.268Q72.5365,88.0926,72.3646,88.1612L72.0631,88.286Q71.9808,88.3202,71.9188,88.298Q71.8414,88.2702,71.7955,88.1544Q71.7666,88.0795,71.7528,88.0044Q71.7223,87.842,71.8033,87.6421Q72.1957,86.6374,72.7924,85.783C73.3659,84.9574,73.6733,84.3121,74.0198,83.4002Q74.4546,82.2553,75.3529,81.5487Q75.5435,81.3998,75.6111,81.4556Q75.6786,81.5113,75.6231,81.7718Q75.5232,82.228,75.3635,82.6536Q75.3208,82.767,75.345,82.7918Q75.3694,82.8169,75.4617,82.7519Q75.5847,82.667,75.7147,82.6284Q75.8081,82.6028,75.8463,82.645Q75.8847,82.6875,75.8673,82.7985C75.7425,83.5654,75.7467,84.2412,75.4562,84.9431Q73.6137,89.386,71.307,93.5316Q71.2856,93.5688,71.3179,93.5944L71.3959,93.6547Q71.4151,93.6679,71.4314,93.6649Q71.4493,93.6617,71.4637,93.639Q72.7829,91.3432,73.9742,89.0151Q74.3046,88.3717,74.5577,87.6547Q74.8082,86.9427,75.1204,86.2696Q75.69,85.0583,75.9582,84.2136Q76.9796,80.9995,78.3482,77.9679Q78.4331,77.7844,78.5749,77.6676Q78.7706,77.5083,78.7822,77.2366Q78.7872,77.1535,78.7554,77.1234Q78.7239,77.0935,78.6561,77.1158L78.5376,77.1554Q78.4412,77.1863,78.3926,77.1432Q78.3444,77.1004,78.3434,76.9845Q78.3459,76.8343,78.4176,76.7075Q78.4757,76.6022,78.5806,76.6326L78.6959,76.6599Q78.8327,76.6984,78.9007,76.5551L80.5932,73.0449Q80.6494,72.9315,80.6019,72.8092Q80.575,72.7425,80.529,72.6903Q80.4,72.5571,80.4673,72.3788Q80.6196,71.9784,80.7803,71.5791Q81.0379,72.121,81.3073,72.9842C81.6035,73.9357,82.0737,74.8696,82.3699,75.7016Q83.0407,77.5751,83.6675,79.0298C84.1267,80.0948,84.4135,81.3007,84.8618,82.4421C84.9652,82.7064,85.0122,82.9903,85.1094,83.2545Q85.473,84.2471,86.2064,85.9895C86.4055,86.4613,86.5105,86.9684,86.6202,87.4872C86.7189,87.9629,87.0026,88.2586,87.0809,88.7617Q87.3019,90.1987,87.7611,91.2324Q87.8865,91.5143,87.9555,91.7766C88.1984,92.6987,88.6153,93.5856,88.8864,94.4431C89.1544,95.2868,89.529,96.0915,89.7484,96.9607Q89.9302,97.6792,90.1574,98.1628C90.4442,98.7697,90.7843,99.4118,90.9285,100.099Q91.0163,100.51,91.1761,100.874Q92.3029,103.443,93.5661,106.08Q94.1711,107.341,94.2823,108.768C94.2886,108.857,94.3444,108.928,94.4156,108.938L95.0816,109.03C95.1432,109.039,95.2001,109.076,95.2415,109.134C95.4656,109.447,95.6333,109.809,95.8605,110.128C96.5611,111.107,97.2209,112.11,97.9653,113.038Q98.785,114.062,99.5858,115.107C100.2,115.912,100.775,116.346,101.617,116.337Q102.261,116.329,102.868,116.779C103.516,117.261,103.865,116.866,104.265,116.412C104.348,116.318,104.433,116.222,104.523,116.131C104.715,115.937,105.041,116.023,105.272,115.79Q105.64,115.414,105.944,114.956C106.16,114.631,106.609,114.41,106.889,114.737Q106.974,114.833,107.076,114.882Q107.154,114.919,107.21,114.843Q107.297,114.727,107.342,114.567Q107.369,114.473,107.439,114.432C107.942,114.136,108.481,114.165,108.937,113.95Q109.284,113.786,109.63,113.641C110.041,113.47,110.324,113.204,110.652,112.895Q111.038,112.529,112.172,112.055Q112.711,111.83,113.1,112.19Q113.147,112.233,113.196,112.196Q113.225,112.174,113.233,112.129Q113.247,112.063,113.214,112.006C113.044,111.716,112.6,110.947,113.136,110.753Q114.045,110.422,114.603,109.843C114.643,109.802,114.701,109.803,114.739,109.847C115.139,110.303,115.453,110.123,115.785,109.933C115.985,109.819,116.192,109.7,116.429,109.713Q117.267,109.762,118.117,109.651C118.479,109.604,118.671,109.8,118.889,110.022C118.978,110.113,119.071,110.208,119.182,110.293Q119.192,110.301,119.201,110.3Q119.211,110.298,119.22,110.283L119.22,110.281Q119.226,110.27,119.225,110.261Q119.224,110.252,119.215,110.244Q119.024,110.074,118.894,109.856Q118.803,109.704,118.831,109.605Q118.859,109.506,119.005,109.459Q119.59,109.271,120.203,109.208Q120.3,109.199,120.364,109.287C120.631,109.649,120.947,109.993,121.361,109.95C121.43,109.943,121.495,109.908,121.547,109.85Q121.839,109.526,122.204,109.445C122.269,109.431,122.336,109.455,122.386,109.512Q122.626,109.79,122.928,109.896C122.985,109.915,123.046,109.905,123.097,109.866L123.836,109.312Q124.456,109.112,125.288,109.179Q125.628,108.926,125.94,109.005Q126.164,109.06,126.323,109.052Q126.41,109.046,126.473,108.968L126.719,108.652C126.758,108.603,126.809,108.571,126.865,108.562C127.33,108.487,127.513,108.706,127.761,109.004C127.807,109.06,127.856,109.119,127.91,109.179Q127.957,109.23,128.004,109.24Q128.059,109.249,128.111,109.218Q128.18,109.179,128.152,109.091Q127.815,108.071,127.462,107.147Q127.412,107.016,127.426,106.873C127.441,106.709,127.567,106.599,127.694,106.638L128.686,106.933Q128.774,106.959,128.858,106.922Q129.228,106.757,129.63,106.859Q130.13,106.985,130.184,106.845Q130.238,106.704,129.843,106.295C129.564,106.007,129.333,105.89,129.148,105.453C129.049,105.215,129.145,104.921,129.351,104.839C129.822,104.647,130.434,105.166,130.738,105.569Q130.943,105.843,131.223,105.749Q131.274,105.732,131.286,105.696Q131.297,105.66,131.269,105.604C131.046,105.156,130.651,105.097,130.647,104.426Q130.758,103.985,131.051,103.856Q131.371,103.713,131.807,103.785Q132.313,103.87,132.828,103.922Q132.947,103.934,132.977,103.791L132.994,103.707Q133.01,103.628,132.986,103.597Q132.962,103.567,132.899,103.586Q132.458,103.711,131.855,103.523Q131.137,103.298,130.388,103.666Q129.987,103.451,129.626,103.018L129.172,102.429C129.139,102.386,129.116,102.333,129.106,102.274L129.003,101.685Q128.987,101.594,129.016,101.546Q129.046,101.499,129.12,101.495Q129.869,101.446,130.366,102.047Q130.387,102.073,130.404,102.069Q130.421,102.066,130.434,102.031L130.471,101.927C130.481,101.897,130.474,101.862,130.452,101.843Q129.744,101.225,128.912,100.888C128.794,100.841,128.641,100.723,128.573,100.592Q128.304,100.064,128.054,99.7368L127.677,99.3824C127.266,98.8813,126.903,98.2391,126.412,97.9239Q125.577,97.3895,124.669,97.0018C124.321,96.853,124.024,96.6318,123.693,96.4439C123.315,96.1013,122.828,95.9603,122.485,95.743Q121.977,95.4219,121.46,95.1204C121.074,94.8972,120.83,94.584,120.485,94.3373Q120.015,93.9987,119.533,93.5895Q119.372,93.4524,118.704,92.6557Q118.272,92.1368,117.764,91.8236C117.421,91.6102,117.029,91.5554,116.662,91.3772C115.72,90.923,114.518,90.3298,113.439,89.6799Q112.846,89.3236,112.29,89.028Q111.832,88.7852,110.602,87.6908C110.086,87.2327,109.693,86.5984,109.227,86.0816Q108.204,84.9441,106.944,84.3509C106.734,84.251,106.519,84.0729,106.366,83.8771Q104.781,81.8509,103.516,80.3434C102.763,79.4448,101.827,78.9612,101.125,78.0861C100.661,77.5066,100.065,77.1347,99.5325,76.6589Q98.9527,76.1401,98.2741,75.6644Q97.0281,74.7893,96.2994,73.877Q94.903,72.1287,93.4031,70.3041Q92.9095,69.705,92.3327,69.2195C91.8829,68.8417,91.5773,68.3228,91.1103,67.9391Q90.4787,67.4203,89.8267,66.8643C89.145,66.2809,88.305,65.8013,87.5809,65.2003Q86.5151,64.3164,85.7266,63.601Q85.8943,63.4961,86.0649,63.3979Q87.0512,62.832,87.7827,62.0639Q88.6511,61.1444,89.5922,60.6022Q90.9515,59.8136,92.3592,58.6183C92.5649,58.44,92.7524,58.4064,93.0124,58.3365Q93.0542,58.3265,93.045,58.2833Q93.0278,58.2099,93.0214,58.1485Q93.004,58.0263,93.104,57.933Q95.2003,55.9709,97.7838,54.7007Q99.6636,53.7767,100.564,53.1686Q101.826,52.3129,103.182,51.3513Q103.768,50.9359,105.116,50.5847Q106.473,50.2322,107.806,49.2337C108.669,48.5861,109.276,47.8122,109.962,46.979Q110.318,46.5452,111.215,45.8531Q111.908,45.3169,112.356,44.5686Q113.19,43.1865,112.535,42.0277C112.125,41.2947,110.936,40.691,110.17,40.1205C109.611,39.7006,108.788,39.4001,108.234,38.7615Q108.196,38.7176,108.135,38.7257Q108.06,38.7356,108.004,38.7474Q107.919,38.7654,107.884,38.7319Q107.852,38.7005,107.862,38.6238Q107.94,38.0398,107.478,37.825Q104.965,36.6533,103.55,35.7592Q103.392,35.66,102.506,34.8964Q101.977,34.4414,101.257,34.2607Q101.045,34.204,101.034,34.001Q101.026,33.8374,100.926,33.7395C100.838,33.651,100.678,33.6816,100.626,33.7968Q100.506,34.0661,100.586,34.2335Q100.672,34.4179,100.487,34.5223Q100.32,34.6155,100.131,34.5871Q99.8932,34.5517,99.8092,34.3404Q99.4621,33.4345,98.7079,32.7913Q98.5352,32.6451,98.2965,32.6899Q97.0181,32.9252,95.8747,33.5875Q95.6724,33.7076,95.441,33.6848Q94.5876,33.6017,93.9747,34.0872Q93.7893,34.2317,93.5665,34.2923Q92.3682,34.6105,91.1732,34.9594Q90.5854,35.1348,90.1885,35.9076Q90.0895,36.103,89.8651,36.057Q88.8974,35.8377,87.9195,36.2558Q87.5252,36.4257,87.1186,36.5772C87.284,36.0354,87.535,35.5529,87.9628,35.2872Q88.5201,34.9439,88.7577,34.2095Q89.1289,33.0829,88.3623,32.0739Q88.1496,31.7883,88.2768,31.5612Q88.3826,31.3811,88.3281,31.1683Q88.2416,30.8237,88.2626,30.4464Q88.2751,30.2101,88.1034,30.073Q87.2873,29.4167,86.2751,29.3323Q85.692,29.2839,85.4462,28.9708Q85.2169,28.6787,85.281,28.1563C85.3366,27.7008,85.0726,27.2722,84.6785,27.1786Q83.7575,26.9587,82.8407,26.7737C82.8775,26.7485,82.9138,26.7193,82.9498,26.6857Q84.081,25.633,85.1839,24.7891Q85.2632,24.7299,85.311,24.7491Q85.3623,24.7697,85.3773,24.8804Q85.395,25.0306,85.4655,25.1474Q85.5246,25.2458,85.6001,25.2607Q85.6731,25.2751,85.7614,25.2117Q86.716,24.5232,87.8629,24.227Q88.0677,24.1729,88.1873,24.3615Q88.3168,24.5661,88.3431,24.8591Q88.3542,24.9723,88.4142,25.0122Q88.4658,25.0466,88.5536,25.0265Q89.8373,24.7204,91.0694,24.1815Q91.2547,24.0995,91.4421,24.1742Q91.8855,24.3534,92.3591,24.376Q92.4333,24.3804,92.4653,24.4194Q92.5003,24.4621,92.4847,24.5463L92.4613,24.6934Q92.4386,24.8195,92.4815,24.8483Q92.5221,24.8757,92.6218,24.8153C92.9973,24.5896,93.0544,24.1763,93.373,23.9846C93.7761,23.7431,94.0433,23.8477,94.3211,23.9565C94.4851,24.0207,94.6529,24.0864,94.8545,24.0831C95.0695,24.0776,95.2742,24.0155,95.471,23.9557C95.7412,23.8737,95.9966,23.7962,96.2432,23.876Q96.6695,24.014,96.7769,24.4441Q96.8174,24.6135,96.8877,24.627Q96.9559,24.64,97.0522,24.5067Q97.3461,24.1047,97.8498,24.1405C98.1849,24.1625,98.4966,23.9598,98.6307,23.6328Q99.1412,22.3771,100.547,21.8625Q100.733,21.7934,100.721,21.5814Q100.668,20.7472,100.899,19.9831Q100.959,19.7743,100.887,19.5748L99.4293,15.5577Q99.3512,15.3416,99.4234,15.1268L99.5654,14.7107Q99.6252,14.5281,99.5032,14.3878L98.9695,13.7849Q98.8906,13.6954,98.905,13.6251Q98.9188,13.5577,99.0183,13.5079Q99.1371,13.448,99.2265,13.3443Q99.3008,13.2615,99.2889,13.1938Q99.2773,13.1274,99.1827,13.0756L97.1947,11.9824Q96.9908,11.8707,96.9421,11.6288L96.8974,11.3864Q96.8523,11.1745,96.6689,11.0993Q95.7552,10.7183,94.8391,10.3507C93.847,9.95866,93.1316,10.0564,92.5589,8.87885Q92.4678,8.69072,92.2834,8.6069C91.5602,8.29146,91.0507,7.85965,90.2756,7.65593Q89.0617,7.34647,87.9176,6.80073Q87.3622,6.53214,85.4312,6.4776Q85.0279,6.46725,84.6918,5.98995C84.6117,5.87785,84.4799,5.82342,84.3504,5.84908L83.7075,5.97614Q83.4772,6.02066,83.3107,5.84719C82.6871,5.20423,82.0206,4.68048,81.0995,4.8935Q80.056,5.13629,79.2816,5.66498Q78.4812,6.21468,77.9813,6.48789C76.9581,7.04183,76.3158,7.86642,75.2104,8.2049Q69.8674,9.83716,64.58,12.081C63.3539,12.6017,59.6604,14.0348,58.5216,13.2921Q57.1274,12.3795,55.9125,11.5077C55.5647,11.2568,55.0987,11.3076,54.8019,11.6288Q54.4925,11.9676,53.9484,11.9678Q53.8994,11.9657,53.8739,11.9213Q53.8384,11.8607,53.8023,11.7959Q53.7555,11.7085,53.712,11.7101Q53.6686,11.7117,53.6285,11.8022Q53.5996,11.8671,53.6171,11.9476Q53.631,12.0105,53.6057,12.0419Q53.5833,12.0697,53.5303,12.0728Q52.2339,12.167,51.5318,10.9592Q51.4247,10.7733,51.2303,10.7083L49.74,10.188Q49.6152,10.146,49.5734,10.1876Q49.5288,10.2319,49.5787,10.3714Q49.8382,11.0946,50.2814,11.723Q50.4035,11.8982,50.4362,12.1073C50.8361,14.5816,52.9115,15.5888,53.8851,17.6577C54.2855,18.5099,54.6306,19.4089,55.323,19.8419Q56.0209,20.2873,56.1664,20.4549Q56.7616,21.1323,57.0527,22.0212Q57.1168,22.2218,57.2673,22.3625C58.2684,23.3158,59.0358,24.4231,60.0993,25.32Q60.7033,25.8304,61.2515,26.4183C61.8416,27.0528,62.5674,27.4246,63.199,28.0316Q63.5565,28.3795,64.8767,28.5567Q65.0745,28.5821,65.2198,28.4358Q65.5417,28.0997,65.9659,28.081Q66.0727,28.077,66.0944,28.1181Q66.1171,28.161,66.047,28.253Q64.6228,30.1306,62.9762,32.0167Q58.3216,37.3352,53.6764,42.6655C52.8853,43.5715,52.3968,44.8416,51.6157,45.7287Q50.4987,46.993,49.2851,48.1483Q48.7285,47.9488,48.2094,47.6583Q48.0267,47.5535,47.8074,47.5557L46.5754,47.5493C46.3996,47.5479,46.2443,47.455,46.1733,47.3088Q46.0874,47.1244,45.9217,46.9995Q45.7611,46.8784,45.5526,46.8925C45.3414,46.9095,45.1602,46.8733,44.9873,46.8388C44.8075,46.8029,44.6365,46.7687,44.4498,46.7978Q43.9054,46.8787,43.7107,47.1832Q43.5221,47.4781,43.6615,47.9826Q43.8578,48.6771,43.7822,49.0518Q43.7511,49.2116,43.5808,49.1807L43.4397,49.1548Q43.3591,49.1423,43.3443,49.1679Q43.3305,49.1917,43.3731,49.2481L44.3266,50.5232C44.3922,50.6111,44.4338,50.7123,44.4479,50.8185Q44.5153,51.3744,44.8127,51.8022C45.6189,52.9455,45.614,54.4138,46.7521,55.3532Q48.4661,56.7663,49.5942,58.6882ZM22.9736,22.099Q20.834,20.7764,19.4862,18.7173Q19.5871,19.3435,19.6863,20.1474Q19.8587,21.5449,19.9964,22.1713Q20.7983,25.8278,21.4932,29.7092Q21.6045,30.3452,21.5309,30.9392Q21.4985,31.2019,21.4788,31.462Q23.6225,29.3795,26.2486,27.1747Q34.03,20.635,39.7052,14.0097Q39.6352,14.0163,39.5652,14.0374Q39.4346,14.0773,39.1716,14.1581Q37.7414,14.5979,37.0119,14.7711Q35.7814,15.0632,34.7208,15.1098Q30.5453,15.292,28.0948,17.4981Q27.5811,17.9626,27.0421,18.6831Q26.7099,19.1273,26.083,20.0835Q25.3552,21.1937,24.9498,21.7168Q24.5845,22.1874,24.0258,22.2956Q23.4667,22.4038,22.9736,22.099ZM99.2164,34.4231Q99.3291,34.3593,99.4052,34.2647Q99.5565,34.0669,99.3994,33.8875Q98.8837,33.2884,98.0368,33.5425Q97.796,33.6142,97.8433,33.8393Q97.9516,34.3765,98.2731,34.8054Q98.4169,34.9955,98.6446,34.8899Q98.8769,34.7836,99.0371,34.5802Q99.1085,34.4862,99.2164,34.4231ZM70.2961,44.0107Q70.0649,44.0948,69.8338,44.1765Q69.6462,44.0446,69.4402,43.9289Q69.2679,43.835,69.112,43.9561Q68.931,44.0978,68.8612,44.3296Q68.8377,44.4086,68.8397,44.5161Q67.943,44.8122,67.0448,45.0713Q66.5955,45.2018,64.9488,45.797Q63.9556,46.1593,62.8312,46.361C62.7542,46.374,62.6751,46.3535,62.6154,46.3049Q62.4026,46.1308,62.4305,46.0144Q62.4443,45.9567,62.5173,45.9131Q62.5597,45.8877,62.5562,45.8738Q62.5527,45.8596,62.502,45.8574Q62.2959,45.849,62.0868,45.9033Q57.1326,47.1394,52.1626,48.3154Q50.9983,48.5935,50.1378,48.3957Q49.852,48.3314,49.5751,48.2453Q50.8859,47.0199,52.3423,45.8649C53.3004,45.1018,54.3675,44.4372,55.2105,43.5242Q55.3508,43.3699,55.5431,43.3131Q56.9316,42.8967,57.7409,41.5915Q57.9279,41.2826,58.2746,41.2614Q58.464,41.2486,58.5568,41.0702Q58.7438,40.7264,59.1099,40.6284Q59.3033,40.5802,59.3395,40.3704L59.3753,40.1562Q59.4126,39.9549,59.5599,39.8258L61.7121,37.9578Q61.8893,37.8071,62.1012,37.8828L62.3306,37.9692Q62.5385,38.0455,62.6943,37.8847L63.8368,36.7214C63.8792,36.6759,63.9333,36.6443,63.9926,36.6304L64.2414,36.5703Q64.4622,36.514,64.6069,36.3285Q65.1853,35.5824,66.1082,35.6613Q66.1931,35.6682,66.2277,35.6297Q66.2666,35.5865,66.2419,35.486Q66.1682,35.1691,66.3038,34.8716Q66.3906,34.6766,66.5919,34.697Q67.5708,34.8032,68.1921,34.0076Q68.3159,33.8512,68.5032,33.8561Q68.5762,33.8549,68.6361,33.8815Q68.7403,33.9279,68.7419,33.9775Q68.7435,34.0279,68.6393,34.0817Q68.4975,34.1534,68.4022,34.2754Q68.2495,34.4619,68.412,34.6359Q68.5195,34.7564,68.7199,34.7334Q68.8562,34.7191,68.99,34.5788Q69.1266,34.4352,69.2674,34.2989Q69.2864,34.365,69.3013,34.436Q69.3479,34.6515,69.5428,34.6227Q70.0493,34.5488,70.4585,34.8889Q70.6314,35.0305,70.6202,35.2713C70.6034,35.6887,70.6702,36.0768,70.7355,36.4565C70.7963,36.8097,70.8558,37.1555,70.8457,37.5108Q70.7442,40.7917,70.2961,44.0107ZM86.8501,37.845C86.8719,37.7113,86.8946,37.5739,86.9197,37.4352L87.9085,37.1215C88.0087,37.0897,88.1139,37.139,88.1435,37.2316L88.1488,37.2483C88.1783,37.3409,88.1211,37.4417,88.0209,37.4735L86.8501,37.845ZM63.7476,68.426Q63.7096,68.4967,63.6911,68.49Q63.6727,68.4834,63.6737,68.3996Q63.685,67.7895,64.1208,67.4358Q64.2509,67.3334,64.274,67.3595Q64.2971,67.3855,64.213,67.5403L63.7476,68.426ZM63.3568,69.1655C63.4017,69.1979,63.2704,69.5441,63.0637,69.9388C62.8569,70.3335,62.653,70.6271,62.6082,70.5947C62.5634,70.5623,62.6947,70.2161,62.9014,69.8214C63.1081,69.4268,63.312,69.1331,63.3568,69.1655ZM52.1284,70.367L52.5803,70.5417Q52.6563,70.5708,52.691,70.5418Q52.7257,70.5127,52.719,70.4253Q52.7146,70.3525,52.6832,70.2845Q52.6564,70.2311,52.5982,70.1923Q52.2358,69.9497,52.0747,70.1632C52.021,70.23,52.0488,70.3357,52.1284,70.367ZM62.95,71.7009C62.9094,71.674,62.9908,71.4137,63.1318,71.1194C63.2727,70.8251,63.4198,70.6083,63.4603,70.6352C63.5009,70.6621,63.4195,70.9225,63.2785,71.2168C63.1346,71.5173,62.9991,71.7193,62.9527,71.7023L62.95,71.7009ZM50.3072,72.8373C50.9829,72.5024,51.2334,71.7696,51.7525,71.493Q51.8062,71.4639,51.8241,71.4008Q51.8509,71.2989,51.7973,71.2018C51.7579,71.1311,51.6706,71.1113,51.6048,71.1581L50.173,72.1967C50.1043,72.2476,50.0666,72.335,50.0745,72.4248L50.0969,72.7063Q50.1058,72.8199,50.158,72.8528Q50.2106,72.886,50.3072,72.8373ZM62.2012,73.269Q62.0313,73.4793,61.9951,73.4514Q61.9586,73.4232,62.0576,73.1534Q62.2816,72.5372,62.7809,71.9887Q62.862,71.9007,62.8837,71.9176Q62.9052,71.9345,62.8679,72.0552Q62.6758,72.6795,62.2012,73.269ZM52.133,73.274L51.4886,74.1718Q51.3723,74.3369,51.1888,74.3903Q51.0501,74.4339,50.9517,74.5941C50.9002,74.6729,50.8947,74.7767,50.9375,74.8614C50.9804,74.9461,51.0641,74.9968,51.153,74.992Q51.6721,74.9629,51.7123,74.4193Q51.7302,74.1864,51.8913,74.036Q52.1956,73.7545,52.2761,73.3468Q52.312,73.157,52.2759,73.1392Q52.24,73.1216,52.133,73.274ZM78.7812,75.2104C78.8691,75.2591,79.0069,75.1311,79.0892,74.9244C79.1715,74.7176,79.1671,74.5104,79.0794,74.4616C78.9917,74.4128,78.8538,74.5408,78.7714,74.7476C78.6891,74.9544,78.6935,75.1615,78.7812,75.2104ZM58.7533,76.7292Q58.746,76.8105,58.8109,76.8308L58.9113,76.8581C58.9388,76.8678,58.9684,76.8515,58.9813,76.8197Q59.1559,76.3458,59.4877,76.0449Q59.6182,75.9293,59.6518,75.9598Q59.6855,75.9903,59.6217,76.1678C59.4311,76.6861,59.217,77.0399,58.7331,77.2848Q57.8282,77.7383,57.2148,78.6504Q57.1932,78.6818,57.1695,78.6834Q57.1472,78.6849,57.1231,78.6601Q57.0736,78.6089,57.1166,78.5521Q58.0697,77.3412,58.7823,75.938Q58.7886,75.9251,58.7974,75.9225Q58.8062,75.9198,58.8174,75.9275L58.898,75.9827Q58.9457,76.0137,58.9556,76.0559Q58.9659,76.1,58.9349,76.1564Q58.7888,76.4153,58.7533,76.7292ZM48.4544,76.6423Q48.4096,76.7491,48.5036,76.8073Q48.6244,76.885,48.6691,77.016Q48.7005,77.1082,48.7542,77.181C48.8028,77.2482,48.885,77.2754,48.96,77.2489Q49.036,77.2198,49.0808,77.1421Q49.1463,77.027,49.1171,76.9613Q49.0885,76.8969,48.9689,76.8801Q48.7676,76.8461,48.696,76.652C48.675,76.5988,48.6281,76.5635,48.5754,76.5613C48.5233,76.5592,48.4754,76.5912,48.4544,76.6423ZM46.9045,77.6651Q46.844,77.6274,46.7454,77.6614Q46.4322,77.773,46.4188,77.9574C46.4096,78.1828,46.6238,78.3385,46.8125,78.2438Q47.0542,78.1176,46.987,77.8118Q46.9647,77.7028,46.9045,77.6651ZM20.6468,81.1942Q14.915,86.7924,9.06005,92.2962C8.78578,92.1504,8.51489,91.9931,8.24758,91.8182Q9.38728,90.4572,10.4748,89.1917Q11.2659,88.2675,12.562,86.2061Q13.4757,84.753,13.934,84.161Q15.3412,82.3386,16.678,80.5099Q17.233,79.7499,19.6525,78.0463Q19.9956,77.8052,20.1642,77.8602Q20.3348,77.9159,20.4985,78.3279L20.9826,79.5519Q21.1511,79.9769,21.0586,80.4299Q20.9661,80.8832,20.6468,81.1942ZM77.5149,78.0529C77.4745,78.01,77.4122,78.0145,77.3781,78.0628L76.2938,79.7084C76.2743,79.7381,76.2694,79.7777,76.2808,79.8133L76.5555,80.6814C76.5699,80.7211,76.6027,80.748,76.6395,80.7503C76.6763,80.7525,76.7105,80.7298,76.7272,80.692L77.682,78.333C77.6997,78.2892,77.6904,78.2365,77.6592,78.2035L77.5149,78.0529ZM44.7987,80.3986Q44.9643,80.5539,45.188,80.5636Q45.4028,80.5733,45.4744,80.3501Q45.5863,79.9861,45.3536,79.3891Q45.3134,79.2849,45.2575,79.2739Q45.2015,79.2628,45.1299,79.3454Q44.8793,79.6318,44.7227,79.9957Q44.6242,80.2287,44.7987,80.3986ZM58.3618,83.0362Q57.6044,83.7669,57.4272,84.888Q57.4005,85.0632,57.4353,85.0824Q57.4699,85.1015,57.5657,84.9655Q58.6061,83.5176,59.4016,82.0194Q59.619,81.6074,59.5713,81.5601Q59.5702,81.559,59.569,81.5581Q59.5164,81.5199,59.2107,81.8299C58.9134,82.1337,58.7599,82.6497,58.3618,83.0362ZM74.6011,84.0496Q74.7837,83.8986,74.8714,83.6307Q74.8954,83.5544,74.9244,83.5525Q74.9525,83.5506,74.9851,83.6189Q75.0155,83.6846,74.9744,83.7496Q74.9357,83.8094,74.9256,83.8784Q74.77,84.8831,74.0693,85.3419Q73.7859,85.5296,73.684,85.4387Q73.5822,85.3479,73.6612,84.9796Q73.868,84.0168,74.6055,82.9931Q74.6736,82.8979,74.6963,82.9112Q74.719,82.9244,74.6966,83.0452Q74.6435,83.3643,74.4655,83.6151Q74.3519,83.7719,74.3753,83.9364Q74.3952,84.0695,74.452,84.0975Q74.5083,84.1253,74.6011,84.0496ZM40.2706,83.4269Q40.3283,83.2898,40.2881,83.2123Q40.2472,83.1334,40.1051,83.1163Q39.7739,83.0775,39.6621,83.4997C39.6155,83.6476,39.6869,83.8086,39.8224,83.8616C39.958,83.9145,40.1076,83.8399,40.1587,83.6938L40.2706,83.4269ZM56.7876,85.9918C56.7387,85.9419,56.4772,86.1981,56.2037,86.5639C55.9301,86.9297,55.7479,87.2666,55.7968,87.3165C55.8458,87.3663,56.1072,87.1101,56.3808,86.7443C56.6544,86.3784,56.8365,86.0415,56.7876,85.9918ZM39.2549,88.1539C39.2302,88.1146,39.1872,88.0937,39.1437,88.0998C39.1002,88.106,39.0636,88.1381,39.049,88.183Q38.8835,88.6635,39.0938,88.9692Q39.1881,89.1055,39.2564,89.0916Q39.3244,89.0779,39.3667,88.9158Q39.4697,88.513,39.2549,88.1539ZM37.0395,92.0995Q36.695,92.2645,36.4936,92.8372Q36.4357,92.999,36.4853,93.0634Q36.5354,93.1285,36.695,93.0943Q37.1022,93.0119,37.2319,92.2693Q37.2566,92.1281,37.2081,92.0858Q37.1599,92.0439,37.0395,92.0995ZM31.4466,92.6382Q31.3527,92.7352,31.3706,92.7813Q31.3884,92.8275,31.5182,92.8226Q31.8359,92.808,32.1492,92.3567Q32.2367,92.2277,32.2105,92.189Q32.1846,92.1506,32.0462,92.2014Q31.7778,92.2985,31.4466,92.6382ZM67.9355,98.7323C68.4352,97.7044,69.3435,97.795,69.7498,96.5927Q69.8142,96.4021,69.9576,96.276Q70.5144,95.7808,70.5318,94.9403C70.5313,94.9084,70.5165,94.8793,70.493,94.8639C70.4698,94.8488,70.4417,94.8503,70.4208,94.8677Q69.4128,95.6992,68.8158,96.9538Q68.7274,97.1384,68.5722,97.246Q67.9124,97.719,67.6318,98.6071Q67.6002,98.7132,67.692,98.7519L67.7962,98.7956C67.8483,98.8163,67.9062,98.79,67.9355,98.7323ZM65.0687,102.701C64.5483,103.208,63.7809,103.735,63.649,104.552Q63.6141,104.756,63.4742,104.881Q62.8229,105.47,62.4627,106.356Q62.4441,106.405,62.4835,106.428L62.4845,106.433Q62.5273,106.455,62.5512,106.413Q62.9739,105.601,63.6502,105.071Q63.739,105,63.7136,104.876L63.6892,104.756Q63.6715,104.664,63.7287,104.603L65.2859,102.923Q65.3246,102.88,65.3215,102.842Q65.3183,102.803,65.2723,102.768L65.1719,102.693C65.1392,102.669,65.0974,102.672,65.0687,102.701ZM21.665,109.382Q22.9805,108.406,23.9426,107.193Q24.0585,107.048,24.0433,107.029Q24.028,107.01,23.8799,107.12Q22.4033,108.212,21.5576,109.25Q21.3427,109.517,21.3697,109.55Q21.3966,109.583,21.665,109.382ZM52.0054,113.385Q51.936,113.41,51.8751,113.454Q51.7765,113.527,51.7797,113.596Q51.7829,113.666,51.891,113.731Q52.1743,113.897,52.6337,113.484Q52.7592,113.37,52.7481,113.274Q52.737,113.178,52.5893,113.101Q52.4179,113.012,52.2094,113.245Q52.1194,113.342,52.0054,113.385ZM49.4223,115.032L50.1521,114.986Q50.2745,114.979,50.3058,115.036Q50.3371,115.094,50.2776,115.217L50.2231,115.321Q50.1287,115.512,49.9414,115.467Q49.6092,115.381,49.385,115.161Q49.3262,115.102,49.3352,115.07Q49.3443,115.037,49.4223,115.032Z" fill-rule="evenodd" fill="#000000" fill-opacity="1"/></g></svg>