<svg xmlns="http://www.w3.org/2000/svg" xmlns:xlink="http://www.w3.org/1999/xlink" fill="none" version="1.1" width="126.76335906982422" height="128.76068115234375" viewBox="0 0 126.76335906982422 128.76068115234375"><g><path d="M29.1541,74.3534Q27.1814,77.2885,24.7336,80.4062C20.9122,85.2815,18.0524,90.9012,14.383,95.9767C13.6921,96.9274,12.9056,97.6954,12.1772,98.6046C11.9918,98.8359,11.6286,98.7984,11.4947,98.534C10.6831,96.9523,10.0713,95.3084,9.80496,93.5191C9.72551,92.9862,9.61948,92.4581,9.51357,91.9304C9.25888,90.6616,9.00484,89.396,9.12242,88.0766Q9.31803,85.9261,9.52612,83.6138Q9.56774,83.1446,9.3097,82.6589Q9.20149,82.4472,9.31803,82.2396L9.64681,81.675C9.70434,81.574,9.73846,81.4619,9.7467,81.3471Q9.92566,78.7358,10.192,76.1495C10.2342,75.7548,10.347,75.4016,10.4576,75.0555C10.6086,74.5824,10.7555,74.1226,10.7123,73.588Q10.7081,73.5216,10.6373,73.5133L10.3169,73.4843Q10.2211,73.4759,10.2045,73.5673Q9.95479,74.8335,9.80912,76.1329C9.72173,76.876,9.50115,77.4862,9.29306,78.1837Q9.21398,78.4494,8.98924,79.728Q8.71872,81.264,7.71571,82.4887C7.53242,82.7131,7.64207,83.0522,7.9238,83.1322Q8.23594,83.2194,8.23178,83.5058Q8.22969,83.6938,8.14754,83.7399Q8.0664,83.7855,7.90715,83.6926Q6.00934,82.5759,6.9416,80.9693Q7.01462,80.8444,6.97887,80.7874Q6.94331,80.7306,6.8001,80.741Q6.69189,80.7493,6.62114,80.8323Q6.30068,81.2018,6.37559,81.7165Q6.40472,81.9283,6.21328,82.0321Q5.80541,82.2479,5.31431,82.1732Q5.15472,82.1484,5.08183,82.2162Q5.00836,82.2847,5.02298,82.4472L5.12287,83.6179Q5.13734,83.7891,5.22781,83.8527Q5.31946,83.9171,5.48911,83.8711Q5.88449,83.7674,6.28403,83.8794Q6.58368,83.9625,6.63362,84.2697Q6.79594,85.2909,6.47547,86.2292Q6.4397,86.332,6.37093,86.3638Q6.3037,86.3948,6.20495,86.3579L6.05096,86.3039Q5.89267,86.247,5.84569,86.1411Q5.80003,86.0381,5.85952,85.8887Q6.05464,85.4041,5.91311,85.0554Q5.75277,84.6604,5.16032,84.4399C5.07325,84.4079,4.97551,84.4276,4.90773,84.4908C4.83995,84.554,4.81369,84.65,4.83986,84.7388Q5.24772,86.0756,5.0105,87.4455Q4.98136,87.5908,4.85235,87.6573Q4.4861,87.8441,4.41951,88.2592Q4.04911,90.4761,2.99616,92.6016Q2.92124,92.7552,3.01697,92.9005Q3.12101,93.0583,3.04194,93.2285L2.01812,95.4661Q1.91823,95.6861,1.93488,95.9228C1.97036,96.4558,1.87825,96.9571,1.78506,97.4641C1.70334,97.9088,1.6208,98.358,1.62274,98.8371Q1.63107,100.153,0.727941,101.178C0.635439,101.281,0.605302,101.427,0.648865,101.56Q0.869444,102.262,0.594761,102.914Q0.307593,103.611,0.25765,104.379C0.2319,104.775,0.181564,105.137,0.132164,105.494C0.037844,106.174,-0.053061,106.829,0.0370714,107.638Q0.370021,110.656,1.03592,113.33Q1.26898,114.264,1.20656,115.405Q1.00679,119.241,1.88494,122.5C2.31777,124.094,3.23754,124.788,4.35708,125.834Q4.8357,126.282,5.52241,126.452C7.26207,126.884,9.33051,127.204,11.0036,126.357Q13.6131,125.029,16.2309,123.841C17.958,123.057,19.4563,121.799,21.0378,120.773C21.787,120.288,21.8203,119.524,22.224,118.83Q22.6901,118.033,23.5891,117.228Q24.3798,116.518,24.0302,115.389Q23.9803,115.223,24.0469,115.061Q24.7211,113.446,25.6533,111.935Q27.3098,109.249,28.9537,106.555C29.5946,105.5,30.1024,104.388,30.7891,103.391Q31.6048,102.208,32.2665,100.913C33.1364,99.2066,35.0303,95.1756,35.9917,93.5192C40.6571,85.509,43.3643,80.1525,47.4814,70.6634Q47.8643,70.0096,48.1389,70.0521Q48.4137,70.0946,53.8042,68.7267L53.929,69.2747Q53.9586,69.4115,54.0373,69.4512Q54.1139,69.4898,54.237,69.4366Q54.7822,69.2041,55.3108,69.0588C56.0516,68.8554,56.8881,69.0588,57.5873,68.7018Q57.8511,68.5692,57.836,68.5172Q57.8209,68.4651,57.5249,68.4942Q56.2638,68.6188,55.9101,68.4485Q55.5138,68.2572,55.5346,68.1377Q55.5552,68.0188,55.9892,67.9711Q57.6747,67.7802,59.3436,67.2031C60.1094,66.9374,61.0042,66.8544,61.8074,66.7963C61.9758,66.7853,62.135,66.874,62.214,67.0227C62.293,67.1714,62.2772,67.3525,62.1737,67.4854Q60.8669,69.1418,61.7908,70.8439Q63.16,73.368,64.7957,76.2989C65.757,78.0218,67.1388,78.2875,68.8576,78.8604Q69.4486,79.0555,69.9813,78.989Q72.466,78.6652,75.3709,78.0301Q77.7557,77.507,79.8158,76.4359C83.4325,74.5595,87.3529,73.0525,91.1111,71.4791C91.7437,71.2134,92.189,70.7775,92.8799,70.5948Q97.0251,69.4906,100.875,66.4268Q101.295,66.0905,101.349,65.5508C101.557,63.4585,100.471,61.0507,99.156,59.4897C99.0642,59.3822,98.9395,59.309,98.8022,59.2822Q96.7213,58.8629,97.0834,56.5505C97.1666,56.0191,97.1042,55.4172,96.6339,55.0851Q95.5768,54.3461,94.4947,53.6487C93.9287,53.2833,93.7747,52.7229,93.7539,52.0711Q93.6748,49.5844,94.6237,46.9067C94.6745,46.7658,94.6097,46.6094,94.4739,46.5455Q94.1576,46.4002,93.9662,46.6535Q93.7414,46.9565,93.7705,47.3302Q93.8371,48.1771,93.0422,48.7375Q92.9526,48.7998,92.9016,48.7769Q92.8508,48.754,92.8383,48.6462Q92.6219,46.7199,93.7997,45.3458Q93.9162,45.2088,93.8496,45.022Q93.8037,44.8928,93.7241,44.8671Q93.6452,44.8417,93.5333,44.9182Q92.9756,45.3043,92.497,45.7402Q92.4179,45.8107,92.3097,45.8066Q92.2537,45.8045,92.2176,45.7767Q92.1113,45.695,92.1765,45.3914C92.1821,45.3611,92.1919,45.3318,92.2057,45.3043Q92.4845,44.694,92.2764,44.0796Q92.1016,43.5731,92.2327,43.4756Q92.3638,43.378,92.8008,43.6893Q95.2147,45.4039,97.9324,46.8112C98.4298,47.0687,99.0432,46.8759,99.3058,46.3795C99.8427,45.3665,100.771,44.8268,101.279,43.8056Q101.982,42.3733,103.168,41.3064C105.316,39.3718,103.863,36.113,102.656,34.0289C101.703,32.3767,100.534,31.0233,99.5306,29.4499Q98.3319,27.561,96.9877,25.7136Q96.559,25.12,95.9514,24.7131Q95.7599,24.5803,95.6933,24.3519Q95.6018,24.0281,95.377,23.7956Q95.1814,23.5964,94.9067,23.6462Q92.6094,24.0779,90.2496,23.9991C88.152,23.9285,85.4094,25.7095,83.9402,26.9632Q83.0121,27.752,81.9134,28.0882Q79.7159,28.7691,77.5892,29.699C75.2336,30.7286,72.5201,30.9444,70.0105,31.4675C68.9825,31.6834,68.0669,32.1483,67.0222,32.2646Q66.9514,32.271,66.9149,32.2388Q66.8806,32.2085,66.8766,32.1442Q66.8683,32.028,66.9806,31.9906Q68.6953,31.4467,70.2685,30.5791C72.5783,29.3088,74.9256,28.4494,77.3021,27.2538C78.8211,26.4899,80.54,26.3073,82.0882,25.5268Q84.9807,24.0655,87.8524,22.7163C89.0843,22.1392,89.9208,20.8481,91.057,20.0718C91.7395,19.6068,91.6355,18.8969,91.2942,18.2576Q89.8834,15.6049,87.6276,15.3018Q84.9016,14.9365,83.6822,12.9853C83.3284,12.4207,82.6292,12.7154,82.3213,13.1472C81.6013,14.1601,80.9062,14.8825,79.8075,15.4222Q75.9245,17.3402,72.0123,18.4652C71.6803,18.5606,71.3783,18.6923,71.0834,18.821C70.454,19.0957,69.8563,19.3564,69.0657,19.2208Q68.5039,19.1211,68.1584,19.5695Q68.077,19.6756,68.0972,19.7568Q68.1172,19.8374,68.2375,19.8933Q68.8993,20.1922,69.6567,20.0801Q69.8898,20.0427,70.0771,20.1797Q71.1924,20.981,72.5118,21.201C72.5622,21.2094,72.603,21.2467,72.6156,21.2962C72.6282,21.3457,72.6103,21.3979,72.57,21.4293Q70.3309,23.2186,67.4717,24.3602C67.3744,24.4011,67.2623,24.3836,67.1821,24.3151C67.1019,24.2465,67.0674,24.1386,67.093,24.0364C67.426,22.6042,67.2553,21.2508,67.5175,19.8186Q67.5508,19.6359,67.4925,19.4574Q67.2886,18.8679,67.4676,18.1746Q67.5383,17.9006,67.8213,17.9338C70.3934,18.2327,72.3578,16.6095,73.2817,14.2224Q73.7145,13.1015,73.8602,12.1841Q74.2597,9.61847,72.6782,7.45142C71.7585,6.19353,70.1978,5.43797,68.9991,4.40426Q67.2969,2.93465,65.0662,2.61499C64.7438,2.56834,64.3917,2.55042,64.0298,2.53202C62.9103,2.47508,61.6973,2.41338,60.9834,1.48165Q60.1427,0.38982,58.84,0.020342Q58.6403,-0.0377781,58.4571,0.0701594Q53.4005,3.0675,50.9741,5.6663Q48.6559,8.14886,45.8841,10.4695Q44.6689,11.4866,43.0915,11.7523C42.7217,11.8151,42.4179,12.0784,42.3041,12.4349C42.1902,12.7914,42.2853,13.1815,42.5505,13.4461C43.2164,14.1062,43.6409,14.7995,44.5732,15.1357Q46.1713,15.7128,47.6987,16.2442C48.3105,16.4601,48.8058,16.8129,49.2511,17.2737C49.6112,17.6443,50.172,17.7324,50.6245,17.4896L51.4943,17.0246C51.6103,16.9617,51.7512,16.9658,51.8632,17.0354C51.9752,17.105,52.041,17.2294,52.0354,17.3609Q51.973,19.1792,51.9646,20.8523C51.9593,21.6017,51.895,22.3406,51.8312,23.0739C51.7444,24.0711,51.6585,25.0577,51.7232,26.0457C51.755,26.5342,51.6145,27.0137,51.4753,27.4887C51.2856,28.136,51.0984,28.775,51.3528,29.4167C51.5916,30.0192,51.1815,31.1685,50.8975,31.9643C50.8449,32.1116,50.7967,32.2468,50.7577,32.3642C50.5332,33.0332,50.687,33.6963,50.8417,34.3629C50.9135,34.6726,50.9856,34.983,51.0199,35.2951Q51.0407,35.5027,50.8409,35.5567L49.8213,35.8224Q49.6132,35.8763,49.4425,36.0092L47.5489,37.4788Q47.4881,37.5248,47.4833,37.576Q47.4785,37.6266,47.5281,37.6822Q47.578,37.7403,47.5281,37.7943Q47.4282,37.8981,47.2909,37.9355C46.4169,38.1887,45.7135,38.5748,44.7604,38.6454Q42.101,38.8363,39.5997,39.7745Q39.3708,39.8576,39.2085,40.0444Q38.7133,40.609,38.0557,40.5301Q37.8137,40.501,37.8017,40.4322Q37.7899,40.3638,38.0057,40.2561L44.1154,37.2256Q44.311,37.1259,44.3817,36.9225Q44.6273,36.2085,45.3847,36.1918Q45.6428,36.1835,45.7884,35.976Q46.2587,35.2951,47.0203,35.0834Q48.1149,34.7845,48.9764,34.0663Q49.1036,33.9603,49.0856,33.9219Q49.0677,33.8837,48.9057,33.9127C48.6482,33.9605,48.3935,34.063,48.1389,34.1655C47.6856,34.3479,47.2329,34.5302,46.7665,34.4026Q46.55,34.3445,46.4252,34.1535Q46.3378,34.0206,46.1963,33.9501Q46.0653,33.8817,46.0413,33.9085Q46.0172,33.9354,46.1006,34.058Q46.138,34.1203,46.2005,34.1576C46.3289,34.2452,46.3793,34.4081,46.3211,34.5479Q46.034,35.2412,45.3473,35.4031Q43.7991,35.7642,42.1551,36.4202Q38.114,38.0392,33.5526,39.9323Q32.2291,40.4803,30.7766,39.6624Q30.6095,39.5687,30.5189,39.6172Q30.429,39.6653,30.4145,39.8534Q30.3771,40.3267,30.5435,40.8165Q30.6392,41.0822,30.3729,41.186L29.6279,41.4683C29.4872,41.5225,29.3979,41.6603,29.4073,41.8087Q29.5364,43.7392,29.7736,45.3665Q29.9026,46.2425,29.2159,47.4796Q29.1285,47.6332,29.141,47.8117Q29.2533,49.6716,29.4073,51.5148Q29.4989,52.5734,29.7986,53.632C30.1606,54.8941,30.4894,57.0279,31.9461,57.3725C33.4984,57.7378,34.9884,57.2563,36.4825,56.729Q38.0099,56.1893,38.9879,55.3674C40.8733,53.7898,43.4162,52.7146,45.6428,51.7182C47.0453,51.0914,48.2148,50.1781,49.5757,49.4806Q53.4463,47.4921,57.1795,45.3914Q59.3936,44.146,61.8491,43.6354C62.3776,43.5233,62.7022,43.2867,62.9644,42.8175Q63.3568,42.1222,63.6571,42.1598Q63.9556,42.1971,64.1631,42.9587Q64.4294,43.9218,65.0662,44.8559C65.8089,45.9493,65.5485,46.7451,65.1855,47.8547C65.1722,47.8953,65.1588,47.9363,65.1453,47.9778Q64.9746,48.4926,64.6375,48.9202Q64.1547,49.5304,63.8426,50.2279Q62.1654,53.9808,58.7402,57.5884C57.6414,58.7466,56.372,58.3439,55.2858,59.2282Q54.8197,59.6101,52.2605,60.7241C51.8004,60.9034,49.0441,61.5938,49.1031,61.1047C49.1227,60.9369,49.1459,60.7739,49.1682,60.6156C49.3264,59.4933,49.4508,58.6096,48.0794,57.9619C47.0847,57.4887,46.1193,56.8287,45.0621,56.563C44.4623,56.4116,43.9098,56.4479,43.3643,56.4835C42.6684,56.529,41.9842,56.5735,41.233,56.2267Q40.9416,56.0897,40.6295,56.1603L38.8148,56.5838C38.643,56.6238,38.493,56.724,38.3911,56.866Q37.8251,57.6631,37.0177,58.1489Q34.9991,59.3694,32.8928,60.4862Q32.7929,60.5402,32.8343,60.6438L32.8763,60.7394Q32.8804,60.7477,32.8884,60.7435Q34.0121,60.3325,35.065,60.6397Q35.3189,60.7144,35.5769,60.6397L36.2807,60.4405Q36.4264,60.399,36.4826,60.4519Q36.5388,60.5048,36.5058,60.6521C33.5525,66.3106,31.7721,70.4635,29.1541,74.3534ZM52.4308,36.6983L48.0608,38.4751L48.0566,38.4793L48.0525,38.4751L48.0483,38.4627C47.7913,37.8345,48.4733,36.9628,49.5716,36.5157L49.9711,36.3496C51.0712,35.9018,52.1729,36.0508,52.4266,36.6817L52.4308,36.69L52.4349,36.6942L52.4308,36.6983ZM67.2179,43.6977C66.2648,43.0749,65.8861,42.1118,64.6958,41.817Q64.4776,41.7632,64.4742,41.6979Q64.4707,41.6324,64.6833,41.5555C66.8183,40.775,68.7994,39.6541,70.9844,38.9858Q75.3293,37.6615,79.7784,36.8021Q80.2206,36.7172,80.2858,36.8368Q80.3514,36.957,80.0364,37.2837Q75.654,41.8212,70.7055,45.9643C70.5235,46.1176,70.2561,46.1105,70.0854,45.9477Q68.8119,44.7438,67.2179,43.6977ZM44.7104,37.3211L45.6427,37.1177C45.7528,37.0948,45.848,37.1965,45.8175,37.3045Q45.5969,38.1099,44.7479,37.9106Q44.4774,37.8484,44.5023,37.5578Q44.519,37.3626,44.7104,37.3211ZM82.285,61.5814C82.2941,61.6241,82.3281,61.6572,82.3712,61.6651Q82.9164,61.7523,83.4241,61.5198Q84.6394,60.9676,85.7589,60.4363Q86.2958,60.183,86.9576,60.1249C87.1024,60.1129,87.2589,60.1056,87.4217,60.0981C88.3815,60.0537,89.557,59.9994,89.8168,58.8919C89.8438,58.7756,89.8712,58.6587,89.8987,58.5412C90.5504,55.7597,91.2738,52.6718,88.3268,51.0706Q87.2239,50.4687,86.3541,49.8376C86.219,49.739,86.0604,49.613,85.885,49.4737C85.0339,48.7974,83.7866,47.8063,82.8998,48.1023Q82.0591,48.3805,81.2392,47.9861Q81.0352,47.8865,80.8105,47.9197Q78.9044,48.202,78.0221,48.7001Q76.2325,49.7172,76.8276,51.3446Q76.9108,51.5688,76.7444,51.7473Q75.4542,53.1297,73.6979,53.8645C73.5836,53.9135,73.4514,53.8939,73.3563,53.814C73.2612,53.734,73.2194,53.6074,73.2484,53.4867Q73.881,50.8838,72.7573,48.505Q72.6657,48.3141,72.7906,48.1397Q73.3774,47.3053,74.5635,47.7162Q75.0854,47.8978,75.3906,47.7165Q75.6088,47.587,75.7164,47.272Q75.7705,47.1184,75.9328,47.135L77.5684,47.3302C77.7313,47.3491,77.895,47.3202,78.0387,47.2471C79.9282,46.3006,82.0591,45.9519,84.0526,45.2212Q85.8172,44.5778,87.6068,44.0464Q89.4505,43.4984,91.2027,43.0002C91.3283,42.9658,91.4624,43.0037,91.5504,43.0985C91.6382,43.1931,91.6647,43.3288,91.6189,43.4486L91.615,43.4586C90.6963,45.8513,89.6887,48.4754,90.3204,51.0582C90.5618,52.0504,90.6491,53.1422,91.0653,54.0721Q91.7521,55.5998,92.189,57.0777C92.5923,58.4338,90.763,60.0338,89.5984,61.0525C89.5008,61.1377,89.408,61.219,89.3215,61.2956Q88.3352,62.1674,87.1365,62.5452C85.6175,63.0226,84.3398,63.9235,82.8623,64.5047Q80.7772,65.3308,78.8419,66.3106Q78.0221,66.7257,77.1023,67.0453C76.2657,67.3401,75.5499,67.6722,74.6593,67.8673Q72.3536,68.3738,70.0604,68.324C69.9962,68.322,69.9379,68.2858,69.9078,68.2292C69.8777,68.1726,69.8803,68.1042,69.9148,68.05Q70.847,66.5596,71.0218,64.6541C71.0499,64.3262,71.2687,64.046,71.5795,63.9401Q73.186,63.3838,74.909,63.0309C76.5404,62.6988,78.072,62.0221,79.6244,61.416Q80.6399,61.0216,81.543,60.4321Q82.5377,59.7886,83.4491,59.3154Q83.5032,59.2863,83.5657,59.2905Q83.7253,59.307,83.7517,59.375Q83.7783,59.4436,83.6697,59.5645Q83.3243,59.9381,83.4533,60.4404C83.4903,60.5952,83.4268,60.7552,83.2951,60.839L82.3296,61.47C82.2935,61.4947,82.2759,61.5387,82.285,61.5814ZM65.6779,49.4552C65.6827,49.76,65.5525,50.0093,65.387,50.0119C65.2216,50.0145,65.0835,49.7694,65.0787,49.4645C65.0739,49.1597,65.2041,48.9104,65.3696,48.9078C65.5351,48.9052,65.6731,49.1503,65.6779,49.4552ZM64.392,57.5759Q63.93,57.1898,64.0257,56.5837Q64.0488,56.4432,63.9891,56.3769Q63.9307,56.3119,63.7927,56.318Q63.622,56.3222,63.468,56.235C63.3796,56.1833,63.3356,56.0788,63.3598,55.9776Q63.8676,53.9268,64.4669,51.7348Q64.6209,51.1661,65.0495,50.8921C65.1546,50.8271,65.2866,50.8247,65.3932,50.8857C65.4995,50.9465,65.5629,51.0612,65.5573,51.1827Q65.4449,53.686,64.7291,56.0108C64.6916,56.1367,64.702,56.2726,64.7582,56.3928Q65.0121,56.9324,64.6916,57.5178Q64.6328,57.6247,64.5569,57.6385Q64.4826,57.652,64.392,57.5759ZM113.145,59.9436L113.128,58.8981C113.13,58.7511,113.023,58.6255,112.878,58.6045C112.732,58.5835,112.593,58.6735,112.553,58.815Q112.36,59.4292,112.586,60.0489C112.634,60.1827,112.771,60.2621,112.911,60.2358C113.05,60.2096,113.149,60.0855,113.145,59.9436ZM105.026,108.477Q102.493,109.506,99.0866,110.326C93.9766,111.314,89.0992,111.358,83.9012,107.784Q83.0605,107.373,83.1852,106.625Q83.3974,105.359,83.7544,104.043C84.1789,102.482,84.2706,100.896,84.7992,99.3186Q85.5816,96.9897,86.3525,94.7271Q86.7062,93.6851,87.2802,92.6806C87.3477,92.5648,87.4517,92.4744,87.5759,92.4233C89.8774,91.4809,91.2458,88.579,91.2209,86.3206Q91.2042,84.851,90.838,83.5806Q90.4052,82.0819,88.5831,80.9651Q86.1442,79.4665,82.6104,79.5828C82.2025,79.5953,81.7651,79.508,81.6319,79.0596C81.4352,78.4219,80.6112,78.2342,80.1007,78.7109C79.1975,79.5578,78.074,79.8235,76.9378,80.2387Q76.1179,80.5417,76.0762,81.3429Q76.0679,81.5713,75.8931,81.7249L74.7402,82.746Q74.5613,82.9038,74.5031,83.1321Q74.2201,84.2779,72.7677,84.8011Q71.5858,85.2287,70.5911,85.8015C70.2001,86.0263,69.7063,85.9562,69.3964,85.6315Q68.4308,84.6185,67.6699,83.5473C67.2204,82.9121,66.5206,82.4762,65.8838,82.0362C65.7658,81.9558,65.6814,81.8347,65.6466,81.6958C65.4568,80.9293,66.2225,80.5156,66.8943,80.1525C67.1213,80.0299,67.3383,79.9129,67.5033,79.7903Q67.7095,79.6345,67.6875,79.5931Q67.6666,79.5516,67.4194,79.6243Q66.3374,79.9399,65.2098,80.5749C64.8729,80.7638,64.4629,80.7685,64.1231,80.5874Q62.9952,79.9895,61.5847,79.5454C60.5775,79.2258,59.8579,78.3581,58.8465,77.9844C57.9309,77.6482,56.4702,77.1458,55.9749,78.3705Q55.7664,78.8877,55.4068,79.0328Q54.9699,79.2091,54.3102,78.8355Q54.2735,78.8152,54.2451,78.8236Q54.2163,78.8326,54.1977,78.8729L54.1436,78.9848Q54.0996,79.0851,54.1315,79.1455Q54.163,79.205,54.2683,79.2258C54.7053,79.3171,55.1794,79.4085,55.5623,79.6451Q57.3394,80.7245,59.2503,81.6293Q59.4834,81.7373,59.5206,81.9946Q59.8494,84.2987,57.9552,85.5775Q55.7119,87.0886,53.9605,88.5333Q47.3515,93.9883,42.1696,99.7712C40.8045,101.295,39.6928,102.98,38.411,104.566Q36.9418,106.376,36.7882,108.734Q36.6176,111.358,36.5091,114.388C36.4883,114.965,36.9587,115.717,37.4997,116.049Q38.6651,116.755,38.5025,118.428Q38.4942,118.498,38.4452,118.548L38.3238,118.66Q38.2488,118.731,38.2632,118.76Q38.2768,118.789,38.3779,118.777Q38.4653,118.768,38.5445,118.723Q38.6527,118.665,38.7695,118.71Q39.3563,118.947,39.3233,119.586C39.3025,119.989,38.9027,120.246,38.5864,120.42Q38.191,120.645,38.1992,121.093L38.2036,121.483Q38.2077,121.697,38.3018,121.75Q38.3965,121.803,38.582,121.695Q39.4352,121.197,40.3173,121.558C40.4988,121.63,40.7008,121.63,40.8799,121.558Q41.371,121.359,41.8949,121.433Q42.0253,121.452,42.0791,121.526Q42.1338,121.601,42.1111,121.732L42.0118,122.355C41.9687,122.619,42.2176,122.835,42.4696,122.754Q43.2562,122.505,43.9347,122.044Q44.2302,121.84,44.4918,122.089C44.5844,122.177,44.6046,122.317,44.5414,122.43L44.3131,122.837Q44.1965,123.04,44.3881,123.181L45.1493,123.733Q45.3657,123.891,45.5575,123.7Q46.1984,123.073,46.9387,123.679Q47.1551,123.849,47.3932,123.712Q48.2755,123.189,49.3491,122.903C50.0109,122.725,50.3514,122.214,50.6719,121.662Q51.1713,120.79,51.9792,120.304C52.1239,120.217,52.2443,120.094,52.3289,119.947C52.6868,119.337,53.0196,118.735,53.6814,118.403Q54.9841,117.755,56.1117,116.144Q56.4363,115.684,56.457,115.173C56.5028,113.99,57.4898,113.346,58.2431,112.516C59.0214,111.661,59.9534,111.101,60.3987,110.017C60.7317,109.207,61.3138,108.547,61.7424,107.754Q62.7829,105.828,63.7657,103.852C64.4149,102.54,65.4177,101.511,65.9213,100.103C66.6954,97.957,67.8234,96.0267,68.7598,93.9552C69.2717,92.8301,70.096,91.8875,71.2155,91.3935Q72.5557,90.8081,74.0408,90.0859Q74.3862,89.924,74.7358,89.9821Q74.8664,90.0028,74.898,90.0699Q74.9297,90.1374,74.8616,90.2518C74.6535,90.5964,74.4406,91.0864,74.374,91.4807Q73.371,97.3509,71.3733,103.188C70.9904,104.309,70.9529,105.371,71.0611,106.526Q71.4107,110.212,72.1599,113.525C72.909,116.858,75.4065,119.96,78.041,122.139Q81.5568,125.045,85.5427,125.857Q87.9116,126.563,91.2164,127.258Q92.8024,128.115,94.8581,128.11C95.1204,128.107,95.3872,128.182,95.6612,128.258C95.9356,128.335,96.2176,128.414,96.5107,128.42Q98.6659,128.447,101.959,128.724Q104.468,128.929,106.96,127.994Q106.979,127.986,106.99,127.992Q107.002,127.998,107.004,128.021Q107.01,128.049,107.026,128.071Q107.093,128.165,107.203,128.126C108.894,127.54,110.646,127.401,112.365,126.842Q114.199,126.25,116.172,125.985C117.515,125.802,118.676,125.111,120.013,124.779C120.494,124.662,120.853,124.397,121.24,124.098C121.452,123.93,121.729,123.869,121.991,123.932C124.191,124.452,125.711,121.674,125.81,119.92Q125.821,119.66,126.042,119.533Q126.23,119.428,126.446,119.444Q126.711,119.461,126.755,119.201Q126.788,119.029,126.694,118.874Q126.545,118.636,126.545,118.354Q126.545,113.939,126.147,110.026Q126.031,108.914,125.357,107.448Q124.02,104.554,124.439,101.245Q124.511,100.669,124.318,100.36Q123.986,99.8285,123.429,99.7897Q123.13,99.7732,123.003,99.5075Q122.782,99.0593,122.367,98.7495Q122.156,98.5907,122.174,98.4656Q122.192,98.3422,122.433,98.2515Q122.55,98.2072,122.671,98.2349C122.885,98.2903,123.093,98.1242,123.085,97.9028Q123.085,97.7589,122.986,97.6648Q122.754,97.4325,122.87,97.1226Q123.384,95.7448,122.726,94.0017Q122.101,92.3527,122.035,91.6943Q121.892,90.2224,121.765,88.7341Q121.726,88.2914,121.289,88.3023Q121.124,88.3023,121.069,88.0865Q121.03,87.9298,121.09,87.8674Q121.15,87.8042,121.312,87.8375Q121.422,87.8597,121.532,87.8264Q121.724,87.7745,121.762,87.6683Q121.8,87.5599,121.677,87.3949Q121.284,86.8803,121.433,86.2439Q121.51,85.9174,121.185,85.8345Q121.013,85.7902,120.853,85.8677Q120.626,85.9784,120.467,85.7902Q119.908,85.1428,118.891,85.1208C118.709,85.1187,118.557,84.9783,118.537,84.7942Q118.476,84.1634,118.643,83.516Q118.687,83.3391,118.783,83.303Q118.88,83.2669,119.029,83.372C119.615,83.7925,119.256,84.4455,120.085,84.7111Q120.217,84.7551,120.283,84.7075Q120.35,84.6594,120.35,84.5175Q120.333,83.4551,119.62,82.7081Q119.405,82.4757,119.527,82.188Q120.035,80.9429,119.062,79.7808Q118.206,78.7516,118.996,77.9769Q119.104,77.8742,119.089,77.7966Q119.073,77.7195,118.935,77.667Q118.692,77.5785,118.465,77.667Q118.359,77.709,118.3,77.6734Q118.242,77.6384,118.228,77.5288Q118.212,77.4015,118.267,77.2909Q118.427,76.9866,118.206,76.7154Q117.957,76.4166,118.101,76.0404Q118.212,75.7527,118.085,75.4704C117.709,74.6404,117.117,73.9763,117.029,73.0356Q116.874,71.3811,116.183,69.7821Q116.067,69.5109,116.061,69.2176L116.05,68.5426Q116.045,68.2217,115.747,68.0942Q115.222,67.8784,115.316,67.2977Q115.343,67.1593,115.211,67.0983Q114.465,66.7386,114.603,65.8533Q114.918,63.7561,114.034,61.5927Q113.995,61.4986,113.896,61.5041L113.503,61.5318C113.424,61.5384,113.374,61.6171,113.404,61.6866Q113.851,62.8209,114.105,64.1546C114.192,64.6134,114.155,65.0348,114.119,65.4561C114.078,65.9242,114.038,66.3919,114.166,66.9102Q114.221,67.1205,114.083,67.2921Q113.902,67.5147,113.925,67.7131Q113.949,67.9194,114.194,68.0998Q114.929,68.6476,114.741,69.5054Q114.675,69.7986,114.857,70.0311L115.145,70.4019Q115.305,70.6122,115.233,70.8667Q115.001,71.7133,114.449,72.3828C114.344,72.5091,114.278,72.6609,114.26,72.8198Q114.05,74.4743,113.879,76.3005Q113.868,76.4111,113.912,76.5162Q113.957,76.6158,114.056,76.6489Q114.365,76.7651,114.504,76.4664Q114.559,76.3446,114.669,76.2728Q114.896,76.1235,114.987,76.1828Q115.078,76.2421,115.034,76.5107Q114.902,77.302,115.183,78.0102Q115.288,78.2703,115.553,78.3589Q116.271,78.5968,116.261,79.5208Q116.261,79.8417,115.968,79.9636Q115.697,80.0798,115.586,80.3398C115.5,80.5468,115.304,80.6873,115.081,80.7026C114.857,80.7178,114.645,80.6052,114.531,80.4118Q113.962,79.46,114.421,78.4364C114.496,78.2695,114.503,78.0813,114.443,77.9108Q114.338,77.623,114.056,77.4624Q113.813,77.3185,113.669,77.0751Q113.32,76.4665,113.26,76.0238Q112.957,73.9266,112.917,70.6398Q113.07,70.4398,113.04,70.2726Q113.013,70.1253,112.846,70.0034Q112.564,69.7986,112.574,69.4555Q112.624,68.1275,112.58,66.8825C112.561,66.3273,112.626,65.8036,112.691,65.285C112.777,64.5939,112.863,63.9115,112.746,63.175C112.723,63.0269,112.572,62.9334,112.425,62.9759Q112.293,63.0146,112.282,63.1531Q111.884,68.5371,111.531,74.0318Q111.437,75.4927,111.248,76.7818Q111.049,78.1099,111.006,79.4324Q110.834,84.324,110.077,89.1102Q110.032,89.3868,109.873,89.6192C109.515,90.1443,109.548,90.5286,109.589,90.9902C109.604,91.1562,109.619,91.3323,109.618,91.5284Q109.607,92.5189,109.452,93.5148Q108.977,96.5803,108.877,99.3139C108.833,100.498,108.49,101.555,108.391,102.75C108.269,104.255,107.559,107.448,105.026,108.477ZM53.1209,70.9413C52.9706,70.8279,53.0128,70.5196,53.2152,70.2526C53.3737,70.0436,53.5683,69.9238,53.7343,69.9331C53.7799,69.9357,53.8216,69.9501,53.854,69.9745C54.0043,70.0879,53.9621,70.3963,53.7596,70.6633C53.5572,70.9302,53.2712,71.0547,53.1209,70.9413ZM115.205,74.5143C115.218,74.9328,115.08,75.2763,114.896,75.2818C114.713,75.2872,114.555,74.9525,114.542,74.534C114.53,74.1155,114.668,73.7719,114.851,73.7665C115.034,73.7611,115.193,74.0958,115.205,74.5143ZM7.66986,77.8557Q7.62408,77.8931,7.62408,77.9553Q7.6324,78.084,7.51587,78.1546Q7.36003,78.2456,7.32656,78.3695Q7.28673,78.5169,7.42015,78.7109Q7.51412,78.8442,7.58609,78.8333Q7.65755,78.8225,7.70731,78.6694Q7.83217,78.2875,7.79888,77.9097Q7.79269,77.8377,7.76095,77.8238Q7.72864,77.8097,7.66986,77.8557ZM115.736,79.7922Q115.819,79.1614,115.189,78.7685Q115.002,78.65,114.943,78.6962Q114.883,78.7429,114.952,78.9566Q115.112,79.4435,115.389,79.8697Q115.527,80.0826,115.614,80.0633Q115.701,80.0441,115.736,79.7922ZM120.65,84.9272Q120.749,85.0157,120.804,85.1374C120.885,85.3144,121.126,85.3389,121.241,85.1817Q121.351,85.0267,121.34,84.8333C121.326,84.6848,121.218,84.5633,121.074,84.5344Q120.881,84.4901,120.699,84.5785Q120.558,84.6478,120.546,84.7352Q120.534,84.8222,120.65,84.9272ZM58.3964,86.8435Q57.1604,87.4662,56.1327,88.4626Q52.4245,92.0578,48.6078,95.9684C46.0982,98.5465,43.5053,101.61,41.928,104.815Q41.3328,106.023,40.7509,107.352C40.6854,107.498,40.7095,107.669,40.8137,107.791C40.9183,107.914,41.0843,107.967,41.2418,107.929L42.4608,107.617Q42.6897,107.563,42.8977,107.667Q43.9922,108.215,44.8503,107.418Q48.7333,103.806,52.0167,99.9415C53.2527,98.4885,53.7937,96.479,54.8508,94.7686Q55.4459,93.8055,55.954,92.5559Q56.4076,91.4309,56.9943,90.3183Q57.8183,88.7574,58.5299,86.9681Q58.5781,86.847,58.5443,86.8163Q58.5107,86.786,58.3964,86.8435ZM5.20194,87.4248L6.77513,86.993C6.82002,86.9798,6.86706,87.006,6.87917,87.0511L6.8875,87.0927C7.00544,87.5255,6.73924,87.9749,6.29235,88.0973L6.17998,88.1305C5.73259,88.2512,5.27461,87.9987,5.15616,87.5659L5.14368,87.5244C5.13302,87.481,5.15879,87.4369,5.20194,87.4248ZM120.267,93.8026Q119.985,93.5093,120.234,93.2215C120.296,93.1524,120.396,93.1324,120.478,93.1719Q120.848,93.3545,120.676,93.7306Q120.602,93.9016,120.5,93.92Q120.397,93.9385,120.267,93.8026ZM122.229,94.0349Q122.395,94.3005,122.323,94.6049Q122.301,94.6935,122.329,94.7819Q122.378,94.9258,122.307,95.0254Q122.279,95.0641,122.251,95.0641Q122.224,95.0641,122.196,95.0254Q121.898,94.5772,122.019,94.0682Q122.052,93.9352,122.105,93.9272Q122.157,93.919,122.229,94.0349ZM60.2641,111.048L63.9323,105.435C63.9649,105.385,64.0322,105.371,64.0823,105.404L64.3051,105.549C64.3292,105.564,64.3467,105.589,64.3526,105.617C64.3585,105.645,64.3528,105.674,64.3371,105.698L60.669,111.311C60.6533,111.335,60.6287,111.352,60.6006,111.358C60.5725,111.364,60.543,111.358,60.519,111.343L60.2961,111.197C60.2461,111.165,60.2315,111.098,60.2641,111.048ZM56.0698,118.295C56.0731,118.291,56.0797,118.291,56.083,118.295L56.1404,118.349C56.2793,118.472,55.8384,119.157,55.1674,119.86L55.0835,119.943C54.4079,120.65,53.7631,121.113,53.6229,120.989L53.5644,120.935C53.5607,120.932,53.5607,120.926,53.5644,120.923L56.0698,118.295ZM36.1351,120.342Q36.6928,119.872,37.2339,119.573Q37.3728,119.497,37.3872,119.516Q37.4023,119.536,37.2923,119.652Q36.8221,120.146,36.1351,120.342ZM36.134,120.342C35.7844,120.616,35.1944,120.96,34.7782,121.126Q34.5904,121.201,34.5763,121.178Q34.5633,121.155,34.7241,121.035Q35.3692,120.545,36.134,120.342ZM50.2306,123.057C50.2537,123.044,50.2836,123.051,50.2979,123.073L50.3012,123.082C50.5264,123.449,50.1549,124.087,49.4694,124.51L49.0027,124.8C48.3149,125.225,47.5718,125.269,47.3469,124.9L47.3424,124.892C47.3294,124.868,47.3366,124.84,47.359,124.825L50.2306,123.057Z" fill-rule="evenodd" fill="#000000" fill-opacity="1"/></g></svg>