<svg xmlns="http://www.w3.org/2000/svg" xmlns:xlink="http://www.w3.org/1999/xlink" fill="none" version="1.1" width="128.3664093017578" height="125.66783142089844" viewBox="0 0 128.3664093017578 125.66783142089844"><g><path d="M68.5158,124.709Q68.6596,124.771,68.7977,124.703L71.2444,123.491C71.3522,123.438,71.3927,123.313,71.3346,123.214Q70.7483,122.215,70.6045,120.82C70.5954,120.735,70.6239,120.65,70.6834,120.584Q71.5037,119.662,72.4649,119.325Q72.5833,119.286,72.6453,119.184Q72.8539,118.847,72.5692,118.452C72.512,118.37,72.5419,118.261,72.634,118.214Q72.8398,118.112,73.023,118.261C73.0801,118.307,73.1505,118.337,73.2259,118.347L75.4217,118.635C75.5948,118.656,75.7309,118.5,75.6726,118.347C75.6425,118.272,75.607,118.196,75.5711,118.119C75.4521,117.865,75.3288,117.601,75.3851,117.328Q75.5485,116.56,75.6106,115.77Q75.6557,115.214,75.5175,114.5Q75.3372,113.562,75.1596,112.671Q75.1342,112.543,75.1652,112.415L75.4133,111.403Q75.4527,111.249,75.371,111.111C75.3395,111.056,75.3066,111.002,75.2736,110.948C75.1114,110.683,74.9487,110.417,74.9651,110.094C74.9736,109.944,74.9841,109.798,74.9944,109.653C75.0522,108.844,75.1052,108.104,74.7847,107.279Q74.4295,106.362,73.9588,105.437C73.8498,105.219,73.915,104.961,74.1167,104.812L74.4408,104.572Q74.5902,104.462,74.4887,104.31Q74.3619,104.127,74.1533,104.044C73.9643,103.969,73.85,103.789,73.8714,103.599C73.8791,103.532,73.8881,103.46,73.8975,103.386C73.9682,102.825,74.0611,102.09,73.7502,101.647Q73.5416,101.349,73.3584,101.038C73.1765,100.733,73.3451,100.358,73.6882,100.304Q73.8432,100.28,73.9475,100.181Q74.0715,100.063,74.0124,99.9116Q73.8517,99.5039,73.4317,99.3523Q73.2964,99.3053,73.3049,99.172Q73.3781,97.9306,72.9046,96.6787C72.7579,96.2944,72.8385,95.9511,72.9198,95.6043C72.9823,95.3378,73.0453,95.0694,73.0061,94.7787Q72.9271,94.1828,72.7157,93.5451Q72.3859,92.5546,73.2428,92.1992Q73.3669,92.1469,73.3528,92.0214Q73.3133,91.6608,72.9666,91.4778C72.8778,91.432,72.8173,91.3497,72.8031,91.2557Q72.7355,90.8009,72.9976,90.4298Q73.0653,90.3305,73.0399,90.2155Q72.9018,89.6092,72.51,89.1387C71.9998,88.5272,72.1069,87.372,72.3775,86.7396Q72.4254,86.6298,72.3521,86.5305Q71.6446,85.5713,72.4987,84.6958C72.627,84.5631,72.6062,84.3572,72.4536,84.2489C72.2591,84.113,72.0392,83.9091,72.059,83.6635Q72.1661,82.4142,72.3662,81.2564Q72.4564,80.7285,72.3606,80.1849C72.2366,79.5054,72.3127,78.7788,71.9998,78.1489Q71.794,77.736,72.1605,77.4198Q72.4169,77.2002,72.183,76.9598Q71.608,76.3691,71.8645,75.674C71.9688,75.3865,71.9491,75.0964,71.7264,74.8638Q71.6249,74.7592,71.6108,74.6155C71.5871,74.3613,71.6721,74.1174,71.7538,73.8829C71.905,73.4493,72.045,73.0475,71.467,72.671Q71.3346,72.5822,71.3656,72.4332Q71.5403,71.6622,71.3543,71.0402Q71.1965,70.5123,71.3205,69.9896Q71.4501,69.4434,71.639,68.8997Q71.6869,68.7638,71.5911,68.6541L71.3938,68.4267Q71.2838,68.2986,71.312,68.1366Q71.4163,67.4858,71.3374,66.8743Q71.0611,64.8018,71.7827,63.3879Q72.0618,62.839,72.1125,62.2248Q72.1915,61.2735,72.5889,60.2726Q72.8764,59.5434,72.7467,58.7541C72.7393,58.7049,72.7146,58.6591,72.6763,58.6234L71.8955,57.8995C71.8189,57.8288,71.7976,57.7214,71.8422,57.63C71.8867,57.5386,71.9877,57.4825,72.0956,57.4892C72.2459,57.497,72.3915,57.5211,72.5329,57.5444C72.9563,57.6143,73.3409,57.6778,73.6938,57.2801Q73.8037,57.1561,73.9205,57.1501Q74.0376,57.1441,74.1618,57.2566Q74.734,57.7714,75.5401,57.774Q75.7149,57.7766,75.7684,57.6251L75.9037,57.2592Q75.9601,57.1076,76.1292,57.0762Q77.4935,56.8279,77.7444,55.4585Q77.7697,55.3252,77.9135,55.3252Q78.5336,55.3278,78.9987,54.9724C79.3489,54.7011,79.2716,54.1833,78.8549,54.0106C78.4828,53.8564,78.1305,53.5977,78.325,53.1664C78.3706,53.0631,78.4805,52.998,78.5984,53.0044Q78.8352,53.0175,79.0551,52.9547Q79.4413,52.841,79.4652,52.6809Q79.489,52.5208,79.1509,52.3144L78.8634,52.1393C78.597,51.9762,78.5744,51.622,78.8183,51.4337Q79.6836,50.7646,80.7407,50.3177C80.976,50.2163,81.2465,50.3734,81.2537,50.6157L81.2649,50.9502Q81.2748,51.291,81.393,51.3271Q81.5114,51.3633,81.7385,51.0939Q82.0457,50.7306,82.5164,50.7097C82.6505,50.7031,82.7798,50.7577,82.8632,50.8561L83.3959,51.4859C83.506,51.6142,83.7192,51.6049,83.8159,51.4676C83.9737,51.2403,84.0555,50.9815,84.3515,50.8796Q84.9321,50.6784,85.3944,51.1488C85.6784,51.4392,86.1565,51.4757,86.4881,51.2324C87.0941,50.7908,88.0412,50.9423,88.4611,50.2759Q88.681,49.9257,89.0587,49.6905C89.1481,49.635,89.1732,49.5235,89.1151,49.4396L88.6782,48.8097C88.5553,48.634,88.6251,48.3982,88.8276,48.3053Q89.6028,47.9499,89.9579,46.9541Q89.7803,46.6536,89.4956,46.4837C89.2329,46.3279,89.2198,45.9764,89.4703,45.8042L89.8874,45.5219C90.053,45.4103,90.0347,45.1764,89.8536,45.0881C89.3801,44.8555,89.552,44.3563,89.8762,44.108Q90.6034,43.5461,91.215,42.8013C91.3791,42.6036,91.3648,42.3249,91.1812,42.1427Q90.7471,41.7114,90.6316,41.1182Q90.5949,40.9274,90.4173,40.8202Q90.2059,40.6948,89.9551,40.6451C89.7849,40.6112,89.6703,40.4631,89.6901,40.3027C89.8057,39.3776,89.8451,37.9689,88.8811,37.3887Q88.1201,36.9313,87.3957,36.406C86.6769,35.8807,85.7411,35.7213,84.9152,35.3894C84.5741,35.2508,84.3655,34.9633,84.2472,34.6497Q84.1936,34.5138,84.0386,34.4903C83.3888,34.4018,82.8275,34.4914,82.2512,34.5833C81.925,34.6353,81.5941,34.6881,81.2396,34.7098Q81.0676,34.7203,80.9182,34.8091C80.324,35.163,79.943,34.9759,79.52,34.7681C79.2868,34.6536,79.0408,34.5328,78.7394,34.4929Q76.8085,34.2342,75.1821,34.8562C74.593,35.0809,74.3337,35.554,73.7756,35.818C73.2879,36.048,73.0061,36.4922,72.6255,36.8477Q72.493,36.9705,72.3098,37.0019Q71.4332,37.1587,70.2324,37.2397Q69.7025,37.2737,69.3276,36.9392Q68.1494,35.8807,69.1275,34.7569C69.261,34.6021,69.2045,34.3724,69.0119,34.2864Q68.6004,34.1035,68.3946,33.7637Q68.1917,33.4214,67.783,33.5599Q67.4334,33.6801,67.067,33.7559Q66.9176,33.7873,66.8133,33.6827L65.9198,32.7654C65.69,32.5326,65.8055,32.1564,66.134,32.0676L66.5906,31.9474Q66.7175,31.9134,66.7654,31.801Q66.8697,31.5475,66.7541,31.3044Q66.6978,31.1842,66.5681,31.1346L65.9705,30.8993Q65.8352,30.8471,65.8465,30.7112L65.9029,29.9506Q65.9113,29.8095,65.793,29.718Q64.533,28.7615,63.5295,27.4155C63.0306,26.7465,62.1032,26.5426,61.4803,25.9676Q60.5952,25.1522,60.0456,24.1173Q59.9694,23.9761,60.0822,23.8585L61.4775,22.3976C61.6249,22.2455,61.8693,22.2145,62.0553,22.3244C62.4577,22.5629,62.7278,22.4445,63.022,22.3155C63.2759,22.2042,63.5478,22.085,63.9382,22.1807C64.2762,22.2638,64.6344,22.1441,64.8374,21.8801Q65.3307,21.2398,66.0494,20.7668C66.2117,20.6606,66.4304,20.6703,66.5794,20.7903L66.9994,21.1274Q67.1544,21.2503,67.3376,21.1614L68.4848,20.5943C68.5591,20.5564,68.6086,20.4881,68.6173,20.4113L68.6765,19.9148Q68.6991,19.7423,68.8851,19.7161Q70.1366,19.5436,71.3515,18.9059Q73.1386,17.9677,74.9679,16.721Q75.4048,16.4231,75.8643,16.5224C77.0469,16.781,78.1393,16.4712,79.2639,16.1524C79.4581,16.0973,79.6532,16.042,79.8499,15.9893Q80.2784,15.8743,80.6392,15.6913Q80.7858,15.6181,80.797,15.4666Q80.8224,15.1817,80.5828,15.0144Q80.4813,14.9439,80.3517,14.9517Q79.4976,15.0144,78.5759,14.5257Q78.3786,14.4212,78.325,14.2304C78.2695,14.0272,78.3893,13.8186,78.6012,13.7495L79.2157,13.5482C79.4188,13.4801,79.4672,13.2342,79.3031,13.104Q78.8662,12.7642,78.8803,12.2729C78.8852,12.1259,78.8837,11.974,78.8822,11.82L78.8822,11.8193C78.8767,11.2642,78.871,10.6821,79.1622,10.2056Q79.7316,9.28039,80.5462,8.83348Q80.7097,8.74462,80.7012,8.56952Q80.6674,7.8116,81.1691,7.24708Q81.2847,7.11641,81.2565,6.94653Q81.1578,6.3794,80.6956,5.98998Q79.4187,4.91322,77.8092,4.3487C77.3497,4.18405,76.8536,3.54374,76.3575,3.27455Q74.1589,2.07756,71.5883,1.90246Q71.1795,1.87371,70.8075,1.32749Q70.7502,1.24467,70.6799,1.23361Q70.6082,1.22233,70.5228,1.28567L70.3649,1.40328Q70.2409,1.49475,70.0859,1.51043Q69.6123,1.55486,69.3023,1.2909Q69.0985,1.11771,68.9217,1.13882Q68.7464,1.15977,68.5976,1.37191C68.0233,2.18933,67.5669,1.75398,67.1385,1.3454C66.9971,1.21053,66.8588,1.07859,66.7203,0.99557Q66.6104,0.930232,66.4835,0.961594C66.4499,0.970379,66.4159,0.979255,66.3818,0.988193C65.4608,1.22917,64.3685,1.51499,63.4309,1.28567C62.5975,1.08321,61.7431,1.08978,60.9009,1.09626C60.6777,1.09798,60.4553,1.09969,60.2344,1.0975Q60.023,1.09488,59.8539,0.982502Q59.0252,0.431052,57.9682,0.438892C57.7145,0.441506,57.5341,0.316057,57.348,0.174928Q57.0533,-0.0499892,56.9159,0.0142858Q56.7787,0.078472,56.7984,0.431052Q56.8097,0.640132,56.7533,0.833532Q56.7223,0.940686,56.6236,1.00341Q55.0846,1.99916,53.6019,3.32682C52.9452,3.91486,51.3385,3.92793,50.6648,3.70578C50.3264,3.59556,49.9546,3.74953,49.8192,4.05599C49.6022,4.54471,49.2611,4.84265,48.7368,5.04651Q46.9723,5.72863,45.3882,6.24088Q45.2388,6.28792,45.0978,6.21736Q44.2438,5.77306,43.4151,6.17554Q41.9634,6.88119,40.2919,7.36208C39.5731,7.57116,37.5831,7.93966,36.8418,7.49275Q35.5846,6.73483,33.806,6.39247C33.4029,6.31667,32.9322,6.43951,32.6334,6.70347Q31.9287,7.33071,31.2043,7.87171Q31.1,7.95012,31.1,8.07556Q31.0972,8.72633,31.396,9.16017Q33.4311,12.1004,36.0328,15.1869Q36.3964,15.6181,36.8728,15.9971Q37.0081,16.1069,37.0617,16.2663C37.4055,17.2594,38.2991,17.5234,38.9192,18.3074C39.0008,18.41,39.1203,18.4808,39.2546,18.5061Q40.5231,18.7518,41.3518,19.6482C42.2847,20.6596,40.244,21.7364,39.4688,22.0239C39.1221,22.1545,38.9023,22.442,38.6881,22.7138C38.5597,22.8754,38.3144,22.9084,38.1441,22.787L37.4253,22.2774C37.336,22.214,37.2117,22.2151,37.1237,22.28Q36.932,22.4237,37.0194,22.6067Q37.1772,22.936,37.3379,23.2444Q37.4084,23.3777,37.3351,23.5109L36.9517,24.214C36.9187,24.2735,36.924,24.345,36.9654,24.3998C37.0067,24.4546,37.0774,24.4837,37.149,24.4753L38.7811,24.2715C38.9644,24.2483,39.1393,24.348,39.1982,24.5093L39.3448,24.9118C39.3879,25.0324,39.5415,25.0838,39.6577,25.0163L40.5569,24.5015C40.7401,24.3953,40.9784,24.4191,41.1347,24.559Q41.5547,24.9327,41.876,25.343Q41.9803,25.4763,42.1551,25.5286Q42.3355,25.5808,42.4652,25.5024Q42.5892,25.4266,42.5807,25.2881L42.5328,24.5093Q42.5243,24.3499,42.6653,24.2532L43.9309,23.3907Q44.0831,23.2888,44.2438,23.3829L45.7349,24.2662C46.029,24.4406,46.4214,24.3572,46.6087,24.0807C46.9103,23.6312,47.4233,23.5946,47.8236,23.9291C48.5733,24.5537,49.5063,24.4858,50.1518,25.2228C50.346,25.4453,50.6804,25.5128,50.9552,25.3848L51.9812,24.9118C52.0852,24.8652,52.2097,24.8952,52.2743,24.9823C52.5198,25.3116,52.3476,25.6259,52.1772,25.937C52.1109,26.0581,52.0448,26.1787,52.0037,26.2996Q51.9615,26.4172,52.0375,26.5191L52.5675,27.2169C52.7034,27.3971,52.5866,27.6464,52.3532,27.6743Q51.9981,27.7187,51.6288,27.622C51.478,27.5827,51.3351,27.7039,51.3639,27.8468Q51.5753,28.9366,51.8149,30.0212C51.9044,30.4263,51.7825,30.7152,51.6351,31.0645C51.6247,31.0892,51.6141,31.1143,51.6035,31.1398C51.5466,31.2773,51.6235,31.4306,51.7726,31.4769L52.652,31.7618Q52.8127,31.8141,52.8465,31.9656Q52.9677,32.5093,52.9198,33.2254Q52.9029,33.458,52.6549,33.4841Q52.1344,33.5389,51.9982,33.7802Q51.933,33.8956,51.9558,34.0538C51.9711,34.1565,52.0509,34.2409,52.1588,34.2681Q52.28,34.2995,52.4012,34.2812Q52.5844,34.2577,52.7366,34.357Q53.0354,34.5556,52.9536,34.8614Q52.917,34.9973,52.793,35.0757L52.5393,35.2325C52.226,35.4286,52.2411,35.8607,52.5675,36.0375L53.0551,36.2988C53.1373,36.3429,53.2,36.4113,53.2327,36.4922Q53.6104,37.407,53.6499,37.6866Q53.8838,39.4246,54.1995,41.2959C54.2101,41.3514,54.187,41.4081,54.1393,41.4437C54.0913,41.4795,54.0263,41.4889,53.9684,41.4684Q52.9649,41.1025,51.7613,41.4109C51.6496,41.4411,51.5887,41.5517,51.6288,41.6513Q51.7529,41.9492,52.1278,42.0459Q52.9875,42.2707,53.7231,42.4354C54.0538,42.5109,54.1822,42.8834,53.9599,43.1227Q53.7316,43.3684,53.4807,43.5539Q53.368,43.635,53.3736,43.7656L53.4751,46.1204C53.48,46.2319,53.3559,46.3086,53.2468,46.2615Q52.8155,46.076,52.3758,46.0185Q51.9244,45.9609,51.8401,46.0978Q51.7559,46.2344,52.0375,46.5647Q52.4153,47.0064,52.8465,47.4219C53.0626,47.6302,53.0445,47.9636,52.8071,48.1485Q51.7472,48.9744,50.7748,49.7114Q50.0334,50.2759,48.8524,50.613C48.5826,50.6902,48.3136,50.69,48.0441,50.6898C47.8209,50.6896,47.5973,50.6894,47.3726,50.7332Q47.2429,50.7594,47.1499,50.8456C46.7553,51.2167,46.3465,51.6898,45.7377,51.7264C45.2444,51.7577,44.7793,51.7551,44.3227,51.9407Q43.4348,52.3014,42.5582,52.3536C42.385,52.3636,42.2465,52.4898,42.234,52.6489C42.2086,52.9547,42.1833,53.3023,41.8845,53.4957Q40.5991,54.3268,39.8437,53.3337C39.7916,53.2636,39.7005,53.2279,39.6099,53.2419C39.5194,53.2558,39.4457,53.3171,39.4209,53.399L39.2856,53.8329Q39.2377,53.9949,39.0545,53.9871L38.4823,53.9635C38.2644,53.9532,38.1012,54.1461,38.1638,54.3399L38.378,54.9985C38.405,55.0858,38.3774,55.1796,38.3064,55.2416C38.2355,55.3034,38.1333,55.3226,38.0426,55.2912L36.3823,54.711C36.3047,54.6835,36.2169,54.7095,36.1709,54.7737L35.2069,56.1118C35.055,56.3229,34.7165,56.3131,34.5755,56.0936L34.2063,55.5107Q34.1274,55.3879,33.9751,55.3931L33.2592,55.4167Q33.0393,55.4219,33.0196,55.2206C32.9238,54.0812,32.36,53.088,32.2163,51.9564Q32.1035,51.0887,31.8104,50.2079C31.743,50.0059,31.669,49.7989,31.5938,49.5888C31.2976,48.7608,30.9834,47.8825,30.9901,47.0508Q30.9986,46.2459,30.9422,45.467C30.9151,45.1002,30.8004,44.7583,30.6889,44.4258C30.4643,43.7562,30.2523,43.1243,30.7928,42.4014C30.8791,42.2889,30.8051,42.1317,30.6575,42.1139Q29.919,42.0146,29.5497,41.4292Q29.3355,41.0868,29.6991,40.7993Q29.8454,40.682,29.8492,40.5608Q29.8531,40.4389,29.7132,40.3132L29.4736,40.0963Q29.3665,39.997,29.3299,39.8611C29.2199,39.4507,29.0508,39.0822,28.6844,38.8078C27.3821,37.833,27.0749,36.7196,26.3477,35.4625Q26.249,35.2926,26.0602,35.209Q25.3865,34.9085,25.0313,34.2002C24.9231,33.9825,24.7508,33.8045,24.538,33.6906Q24.4563,33.6461,24.3464,33.6618C24.2475,33.6766,24.1861,33.7695,24.2167,33.8578Q24.5239,34.7412,24.1913,35.5305Q24.1068,35.7317,24.1519,35.9434Q24.321,36.7431,23.6473,37.1561Q23.4923,37.2502,23.481,37.4226Q23.4218,38.3635,24.0279,39.0169C24.2467,39.2557,24.1283,39.6238,23.8052,39.7095L23.3965,39.8192C23.2408,39.8611,23.1804,40.0358,23.2809,40.1538Q23.653,40.5824,23.6558,41.1286C23.6553,41.2565,23.5236,41.3487,23.3908,41.3142L22.6608,41.1234C22.3115,41.0331,21.9473,41.2153,21.8349,41.5363Q21.7052,41.9101,21.7362,42.5974C21.7437,42.7543,21.9298,42.8463,22.0745,42.7647L22.6354,42.4406C22.839,42.3227,23.1059,42.4394,23.1371,42.6601C23.1909,43.0211,23.0195,43.2704,22.8463,43.5223C22.6107,43.8651,22.3717,44.2127,22.6918,44.8529C22.7247,44.9172,22.7336,44.9898,22.7171,45.0593L22.3338,46.5856C22.3063,46.7024,22.1658,46.763,22.0491,46.7084Q21.5643,46.4785,21.071,46.2642Q20.9451,46.2087,20.8632,46.2432Q20.7288,46.2998,20.713,46.5987C20.7023,46.7952,20.8026,46.9831,20.978,47.0952Q22.0547,47.7826,21.8687,48.9848Q21.8462,49.1416,21.6799,49.1834Q21.4149,49.2488,21.2881,49.437Q21.2204,49.5363,21.2401,49.6513L21.4008,50.4876Q21.4233,50.6183,21.305,50.694Q21.2035,50.7594,21.1725,50.8665C21.1216,51.033,21.2069,51.2443,21.2925,51.4564C21.3588,51.6207,21.4253,51.7854,21.429,51.9302C21.437,52.2698,21.0458,52.4904,20.7243,52.3275Q20.3353,52.1289,20.0027,51.878Q19.8871,51.7891,19.7377,51.7996Q19.5996,51.8074,19.5207,51.9146Q19.4192,52.0557,19.5376,52.1811C19.5998,52.2463,19.6685,52.3118,19.7381,52.3783C20.104,52.7273,20.4979,53.1031,20.138,53.6081Q19.6081,54.353,18.9062,55.056C18.1621,55.8035,17.5645,56.6529,16.9275,57.4761C16.5944,57.9055,16.7231,58.1586,16.867,58.4416C16.9727,58.6496,17.0867,58.8737,17.0318,59.1958C16.8993,59.9642,17.4405,61.0409,17.8126,61.71Q17.8999,61.8668,17.79,62.0105L17.494,62.4104C17.4298,62.4963,17.4101,62.6037,17.4405,62.7031C17.6209,63.3199,17.5561,63.9707,17.8351,64.5535Q18.3876,65.7034,19.7998,66.6025Q19.8986,66.664,19.9048,66.7327Q19.911,66.8012,19.8251,66.8769C19.373,67.2729,19.8041,67.9809,20.0807,68.4352C20.1162,68.4936,20.1492,68.5478,20.1775,68.5966C20.3804,68.9442,20.3663,69.3414,20.324,69.7204Q20.3142,69.8133,20.3594,69.8557Q20.4045,69.8981,20.5044,69.8903L20.8681,69.8589Q21.0175,69.8484,21.1415,69.9216Q22.2154,70.5515,22.0632,71.5995C22.0431,71.7301,22.0709,71.8634,22.1421,71.9784C22.4212,72.4332,22.7904,72.7311,22.9455,73.2695Q23.1512,73.9804,22.9511,74.5528Q22.9032,74.6913,23.03,74.7723C23.1063,74.8217,23.1822,74.8698,23.2571,74.9172C23.9894,75.3811,24.6196,75.7804,24.5352,76.7455Q24.5239,76.8788,24.6085,76.9885C25.6176,78.3188,26.1644,79.8321,26.8635,81.3139Q27.1256,81.868,27.6076,82.2522Q28.3518,82.8428,28.9183,83.6739C29.0341,83.8433,28.9641,84.0684,28.769,84.1548Q27.0608,84.9153,25.3498,85.7046C24.3041,86.1855,23.3147,86.4965,22.2859,86.9042C22.1793,86.945,22.0623,86.9551,21.9505,86.933Q21.708,86.8833,21.491,86.784Q21.1896,86.6455,21.036,86.7322Q20.8822,86.8191,20.8765,87.1316Q20.8652,87.6804,20.3353,87.7876Q19.6673,87.9261,19.1261,88.2293C18.6695,88.488,18.2523,88.258,18.0662,87.8451C17.9662,87.6239,17.7132,87.4969,17.4574,87.5393L16.1721,87.7588C15.9335,87.7992,15.8186,88.0538,15.955,88.2397L16.4849,88.9689C16.6165,89.149,16.5287,89.3958,16.3074,89.468Q15.8958,89.6014,15.5858,89.306Q13.9678,87.7771,12.2625,86.0208Q11.8763,85.6236,11.5493,85.1897Q11.0138,84.4789,9.92858,83.9457Q9.5114,83.7419,9.42402,83.3368C9.23235,82.4612,8.69115,81.1806,7.47346,81.5726Q6.88153,81.7608,6.31497,81.9438Q6.13457,82.0013,5.98518,81.8941Q5.75968,81.7373,5.60747,81.4733C5.53525,81.3442,5.35813,81.3007,5.22412,81.3792Q4.0318,82.0744,3.4455,82.9839Q3.35248,83.1277,3.19182,83.2035L2.63934,83.4648Q2.45049,83.5537,2.41103,83.7445Q2.1658,84.9206,1.63024,85.898Q1.0665,86.9304,1.10032,88.2737Q1.10596,88.4723,0.922739,88.5742L0.581673,88.765Q0.404093,88.8643,0.49993,89.0342Q0.809991,89.5909,0.56758,90.1685Q0.505568,90.3175,0.578855,90.4638Q1.12851,91.5641,1.44702,92.6879C1.54984,93.055,1.27119,93.4195,0.863546,93.4511L0.237788,93.4981Q0.0545716,93.5112,0.0122902,93.6784Q-0.0497211,93.9215,0.201146,94.0339C0.488656,94.1645,0.804353,94.2717,0.939652,94.5696Q1.27508,95.3171,1.53722,96.0802C1.774,96.7702,2.67599,97.204,3.3102,97.4863Q3.45053,97.5488,3.4714,97.6358Q3.49244,97.7236,3.39195,97.8365L2.75491,98.55C2.67439,98.6377,2.71764,98.7732,2.83666,98.8061Q3.55543,99.01,4.14455,99.517Q4.26575,99.6241,4.29676,99.7731L4.41796,100.311C4.4514,100.459,4.55948,100.583,4.70829,100.643C5.66384,101.03,7.11267,101.833,6.27268,102.969C6.25128,102.998,6.24814,103.035,6.26448,103.067C6.28082,103.098,6.31411,103.119,6.35161,103.121C7.79198,103.202,8.40928,104.53,9.06323,105.528C9.44094,106.106,10.0188,106.398,10.5684,106.801Q10.6896,106.887,10.7375,107.02Q11.0053,107.736,11.7185,108.23Q12.9192,109.064,14.0777,110.029Q14.5316,110.407,16.1636,111.312C16.8288,111.68,17.5166,111.769,18.241,111.965Q18.9344,112.153,19.1345,111.521Q19.4897,110.389,20.2254,109.668C20.3088,109.587,20.4281,109.549,20.5467,109.563Q21.5135,109.676,22.3958,108.842C22.6715,108.58,22.68,108.203,22.6887,107.818C22.6954,107.519,22.7022,107.215,22.8355,106.96Q23.3795,105.917,24.2026,104.705Q24.476,104.302,24.9298,104.096Q25.5471,103.814,26.0263,103.322C26.2687,103.074,26.5703,102.996,26.8635,102.828Q26.9734,102.766,27.0044,102.651Q27.275,101.597,28.0558,100.502Q28.5406,99.8176,28.9099,99.0753Q29.2848,98.3174,29.6935,97.5569C29.7399,97.467,29.8573,97.4295,29.9556,97.4732C30.8971,97.8836,31.5736,98.5474,32.5038,98.9551C33.8088,99.5275,35.0265,100.369,36.3823,100.915Q37.0081,101.164,37.6987,101.626Q38.9558,102.465,40.1538,103.294C41.5124,104.234,42.9556,104.953,44.3283,105.907Q44.4636,105.999,44.4636,106.155L44.4693,106.89Q44.4721,107.107,44.6694,107.219Q45.7151,107.825,46.6397,108.792C47.0202,109.19,47.5558,109.42,48.0688,109.636C48.3423,109.752,48.5321,109.99,48.5705,110.266C48.7509,111.594,49.8981,112.551,50.6141,113.648Q51.8741,115.585,52.6295,116.217Q54.0952,117.448,55.5835,118.933Q55.9838,119.335,56.0232,119.811Q56.0274,119.863,56.0575,119.886Q56.0878,119.909,56.1444,119.902C56.8102,119.822,57.6113,120.361,58.2576,120.796C58.4295,120.912,58.5904,121.02,58.7349,121.107Q58.8899,121.204,58.9209,121.374L59.0562,122.142C59.0726,122.231,59.1239,122.312,59.1999,122.367Q59.8172,122.83,60.4655,123.357C61.0716,123.851,61.8355,123.953,62.5965,124.058C62.8213,124.09,62.9882,124.268,62.9911,124.479L63.008,125.519Q63.0095,125.595,63.051,125.632Q63.0926,125.669,63.1744,125.668C64.965,125.558,66.7392,125.668,68.5158,124.709ZM77.6513,51.2167L77.9304,51.1775C78.0317,51.1623,78.1066,51.0819,78.108,50.9868Q78.1136,50.7359,77.7951,50.6418C77.7027,50.6148,77.6032,50.6204,77.516,50.6575Q76.9523,50.9005,76.3152,50.9162C76.2066,50.919,76.1161,50.9941,76.101,51.0939Q76.0418,51.5121,76.3857,51.7996C76.6259,51.9989,77.002,51.9489,77.1721,51.695L77.3807,51.384Q77.4738,51.2429,77.6513,51.2167ZM54.8198,59.0319C55.0139,58.9168,55.0387,58.6312,54.8751,58.3941C54.7115,58.157,54.4216,58.0581,54.2275,58.1732C54.0334,58.2883,54.0087,58.5738,54.1722,58.8109C54.3358,59.048,54.6257,59.147,54.8198,59.0319ZM56.4404,58.762C56.4404,58.6378,56.3319,58.5372,56.198,58.5372C56.0641,58.5372,55.9556,58.6378,55.9556,58.762C55.9556,58.8861,56.0641,58.9867,56.198,58.9867C56.3319,58.9867,56.4404,58.8861,56.4404,58.762ZM128.214,83.7105Q128.231,83.3838,127.988,83.1695Q127.884,83.0754,127.892,82.9369Q127.901,82.7906,128.016,82.6703C128.104,82.576,128.099,82.4359,128.005,82.3489Q127.898,82.2496,127.751,82.1868Q127.565,82.1084,127.467,81.9438Q126.945,81.0813,126.604,80.1535C126.421,79.6491,126.241,79.1735,125.677,78.9278Q125.003,78.6403,124.713,78.0392C124.045,76.6671,122.548,76.0608,121.79,74.754C121.55,74.3463,120.978,74.1085,120.643,73.7452C119.791,72.8279,118.689,71.529,117.522,71.0324Q116.011,70.3868,114.983,69.3127C114.884,69.2086,114.734,69.1583,114.585,69.1794Q113.52,69.3336,112.457,68.871Q111.284,68.3614,108.099,67.3055C107.699,67.1722,107.352,66.9004,106.952,66.8064C106.174,66.626,105.34,66.3072,104.536,66.3019Q103.93,66.2967,103.389,66.0014C103.134,65.861,102.813,65.8797,102.577,66.0484Q102.383,66.1895,102.138,66.2497Q101.983,66.2863,101.839,66.2209Q100.531,65.6329,98.8679,65.2356C98.3577,65.1154,97.9349,65.2147,97.4754,65.4029Q97.1964,65.5179,96.8948,65.4473Q95.7306,65.1834,94.4425,65.5283C94.0162,65.6417,93.6837,65.5534,93.3646,65.4686C92.9114,65.3482,92.485,65.235,91.8549,65.7165C91.5463,65.9544,91.0919,65.9329,90.8091,65.6669L90.4681,65.348C90.3851,65.2695,90.2557,65.2524,90.1524,65.3062Q89.6027,65.5858,88.9854,65.7374C88.2328,65.923,87.6832,66.8534,87.9002,67.4963C88.2582,68.5417,89.256,69.297,89.9917,70.102C91.0713,71.2885,92.9739,70.8651,93.7998,72.2215Q94.3551,73.1363,95.2176,73.6433C95.3168,73.7028,95.3943,73.7884,95.4403,73.8889C95.5981,74.2261,95.6066,74.5188,95.9251,74.7802Q96.6693,75.3917,97.5515,75.593Q98.2196,75.7472,98.5437,76.3143Q98.6227,76.4502,98.5381,76.5835L98.2252,77.0774Q98.1435,77.2081,98.2196,77.3388L98.6706,78.1176C98.7112,78.1877,98.7072,78.2727,98.6601,78.3392C98.6131,78.4057,98.5306,78.4431,98.4451,78.4365L97.5938,78.3633C97.4895,78.3535,97.3867,78.3905,97.3176,78.4626L96.362,79.4348Q96.2634,79.5367,96.2634,79.6753L96.2634,80.2973Q96.2634,80.4253,96.145,80.4855Q94.9949,81.0761,93.8646,81.7321Q92.9824,82.247,91.5758,82.6494C90.9022,82.8428,90.3469,83.1983,89.6647,83.3525C88.8417,83.5354,88.0355,83.8752,87.39,84.3848Q87.2434,84.5024,87.3139,84.6697C87.3454,84.7431,87.4268,84.7872,87.5112,84.7768L88.5795,84.6383Q88.7176,84.62,88.8163,84.5259L89.0362,84.3221C89.352,84.0282,89.8818,84.0857,90.1185,84.4397Q90.3328,84.7612,90.7358,84.8213Q90.9263,84.85,90.9642,84.7924Q91.0021,84.7349,90.8881,84.5913Q90.6936,84.3508,90.4117,84.1313Q90.3224,84.0603,90.3293,83.9986Q90.3361,83.9376,90.4371,83.8856Q90.6626,83.7706,90.9275,83.7654Q91.0459,83.7654,91.1051,83.8595L91.2629,84.1182Q91.308,84.1966,91.4067,84.2045Q91.5893,84.2147,91.6803,84.1349Q91.7761,84.051,91.7703,83.8673Q91.7621,83.5899,91.9076,83.4475Q92.0609,83.2976,92.3848,83.2976Q93.1628,83.295,93.8449,82.9212Q94.1134,82.773,94.2885,82.8386Q94.4591,82.9026,94.5411,83.1695C94.623,83.4389,94.43,83.7129,94.1324,83.7497Q92.9514,83.9039,92.2241,84.6827C91.9225,85.0068,91.48,85.127,91.0318,85.1218C90.877,85.1201,90.7248,85.1581,90.5921,85.2316Q89.8198,85.6602,89.0277,85.6628C88.5626,85.6654,88.1595,86.0705,87.7001,86.2195Q86.1498,86.7187,84.6897,87.1551Q84.5036,87.21,84.3571,87.0924Q84.1147,86.8938,83.8215,86.8049Q83.6383,86.7474,83.4494,86.7944Q82.088,87.129,80.7576,86.8232C80.4754,86.7578,80.2095,86.9734,80.2417,87.2414C80.3037,87.7327,80.6702,88.0934,81.2283,87.9993Q81.8879,87.8895,82.5249,87.9836C82.6378,87.9997,82.732,88.072,82.7701,88.1718Q82.8801,88.4593,83.1253,88.6448Q83.2916,88.7703,83.4776,88.6736L84.1851,88.3077C84.2333,88.2819,84.2875,88.2676,84.343,88.2659Q85.3154,88.2423,86.3527,88.1901C87.0602,88.1561,87.4633,87.9575,88.0101,87.6125Q88.2018,87.4897,88.4076,87.5916Q89.5661,88.1692,91.2038,87.8294Q91.3729,87.7954,91.5335,87.8582Q92.227,88.1273,93.0218,88.3574Q93.7068,88.556,94.4453,88.5481Q95.4939,88.5351,96.4184,88.7363C97.2133,88.9114,97.1823,89.9594,98.1181,90.2417Q98.3549,90.3148,98.4366,90.5344Q98.7298,91.3158,98.1012,91.7053C97.8848,91.8411,97.8735,92.1328,98.0786,92.2828Q99.2879,93.1584,100.446,93.1113C100.582,93.1063,100.715,93.1431,100.824,93.2158C101.47,93.6445,101.794,94.3972,102.628,94.5723Q103.372,94.7291,104.142,94.8205C104.253,94.8337,104.352,94.8958,104.407,94.9878Q104.663,95.419,104.505,95.9078C104.455,96.0611,104.552,96.2227,104.72,96.2632L105.388,96.4226Q105.506,96.4514,105.576,96.5481Q106.236,97.4602,106.16,98.3253C106.147,98.4921,106.264,98.6436,106.439,98.6859Q107.059,98.8349,107.62,98.5265C107.885,98.3807,108.226,98.4426,108.412,98.6702L108.869,99.2295C108.944,99.3237,109.071,99.3694,109.196,99.3471Q110.557,99.1119,111.921,98.699C112.556,98.5056,112.99,98.1423,113.63,97.9777C113.985,97.8862,114.219,97.6562,114.498,97.4497Q114.681,97.3138,114.904,97.3792L115.868,97.6614Q116.006,97.7006,116.147,97.6614Q116.77,97.4916,117.418,97.3504C118.044,97.2145,118.884,96.5847,119.284,96.1299Q120.141,95.1603,121.006,94.2952C121.609,93.6889,122.452,93.5347,123.072,92.9153Q123.611,92.3795,124.293,92.0215C124.532,91.8977,124.686,91.6691,124.702,91.4151Q124.721,91.1133,124.893,90.9692Q125.073,90.8188,125.42,90.8402Q125.565,90.8493,125.622,90.788Q125.68,90.7266,125.649,90.5945C125.539,90.1162,125.733,89.6406,126.021,89.2511Q127.179,87.704,127.909,85.9817Q127.968,85.8405,128.087,85.7334Q128.456,85.4015,128.338,84.9415Q128.183,84.3378,128.214,83.7105ZM52.5281,68.1784C52.7137,68.1815,52.8675,68.3128,52.8861,68.4841L52.9114,68.7193C52.9143,68.7478,52.9133,68.7758,52.9088,68.803C52.8896,68.9198,52.8054,69.0215,52.683,69.067L51.9558,69.3362C51.7216,69.4227,51.4653,69.2692,51.4541,69.0357L51.4316,68.5181C51.4307,68.497,51.4319,68.4763,51.4351,68.4561C51.4572,68.3135,51.5752,68.1991,51.727,68.1715C51.7517,68.1671,51.7774,68.1649,51.8037,68.1653L52.5281,68.1784ZM53.6611,88.3599Q53.8472,88.4697,53.85,88.684C53.8537,88.9294,53.8633,89.1819,53.8752,89.4392C53.8824,89.5937,53.8904,89.7498,53.8985,89.9072C53.9697,91.2949,54.0458,92.7782,53.5935,94.0103Q53.5428,94.1436,53.5794,94.2821C53.6242,94.4498,53.6953,94.6128,53.7656,94.7739C53.9522,95.2018,54.1325,95.6153,53.7972,96.0633C53.7749,96.0932,53.7502,96.1232,53.7231,96.1534Q53.5879,96.3024,53.6978,96.4697Q54.2784,97.3635,54.5068,98.3461C54.5219,98.4097,54.4811,98.4714,54.4171,98.4899C54.408,98.4926,54.3984,98.4943,54.3884,98.4951Q52.4989,98.6446,50.5178,98.291Q50.3859,98.2674,50.2533,98.2416C48.8721,97.9718,47.4542,97.6499,46.0884,97.2655C45.8933,97.2106,45.6993,97.1544,45.5066,97.0969Q41.9056,96.0175,38.4126,95.1642Q37.9137,95.0424,37.4168,94.925C36.7065,94.7581,35.7652,94.4271,34.8858,94.2016C34.7601,94.1694,34.6358,94.1394,34.5135,94.1123Q32.6478,93.6982,30.6583,93.0498Q30.5261,93.0067,30.3925,92.9623C29.8276,92.7738,29.5989,92.1468,29.9246,91.6791Q30.4292,90.9525,30.9422,90.1868C31.2196,89.7702,31.2964,89.3652,31.3537,88.9049C31.3575,88.8742,31.3613,88.8433,31.365,88.812Q31.3791,88.6918,31.4777,88.6134L33.1802,87.2701C33.3703,87.1197,33.6326,87.0749,33.868,87.1525Q34.3134,87.2988,34.7305,87.4949C35.4137,87.8173,35.9955,87.3233,36.1416,86.7431C36.1625,86.6602,36.1744,86.5755,36.1766,86.4913C36.1878,86.0783,36.2583,85.6837,36.5514,85.3596C37.3604,84.4606,37.7945,83.4491,38.6204,82.571C39.5675,81.57,40.4836,80.6945,41.1403,79.4296Q41.5462,78.6507,42.079,77.9398Q43.3108,76.296,44.489,75.065C45.0894,74.4352,45.3459,73.5962,46.0449,73.0631C46.6679,72.5848,47.3697,72.1509,47.8884,71.5655Q48.1167,71.3042,48.3957,71.1108Q49.1145,70.6064,49.6895,69.9922C49.7622,69.9148,49.8638,69.8653,49.9742,69.8537Q50.8959,69.7622,51.7641,69.4015C51.8957,69.3482,52.0489,69.3876,52.1306,69.4956Q52.4124,69.8641,52.5308,70.392Q52.5454,70.4574,52.5223,70.497Q52.519,70.5027,52.5149,70.5078Q52.4834,70.5474,52.406,70.5557Q52.4009,70.5563,52.3955,70.5567Q52.0576,70.5796,51.7931,70.7725Q51.7553,70.8001,51.719,70.8311C51.6143,70.924,51.6454,71.0858,51.7782,71.1395Q53.134,71.6779,53.4413,73.4289Q53.4659,73.5685,53.3611,73.6599Q53.3461,73.673,53.3285,73.6851L52.6238,74.1816C52.5048,74.2657,52.458,74.4116,52.5083,74.5423Q52.7084,75.0572,52.7704,75.6478C52.8352,76.2489,53.1791,76.6488,53.4695,77.1611C53.5504,77.3057,53.5554,77.4738,53.4863,77.6171C53.4764,77.6376,53.465,77.6575,53.4521,77.6769C53.3567,77.8197,53.1891,77.9033,53.0141,77.8978C53.0024,77.8974,52.9907,77.8966,52.979,77.8954Q52.9024,77.8881,52.8232,77.8991Q52.8179,77.8999,52.8127,77.9007C52.6919,77.9197,52.6107,78.0244,52.6323,78.1333L52.7253,78.6115Q52.7507,78.7422,52.7056,78.8703Q52.5449,79.3355,52.7986,79.6778Q52.9149,79.8346,52.8354,80.0007Q52.8301,80.0117,52.824,80.0228Q52.7447,80.1625,52.5837,80.1873Q52.573,80.1889,52.5618,80.1901C52.447,80.2022,52.3492,80.2731,52.3087,80.3735C52.2683,80.4738,52.292,80.5868,52.3701,80.6658C52.4168,80.712,52.4641,80.7578,52.5113,80.8035C52.5734,80.8637,52.6354,80.9237,52.6954,80.9841C53.0851,81.3766,53.3904,81.7848,53.1219,82.3679C53.1012,82.4128,53.0771,82.4587,53.0495,82.5057Q52.9029,82.7566,52.8296,83.0179C52.8098,83.0849,52.8189,83.1562,52.855,83.2165L53.461,84.2698C53.5757,84.4682,53.4928,84.7082,53.2919,84.8136C53.2632,84.8286,53.2322,84.841,53.1989,84.85L52.886,84.9336C52.5591,85.022,52.4537,85.4028,52.6943,85.6262L53.3342,86.2168C53.5226,86.3918,53.4753,86.6745,53.2649,86.797C53.2349,86.8145,53.2015,86.8287,53.165,86.8389L52.6915,86.9722C52.5661,87.008,52.4726,87.1056,52.4489,87.2253C52.4252,87.345,52.4752,87.467,52.5787,87.5419C52.9423,87.8032,53.289,88.143,53.6611,88.3599ZM29.4357,93.1763C29.5544,93.1767,29.6705,93.2384,29.7249,93.3491C29.925,93.7515,30.2323,94.1671,30.7368,94.2507C31.1709,94.3213,32.5183,94.7447,32.4901,95.2961C32.4834,95.4196,32.3797,95.5117,32.2579,95.5235C32.2205,95.5272,32.1815,95.5233,32.143,95.5105L29.1157,94.5043C28.9031,94.4334,28.7696,94.2385,28.7915,94.0312Q28.8366,93.5504,29.2312,93.2446C29.2681,93.2162,29.3093,93.197,29.352,93.1863C29.3796,93.1795,29.4077,93.1762,29.4357,93.1763ZM10.9846,101.633C11.1632,101.569,11.2176,101.3,11.1061,101.032C10.9946,100.764,10.7593,100.599,10.5807,100.663C10.4021,100.727,10.3477,100.996,10.4592,101.264C10.5707,101.532,10.806,101.697,10.9846,101.633ZM9.69744,104.01L10.326,104.352C10.3611,104.37,10.4049,104.358,10.4247,104.326L10.467,104.261C10.6029,104.045,10.5588,103.787,10.3683,103.683L10.3035,103.649C10.1124,103.545,9.84724,103.637,9.71153,103.853L9.67207,103.918C9.65256,103.95,9.66378,103.99,9.69744,104.01Z" fill-rule="evenodd" fill="#0C0C0C" fill-opacity="1"/></g></svg>