<svg xmlns="http://www.w3.org/2000/svg" xmlns:xlink="http://www.w3.org/1999/xlink" fill="none" version="1.1" width="134.58135986328125" height="128.76068115234375" viewBox="0 0 134.58135986328125 128.76068115234375"><g><path d="M85.0072,80.8839L84.2122,82.6344Q84.0619,82.9628,83.7714,83.1608Q87.2845,82.1752,91.8097,81.5093Q94.9089,81.0564,97.021,81.4147Q99.4664,81.8287,102.065,83.1737Q105.362,84.8685,107.879,86.9644Q108.686,87.6345,109.509,88.8115Q110.186,89.7798,110.755,90.9068Q111.941,93.257,109.959,94.9577Q108.522,96.1873,107.145,98.0932Q106.72,98.6788,106.488,99.4571Q106.332,99.9852,106.169,101.034Q106.04,101.861,105.534,102.689Q105.245,103.163,104.557,104.01L104.406,104.195Q104.056,104.625,103.613,105.664Q103.344,106.294,103.178,106.605Q102.949,107.046,102.475,107.174L101.873,107.342Q101.955,107.544,102.123,107.779L102.323,108.058L102.14,108.347Q100.59,110.806,98.7115,113.07Q96.5261,115.697,95.5134,118.424Q94.3597,121.511,91.3988,122.394Q91.3026,123.456,90.4035,124.509Q89.8844,125.118,88.6446,126.14Q88.1447,126.552,87.9273,126.746Q87.593,127.042,87.1969,127.789Q87.0099,128.142,86.8948,128.332Q86.5474,128.897,85.9159,128.717Q85.0453,128.479,83.2982,128.229Q82.0057,128.045,81.3547,127.906Q80.2509,127.671,79.3616,127.295Q76.5351,126.098,73.1432,125.26Q72.5171,125.104,71.6967,124.688Q71.2211,124.446,70.2568,123.881Q68.9046,123.089,68.2653,122.818L60.9934,119.712Q60.2365,119.385,59.4204,119.198Q58.7885,119.059,58.3814,118.56L57.9997,118.101Q57.5941,117.606,57.8344,117.222Q58.0751,116.838,58.7,116.992L61.8935,117.789Q64.5452,118.458,68.813,118.378Q71.8495,118.319,74.3499,117.231Q76.2028,116.432,78.1737,114.269Q81.8891,110.205,83.966,105.918Q83.8977,105.988,83.8223,106.056Q82.9808,106.816,81.8309,106.922Q79.6952,107.119,77.6329,106.022Q76.127,105.221,74.3126,103.486Q73.6649,102.868,72.7119,102.935Q71.783,103,71.127,103.635Q67.7104,106.944,64.2267,109.45Q64.2046,109.466,64.2126,109.488L65.6142,113.279Q65.8079,113.805,65.5518,114.304Q65.2958,114.802,64.7592,114.949Q63.4885,115.303,62.0247,115.612Q60.9398,115.837,59.6162,115.393Q55.5031,114.011,52.9163,112.257Q52.3232,111.854,51.1525,110.996Q49.4083,109.718,48.5062,109.162Q47.0244,108.25,45.7245,107.845Q45.5782,107.8,45.4458,107.877Q45.3134,107.954,45.2803,108.105Q45.0068,109.339,43.9898,109.589Q40.4969,110.438,38.7729,107.562Q37.6992,105.777,36.7026,103.752Q36.528,103.394,36.5675,102.998Q36.6227,102.428,36.1675,102.152Q34.0903,100.897,31.9181,99.5506Q29.5839,98.1054,29.3779,95.3566Q29.3311,94.8164,29.7175,94.6498Q30.1042,94.4831,30.4655,94.8927Q32.5282,97.2637,34.924,98.113Q35.2863,98.2427,35.7256,98.2945Q36.2164,98.3523,36.5986,98.2826Q37.3474,98.146,37.3293,97.4997Q37.2829,95.9341,36.96,92.7688Q36.6856,90.0784,36.6114,88.6965Q36.1516,79.9904,35.8253,71.7268Q28.2526,75.0585,21.146,79.528Q17.6794,81.717,16.6941,85.2943Q16.5228,85.91,16.4513,86.5412Q16.2833,87.9885,15.0945,89.1122Q14.777,89.4087,14.3509,89.3208Q13.9308,89.2341,13.7471,88.8375Q13.5024,88.2924,13.061,88.0525Q12.4768,89.2033,11.2793,89.4641Q11.0174,89.5234,10.8431,89.7263Q8.05744,92.9752,5.56266,95.3139Q4.39796,96.3998,2.53834,96.9514Q2.2323,97.0419,1.68384,97.4056Q1.27022,97.6799,1.02371,97.8035Q0.460827,98.0796,0.153616,97.7526Q-0.153147,97.4261,0.15268,96.8814Q0.555959,96.1592,1.31042,94.6716Q2.22969,92.8591,2.75161,91.9576Q6.06149,86.2225,8.25788,77.157Q11.5364,63.6026,12.4744,50.339Q12.5853,48.7772,12.2524,47.5461Q11.8634,46.1078,10.9009,45.3105Q9.78809,44.3865,8.9352,43.1272Q8.66279,42.7312,8.79675,42.3665Q8.93165,41.9992,9.40212,41.8756Q12.5671,41.0554,16.1061,42.0141Q19.0278,42.8062,20.7625,45.4439Q22.3519,47.8605,22.4039,50.9143Q26.6775,48.7902,30.6045,47.4586Q33.0139,46.6376,35.3013,47.6176L35.2963,47.197Q35.2573,43.9404,35.2836,42.2916Q35.3272,39.555,35.5453,37.1397Q35.8216,34.0853,35.8468,31.1727Q35.8611,29.4559,36.0383,26.1945Q36.1733,23.7107,36.2061,22.4504Q36.2153,22.0915,36.175,21.8857Q36.0013,21.9996,35.7542,22.2539Q35.4751,22.5419,35.0946,22.7107Q34.8841,22.804,34.4767,22.9153Q34.025,23.0387,33.8185,23.152Q31.0246,24.6899,28.1342,26.4456Q27.431,26.8701,26.031,27.3889Q25.0124,27.7663,24.5113,28.0176Q23.9363,28.306,23.0232,28.5876Q22.1579,28.8544,21.5808,29.125Q21.0406,29.3773,20.5841,28.9931Q20.1276,28.609,20.2807,28.0344Q20.8688,25.7732,23.2891,23.6922Q24.898,22.3073,27.1456,19.6817Q27.5432,19.2174,28.0654,18.9251Q28.204,18.851,28.3075,18.7246Q30.3038,16.3678,32.689,14.2474Q32.9307,14.0334,33.1091,13.7235Q33.2246,13.5229,33.4092,13.0819Q33.7919,12.1676,34.204,11.7571Q34.3036,11.6571,34.5115,11.4282Q34.9623,10.932,35.2341,10.7168Q35.7442,10.3129,36.2906,10.2376Q36.8022,10.1689,37.388,10.2492Q37.7226,10.2951,38.3514,10.4437Q39.3932,10.6899,39.9138,10.6412Q41.7735,10.4708,43.6376,10.1299Q44.2073,10.0249,44.5434,10.5132Q45.2533,11.572,46.4123,11.002Q46.9251,10.7455,47.38,11.0895Q50.0786,13.1015,51.6444,15.173Q52.3179,16.0597,52.5708,17.323Q52.862,18.7773,52.3471,19.7978Q51.9765,20.5413,52.1252,21.394Q52.2364,22.0506,51.7533,22.5003L50.1007,24.041Q49.6033,24.4966,49.0147,24.1795L47.324,23.2706Q47.2613,23.2367,47.1946,23.2653Q47.1253,23.295,47.1058,23.3638L47.0587,23.5375Q46.9169,24.065,46.8108,24.3228Q46.6249,24.7745,46.3176,25.1203Q45.4513,26.0952,45.2682,27.705Q45.1399,28.8321,45.35,30.7765Q45.7083,34.053,45.0877,36.8099Q44.9846,37.2689,44.917,38.2393Q44.8483,39.2263,44.7427,39.718Q44.5575,40.5801,44.1048,41.2113Q44.0437,41.2967,44.0683,41.4098Q44.1007,41.5722,44.2352,41.6916Q44.6431,42.0515,44.6725,42.5946Q44.702,43.1396,44.332,43.5399Q43.6671,44.2565,44.0007,45.0745Q44.1417,45.4242,44.1124,45.7907L43.9605,48.0753Q43.949,48.2441,44.0563,48.3746Q44.8612,49.3393,44.3183,50.4896Q44.2838,50.5632,44.3099,50.6401Q44.6778,51.7417,44.6394,52.9096Q44.6237,53.366,44.9167,54.2149Q45.1269,54.8237,45.1948,55.1648Q45.2983,55.6439,45.077,56.0879L44.6633,56.9178Q45.1757,57.6486,44.9688,58.5052Q44.6068,59.9707,45.016,61.0054Q44.8489,59.6497,45.4212,58.1497Q46.0966,56.3794,47.6296,54.7781Q48.014,54.3778,48.5548,54.1082Q48.8608,53.9557,49.4628,53.7476Q49.954,53.5778,50.1736,53.4728Q50.5079,53.313,50.7308,53.0984Q51.8473,52.0298,53.1846,50.9291Q53.5565,50.6182,53.9434,50.9167L53.9484,50.9205L54.0545,51.0067L54.0566,51.0084Q54.256,51.165,54.278,51.4078Q54.3004,51.6553,54.1309,51.8423Q53.2527,52.8418,52.6083,53.94Q52.7565,53.8819,52.8996,53.7964Q56.0804,51.8872,59.433,49.7873Q62.025,48.1635,62.0919,48.0964Q62.6879,47.5035,63.1249,46.8133Q62.8873,46.988,62.6334,47.115Q61.6405,47.6117,60.6171,47.2681Q56.2336,45.7871,55.8434,41.9413Q55.5119,38.6745,56.4045,36.471Q56.8017,35.4952,57.7789,34.8233Q58.497,34.3296,59.6316,33.9486Q62.5707,32.9627,65.0193,30.7231Q65.1391,30.6153,65.1501,30.4533Q65.1612,30.2897,65.0572,30.1652L61.496,25.9487Q57.8175,21.6075,57.1303,16.4002Q57.0629,15.8938,57.2677,15.3167Q57.4526,14.7954,57.7835,14.4099Q58.516,13.5502,59.0141,12.5317Q59.282,11.9843,59.8783,11.9544Q61.6539,11.8485,63.7844,13.0578Q64.6911,13.5724,65.4345,14.2155Q66.189,14.868,66.5968,15.4997Q67.2475,16.5111,68.8403,16.1949Q70.0531,15.9542,71.6571,15.0078Q74.5945,13.2712,77.8239,11.2163Q78.1338,11.0177,78.2295,10.6566Q79.1898,7.01212,78.9069,2.75073Q78.8492,1.87332,79.475,1.10375Q80.0659,0.377038,80.913,0.164621Q84.1929,-0.657859,85.9106,2.62894Q87.0002,4.71468,87.2445,6.89581Q90.2291,6.05661,92.8205,5.00277Q93.422,4.75773,94.215,4.62762Q94.6749,4.55218,95.5945,4.46927Q96.3136,4.40444,96.6608,4.35612Q97.6866,4.21523,99.5117,5.31029Q100.643,5.98212,101.816,6.69714Q103.086,7.46093,103.409,8.77033Q103.691,9.91196,103.2,11.2736Q102.846,12.2576,101.553,12.9599Q100.611,13.4717,99.5198,13.6895Q93.1302,14.9664,87.9041,18.1177Q86.1391,19.1843,84.9737,20.4422Q83.9438,21.5538,82.9754,23.2735Q83.6676,23.0842,84.8817,22.5603Q86.0979,22.0355,86.7592,21.8439Q87.285,21.6919,88.3294,21.3419Q90.3951,20.6497,91.462,20.4793Q93.2854,20.1881,94.8596,20.6961Q96.3216,21.1643,96.1915,22.7021Q96.1596,23.1007,96.3974,23.475Q96.618,23.8227,96.535,24.1647Q96.4504,24.5137,96.0804,24.7234Q95.0894,25.2781,94.0634,25.6824Q93.5076,25.8977,92.6642,26.5942Q92.1684,27.0037,91.8732,27.2073Q91.4057,27.5252,90.4619,27.7435Q89.7718,27.9031,89.4809,28.0734Q89.0382,28.3317,88.4205,28.5188Q88.0667,28.6259,87.3504,28.7868Q86.4621,28.9863,86.072,29.1306Q85.4754,29.3514,85.1401,29.6908Q85.1363,29.6947,85.1362,29.6991Q85.1362,29.7008,85.1387,29.7034Q86.7409,31.4193,88.7824,32.7482Q88.7992,32.7594,88.8152,32.7486Q91.4197,31.0137,94.1612,29.1398Q94.4026,28.9734,94.848,28.5007Q95.5506,27.7549,96.0622,27.5035Q97.7944,26.6552,99.5645,25.903Q100.04,25.7031,100.372,25.9375Q100.703,26.1716,100.675,26.685Q100.632,27.5735,99.9404,27.9088Q100.191,28.0824,100.235,28.3603Q100.286,28.6791,100.03,28.9591Q99.7086,29.2978,99.7103,29.8148Q100.375,30.153,100.545,30.7123Q100.726,31.3039,100.311,32.0005Q98.5641,34.9339,95.5799,36.6716Q99.4157,39.2361,102.169,40.8866Q106.028,43.2002,109.308,44.691Q111.904,45.8736,113.212,46.5116Q115.376,47.5675,117.006,48.532Q121.076,50.9369,125.268,52.2083Q128.021,53.0392,129.87,53.8151Q132.354,54.8579,134.209,56.1751Q134.659,56.4895,134.565,57.0328Q134.473,57.5683,133.95,57.7235Q132.986,58.0043,131.145,58.2681Q130.033,58.4275,129.477,58.5397Q128.566,58.7238,127.815,59.0017Q123.619,60.5452,120.505,62.5643Q119.954,62.9223,119.315,62.7428Q118.836,62.6038,117.864,62.6844Q117.265,62.7341,116.942,62.7261Q116.376,62.7123,115.878,62.5563Q113.635,61.8441,111.49,60.9527Q109.875,60.2795,108.047,60.2506Q106.976,60.2392,106.051,59.7838Q103.601,58.5941,101.661,57.0998Q99.7106,55.5879,97.8215,54.2337Q95.4048,52.5014,93.9984,50.7026Q93.6111,50.2052,93.0008,49.8662Q92.6156,49.6522,91.7711,49.3389Q90.89,49.012,90.4712,48.7793Q89.7351,48.3702,89.2854,47.759Q87.8021,45.749,85.2174,44.1875Q85.2162,44.1869,85.2144,44.1877Q84.4907,44.5232,83.0546,45.3404Q81.7289,46.0947,81.0423,46.4272Q79.8757,46.9922,78.8716,47.2439Q77.7283,47.5307,76.3028,48.3081Q75.4367,48.7805,73.7447,49.8756Q72.6053,50.613,72.0513,50.943Q70.4156,51.9199,69.5269,53.4858Q68.992,54.4408,68.238,55.2616Q68.1168,55.393,68.1439,55.5711Q68.1713,55.7514,68.3259,55.8421Q70.0767,56.8505,72.4173,56.0437Q73.376,55.7132,74.5696,55.0385Q75.2906,54.6309,76.69,53.7331Q78.7631,52.4031,79.6997,52.0038Q82.5567,50.7873,84.9004,50.2799Q86.8386,49.8601,90.5137,51.434Q91.0393,51.6533,91.1536,52.2148Q91.5303,54.0216,92.995,55.1628Q93.4606,55.5304,93.4021,55.9713Q93.3441,56.409,92.8065,56.6416Q91.6286,57.151,90.2767,57.2699Q89.9411,57.2988,89.6247,57.4647Q89.4129,57.5757,88.9898,57.8894Q88.7354,58.078,88.5989,58.1711Q88.2449,58.4168,87.813,58.4936Q87.784,58.4982,87.7626,58.5118Q88.0898,59.3431,88.0522,60.0375Q87.9412,62.2643,87.6883,64.4068Q88.6744,64.2185,89.6515,63.9982Q90.1815,63.8782,90.7504,63.9718Q91.3372,64.0684,91.7871,64.3645Q92.3142,64.7115,92.5177,65.2454Q92.7448,65.8407,92.5147,66.5305Q91.3866,69.9466,88.4192,71.4512Q86.5707,72.3966,85.9421,74.302Q85.8451,74.5917,85.6882,74.8429Q86.246,74.6383,86.8852,74.4842Q87.6421,74.3017,89.177,74.068Q90.0421,73.9363,90.4629,73.8601Q91.1742,73.7249,93.4301,74.4325L93.8851,74.5753L93.77,75.0394Q92.9262,78.4416,88.6919,79.707Q86.6316,80.3172,85.0072,80.8839ZM86.1715,13.8897L88.3786,11.7004Q88.2847,11.709,88.1763,11.7341Q87.5727,11.874,87.0235,12.4198L86.9021,12.5416Q86.3523,13.0878,86.2069,13.6904Q86.1812,13.7969,86.1715,13.8897ZM74.399,23.1355L73.9099,22.5336Q73.3156,21.8037,73.6881,20.9458Q74.6571,18.712,76.2588,17.272L74.5451,23.1067Q74.521,23.1889,74.4986,23.2499Q74.4537,23.2022,74.399,23.1355ZM77.0868,39.3439Q78.4849,38.5999,79.9314,37.8952Q80.0905,37.8187,80.142,37.6482Q80.1941,37.476,80.1043,37.3219Q79.4315,36.1797,78.9167,35.0114Q78.8709,34.9047,78.7721,34.8453Q78.6089,35.1473,78.2642,35.6973Q77.6993,36.5989,77.5328,37.0482Q77.2809,37.7276,77.4429,38.338Q77.6148,39.0086,77.0868,39.3439ZM76.6449,39.5807Q76.7771,39.5094,76.9105,39.438Q76.7718,39.502,76.6449,39.5807ZM18.4899,73.0388L20.756,71.9023L20.8579,71.8956Q21.204,71.8729,21.531,71.6321Q23.2765,70.3317,26.9963,67.9745Q30.7358,65.6048,32.484,64.2991Q32.8992,63.9895,33.5344,63.1948Q34.3007,62.2362,34.8752,61.8383Q35.4677,61.4258,35.5857,59.2199Q35.6729,57.5877,35.4761,55.8968Q35.4117,55.3657,34.8555,54.3109Q34.7215,54.0567,34.6509,53.9165Q33.8966,54.4503,33.5174,55.0831Q33.0631,55.8369,32.3834,56.4004Q30.3188,58.0999,28.3654,59.6216Q28.3158,59.6601,28.3057,59.7156Q28.2356,60.1094,28.2929,60.7922Q28.361,61.6038,28.2173,62.0331Q27.9853,62.7265,27.1423,63.3032Q25.3665,64.5225,23.6898,64.935Q22.8693,65.1391,21.9744,64.7684Q21.4862,64.5661,20.6164,63.981Q20.2131,63.7096,20.0192,63.5937Q19.9469,63.5502,19.8703,63.5779Q19.7828,63.6108,19.7151,63.6684Q20.0537,63.7303,20.295,64.0092Q20.6099,64.3733,20.5371,64.8466Q20.3147,66.3539,19.5628,67.5945Q19.2235,68.1518,19.1805,68.8516Q19.1444,69.3804,18.8386,70.2327Q18.5559,71.0211,18.5492,71.4584Q18.5375,72.2468,18.4899,73.0388ZM45.732,63.0051Q45.7459,63.5483,45.5684,64.1386Q45.3258,64.9454,44.4124,66.4364Q43.8531,67.3495,43.6702,67.7594Q43.6169,67.8797,43.6221,68.009L43.6221,68.01L43.6379,68.0101Q44.4844,68.0101,44.5522,68.859Q44.6455,70.0697,43.9122,70.934Q44.5272,71.6276,44.7476,72.5724Q44.8508,73.011,44.6066,73.2901Q44.4323,73.4893,44.1543,73.5229L44.2638,75.365L44.3554,75.3147Q44.6719,75.14,44.9638,75.2643Q45.2555,75.3883,45.3506,75.7383Q46.0007,78.1461,44.7502,80.1284Q44.709,80.1945,44.6965,80.2383L44.6913,80.2423L44.6949,80.2402Q44.7212,80.2682,44.7776,80.302Q45.2663,80.5947,45.4068,81.1468Q45.5478,81.7007,45.2548,82.1928Q44.929,82.7334,44.8433,83.4644Q44.7886,83.9312,44.821,84.9232Q44.8508,85.8365,44.8151,86.3046Q44.7231,87.4615,44.8635,88.6226Q45.1641,91.062,43.9351,93.8158Q43.9034,93.8844,43.9163,93.9681Q43.9681,94.3368,44.3597,94.4203Q45.1433,94.5863,45.0991,95.3939Q45.0687,95.8996,45.1943,96.3643Q45.2418,96.5432,45.2715,96.557Q45.3066,96.5733,45.4926,96.4794Q45.8641,96.2894,46.1704,96.4634Q46.4762,96.637,46.5054,97.0553Q46.5498,97.7275,46.8275,98.3289Q47.1252,98.9622,46.7047,99.5185Q46.3716,99.9666,45.802,100.1Q45.6815,100.128,45.6102,100.243Q45.6034,100.253,45.6201,100.276Q45.6325,100.293,45.6461,100.292L46.3553,100.242Q46.8528,100.202,47.2006,100.563Q47.5461,100.921,47.4952,101.422Q47.4512,101.828,47.5722,102.304Q47.6498,102.609,47.8875,103.212Q48.1023,103.757,48.1817,104.037Q48.3244,104.541,48.3038,104.967Q48.265,105.766,47.6442,106.472Q48.9909,106.503,50.5752,106.708Q51.751,106.86,54.0802,107.272Q55.8511,107.585,56.7347,107.716Q57.2002,107.785,57.6262,107.593Q63.82,104.792,68.9259,101.787Q71.0143,100.557,72.8894,100.021Q74.6115,99.5277,77.0689,99.3782Q77.5318,99.3546,77.9178,99.6074Q78.7553,100.157,79.4608,99.3876Q81.0521,97.6674,82.1517,96.914Q83.7715,95.8042,85.6583,95.6363Q85.9606,95.5825,86.5427,95.5394Q87.332,95.4809,87.6524,95.3735Q88.1065,95.2214,88.3364,94.8299Q89.9171,92.1642,90.9756,88.2114Q90.8811,87.6912,90.3492,87.68Q86.6174,87.6008,83.3207,88.7822L83.2958,88.7911L83.2701,88.7974L82.4745,88.9913Q78.3531,89.9948,76.3135,90.5926Q72.9092,91.5904,70.4298,92.7291Q69.4926,93.1597,68.5047,93.4586Q68.158,93.5645,67.5101,93.8687Q66.5714,94.3093,65.9917,94.425Q65.0898,94.6041,64.2155,95.0867Q63.2078,95.643,63.0959,96.1992Q63.0512,96.4224,62.9696,96.8646Q62.7899,97.8381,62.6674,98.2863Q62.4541,99.0667,62.127,99.5732Q61.2889,100.871,59.3818,100.91Q57.809,100.94,56.7978,99.6019Q55.9807,98.5152,56.2389,97.1178Q56.4656,95.8955,57.1586,95.0671Q57.9327,94.1443,57.1982,93.2633Q56.4917,92.4163,56.1992,91.2871Q55.8782,90.0482,56.229,89.0484Q57.5227,85.3827,59.971,81.7866Q62.2098,78.4911,64.0767,75.1598Q64.9282,73.646,65.8362,72.2184Q66.17,71.693,66.7896,70.6701Q68.198,68.3451,69.1389,67.1035Q69.9097,66.0895,70.4462,64.9702Q67.0686,63.9179,64.7662,61.8513Q64.5501,61.6567,64.4026,61.6645Q64.252,61.6726,64.0493,61.894Q61.6042,64.5514,59.8367,67.6579Q58.9319,69.2462,56.5095,69.6543Q55.5626,69.8138,54.5161,69.7606Q53.5612,69.7121,52.7407,69.5015Q51.7098,69.2373,49.5618,68.9575Q47.8973,68.7406,47.0631,68.5733Q46.4517,68.4482,46.3911,68.0045Q46.3303,67.5598,46.8899,67.2732Q49.428,65.9827,51.1823,64.7408Q52.5245,63.7908,53.5459,62.7841Q52.3186,63.5759,50.8696,64.3337Q50.0739,64.7519,49.2104,64.7973Q48.38,64.841,47.6042,64.5355Q46.8375,64.2337,46.2481,63.64Q45.9575,63.3473,45.732,63.0051ZM79.8886,63.5663Q79.7678,63.7035,79.6088,63.8929Q79.0659,64.5398,78.6686,64.8665Q76.0867,66.974,74.0379,70.0733Q76.4329,68.6412,79.0837,67.2748Q79.4885,67.0654,79.6285,66.9381Q79.7967,66.7852,79.8332,66.558Q80.0901,64.9809,79.8886,63.5663ZM78.4473,75.6817Q76.8059,76.4071,76.0284,77.5348Q75.6809,78.0391,75.3066,78.5089Q75.6582,78.4012,76.1348,78.2156Q76.8198,77.9489,77.1684,77.853Q77.7691,77.6879,78.1139,76.9513Q78.3675,76.4094,78.4473,75.6817ZM82.989,83.3878Q82.9312,83.3851,82.8724,83.3774Q81.8433,83.2424,80.9142,83.7807Q80.288,84.143,79.6423,83.8311Q77.8273,82.9782,76.6809,83.7607Q74.4476,85.2845,72.0959,87.113Q72.0178,87.1733,71.946,87.239Q72.3101,87.0883,72.7831,86.8906Q75.598,85.7143,77.0699,85.2334Q80.1066,84.2447,82.989,83.3878ZM65.3813,88.9658Q65.1302,88.6825,64.8441,88.5703Q64.6409,88.4906,64.5777,88.5393L64.5707,88.5446L64.5431,88.5644Q64.4857,88.6191,64.5116,88.8285Q64.5495,89.1339,64.7605,89.4477L65.3813,88.9658ZM84.609,104.506Q85.536,102.422,86.6275,100.344Q84.5694,100.17,82.6737,99.6758Q82.536,99.6397,82.4412,99.7463Q82.3465,99.8528,82.3971,99.9838Q82.622,100.558,83.3623,101.663Q83.8267,102.356,84.0296,102.716Q84.3828,103.342,84.5293,103.889Q84.615,104.207,84.609,104.506Z" fill-rule="evenodd" fill="#000000" fill-opacity="1"/></g></svg>