<svg xmlns="http://www.w3.org/2000/svg" xmlns:xlink="http://www.w3.org/1999/xlink" fill="none" version="1.1" width="118.89677429199219" height="121.77117919921875" viewBox="0 0 118.89677429199219 121.77117919921875"><g><path d="M92.3004,113.66Q93.3218,115.392,94.9443,115.367Q95.1874,115.364,95.2326,115.582C95.5071,116.916,95.4272,118.285,96.9975,118.966C97.8313,119.329,99.478,119.879,100.055,120.541C100.552,121.109,101.427,120.987,101.997,120.557C102.102,120.475,102.258,120.482,102.355,120.573C103.758,121.881,105.853,121.855,107.726,121.694Q108.497,121.63,109.133,121.231Q110.543,120.344,112.18,119.747C113.976,119.091,115.588,117.806,116.352,116.267Q116.696,115.576,117.179,114.965Q117.276,114.843,117.297,114.692C117.446,113.628,117.554,112.481,118.44,111.687C118.564,111.576,118.601,111.407,118.534,111.26C118.245,110.63,117.988,109.444,118.412,108.798Q118.628,108.464,118.78,108.108C119.065,107.446,118.783,107.158,118.416,106.783C118.331,106.696,118.24,106.604,118.152,106.501Q118.006,106.337,118.061,106.128C118.152,105.781,118.152,105.376,118.016,105.042Q117.273,103.165,117.12,101.362C117.108,101.233,117.064,101.108,116.991,100.996L116.564,100.35C116.494,100.246,116.516,100.11,116.616,100.029Q117.123,99.6175,117.158,98.8045C117.163,98.6824,117.168,98.5602,117.174,98.4383C117.22,97.463,117.266,96.5004,116.713,95.6521C115.98,94.5177,116.376,93.4958,115.06,92.5189C114.946,92.4361,114.883,92.307,114.889,92.1718C114.911,91.7748,114.865,91.3725,114.819,90.9709C114.757,90.4266,114.695,89.8837,114.802,89.3568Q114.914,88.8202,115.028,88.2932Q115.07,88.1004,114.994,87.9172Q114.5,86.7121,114.983,85.2917C115.115,84.9051,114.846,84.4699,114.592,84.0578C114.47,83.8603,114.351,83.6681,114.281,83.489C114.072,82.9566,114.102,82.3674,114.13,81.7844C114.149,81.4172,114.167,81.0526,114.125,80.7061Q113.854,78.4246,113.316,75.9116Q113.277,75.7349,113.448,75.6513Q113.632,75.5613,113.753,75.4039Q113.868,75.2625,113.823,75.089Q113.354,73.2444,112.464,71.6955Q112.378,71.538,112.391,71.3645Q112.44,70.8247,112.763,70.2912Q112.864,70.1241,112.826,69.9345Q112.697,69.3079,112.263,68.7166Q112.152,68.5624,112.162,68.3792Q112.246,67.1709,111.922,66.0205C111.607,64.8842,111.703,63.7186,111.799,62.5552C111.834,62.1295,111.869,61.7041,111.884,61.2806Q111.902,60.7825,112.093,60.3455C112.419,59.5967,112.232,58.8512,111.825,58.1667C111.262,57.2155,111.697,54.9725,111.968,54.047Q112.089,53.6196,111.87,53.173Q111.214,51.8329,111.12,50.374C111.097,50.0332,111.158,49.7074,111.219,49.3838C111.295,48.9754,111.371,48.5706,111.276,48.1438C110.953,46.701,111.255,44.9818,111.519,43.5582C111.601,43.1168,111.442,42.762,111.277,42.3965C111.099,42.001,110.916,41.5929,111.026,41.0485Q111.467,38.8601,111.259,37.1537Q111.179,36.5078,111.287,35.8683Q111.506,34.5765,110.734,33.2365Q110.095,32.1311,110.095,30.8521C110.093,30.74,110.133,30.6298,110.21,30.5404L110.623,30.0551Q110.769,29.8848,110.752,29.6695Q110.62,27.9214,111.346,26.3339C111.539,25.9087,111.387,25.5636,111.229,25.2037C111.14,25.0006,111.048,24.7928,111.016,24.5633C110.936,24.0017,111.062,23.5123,111.185,23.0385C111.361,22.3548,111.529,21.7038,111.057,20.916C110.623,20.1897,110.654,19.3767,110.783,18.5894Q111.05,16.957,111.248,15.543C111.309,15.1112,111.247,14.7009,111.186,14.2935C111.095,13.6943,111.006,13.1014,111.308,12.4549C111.365,12.3308,111.36,12.1896,111.294,12.0693Q110.592,10.8031,110.105,9.69449Q109.831,9.07107,110.185,8.36411Q110.422,7.8853,109.984,7.54788Q108.848,6.68024,108.108,5.34664C108.041,5.2293,107.912,5.15345,107.767,5.14741L106.704,5.0992Q106.468,5.08956,106.339,4.90639Q105.634,3.90379,104.37,2.9076C103.188,1.98212,101.868,1.58365,100.611,0.838119C100.135,0.558546,99.4815,0.600321,98.9361,0.333602Q98.1961,-0.0295221,97.4318,0.00261259Q94.4509,0.115085,91.5257,0.722434Q90.5182,0.928097,89.8025,1.63506Q89.6774,1.76039,89.4933,1.77324Q88.1106,1.86322,86.6202,2.11709Q85.498,2.30668,84.5114,2.72444Q83.2364,3.2643,81.7216,3.49889Q81.5653,3.52459,81.4229,3.46675L81.0407,3.31893Q80.9235,3.27364,80.8548,3.30896Q80.787,3.3438,80.7663,3.45711Q80.6586,4.01626,79.988,4.23156C79.0118,4.54327,78.0113,4.74572,77.1114,5.19882C75.1381,6.19179,73.0675,7.4804,70.9101,7.91743Q70.7364,7.95599,70.66,8.10381C70.5801,8.25806,70.4793,8.3384,70.3056,8.39303Q68.4087,9.01001,66.6508,10.003C65.209,10.816,63.9792,10.7357,62.5582,11.1341C61.3249,11.4812,60.1472,11.5005,58.8965,11.7254Q58.6776,11.764,58.4692,11.6869Q57.5068,11.3366,56.5445,11.7897Q56.3117,11.8989,56.0824,11.7833Q55.1444,11.3109,54.1925,10.9092Q53.4733,10.6039,52.6569,11.0634Q52.4832,11.1598,52.2852,11.1566L51.163,11.1502C50.3994,11.147,49.8904,11.8773,50.2111,12.5159L50.9789,14.0584C51.0284,14.1586,51.1125,14.2419,51.2186,14.2962Q51.4097,14.3958,51.5139,14.5661C51.6,14.7094,51.5746,14.8873,51.4514,15.0032C51.0519,15.3695,50.9407,15.8515,51.3576,16.2596Q52.1358,17.0277,52.5041,18.2038C52.716,18.8754,53.2163,19.4314,53.9423,19.6691Q55.0958,20.0451,55.3077,20.9674C55.3483,21.1339,55.4476,21.2814,55.5891,21.3852C55.9127,21.6258,56.1802,21.877,56.427,22.1089C57.235,22.8678,57.8224,23.4195,59.435,22.7155Q59.6087,22.6384,59.7789,22.722Q60.4842,23.069,61.2381,22.8666Q62.1135,22.6352,62.9369,22.5002Q63.7846,22.3588,64.945,21.3948Q65.0909,21.2727,65.1152,21.0959Q65.2646,20.103,66.3485,19.4571C67.6861,18.6569,68.5789,17.6929,69.4336,16.5135Q69.979,15.7583,70.8267,15.1928C71.664,14.6368,72.265,13.8752,73.2551,13.5346Q73.9604,13.2904,74.5962,12.8919C75.3362,12.4292,76.2012,12.4452,76.8995,11.9311C77.914,11.1855,79.0987,10.7292,80.1583,10.0415C81.1206,9.41813,82.3227,9.35065,83.3476,8.77543C84.4523,8.15844,85.5536,7.95278,86.8113,7.85959C87.4748,7.81138,87.8917,7.30044,88.1384,6.77986Q88.2322,6.57741,88.4684,6.59026Q88.788,6.60633,89.0417,6.80556Q89.198,6.92768,89.3995,6.94374Q89.9102,6.99195,90.4035,7.06586C91.0949,7.16547,91.3728,7.71177,91.7724,8.15523Q91.8974,8.29662,92.0885,8.34804L94.3641,8.9811Q94.583,9.04215,94.5621,9.25424Q94.444,10.4464,94.9477,11.5005C95.448,12.5481,95.4272,13.6503,96.1498,14.6143C96.2301,14.7211,96.2483,14.8581,96.1984,14.9807Q95.6252,16.3239,96.1116,17.7989C96.176,17.9954,96.1715,18.2628,96.1667,18.5471C96.1619,18.8302,96.1569,19.1299,96.2193,19.3928Q96.4694,20.4565,96.7473,21.5265C96.9211,22.195,96.7751,22.8055,96.9419,23.4321Q97.1191,24.0845,97.1052,24.6983Q97.0704,26.6874,97.4248,28.6123Q97.6819,30.0069,97.6437,31.408Q97.5916,33.4197,97.6437,35.6305Q97.6576,36.209,97.7826,36.7713C97.8336,37,97.9032,37.2193,97.9718,37.4353C98.1509,37.9995,98.3229,38.5412,98.137,39.1686C98.1011,39.2891,98.0543,39.4313,98.0029,39.5879C97.7512,40.3541,97.3875,41.4613,97.6298,42.019Q98.1266,43.1565,97.9911,44.4548Q97.8347,45.9362,98.1961,47.3501Q98.342,47.9253,98.3559,48.4973C98.3615,48.7536,98.3765,49.008,98.3915,49.261C98.4318,49.9442,98.4716,50.6178,98.3246,51.2931C98.2057,51.8327,98.254,52.3363,98.3028,52.8452C98.3438,53.2726,98.3852,53.7036,98.3281,54.1627Q98.0015,56.7913,97.7548,59.2754Q97.6159,60.6283,97.7618,61.9233C97.9841,63.8899,97.8591,65.8405,98.1439,67.7043C98.4532,69.6935,98.3871,71.5895,98.0953,73.6011C97.957,74.5459,98.0693,75.349,98.1831,76.1627C98.2465,76.6164,98.3104,77.0734,98.3316,77.5601C98.3628,78.2478,98.5956,78.717,98.8179,79.3404C98.9638,79.7471,98.8766,80.1256,98.7877,80.5115C98.7326,80.7507,98.6768,80.9927,98.6755,81.246Q98.6685,82.3257,97.9772,83.3123C97.8902,83.4362,97.9015,83.5982,98.005,83.7107Q98.4323,84.1638,98.1057,84.6876C98.0309,84.8029,97.9935,84.9357,97.998,85.07Q98.0432,86.4422,98.5782,87.6954C98.6418,87.842,98.6079,88.0089,98.4914,88.1228Q97.7409,88.8555,97.5499,89.7296Q97.5047,89.932,97.5985,90.1216L98.6303,92.1686C98.7447,92.3942,98.7236,92.6593,98.5747,92.8692Q97.9494,93.74,97.6645,94.9065C97.5272,95.455,97.5369,96.014,97.5466,96.5736C97.5532,96.9484,97.5597,97.3234,97.5221,97.6958C97.5153,97.7812,97.4774,97.8627,97.4144,97.9272L96.8724,98.4863C96.776,98.5866,96.7567,98.7323,96.8238,98.8527L97.3588,99.8167C97.4211,99.93,97.4131,100.065,97.338,100.17Q96.5945,101.218,96.32,102.461C96.2705,102.692,96.096,102.882,95.8579,102.966C95.3334,103.149,94.7914,103.303,94.3606,103.65C93.4163,104.409,92.3811,104.365,91.3228,104.32C90.6874,104.293,90.0438,104.266,89.4065,104.412Q88.8332,104.544,88.2218,104.306Q88.0203,104.229,87.8084,104.261Q86.1859,104.508,84.9144,104.216Q82.4825,103.657,79.8386,102.927Q79.2481,102.763,78.6297,102.895C78.3559,102.952,78.2176,103.237,78.3517,103.467Q78.6991,104.055,79.3106,104.383C79.7379,104.614,79.9241,105.083,80.1094,105.549C80.37,106.205,80.629,106.857,81.5549,106.838Q82.0274,106.829,82.34,107.143Q82.4443,107.25,82.4894,107.388Q82.948,108.792,84.2786,109.329C84.4241,109.387,84.5501,109.482,84.6434,109.602Q85.5814,110.8,87.3706,111.369C87.4725,111.403,87.5865,111.386,87.6729,111.324L88.399,110.797Q88.6005,110.649,88.8541,110.688L90.3028,110.913C90.5028,110.946,90.603,111.155,90.4939,111.311L89.7921,112.33C89.6491,112.536,89.7074,112.81,89.9241,112.95Q90.3618,113.233,90.6016,113.696C90.667,113.823,90.83,113.881,90.9733,113.828Q91.2339,113.728,91.4493,113.538C91.7071,113.31,92.1296,113.37,92.3004,113.66ZM30.5208,11.3827C30.1772,11.1743,30.1977,10.7011,30.5582,10.519Q30.6891,10.4495,30.7779,10.3454Q30.9228,10.1674,30.7498,10.0199Q30.1748,9.53377,29.3612,9.48602Q29.1275,9.47301,29.0012,9.29072Q28.6272,8.75254,28.5337,8.09718Q28.5056,7.88017,28.3747,7.70222C27.9119,7.0729,27.9025,6.41754,27.463,5.84464C25.8453,3.74834,23.6339,1.97756,20.7585,1.82566C19.2483,1.74319,17.6727,2.29873,16.2514,2.84993Q14.8628,3.39245,13.9324,4.41673C13.88,4.4739,13.8163,4.51974,13.7454,4.55127L13.5864,4.62505Q13.3386,4.74224,13.2872,4.99397Q13.0394,6.18317,13.3573,7.35935Q13.4134,7.57202,13.3573,7.78035Q13.1235,8.6614,13.2965,9.3862Q13.3947,9.7855,13.016,9.99383Q11.576,10.7751,10.1874,11.4087Q9.06059,11.9295,8.17227,12.5762Q7.1951,13.2837,6.07768,13.8566Q5.88356,13.9564,5.89652,14.0205Q5.90947,14.0844,6.12911,14.1126Q6.7977,14.1994,7.41017,14.3774Q7.94317,14.5336,8.53695,14.9633C9.84606,15.9008,11.4871,16.5171,12.6373,17.4502C14.3485,18.8391,15.2882,21.2348,16.5506,22.437Q17.5231,23.3615,18.0608,23.9431C19.1642,25.1366,20.146,26.1045,21.2494,27.1548Q22.4884,28.3396,23.5824,28.9039Q25.4853,29.8891,27.1591,29.9585Q29.8241,30.0627,32.4844,30.3014Q32.6714,30.3188,32.8398,30.3925Q33.1343,30.5271,33.34,30.3014C33.436,30.1957,33.5701,30.1288,33.7141,30.1148Q35.0185,29.9715,35.9255,28.8388Q36.0658,28.6652,36.1126,28.4568Q36.178,28.2008,36.4538,28.0923Q36.5651,28.0492,36.5948,27.9774Q36.6249,27.9043,36.5707,27.8015L36.5006,27.6669Q36.4118,27.4977,36.538,27.3501Q37.2487,26.5298,36.9635,25.5446Q36.898,25.3059,37.0476,25.1062Q37.5432,24.4422,37.1972,23.7738C37.1237,23.6289,37.093,23.4686,37.1084,23.3094Q37.1692,22.6974,36.7998,22.1549Q36.6689,21.964,36.6596,21.7426Q36.6222,21.1046,36.2481,20.5795C36.1652,20.4627,36.1139,20.3272,36.0985,20.1845C36.0686,19.8872,36.0647,19.6275,36.0611,19.3912C36.0496,18.6305,36.0418,18.1128,35.1821,17.3677C35.0688,17.2711,34.9849,17.1467,34.939,17.0075Q34.4808,15.597,33.1904,14.4772C33.0811,14.3837,33.0346,14.2426,33.0689,14.1083Q33.2839,13.2186,32.4704,12.6543Q31.5727,12.0294,30.5208,11.3827ZM6.40847,88.3736C6.6474,82.3125,6.78278,76.8766,7.00115,71.1535C7.03632,70.1663,6.96175,69.1552,6.88863,68.1638C6.8345,67.4298,6.78117,66.7067,6.77373,66.0119C6.76301,65.1597,6.7049,64.309,6.64709,63.4625C6.56346,62.238,6.48045,61.0226,6.54247,59.8255Q6.73916,56.0791,6.57701,53.3368Q6.24047,47.5821,5.65902,41.8474C5.71148,41.0933,5.55412,40.0529,4.7499,39.7383Q4.55321,39.6617,4.4658,39.4762Q4.06806,38.6011,3.95442,37.6614Q3.92819,37.4638,3.76648,37.3348Q3.16768,36.8791,2.93166,36.1975Q2.86172,35.9879,2.69563,35.8346Q1.61605,34.8506,0.514615,33.9271Q-0.302719,33.2375,0.17807,32.56Q0.488154,32.1288,0.628042,32.1718Q0.768145,32.2148,0.737529,32.7334Q0.724417,32.9068,0.873022,33.3221Q0.912418,33.4332,0.947431,33.4321Q0.982338,33.4309,1.01289,33.3182Q1.09592,32.9874,0.951693,32.6729Q0.868647,32.4914,0.991028,32.3301L1.76903,31.3219Q1.89578,31.1565,2.11432,31.1405Q3.91946,30.9912,4.7193,32.3503Q4.90712,32.6666,5.04366,32.6487Q5.18037,32.6308,5.26565,32.2777Q5.40552,31.701,6.21848,31.6647Q6.43702,31.6567,6.6206,31.5437Q7.14509,31.2251,7.66958,30.9146Q7.74389,30.8702,7.79634,30.9388L7.79634,30.9429Q7.84878,31.0073,7.77885,31.0598Q7.31992,31.4026,7.34177,31.943Q7.34615,32.0783,7.28475,32.1124Q7.22355,32.1465,7.09701,32.0801L6.96152,32.0115Q6.75609,31.9067,6.58564,32.0559C5.93461,32.6296,6.55863,33.5562,6.98541,34.19C7.00562,34.22,7.02539,34.2493,7.04456,34.278Q7.16694,34.4554,7.37675,34.3747Q7.65209,34.2739,7.74825,33.9674Q7.80507,33.7739,8.01488,33.8182Q8.35579,33.8908,8.59182,34.1086Q8.74479,34.2497,8.96333,34.2457Q9.54902,34.2295,10.0866,34.0521Q10.3008,33.9795,10.3445,33.7739Q10.4057,33.4915,10.2352,33.2334Q10.1172,33.0601,10.209,32.8745Q10.292,32.7052,10.4844,32.6285Q10.6373,32.564,10.8734,32.6325Q12.0098,32.9471,13.1068,33.3504Q13.3254,33.431,13.4346,33.6206L14.488,35.3789Q14.5885,35.5523,14.7765,35.641Q17.023,36.7097,19.0205,38.1494Q19.191,38.2744,19.2172,38.472C19.3265,39.2826,20.8956,39.7706,21.4725,40.0811Q21.6692,40.1859,21.5993,40.3835Q21.5031,40.6659,21.2802,40.8513Q21.1097,40.9925,21.0879,41.1982L20.8606,43.0855C20.8492,43.1611,20.8107,43.2308,20.7513,43.2831Q20.5721,43.4404,20.712,43.6097Q20.8781,43.7993,20.795,44.0332L20.524,44.8317Q20.4366,45.0737,20.6683,45.2188Q20.7544,45.2724,20.7644,45.3362Q20.7761,45.4116,20.6814,45.5011C20.6196,45.558,20.5837,45.6374,20.5809,45.7229C20.5765,46.5577,20.5503,47.7917,19.7242,48.2757Q19.5362,48.3846,19.4882,48.5822Q19.2128,49.6388,19.0817,50.7155Q18.9506,51.7923,19.7512,52.8609Q19.5782,53.8688,19.4537,55.0298C19.7993,55.8928,20.4679,56.4577,20.9429,57.3432Q21.0433,57.5331,21.2684,57.5589Q22.74,57.7423,24.125,58.3764C24.2779,58.4476,24.4566,58.45,24.6098,58.3828C25.9671,57.7938,27.366,57.3175,28.8791,57.4623C29.025,57.4766,29.1716,57.4335,29.2843,57.3432C29.7863,56.9442,30.0772,56.5837,30.7559,56.381Q32.2378,55.9336,33.6679,55.5184Q34.814,55.1837,35.7801,54.7589C36.715,54.3469,37.6776,54.0637,38.5882,53.6099Q41.6664,52.0748,44.4781,50.9355C45.3539,50.5817,45.3273,50.0411,45.2969,49.4227C45.2842,49.1634,45.2708,48.8904,45.3229,48.6118Q45.3541,48.4573,45.503,48.3833C47.397,47.4113,47.4489,45.8118,46.8188,44.0127Q46.7564,43.8422,46.5833,43.7649L42.9684,42.1815C42.7189,42.0718,42.4298,42.0729,42.1824,42.1847C42.1554,42.1968,42.1281,42.2092,42.1006,42.2216C41.1792,42.6376,39.9255,43.2036,38.9102,43.0504Q38.7371,43.0247,38.6125,42.912Q37.6706,42.0592,36.3895,41.7985C36.2769,41.7758,36.1801,41.7104,36.1229,41.6183Q35.3403,40.3663,34.3569,39.6196C33.8895,39.2624,33.706,38.5833,34.0384,38.107C34.5474,37.3797,35.091,36.5429,36.0744,36.2983Q36.8569,36.1084,37.5564,35.7447C38.1188,35.4524,38.789,35.4581,39.4227,35.4635C39.4796,35.464,39.5362,35.4645,39.5924,35.4647Q39.8278,35.4679,40.0252,35.3424Q40.2849,35.1815,40.5757,35.1043Q40.7973,35.0463,40.9982,35.1493C42.0348,35.6739,43.0634,35.4905,44.1125,35.3034C44.6017,35.2161,45.0954,35.1281,45.5965,35.1107C47.9509,35.0276,47.8413,32.4542,47.7722,30.8306C47.7664,30.6944,47.7609,30.5649,47.7571,30.4441Q47.7329,29.6749,47.5251,28.9539C47.352,28.336,47.3693,27.7406,47.1408,27.1291C46.8742,26.4114,46.6595,25.2303,47.3278,24.5641Q48.3942,23.5084,49.3603,22.8326Q49.9559,22.4174,50.5722,22.8583C50.7825,23.0086,51.0752,23.0086,51.2855,22.8583C51.9295,22.3981,52.6913,22.0312,53.4842,22.4432Q54.8519,23.1512,56.2647,23.9558C56.4667,24.0694,56.6123,24.2521,56.6698,24.4643L57.2481,26.508C57.2781,26.6124,57.3641,26.696,57.4766,26.73C58.7231,27.0937,59.8,27.3383,61.14,26.9553Q62.6808,26.5144,64.2113,26.1668C64.5352,26.091,64.8752,26.0988,65.1947,26.1894L67.2584,26.7719Q67.4419,26.8234,67.5596,26.965L69.748,29.6266C69.9815,29.9095,69.9843,30.3016,69.7549,30.5857Q68.8615,31.6928,68.5395,33.0606C68.2487,34.2868,67.1268,35.6675,66.2057,36.382Q65.0596,37.2734,63.9551,38.2036C63.8894,38.2583,63.8081,38.2961,63.7196,38.313C63.2383,38.3999,62.7951,38.3194,62.3277,38.5222C61.3097,38.9631,60.5237,39.8932,60.9011,40.981Q60.9495,41.1226,61.1088,41.1484C62.055,41.2997,62.7149,40.9723,63.5699,40.5482C63.6786,40.4942,63.7905,40.4387,63.9066,40.3824C65.0458,39.8256,65.7002,38.8537,66.9121,38.5029C68.7784,37.9622,70.2258,37.399,72.3934,37.1994Q73.7472,37.0739,75.2916,36.2532Q75.4508,36.1695,75.6274,36.205C75.9321,36.2661,76.2126,36.4399,76.5138,36.4817C77.6703,36.6394,78.6295,36.2146,79.6302,35.6771Q79.8379,35.5677,80.0734,35.6031Q81.1364,35.764,82.279,35.7447C82.657,35.7384,82.9985,35.8185,83.3397,35.8985C83.6954,35.9819,84.0507,36.0652,84.4466,36.0505Q85.43,36.0151,85.6447,36.9806Q85.9182,38.2068,86.5934,39.05C87.2617,39.89,88.2728,41.6343,87.8399,42.6964C87.4348,43.7006,86.9397,44.5599,85.6135,44.6146Q83.9376,44.6822,82.1856,44.6274Q81.7735,44.6146,81.3961,44.4376Q81.2403,44.3635,81.0775,44.4279C80.5443,44.6468,80.0422,44.8559,79.4536,44.93Q78.5602,45.0394,77.7327,45.2647C77.109,45.4347,76.7687,45.2371,76.4011,45.0237C76.191,44.9017,75.9721,44.7746,75.6863,44.7079Q75.5062,44.6661,75.3573,44.7723C74.9765,45.049,74.5783,45.284,74.0762,45.2904C73.9016,45.2933,73.7269,45.295,73.5521,45.2968C72.548,45.3067,71.5407,45.3167,70.5409,45.5415C69.8998,45.6864,69.3206,45.6997,68.7724,45.7123C67.6658,45.7376,66.6859,45.7601,65.579,46.8578Q65.4059,47.0283,65.5305,47.2311L66.3235,48.5152Q66.41,48.6568,66.5797,48.7019C66.7807,48.7567,66.9717,48.7734,67.1533,48.7893C67.5472,48.8238,67.8966,48.8543,68.2071,49.2619C68.5395,49.6996,69.0866,49.9732,69.6302,50.1309Q71.1053,50.5621,72.6669,51.2637C73.6018,51.6821,74.1212,52.5221,74.9107,53.124Q75.669,53.7033,76.4931,54.5272Q77.1787,55.2159,77.5111,55.9497Q78.3455,57.7809,79.3808,59.329Q79.8968,60.1014,80.0249,61.2858Q80.0457,61.466,79.9176,61.6012L79.4155,62.1322C79.3213,62.233,79.3021,62.3768,79.367,62.4959L79.7894,63.2683C79.84,63.3638,79.8413,63.4751,79.7929,63.5708Q79.3047,64.5428,79.0623,65.4986C78.9246,66.0525,78.3441,66.4098,77.7396,66.3129C76.8289,66.1648,75.9668,66.2582,75.1046,65.8462Q73.7957,65.2186,72.4799,64.6779C71.4065,64.237,71.0326,63.1524,69.9384,62.7147Q69.3844,62.4927,68.8477,62.2867Q68.685,62.2255,68.5187,62.277C67.7466,62.5248,67.0749,63.2458,66.5035,63.7736Q65.9911,64.2467,65.0943,64.6136C63.6365,65.2057,62.1268,65.7497,60.7522,66.4738Q59.7134,67.0209,58.6885,67.2977Q57.7605,67.552,56.971,68.0283C56.1331,68.5368,55.1601,69.2191,54.1664,69.3736C53.6158,69.4604,53.1761,69.5506,52.6809,69.8273Q50.2225,71.1984,47.861,72.4567C46.8638,72.9878,45.8042,73.2356,44.7274,73.5413C43.1796,73.9823,42.0612,74.6259,40.832,75.5786Q39.8763,76.322,39.0938,75.8908Q38.609,75.6268,38.0792,75.5271Q37.0716,75.334,36.1886,75.025Q36.019,74.9671,35.9844,74.8029L35.8632,74.2397C35.8382,74.1172,35.7799,74.0021,35.6935,73.905Q35.2641,73.419,35.0702,72.8301Q34.9941,72.6016,34.7828,72.4696Q33.474,71.6554,32.6568,69.7662Q32.5945,69.6214,32.636,69.4733C33.0204,68.0154,34.0418,66.9855,35.2468,66.0103C35.6589,65.6756,35.9774,65.1478,36.1298,64.6618C36.5037,63.4775,37.5564,60.7097,38.796,60.3106C39.0074,60.2433,39.1626,60.0743,39.2011,59.8697Q39.2461,59.6186,39.1665,59.403C39.0293,59.0262,38.5841,58.8295,38.1831,58.9685Q37.1616,59.3258,36.1817,59.7957Q35.5308,60.1078,34.8105,60.1754Q33.7752,60.2688,32.9096,60.8609C32.0786,61.4306,31.2787,61.0991,30.4338,61.4467Q28.0585,62.4218,25.7697,64.0407Q25.1915,64.4494,24.8279,64.9547C23.7095,66.4995,21.6008,65.5115,20.427,64.7294C20.2705,64.6262,20.0811,64.618,19.9248,64.6816Q19.9427,64.8916,19.7205,65.0721Q19.6252,65.1508,19.5817,65.2561Q19.5609,65.3886,19.554,65.5161Q19.5897,65.6804,19.7819,65.7417Q19.8978,65.778,19.9261,65.8457Q19.9543,65.9132,19.8951,66.0119Q19.7832,66.2042,19.6965,66.4035Q19.7928,66.6367,19.9526,66.8471Q20.053,66.9759,19.9665,67.1142L19.7656,67.4232Q19.6618,67.5873,19.641,67.774Q19.5948,68.2537,19.4928,68.7307Q19.5128,68.8285,19.5372,68.9276C19.5741,69.0813,19.5502,69.2425,19.471,69.3833Q19.1694,69.8995,19.6811,70.1656Q19.9041,70.2865,19.9345,70.5245Q20.0481,71.4118,20.2799,72.2546C20.4416,72.8474,20.3407,73.1619,20.1178,73.6903Q20.0435,73.8758,20.1091,74.0612Q20.367,74.7871,19.7598,75.259Q19.585,75.3961,19.5852,75.6098Q19.6114,77.114,19.305,78.8964Q19.4562,79.2114,19.3481,79.3979Q19.2501,79.5672,18.9384,79.6306Q18.733,79.6749,18.7724,79.8604Q18.9298,80.6307,18.4922,81.2677Q18.3786,81.4371,18.4049,81.6349Q18.4836,82.2801,18.4615,82.9132C18.4307,83.6155,18.6269,83.9965,18.9007,84.5281C18.9381,84.6009,18.9771,84.6765,19.0171,84.7562C19.0874,84.8985,19.0945,85.0602,19.0382,85.2077Q18.7891,85.8288,18.877,86.4741C18.9148,86.7599,18.8235,86.9784,18.7331,87.1947C18.6564,87.3783,18.5803,87.5603,18.5843,87.7806Q18.6149,89.2445,18.33,90.874C18.3646,91.3991,18.212,91.9382,18.0578,92.4831C17.8804,93.1099,17.7008,93.7444,17.8013,94.3743Q17.8559,94.725,17.9816,94.7483Q18.1073,94.7716,18.3041,94.467L19.2964,92.9145Q19.3687,92.8053,19.4046,92.8148Q19.4404,92.8241,19.4403,92.9508Q19.4447,93.471,19.1908,93.959Q19.0946,94.1404,19.1255,94.3379C19.2172,94.9345,18.9573,95.3959,18.7081,95.838C18.5059,96.197,18.3107,96.5433,18.3166,96.939Q18.3188,97.2428,18.4146,97.2706Q18.5108,97.2985,18.7014,97.0479L19.9431,95.4106Q20.1178,95.1769,20.1505,95.1928Q20.1833,95.2088,20.0736,95.4752C19.7371,96.2817,19.1562,97.0883,18.8415,97.8666C18.7875,97.9998,18.7327,98.1307,18.6785,98.2605C18.3416,99.0656,18.0256,99.821,18.0594,100.738Q18.1425,103.186,18.0854,105.634Q18.0504,107.13,19.0948,109.126Q19.1997,109.328,19.1083,109.534L19.0382,109.691Q18.9508,109.889,19.0862,110.054Q19.6238,110.703,19.8289,111.469Q19.8572,111.576,19.8174,111.606Q19.7773,111.637,19.6677,111.59Q19.1913,111.393,18.972,110.953Q18.9268,110.86,18.8615,110.846Q18.7944,110.831,18.7062,110.901Q18.2866,111.227,18.6534,111.933C18.698,112.018,18.6891,112.119,18.6294,112.197C18.5696,112.274,18.4682,112.317,18.3646,112.308L17.8272,112.26Q17.6568,112.243,17.6564,112.086L17.6564,111.885Q17.6564,111.801,17.6162,111.778Q17.5768,111.756,17.499,111.792Q17.0663,111.998,17.0317,112.477Q17.023,112.592,16.9583,112.636Q16.8928,112.681,16.7698,112.655Q16.101,112.506,15.3793,112.538C15.3337,112.541,15.2896,112.556,15.2526,112.582Q15.1434,112.671,15.1529,112.788Q15.1638,112.963,15.1189,112.976Q15.0741,112.99,14.9734,112.84Q14.9428,112.796,14.912,112.748Q14.8683,112.675,14.7853,112.707L13.771,113.102Q13.57,113.183,13.4736,113.369Q13.3246,113.661,13.033,113.692C13.0334,113.754,13.0361,113.819,13.0413,113.887Q13.1002,114.675,12.3419,115.19C12.2452,115.256,12.2014,115.371,12.2311,115.48L12.4596,116.288C12.4997,116.432,12.4421,116.584,12.3142,116.671C11.8465,116.999,11.2685,116.462,10.9053,116.125C10.8516,116.075,10.8027,116.029,10.7595,115.992C10.5726,115.828,10.2838,115.822,10.0946,115.979C9.7103,116.294,9.22554,116.397,8.81003,116.037Q8.0171,115.355,8.21793,114.444Q8.25948,114.247,8.14176,114.083Q6.86406,112.323,4.90424,111.209C4.35716,110.9,3.72004,110.646,3.4465,110.067C3.41664,110.003,3.38577,109.939,3.35422,109.872C2.91377,108.946,2.33943,107.739,2.49775,106.742Q2.65703,105.719,2.00953,104.653C1.88647,104.451,2.03341,104.199,2.28307,104.184L3.04484,104.138C3.36054,104.12,3.57149,103.828,3.47074,103.549C3.42852,103.432,3.3738,103.295,3.31407,103.145C3.01131,102.388,2.5799,101.308,2.99636,100.778Q3.96935,99.5426,4.02129,98.0589Q4.05591,97.1578,4.29829,96.2695Q4.9735,93.8203,5.91878,91.2296Q6.29381,90.1998,6.40847,88.3736ZM60.5687,53.8706C60.399,53.1722,59.5645,51.7433,58.5084,52.2228C58.3747,52.2848,58.2202,52.2974,58.0756,52.2582C57.9872,52.2343,57.8944,52.206,57.7991,52.1769C57.1523,51.9797,56.3944,51.7486,56.147,52.6155Q55.8422,53.6743,55.174,54.1796Q53.1068,55.7309,50.9739,57.4366C50.3021,57.9741,50.0459,58.695,49.4399,59.2775Q48.3873,60.2881,47.7502,61.4885Q47.6136,61.7457,47.6998,61.8841Q47.7862,62.0228,48.0965,62.0421Q48.3873,62.0614,48.647,61.9713C49.987,61.5111,51.3582,61.0573,52.7882,60.935C53.8582,60.8416,54.7273,60.6582,55.6414,60.0563C56.8499,59.2614,58.0133,58.3828,59.3741,57.855C60.3228,57.4881,60.9392,56.7124,61.5313,55.9754C61.6622,55.812,61.6691,55.5905,61.5486,55.4219C61.1954,54.923,60.7106,54.4628,60.5687,53.8706ZM40.7784,80.1096Q38.7435,80.9479,37.4527,82.3721Q37.3838,82.4495,37.3371,82.4393Q37.2902,82.4291,37.2658,82.33Q36.9336,80.9512,35.3556,79.9866C35.0504,79.8013,34.6984,79.7872,34.3597,79.7736C33.8111,79.7515,33.2975,79.7309,33.075,78.9865Q32.9123,78.4427,32.9712,77.8666C32.9962,77.6364,32.7668,77.4534,32.5247,77.5105C31.7357,77.695,30.6629,78.1158,30.5868,79.0027Q30.4518,80.5627,30.9398,81.5694Q31.0332,81.7636,30.919,81.9448C30.1047,83.2343,30.6725,84.0208,31.2771,84.8582C31.6104,85.3198,31.9549,85.797,32.0852,86.3824Q32.2963,87.3372,32.7082,88.1788C33.165,89.1142,32.9227,90.0981,33.4557,91.0756Q33.8606,91.8233,34.0094,92.6455C34.1166,93.2313,34.4696,93.7589,34.833,94.2379C35.4352,95.018,35.7535,95.9534,36.0339,96.8694C36.3799,97.9958,37.0098,99.0412,37.7192,100.006C37.771,100.076,37.7575,100.171,37.688,100.226Q37.0236,100.747,36.3142,101.113C35.0683,101.75,33.3795,101.423,32.2825,102.33Q31.7876,102.744,31.2858,103.084Q31.1336,103.187,30.9501,103.191L29.1229,103.207C28.9847,103.207,28.8507,103.16,28.7457,103.074Q28.0674,102.521,27.05,102.56C26.9421,102.564,26.8339,102.561,26.7273,102.558C26.305,102.547,25.9117,102.536,25.6796,102.997C25.1466,104.035,26.3648,105.77,26.9946,106.583C27.2957,106.968,27.8148,107.039,28.2785,107.123C28.4004,107.145,28.5124,107.199,28.6003,107.279Q29.3963,108,30.3618,108.677C31.054,109.159,31.9883,109.127,32.7358,108.839C33.7464,108.45,34.923,108.043,35.84,107.457C36.4214,107.088,37.0547,107.078,37.6811,106.8C38.9546,106.233,40.1659,105.437,41.5121,105.065C41.886,104.962,42.2229,104.807,42.5548,104.655C43.1075,104.402,43.6462,104.156,44.3187,104.162Q46.5819,104.184,48.8764,103.524Q49.0909,103.463,49.3124,103.514Q49.5996,103.586,49.8349,103.76C49.9585,103.853,50.1175,103.894,50.2745,103.874C50.5427,103.837,50.7973,103.834,51.0487,103.831C51.4557,103.827,51.8543,103.823,52.2886,103.673Q53.9255,103.113,55.1574,102.378Q55.3236,102.281,55.5208,102.307C55.5867,102.317,55.6462,102.327,55.7017,102.336C55.9577,102.379,56.1287,102.408,56.4587,102.336Q58.4001,101.909,60.0543,101.404Q60.2135,101.355,60.3796,101.381L61.2551,101.511C61.3693,101.527,61.4868,101.495,61.577,101.423C62.0026,101.084,62.2726,100.562,62.8194,100.378C63.8091,100.041,65.6259,99.6724,66.6226,100.142Q67.3044,100.465,68.0657,100.032C68.1362,99.9913,68.2159,99.9679,68.2976,99.9637Q70.1594,99.8731,71.5817,100.359C72.8656,100.799,74.2672,100.647,75.558,100.384C76.3574,100.223,77.3956,100.265,78.157,100.595C78.9806,100.951,79.7351,101.142,80.576,100.64C80.6889,100.571,80.8389,100.592,80.9255,100.689C81.2231,101.019,81.6211,101.271,82.0918,101.294C82.4369,101.312,82.758,101.365,83.0694,101.416C83.7885,101.535,84.4558,101.645,85.2479,101.291Q86.4418,100.76,87.8676,99.9443C88.9023,99.3519,89.2761,98.3,88.5493,97.3258Q88.4767,97.2319,88.5563,97.1413C89.0546,96.5684,89.0304,95.5585,88.5701,94.9306Q88.2829,94.5357,88.1272,94.0696C87.6842,92.7231,86.3068,92.2182,85.1925,91.4802C85.0838,91.4091,84.9369,91.413,84.8291,91.4899Q84.3516,91.846,83.8256,91.4058C83.4243,91.0683,82.8103,91.0884,82.4378,91.4511L82.0468,91.833C81.8028,92.0712,81.3964,92.0727,81.1505,91.8363C80.5864,91.2925,79.5378,90.7228,79.1779,90.069Q79.1052,89.9396,79.1398,89.7939C79.3371,88.9556,79.7489,88.4086,80.2957,87.7677C80.9705,86.9812,81.2335,85.6995,81.8115,85.133Q83.3722,83.6053,85.1925,82.1488Q85.9885,81.5176,86.2895,80.8282L86.2905,80.826C86.5986,80.1168,87.1196,78.9178,86.6391,78.2356Q85.4001,76.4845,85.2236,74.523C85.2017,74.2819,85.2036,74.026,85.2056,73.7657C85.2106,73.1246,85.2157,72.458,84.8637,71.9239Q84.1578,70.8623,83.6145,69.6647Q83.3099,68.9947,82.6385,68.862C81.936,68.7228,81.4412,68.3053,80.7456,68.2082C79.9704,68.1014,79.2194,67.8715,78.9979,67.0753C78.9218,66.8106,78.581,66.7049,78.3508,66.8747C77.2754,67.6682,76.293,67.6196,75.1309,67.562C74.8757,67.5494,74.6118,67.5364,74.3364,67.5317Q72.9106,67.5058,71.6994,68.0787C71.253,68.2891,70.7616,68.1758,70.2944,68.3344Q68.7924,68.8393,67.4047,69.4122Q67.2282,69.4834,67.0448,69.422Q66.6365,69.2892,66.235,69.3831Q64.8023,69.7165,63.7537,70.2149Q63.072,70.5354,62.4421,70.7134C62.2621,70.7629,62.0696,70.8273,61.8712,70.8936C61.3298,71.0747,60.7444,71.2705,60.2481,71.2183C59.8317,71.176,59.4704,71.3399,59.1056,71.5055C58.8853,71.6055,58.6636,71.706,58.4278,71.7621C57.4311,71.9984,56.4483,72.1602,55.5001,72.5713Q53.8839,73.2672,52.1294,73.5811Q51.1327,73.7559,50.2122,74.0505C48.5268,74.591,47.3156,74.8694,46.2739,76.4618Q46.1805,76.6042,46.0144,76.6496C45.5091,76.7855,45.0281,76.8438,44.6267,77.1966C43.8757,77.8569,42.8375,78.2194,42.2561,78.9865Q41.6851,79.7374,40.7784,80.1096ZM65.6086,87.6318Q65.6571,84.5472,65.6121,81.6859Q65.6052,81.4529,65.3837,81.3558L64.8058,81.0968C64.5541,80.9841,64.4673,80.69,64.6224,80.4754Q65.1345,79.7601,65.4148,78.9541C65.6138,78.3813,65.6334,77.8125,65.6532,77.2384C65.6644,76.9138,65.6756,76.5876,65.7194,76.2579C65.882,75.0377,67.7162,74.7367,68.7475,74.8499Q69.8168,74.9665,70.6266,74.3385Q70.706,74.2772,70.7785,74.2835Q70.8514,74.2898,70.9173,74.3644Q71.5506,75.0927,72.5369,75.6138C72.6544,75.6772,72.7505,75.7716,72.8137,75.8857Q73.3294,76.8243,72.9902,77.9022Q72.703,78.8182,72.4677,79.7762C72.1216,81.2133,71.3637,82.4854,70.4605,83.6992C69.7614,84.6443,69.4604,85.8257,69.1558,86.9165C69.0415,87.3248,69.2498,87.71,69.4445,88.07C69.4797,88.1351,69.5145,88.1995,69.5469,88.2629C69.6513,88.4617,69.5902,88.7012,69.4015,88.8326C68.7025,89.3214,66.5465,90.3506,65.972,89.2404Q65.5983,88.5089,65.6086,87.6318ZM53.5413,90.1305Q53.3475,88.8617,54.0846,87.8907C54.6314,87.1722,54.7491,86.4083,54.9394,85.5732Q55.1955,84.4468,54.3892,83.5956Q54.2646,83.4629,54.2161,83.2913Q54.0708,82.7573,53.9393,82.2362C53.7247,81.3914,53.1157,80.6534,52.7246,79.883C52.6643,79.7662,52.6508,79.634,52.6865,79.5108C52.8215,79.0415,52.9876,78.4136,53.5136,78.2Q55.1471,77.5364,56.784,76.915Q56.957,76.847,57.1023,76.9603Q57.926,77.6238,58.0817,78.6304C58.3274,80.2391,58.4624,81.8251,57.7599,83.2654C57.137,84.5472,57.355,85.7609,56.9293,87.075Q56.1922,89.3375,55.1471,91.3702Q54.9576,91.7363,54.6887,91.7959Q54.437,91.8516,54.1158,91.6388C53.5863,91.286,53.6244,90.6775,53.5413,90.1305ZM50.3748,91.1825C51.0289,91.8978,51.7868,92.4124,52.2401,93.2604Q52.3509,93.4676,52.6,93.487L53.4998,93.5712C53.6565,93.5838,53.752,93.7393,53.6867,93.8754Q52.7938,95.6524,50.7797,96.7917Q50.1637,97.138,49.5304,97.1898C48.7968,97.2513,46.9903,97.2837,46.8242,96.3191Q46.5958,94.9953,46.4747,93.72C46.4124,93.1018,45.8483,92.6357,45.4295,92.1891C45.0108,91.7457,44.8032,91.1792,44.6993,90.6063Q44.5471,89.7648,44.1006,89.0074Q43.3255,87.6998,43.187,86.1429Q43.1663,85.9163,43.2839,85.7156C43.9691,84.5569,44.9381,83.1521,46.2497,82.877Q46.4435,82.8382,46.6062,82.9418Q47.101,83.2622,47.5025,83.8092C47.8249,84.2511,47.684,84.5673,47.5485,84.8711C47.4092,85.1837,47.2757,85.4833,47.6582,85.8936C48.1839,86.4594,48.1242,87.4183,48.0784,88.1525C48.0742,88.2205,48.0701,88.2866,48.0666,88.3503Q48.0527,88.5963,48.2604,88.742Q48.5753,88.9653,48.8937,89.2113C49.5962,89.7486,49.7969,90.5448,50.3748,91.1825Z" fill-rule="evenodd" fill="#0C0C0C" fill-opacity="1"/></g></svg>