<svg xmlns="http://www.w3.org/2000/svg" xmlns:xlink="http://www.w3.org/1999/xlink" fill="none" version="1.1" width="43"
    height="43" viewBox="0 0 43 43">
    <g style="opacity:0.6000000238418579;">
        <path
            d="M21.2617,0L21.7395,0L21.7395,14.3333L21.2617,14.3333L21.2617,0ZM16.1658,0.670451L15.7043,0.794109L19.414,14.639L19.8755,14.5154L16.1658,0.670451ZM26.8322,0.670585L27.2937,0.794243L23.584,14.6392L23.1225,14.5155L26.8322,0.670585ZM10.957,2.76028L10.5433,2.99917L17.7099,15.4122L18.1237,15.1733L10.957,2.76028ZM32.4567,2.99917L32.043,2.76028L24.8763,15.1733L24.8765,15.1734L24.8763,15.1738L25.2901,15.4127L32.4567,2.99965L32.4565,2.99953L32.4567,2.99917ZM6.4668,6.12805L6.12896,6.46589L16.2642,16.6011L16.602,16.2632L6.4668,6.12805ZM36.5332,6.12805L36.871,6.46589L26.7358,16.6011L26.398,16.2632L36.5332,6.12805ZM3.00195,10.5428L2.76306,10.9566L15.1761,18.1233L15.415,17.7095L3.00195,10.5428ZM39.998,10.5428L40.2369,10.9566L27.8239,18.1233L27.585,17.7095L39.998,10.5428ZM0.794797,15.7046L0.794922,15.7041L14.6399,19.4139L14.5162,19.8754L14.5156,19.8752L14.5155,19.8757L0.670531,16.1659L0.794189,15.7045L0.794797,15.7046ZM42.2052,15.7045L42.2051,15.7041L28.3601,19.4139L28.4838,19.8754L28.4844,19.8752L28.4845,19.8755L42.3295,16.1658L42.2058,15.7043L42.2052,15.7045ZM14.3333,21.2606L14.3333,21.7384L0,21.7384L0,21.2606L14.3333,21.2606ZM43,21.2606L43,21.7384L28.6667,21.7384L28.6667,21.2606L43,21.2606ZM14.5153,23.1239L14.5152,23.1236L0.670265,26.8334L0.793922,27.2949L0.794574,27.2947L0.794659,27.295L14.6396,23.5853L14.5159,23.1238L14.5153,23.1239ZM28.4847,23.1241L28.4848,23.1236L42.3297,26.8334L42.2061,27.2949L42.2055,27.2947L42.2053,27.2952L28.3604,23.5854L28.4841,23.1239L28.4847,23.1241ZM15.172,24.8762L15.4109,25.2899L2.99784,32.4566L2.75896,32.0428L15.172,24.8762ZM27.828,24.8762L27.5891,25.2899L40.0022,32.4566L40.241,32.0428L27.828,24.8762ZM16.2628,26.3984L16.6006,26.7363L6.46545,36.8715L6.12761,36.5336L16.2628,26.3984ZM26.7372,26.3984L26.3994,26.7363L36.5346,36.8715L36.8724,36.5336L26.7372,26.3984ZM18.1234,27.8252L17.7096,27.5863L10.543,39.9994L10.5432,39.9995L10.543,39.9998L10.9567,40.2387L18.1234,27.8257L18.1232,27.8256L18.1234,27.8252ZM25.2904,27.5863L24.8766,27.8252L32.0433,40.2383L32.457,39.9994L25.2904,27.5863ZM23.5852,28.3603L23.1237,28.484L26.8335,42.3289L27.295,42.2053L23.5852,28.3603ZM19.4128,28.3605L19.8742,28.4841L16.1645,42.3291L15.703,42.2054L19.4128,28.3605ZM21.2617,28.6667L21.7395,28.6667L21.7395,43L21.2617,43L21.2617,28.6667Z"
            fill-rule="evenodd" fill="#FEA886" fill-opacity="1" />
    </g>
</svg>