<svg xmlns="http://www.w3.org/2000/svg" xmlns:xlink="http://www.w3.org/1999/xlink" fill="none" version="1.1" width="84"
    height="42" viewBox="0 0 84 42">
    <g style="opacity:0.6000000238418579;">
        <path
            d="M25.2,0L25.2,0.831667L0,0.831667L0,0L25.2,0ZM84,0L84,0.831667L58.8,0.831667L58.8,0L84,0ZM25.6647,4.32008L25.8821,5.12341L1.54073,11.5809L1.32332,10.7776L25.6647,4.32008ZM58.3386,4.32008L58.1212,5.12341L82.4625,11.5809L82.68,10.7776L58.3386,4.32008ZM27.2404,8.37271L27.6604,9.09295L5.83652,21.568L5.41652,20.8477L27.2404,8.37271ZM56.7629,8.37271L56.3429,9.09295L78.1668,21.568L78.5868,20.8477L56.7629,8.37271ZM29.8221,11.8841L30.4161,12.4722L12.597,30.1145L12.003,29.5264L29.8221,11.8841ZM54.1812,11.8841L53.5872,12.4722L71.4063,30.1145L72.0003,29.5264L54.1812,11.8841ZM33.9632,15.0299L33.2358,14.614L20.6358,36.2214L21.3632,36.6372L33.9632,15.0299ZM50.7675,14.614L50.04,15.0299L62.64,36.6372L63.3675,36.2214L50.7675,14.614ZM38.0567,16.5916L37.2453,16.3763L30.7231,40.4762L31.5345,40.6915L38.0567,16.5916ZM45.9466,16.5916L46.7579,16.3763L53.2802,40.4762L52.4688,40.6915L45.9466,16.5916ZM42.42,17.05L41.58,17.05L41.58,42L42.42,42L42.42,17.05Z"
            fill-rule="evenodd" fill="#FEA886" fill-opacity="1" />
    </g>
</svg>