<svg viewBox="0 0 700 700" class="sparkle" js-hook="sparkle-pop" xmlns="http://www.w3.org/2000/svg">

    <path xmlns="http://www.w3.org/2000/svg"
        d="M216.522,21.9405Q214.036,12.7063,215.279,1.7013C215.312,1.42088,215.519,1.19537,215.791,1.1452Q224.829,-0.537746,233.311,0.252507C236.894,0.589095,237.83,2.06716,237.918,5.31597C237.992,7.78555,237.894,10.1844,237.797,12.557C237.664,15.7949,237.533,18.9824,237.845,22.2332Q238.255,26.5357,237.655,30.5162Q237.436,31.965,235.973,31.9943C228.734,32.1406,218.672,29.9016,216.522,21.9405ZM221.378,21.4576C221.482,22.4589,222.112,23.3287,223.03,23.7405L228.865,26.3893C230.727,27.2249,232.832,25.8696,232.843,23.8283L232.916,8.08185C232.924,6.6244,231.821,5.4009,230.372,5.25744L223.001,4.54035C221.228,4.37401,219.747,5.87093,219.93,7.64282L221.378,21.4576ZM339.327,36.691C345.329,36.691,350.193,31.8228,350.193,25.8177C350.193,19.8125,345.329,14.9444,339.327,14.9444C333.326,14.9444,328.461,19.8125,328.461,25.8177C328.461,31.8228,333.326,36.691,339.327,36.691ZM339.813,19.6098C343.433,20.0224,346.044,23.1887,345.647,26.6818C345.249,30.175,341.992,32.6723,338.373,32.2597C334.754,31.8471,332.142,28.6808,332.54,25.1877C332.938,21.6945,336.194,19.1972,339.813,19.6098ZM73.4316,496.515Q90.2354,499.384,108.107,499.633C108.461,499.638,108.812,499.643,109.159,499.648C114.245,499.723,118.625,499.788,123.273,499.545C127.924,499.281,132.75,499.281,137.342,498.623Q147.184,497.203,157.056,495.667Q160.113,495.198,163.886,491.774Q164.486,491.232,164.603,490.428L165.173,486.462C165.264,485.835,165.682,485.305,166.27,485.071Q177.282,480.725,181.187,478.691Q194.408,471.842,207.439,459.476C214.532,452.744,220.074,443.817,223.818,434.568C224.129,433.791,224.926,433.317,225.764,433.412Q236.206,434.642,247.277,435.944C253.814,436.72,257.485,441.066,260.117,446.861Q260.731,448.222,260.848,449.437Q260.936,450.33,260.234,450.915Q240.447,467.276,243.065,492.711Q243.957,501.272,249.982,508.881Q250.538,509.569,250.64,510.462Q251.05,514.223,253.814,516.886Q254.633,517.662,254.808,518.774Q255.364,522.169,255.452,525.93C255.7,536.54,262.735,549.784,267.561,559.692C273.85,572.614,285.945,571.15,296.474,565.297C299.18,563.804,302.134,563.233,304.869,561.828C305.111,561.703,305.404,561.732,305.617,561.903C305.829,562.075,305.92,562.355,305.849,562.619Q304.694,566.672,305.556,570.814Q305.703,571.545,305.308,572.16Q302.105,577.282,301.549,579.126C299.429,586.18,296.679,592.941,295.261,599.936Q292.014,615.961,291.312,637.283C290.99,647.19,294.398,655.663,304.503,658.59C305.228,658.803,305.767,659.411,305.893,660.156C305.942,660.463,305.992,660.771,306.042,661.082C306.759,665.515,307.538,670.325,305.966,674.688C303.611,681.259,301.93,689.147,308.54,693.566C311.304,695.41,316.086,696.244,319.538,696.625Q330.155,697.795,341.343,698.644C351.273,699.405,361.482,699.274,370.33,694.898C378.227,690.976,379.894,682.649,379.748,674.512C379.74,674.124,380.048,673.803,380.435,673.795Q389.122,673.781,398.219,673.737Q400.881,673.722,403.586,673.342C407.959,672.712,412.478,673.093,416.953,672.61Q433.085,670.883,449.23,667.488C449.77,667.365,450.322,667.633,450.561,668.132Q454.057,675.464,452.404,681.844C450.664,688.62,452.199,696.391,460.521,697.283C467.76,698.059,475.701,697.4,482.604,695.659Q498.706,691.576,513.784,686Q517.982,684.449,520.175,682.137C522.574,679.605,524.885,673.795,523.846,669.829C522.896,666.171,523.437,662.527,522.501,658.854Q521.184,653.732,519.312,648.595C518.847,647.33,519.416,645.919,520.629,645.332Q526.654,642.419,533.265,639.068Q540.065,635.614,541.06,628.312C541.16,627.555,541.639,626.9,542.332,626.57Q555.421,620.453,568.262,612.902Q573.614,609.77,580.254,604.882Q586.221,600.492,591.939,596.38C592.482,595.989,593.187,595.911,593.797,596.175Q596.195,597.229,598.945,598.282C607.763,601.648,621.028,601.912,629.218,596.629C643.433,587.438,650.555,576.082,653.89,560.453C655.294,553.926,659.082,549.199,663.484,544.457C664.273,543.607,664.516,542.384,664.113,541.296Q662.387,536.716,657.707,535.194C650.775,532.926,641.444,532.501,635.039,536.452Q632.435,538.048,628.662,537.374Q628.359,537.324,628.241,537.149Q628.12,536.969,628.194,536.657C629.057,532.706,636.911,534.404,637.613,529.501C637.771,528.414,637.203,527.348,636.208,526.867Q629.306,523.545,622.417,522.696Q619.215,522.301,609.606,524.101C608.197,524.367,606.792,524.371,605.402,524.375C603.66,524.38,601.943,524.385,600.275,524.906C588.459,528.579,579.567,535.018,575.516,546.301C575.035,547.643,575.014,549.336,574.992,551.057C574.953,554.255,574.913,557.55,571.918,558.872C569.649,559.881,567.881,559.582,565.952,559.256C565.083,559.109,564.181,558.957,563.187,558.916Q549.293,558.404,535.619,558.448C534.386,558.448,533.194,558.269,532.01,558.092C530.821,557.914,529.641,557.738,528.438,557.745Q527.927,557.753,527.667,557.501Q527.407,557.248,527.4,556.736Q527.356,553.048,528,549.696C531.714,530.218,513.082,507.886,500.958,493.691Q491.438,482.525,479.723,475.164C479.47,475.003,479.335,474.707,479.379,474.41C479.423,474.112,479.638,473.869,479.928,473.788Q495.767,469.266,507.949,463.208C512.366,461.013,515.963,460.442,520.819,460.764Q532.489,461.51,542.405,462.798C547.582,463.471,552.847,465.359,558.127,466.852C561.096,467.701,564.211,466.984,566.726,469.018C567.182,469.38,567.77,469.524,568.335,469.413C570.338,469.003,571.201,467.232,570.763,465.257C568.247,454.061,562.514,445.354,555.714,436.003Q555.384,435.548,555.498,435.347Q555.613,435.147,556.167,435.198C565.771,436.167,576.46,434.806,585.982,433.539Q605.947,430.882,622.831,423.653Q640.388,416.137,650.529,405.371Q655.938,399.629,658.786,393.322Q661.82,386.601,661.82,379.528L661.82,378.834L661.548,378.195Q651.341,354.212,628.616,342.213Q617.838,336.522,604.276,333.569C596.865,331.803,589.245,330.776,581.483,330.285C581.349,330.278,581.231,330.197,581.18,330.075C581.13,329.955,581.157,329.818,581.249,329.728Q592.334,317.714,598.828,299.523Q600.144,295.821,600.846,291.606Q601.65,286.748,602.498,282.226Q604.18,273.182,600.597,263.889C600.383,263.33,599.855,262.951,599.252,262.923Q589.629,262.425,579.728,263.04C579.543,263.054,579.366,262.965,579.268,262.808C579.17,262.652,579.167,262.453,579.26,262.294Q582.521,256.659,583.384,250.703C583.798,247.862,583.208,244.984,582.632,242.169L582.631,242.168C582.475,241.403,582.319,240.642,582.185,239.889C580.883,232.703,572.093,230.303,566.097,227.493C560.949,225.093,555.363,223.981,549.981,224.01Q548.114,224.025,547.988,223.563Q547.862,223.102,549.469,222.166C558.712,216.796,569.081,213.298,578.002,208.381C589.087,202.278,601.431,190.659,596.02,176.61Q594.162,171.795,592.554,169.044C583.779,154.044,568.51,156.795,553.973,160.102C553.714,160.164,553.443,160.073,553.273,159.869C553.102,159.664,553.062,159.38,553.169,159.137Q555.816,152.712,558.478,146.273C561.096,139.936,562.236,130.892,560.35,124.746C557.249,114.59,549.308,106.38,539.056,102.429C525.85,97.3506,512.366,100.804,503.357,111.253C495.737,120.107,489.961,133.556,486.67,144.444Q485.617,147.912,483.496,150.766Q479.241,156.517,476.389,164.712C474.019,171.59,470.334,178.205,466.312,184.132Q465.246,185.703,464.953,185.57Q464.659,185.437,465.142,183.59Q465.917,180.576,467.219,177.459C468.652,174.005,468.769,170.156,468.389,166.512C466.502,148.556,457.04,133.951,444.273,121.175Q433.831,110.726,429.136,94.5555Q427.249,88.0725,429.94,76.2041C430.525,73.5992,429.604,70.9211,426.445,71.4626Q421.224,72.3699,415.272,74.7114Q409.568,76.9651,405.766,79.9212C387.528,94.0872,394.461,117.765,387.338,137.068Q386.577,139.133,385.842,139.124Q385.107,139.115,384.399,137.039C381.883,129.634,380.216,120.429,383.287,113.214C383.494,112.721,383.415,112.158,383.082,111.751Q380.582,108.721,377.35,111.165C358.264,125.58,343.61,149.171,349.723,173.405Q350.235,175.439,349.255,177.327Q348.801,178.207,348.497,178.157Q348.195,178.108,348.041,177.137C347.807,175.717,347.968,174.21,347.632,172.79Q341.738,148.849,335.464,125.229C333.855,119.17,331.515,113.521,330.258,107.346C327.494,93.692,316.803,81.4139,302.573,79.6139Q285.403,77.4334,272.68,90.0042Q263.876,98.697,264.183,110.58Q264.461,121.307,267.503,131.068Q267.898,132.356,268.687,133.556Q269.66,135.026,269.386,135.315Q269.112,135.605,267.59,134.712Q255.086,127.351,241.061,127.761Q238.209,127.834,235.708,129.356C226.89,134.727,219.899,141.575,219.782,152.317C219.709,158.829,222.985,165.195,227.387,169.864C237.01,180.078,249.982,188.434,261.214,196.703Q262.313,197.509,262.19,197.801Q262.067,198.093,260.731,197.874C251.006,196.278,242.465,196.381,232.623,199.513C219.372,203.713,217.808,218.01,221.347,229.381C221.458,229.737,221.352,230.124,221.075,230.373C220.798,230.622,220.401,230.686,220.06,230.537Q211.373,226.791,201.823,227.845Q201.091,227.932,200.755,228.591Q199.088,231.767,198.167,236.113Q198.014,236.854,197.623,237.014Q197.227,237.177,196.587,236.742Q195.944,236.303,195.651,235.542Q192.317,226.484,188.119,219.415Q186.598,216.854,185.75,213.854C182.459,202.044,170.862,201.049,161.678,206.522C131.214,224.698,110.856,254.859,103.72,289.557C103.402,291.117,103.32,293.132,103.229,295.363C103.07,299.289,102.884,303.885,101.336,307.85C101.171,308.282,100.804,308.605,100.356,308.714Q93.409,310.309,86.3745,311.392C84.3416,311.699,81.9286,312.548,81.1681,314.67Q79.6763,318.855,81.3289,322.265C81.647,322.926,81.5465,323.713,81.0723,324.273C80.5982,324.833,79.8392,325.061,79.1352,324.855L76.8245,324.182C74.9077,323.618,72.9161,324.803,72.4955,326.758Q71.2671,332.509,72.3201,338.172Q72.5394,339.343,71.3841,339.68Q65.8413,341.319,60.6787,343.865C57.0518,345.651,53.147,346.177,49.5346,347.89C33.0379,355.69,17.7403,367.778,8.57055,383.861Q7.54679,385.646,7.51756,387.797Q7.50292,388.617,6.81555,389.085Q2.93999,391.69,4.68034,395.875Q4.91434,396.461,4.32936,396.695Q2.55317,397.392,1.92315,398.659Q1.13706,400.24,2.13564,402.71C2.25561,403.003,2.51327,403.216,2.82301,403.28Q3.43723,403.412,3.36412,403.939Q3.27637,404.524,2.72062,404.729Q0.541544,405.578,0.307542,408.022C-1.73992,429.52,6.55232,446.598,21.7036,461.276Q32.3359,471.579,43.6408,477.023Q46.3318,478.31,48.6864,479.701C52.6497,482.042,56.9494,483.637,61.176,485.247Q62.0535,485.569,62.1266,486.506L62.4483,490.413C62.4854,490.923,62.7422,491.389,63.1503,491.686Q68.4591,495.667,73.4316,496.515ZM425.465,208.542Q403.981,211.659,385.715,205.044C374.103,200.844,361.014,192.239,357.372,179.859Q356.465,176.786,355.412,173.742C354.409,170.855,354.632,167.8,354.856,164.742C354.919,163.878,354.982,163.013,355.017,162.151C355.676,146.478,363.178,133.366,373.971,123.078Q374.46,122.611,374.716,122.715Q374.973,122.82,374.995,123.502Q375.2,131.595,377.993,139.527C379.236,143.053,382.907,147.4,387.119,144.634C391.784,141.575,394.709,136.98,395.426,131.39C395.923,127.556,397.737,124.175,397.985,120.297Q398.716,108.912,399.96,102.136C402.168,90.1652,409.963,84.692,419.776,79.1456C420.439,78.7699,421.281,78.9984,421.663,79.6578C422.846,81.6757,422.57,84.6229,422.328,87.2167C422.256,87.9887,422.187,88.7292,422.16,89.4042Q422.058,91.8774,422.847,94.6579Q424.295,99.7507,425.714,104.507C430.189,119.419,443.775,128.58,452.024,141.136Q465.318,161.346,459.921,183.473C457.903,191.786,444.17,203.537,435.834,205.674C432.295,206.566,429.048,208.015,425.465,208.542ZM301.198,85.3798C304.343,85.3944,306.756,87.3847,309.476,88.6578C317.373,92.3311,323.121,102.824,324.671,110.653Q325.388,114.239,326.309,117.663Q333.811,145.483,341.446,175.6Q341.782,176.917,343.844,180.034C343.996,180.268,344.007,180.562,343.873,180.795L343.435,181.542Q343.188,181.977,342.956,181.97Q342.72,181.962,342.499,181.498Q341.285,178.893,339.076,178.264Q334.265,176.888,328.415,175.834C322.776,174.836,316.95,176.313,311.406,177.718L311.216,177.766C297.703,181.176,289.352,189.678,282.844,201.722C282.554,202.253,281.911,202.48,281.352,202.249Q279.451,201.444,277.755,200.2Q260.483,187.673,243.196,175.19C234.802,169.132,222.137,157.717,227.884,146.2Q230.838,140.273,234.29,137.624Q240.081,133.19,247.233,134.668C253.887,136.058,260.658,138.619,267.532,140.288C271.495,141.268,275.4,139.512,274.566,134.785Q272.943,125.697,271.247,116.58Q268.205,100.16,281.879,91.0725Q290.478,85.3651,301.198,85.3798ZM483.292,164.888Q487.957,153.122,494.714,140.156Q497.829,134.185,501.031,127.629C505.872,117.722,512.453,108.473,524.007,107.229C526.475,106.964,528.803,107.215,531.136,107.466C532.922,107.659,534.712,107.852,536.57,107.814Q537.14,107.8,537.623,108.136Q541.63,110.931,544.964,113.741C560.467,126.766,553.52,142,546.456,156.912C544.701,160.615,545.096,165.81,549.951,166.249C554.5,166.661,559.036,165.975,563.547,165.292C565.764,164.957,567.975,164.622,570.178,164.42C578.689,163.644,582.886,166.834,587.479,172.966Q589.658,175.893,590.17,179.522C591.53,189.064,586.323,195.122,578.85,199.761Q570.909,204.693,561.71,208.747C556.913,210.854,553.432,214.249,548.46,215.932C541.206,218.376,534.771,222.108,527.678,224.654Q526.562,225.051,525.866,224.673Q525.176,224.298,524.899,223.162C520.263,204.166,504.892,193.498,486.319,190.22Q478.787,188.903,471.767,191.508Q471.144,191.742,470.988,191.565Q470.832,191.389,471.138,190.805Q478.831,176.171,483.292,164.888ZM667.039,119.873Q670.476,118.219,673.679,117.546C678.286,116.58,682.424,123.619,683.843,127.058C687.572,136.161,690.395,151.951,685.423,161.493C684.943,162.418,684.016,163.023,682.98,163.088L665.109,164.156Q661.555,164.361,661.248,160.82Q660.078,147.634,659.259,134.536Q659.083,131.844,658.44,129.21C657.145,123.896,660.841,122.417,664.6,120.912C665.427,120.58,666.258,120.248,667.039,119.873ZM664.846,125.214Q661.643,126.649,662.418,129.532Q666.118,143.419,665.898,158.127C665.887,158.743,666.417,159.233,667.039,159.181L680.319,157.981Q682.483,157.79,682.629,155.624C683.404,145,683.419,133.205,677.511,124.249C675.04,120.513,669.346,123.141,665.836,124.762C665.482,124.926,665.15,125.079,664.846,125.214ZM351.595,207.24C342.382,206.42,331.252,210.079,325.475,217.601Q323.223,220.542,321.293,225.269C314.156,242.889,323.165,262.572,340.612,269.786Q341.197,270.035,341.358,270.65C341.507,271.217,341.009,271.747,340.422,271.645Q332.817,270.284,324.203,268.016Q298.712,261.313,288.899,237.84Q282.405,222.269,288.943,205.191Q292.511,195.898,300.423,190.308Q314.887,180.093,332.7,183.488Q339.676,184.805,343.727,188.639Q351.303,195.781,352.473,206.347C352.531,206.856,352.105,207.289,351.595,207.24ZM377.657,271.85C377.22,272.378,377.35,273.173,377.935,273.547Q379.28,274.411,380.976,274.03Q386.358,272.772,391.199,271.352C396.157,269.904,395.06,263.611,389.854,263.142C377.554,262.045,369.481,255.269,360.502,247.703C360.034,247.316,360.103,246.579,360.633,246.284C368.706,241.776,373.181,235.103,371.602,225.269Q370.052,215.523,361.95,210.649Q360.575,209.83,359.434,208.835Q358.864,208.352,358.908,207.605Q359.273,198.386,353.087,190.132Q352.911,189.898,353.116,189.693L353.131,189.693Q353.394,189.444,353.657,189.693C357.942,193.864,361.16,198.576,366.015,202.176C375.829,209.42,387.09,213.342,398.731,215.362Q405.883,216.605,420.537,215.947C426.123,215.698,430.423,212.903,435.776,211.937C440.222,211.132,447.095,208.249,449.918,205.469Q453.282,202.176,456.382,199.703Q456.674,199.469,456.952,199.717Q457.099,199.849,457.128,200.039Q457.142,200.2,457.025,200.332C452.477,205.659,451.146,210.62,448.543,216.562Q448.251,217.249,447.549,217.542C441.962,219.942,435.161,225.123,433.494,231.503Q429.955,244.967,440.426,253.118C441.04,253.589,441.018,254.521,440.382,254.962C433.26,259.85,423.783,264.167,414.935,264.855Q410.782,265.177,406.555,265.411Q405.736,265.455,405.107,265.996C403.586,267.328,403.206,270.167,404.961,271.528Q406.906,273.05,409.115,274.206Q422.76,281.362,437.501,284.421Q438.364,284.596,439.315,284.684Q440.93,284.809,441.084,285.35Q441.239,285.891,439.929,286.85Q423.476,298.821,420.463,319.309C420.26,320.694,420.371,322.087,420.482,323.492C420.587,324.816,420.693,326.147,420.537,327.489C420.451,328.27,419.554,328.671,418.899,328.221Q409.363,321.65,399.608,320.421Q381.678,318.153,368.575,325.763Q368.034,326.077,367.855,325.935Q367.675,325.792,367.858,325.192Q372.377,310.587,366.074,294.313C363.866,288.591,359.595,283.133,355.617,278.333C355.506,278.194,355.483,278.005,355.557,277.844C355.632,277.683,355.791,277.577,355.968,277.572L362.33,277.469C364.608,277.429,366.102,275.07,365.167,272.991C363.968,270.343,361.072,267.679,357.957,267.474Q352.795,267.123,348.495,265.762Q324.393,258.094,325.68,233.669Q325.987,227.991,329.029,223.864Q334.499,216.444,344.59,214.235C356.787,211.571,368.999,220.688,363.968,234.006C361.979,239.259,357.021,240.225,352.21,241.264C350.133,241.703,348.363,243.664,349.987,245.684Q359.42,257.362,370.286,263.245C372.626,264.518,374.688,266.377,376.531,268.323Q377.145,268.967,377.964,268.601Q379.119,268.074,379.119,266.538Q379.119,265.843,379.346,265.758Q379.572,265.674,380.026,266.201Q380.406,266.655,380.465,267.299Q380.538,268.045,380.114,268.645Q378.988,270.225,377.657,271.85ZM478.392,197.054Q488.176,196.117,498.56,201.049Q517.835,210.181,519.225,232.279Q519.517,236.991,519.195,242.259Q518.903,246.928,516.943,250.82Q512.249,260.172,507.423,265.352Q503.328,269.743,498.545,274.338Q496.732,276.079,494.07,276.928Q480.279,281.274,471.826,281.801Q464.674,282.24,457.04,282.123Q455.706,282.109,455.643,281.818Q455.581,281.529,456.777,280.967C459.833,279.533,463.08,278.64,466.034,276.928Q476.842,270.65,482.034,258.05C487.46,244.879,482.721,228.532,470.188,221.347Q464.075,217.864,456.85,216.605C456.37,216.52,456.074,216.037,456.221,215.581Q461.574,198.649,478.392,197.054ZM281.418,236.691Q281.09,236.918,279.744,235.674Q262.618,219.84,239.876,210.693Q237.551,209.757,234.889,209.01Q232.666,208.381,232.634,207.653Q232.601,206.925,234.758,206.098Q239.379,204.327,244.951,204.049Q261.784,203.186,279.378,208.835Q280.299,209.127,280.124,210.064C278.632,217.893,278.062,227.347,281.06,234.767Q281.747,236.464,281.418,236.691ZM178.789,217.63L165.436,224.23C164.899,224.493,164.251,224.27,163.988,223.732L163.155,222.049C161.354,218.407,162.82,214.005,166.431,212.215L168.639,211.118C172.252,209.333,176.638,210.84,178.438,214.483L179.271,216.181C179.536,216.715,179.32,217.362,178.789,217.63ZM618.293,260.274C622.037,260.127,625.035,260.23,628.414,262.249Q634.79,266.054,637.335,270.079Q637.993,271.147,639.148,271.689Q640.026,272.113,640.947,271.923Q642.161,271.689,641.942,270.474Q640.084,259.966,642.424,250.82Q644.018,244.542,650.102,241.747C650.713,241.468,650.83,240.649,650.322,240.21C646.621,236.976,642.073,231.869,646.461,226.791Q647.982,225.02,647.309,222.737C647.18,222.319,646.795,222.034,646.358,222.034Q641.839,222.093,637.437,222.093C631.777,222.108,627.156,217.878,623.617,213.707C623.192,213.211,622.507,213.028,621.891,213.245C621.276,213.462,620.857,214.035,620.838,214.688C620.818,215.39,620.868,216.064,620.918,216.73C621.011,217.98,621.102,219.201,620.721,220.527C617.635,231.152,606.389,234.971,596.385,234.166Q595.625,234.108,595.347,234.81Q594.864,235.981,595.946,236.698C599.325,238.937,603.23,239.581,606.652,241.732Q615.383,247.264,616.055,258.24C616.126,259.413,617.119,260.316,618.293,260.274ZM227.943,213.766Q228.411,213.664,228.849,213.869Q250.845,224.83,267.239,236.464C270.325,238.659,275.619,244.147,279.144,244.44Q279.716,244.491,279.81,244.73Q279.903,244.968,279.524,245.391C278.106,247.016,276.833,248.991,275.956,250.952Q271.627,260.479,268.746,271.352C268.584,271.951,267.878,272.207,267.371,271.85C263.13,268.908,258.918,266.582,254.955,262.908C243.767,252.562,234.246,243.62,228.542,228.693Q226.027,222.079,226.977,214.82C227.046,214.293,227.434,213.87,227.943,213.766ZM111.88,287.157C116.779,265.323,127.265,246.723,143.411,229.879Q148.72,224.332,154.014,220.659Q154.802,220.111,155.252,220.314Q155.703,220.518,155.813,221.479L156.106,224.084Q156.325,225.986,154.819,227.171Q139.024,239.669,128.918,257.64C125.715,263.362,123.858,269.86,120.582,275.772C118.622,279.313,118.739,283.06,117.467,286.762Q114.147,296.509,114.688,306.094Q114.761,307.426,113.43,307.514L110.564,307.733Q109.714,307.799,109.349,307.41Q108.985,307.022,109.101,306.182C109.123,306.029,109.145,305.877,109.166,305.724C109.513,303.292,109.852,300.904,109.467,298.426C109.062,295.758,109.911,293.297,110.77,290.804C111.184,289.605,111.6,288.398,111.88,287.157ZM248.885,406.105C248.537,405.354,247.747,404.912,246.926,405.007Q246.063,405.11,245.288,404.729C244.736,404.469,244.672,403.707,245.171,403.339Q247.101,401.919,245.668,399.3C242.845,394.119,240.067,387.124,236.732,381.329C234.641,377.685,233.924,373.646,232.14,369.783Q221.361,346.441,211.46,325.763C206.02,314.406,201.837,304.016,196.631,293.099Q185.779,270.299,175.82,248.347C172.909,241.981,169.136,236.084,167.147,229.484Q166.884,228.649,167.557,228.108Q173.202,223.542,181.509,221.479Q181.893,221.384,182.101,221.534Q182.313,221.687,182.342,222.093Q182.489,224.201,183.395,226.132Q217.881,300.167,252.805,375.49C254.53,379.236,256.856,382.866,258.45,386.744Q264.505,401.597,271.451,414.666Q274.157,419.759,275.927,424.705Q277.711,429.71,280.256,434.949C285.433,445.676,290.156,457.047,295.816,467.73C297.805,471.462,299.019,475.559,300.876,479.437Q313.264,505.311,323.545,528.55Q324.013,529.604,324.481,530.687Q324.92,531.726,324.934,532.926Q325.139,548.204,333.197,559.048Q333.997,560.127,333.762,560.886Q333.529,561.64,332.276,562.077L325.358,564.492Q322.77,565.384,321.614,562.897L248.885,406.105ZM620.311,255.898C618.293,247.674,614.608,241.6,606.652,237.883C606.553,237.844,606.488,237.748,606.485,237.64C606.482,237.53,606.54,237.427,606.637,237.371C614.871,232.952,621.013,232.191,624.45,222.151C624.663,221.522,625.432,221.29,625.956,221.698Q630.87,225.444,637.218,226.571C637.987,226.708,638.725,226.611,639.451,226.515C640.117,226.428,640.772,226.341,641.43,226.439Q642.292,226.586,642.161,227.449C642.038,228.196,641.911,228.89,641.791,229.54C640.901,234.385,640.455,236.817,645.612,240.649Q646.005,240.94,646,241.224Q645.995,241.511,645.583,241.791Q636.706,247.864,637.408,258.971C637.466,259.996,638.037,260.903,638.154,261.898Q638.227,262.541,637.986,262.695Q637.745,262.85,637.188,262.513Q629.964,258.137,621.745,257.157C621.051,257.079,620.479,256.577,620.311,255.898ZM542.614,223.479C543.781,222.851,544.822,222.52,544.941,222.741C545.06,222.961,544.21,223.65,543.044,224.278C541.878,224.906,540.836,225.237,540.717,225.017C540.599,224.796,541.448,224.108,542.614,223.479ZM424.047,270.182C433.406,267.869,443.059,261.899,450.283,255.811Q451.161,255.064,451.775,254.113C452.511,252.97,452.13,251.439,450.942,250.762C448.207,249.24,445.179,248.479,442.869,246.24Q437.15,240.752,440.47,232.615C441.83,229.264,443.688,226.045,447.388,224.903Q454.802,222.605,461.471,224.888C475.219,229.615,479.972,241.718,476.213,255.503Q475.453,258.313,473.668,260.684C465.537,271.572,455.841,275.728,442.298,274.982Q432.938,274.455,424.017,271.967Q422.322,271.499,422.328,271.053Q422.334,270.606,424.047,270.182ZM521.418,256.103C522.545,253.498,524.402,250.601,524.782,247.806Q525.806,240.269,526.42,232.323Q526.493,231.386,527.429,231.284Q531.729,230.786,536.497,229.967C537.759,229.745,538.895,230.049,540.037,230.354C541.013,230.614,541.993,230.876,543.063,230.815Q557.132,230.084,568.642,235.659C572.152,237.371,575.603,236.493,578.338,239.815Q578.499,240.006,578.309,240.167Q578.119,240.328,577.943,240.152C576.452,238.572,575.15,238.001,572.883,238.498C554.909,242.347,537.93,247.059,522.457,256.967Q521.489,257.59,521.231,257.372Q520.973,257.155,521.418,256.103ZM208.345,233.098C212.938,234.767,216.681,236.61,221.786,237.576Q224.945,238.176,226.743,241.176C233.5,252.43,242.275,261.255,253.126,268.104C257.938,271.133,260.015,276.05,265.28,278.757Q266.216,279.24,266.084,280.294Q265.309,286.411,264.183,292.118C261.594,305.231,259.518,318.402,257.455,331.631C256.359,338.699,251.883,339.548,246.911,343.207C246.555,343.471,246.047,343.344,245.858,342.943C240.008,330.46,234.582,317.948,228.308,305.816C225.456,300.299,223.35,294.606,220.733,288.914Q213.713,273.577,205.786,257.025Q202.905,251.011,203.007,246.767Q203.168,239.786,206.166,233.962C206.566,233.16,207.505,232.787,208.345,233.098ZM124.209,289.338Q124.882,286.952,124.428,284.289C124.4,284.091,124.297,283.904,124.136,283.762Q123.902,283.557,123.814,283.265Q123.697,282.928,123.975,282.723Q126.958,280.513,127.134,276.387C127.172,275.691,127.422,275.022,127.85,274.469Q129.693,272.128,129.225,269.245Q129.094,268.338,129.722,267.679Q132.808,264.474,134.081,262.425Q144.23,246.064,158.489,233.508C159.328,232.769,160.641,233.048,161.107,234.064L188.777,294.109Q188.982,294.555,188.84,294.793Q188.697,295.031,188.207,295.06Q178.803,295.601,168.39,297.445Q164.193,298.192,160.522,299.714C155.316,301.879,150.168,302.992,145.312,305.992Q142.124,307.953,139.097,309.811C138.729,310.047,138.293,310.14,137.868,310.075L122.176,307.748C121.849,307.696,121.611,307.42,121.62,307.104Q121.884,297.679,124.209,289.338ZM523.612,265.63C539.714,256.879,557.308,250.484,575.355,245.537C576.346,245.259,577.285,246.12,577.095,247.133C575.647,255.43,572.093,263.26,566.068,269.391C555.216,280.44,542.639,287.801,529.111,294.811C528.767,294.991,528.351,294.76,528.321,294.372Q527.137,279.474,523.056,267.006C522.884,266.473,523.119,265.894,523.612,265.63ZM311.143,271.674Q297.527,278.23,289.996,294.562C286.968,301.104,287.056,306.46,286.12,313.177C285.067,320.699,287.743,330.036,290.815,336.592C290.933,336.838,290.898,337.132,290.725,337.346C290.55,337.561,290.269,337.66,289.996,337.602Q277.594,334.719,265.104,337.733C264.781,337.81,264.483,337.535,264.534,337.207Q267.532,319.075,270.369,301.382C270.954,297.723,270.749,294.182,272.11,290.626Q273.089,288.065,273.587,285.343Q277.053,266.464,285.33,249.108C285.477,248.807,285.775,248.609,286.109,248.591C286.443,248.572,286.761,248.737,286.939,249.02Q296.27,263.991,311.114,270.343C311.377,270.456,311.55,270.712,311.557,270.999C311.563,271.286,311.401,271.55,311.143,271.674ZM38.8285,272.81C32.9347,273.451,27.627,269.092,26.9737,263.073C26.3203,257.055,30.5686,251.657,36.4625,251.016C42.3564,250.376,47.664,254.735,48.3174,260.753C48.9708,266.771,44.7225,272.17,38.8285,272.81ZM43.3492,262.25C43.3492,258.896,40.6319,256.177,37.2799,256.177C33.9279,256.177,31.2106,258.896,31.2106,262.25C31.2106,265.604,33.9279,268.323,37.2799,268.323C40.6319,268.323,43.3492,265.604,43.3492,262.25ZM484.351,283.716Q484.582,283.463,485.193,283.557Q486.743,283.821,488.264,283.616Q503.883,281.611,514.267,267.518C514.401,267.327,514.635,267.232,514.866,267.272C515.1,267.312,515.291,267.48,515.364,267.708Q518.684,278.626,520.175,291.577Q520.921,298.075,522.003,304.543C522.18,305.578,521.994,306.587,521.802,307.621C521.677,308.297,521.55,308.983,521.521,309.694Q520.614,333.08,520.307,358.148C520.3,358.77,519.815,359.281,519.195,359.319Q517.821,359.421,516.475,359.012Q506.121,355.88,494.772,356.524Q493.699,356.582,493.475,356.174Q493.25,355.764,493.88,354.885Q509.119,333.592,500.417,308.04Q496.147,295.47,486.217,287.64Q484.739,286.47,484.271,284.582Q484.117,283.971,484.351,283.716ZM368.371,267.883L375.552,270.737C376.266,271.02,376.736,271.708,376.743,272.476C376.749,273.244,376.29,273.939,375.581,274.234L373.534,275.069C373.311,275.162,373.073,275.212,372.832,275.215L367.991,275.273C366.998,275.284,366.167,274.523,366.09,273.532L365.797,269.786C365.689,268.394,367.074,267.371,368.371,267.883ZM625.435,348.237Q645.711,358.943,654.998,380.211Q654.718,390.989,645.57,400.701Q636.402,410.433,620.149,417.391Q604.123,424.253,585.083,426.786C572.969,428.398,560.222,428.551,548.125,426.856Q547.854,426.777,547.582,426.695Q546.924,426.505,546.266,426.695C544.273,427.279,543.519,428.541,543.572,429.973C543.57,430.026,543.568,430.079,543.568,430.132L543.568,430.135C543.569,430.766,543.744,431.382,544.073,431.916C544.356,432.534,544.747,433.143,545.213,433.705Q551.97,441.871,557.176,449.554Q560.569,454.588,562.28,461.715Q562.405,462.266,562.217,462.411Q562.03,462.556,561.534,462.301C558.141,460.544,555.158,458.744,551.209,458.32C548.05,457.983,545.271,456.535,542.098,456.052Q533.279,454.705,524.212,454.427Q523.428,454.398,523.341,454.137Q523.255,453.877,523.861,453.388C552.555,429.915,553.886,388.632,527.634,362.846C527.024,362.254,526.76,361.383,526.932,360.534Q528.117,354.695,528.234,348.724Q528.511,333.153,528.862,319.045C528.913,316.983,528.778,314.949,528.643,312.921C528.429,309.711,528.217,306.519,528.745,303.255C528.882,302.373,529.463,301.625,530.281,301.279Q545.535,294.679,559.575,284.509C564.328,281.069,568.057,276.782,572.225,272.918C575.925,269.483,585.15,269.344,591.312,269.251C592.239,269.237,593.096,269.224,593.855,269.201C594.499,269.177,595.078,269.6,595.259,270.225C596.399,274.273,596.046,277.834,595.682,281.505L595.682,281.507L595.682,281.509C595.486,283.49,595.287,285.502,595.318,287.64Q595.361,290.406,594.118,293.348Q591.544,299.494,588.926,305.553Q582.529,320.4,570.34,330.709C569.823,330.953,569.378,331.323,569.044,331.779Q568.771,331.999,568.496,332.216C567.903,332.689,567.554,333.409,567.545,334.177C567.545,336.548,569.285,337.397,571.333,337.309Q572.794,337.241,574.264,337.212C591.681,337.439,609.839,340.002,625.435,348.237ZM293.842,304.938C294.193,302.084,295.334,298.996,296.562,296.392Q297.256,294.929,298.025,293.554C298.535,295.44,300.136,297.702,304.369,298.706C299.897,310.433,298.553,325.769,314.665,337.045C322.721,342.683,334.861,341.161,343.309,335.692C351.757,330.223,356.512,320.807,354.945,310.433C351.812,289.685,334.355,285.175,327.197,285.175Q320.039,285.175,313.322,289.685Q305.957,283.572,305.302,284.222Q305.28,284.244,305.266,284.272Q304.818,285.175,309.294,292.391Q308.842,293.293,307.501,294.647C305.059,293.909,302.618,292.634,300.831,291.701C300.351,291.45,299.917,291.223,299.544,291.039Q306.864,279.785,319.933,275.143C320.953,274.78,322.053,274.729,323.092,274.996Q332.144,277.338,342.06,277.821C345.614,277.982,350.323,282.84,352.838,285.226Q355.544,287.787,357.46,291.635Q368.443,313.704,357.167,334.616C355.339,338.012,352.999,340.88,349.416,342.446Q343.99,344.816,339.603,349.338C335.069,354.007,328.181,355.646,322.58,351.578C316.978,347.524,309.637,341.977,302.617,341.597Q301.856,341.553,301.403,340.924Q294.017,330.446,292.496,317.172C292.167,314.323,292.684,311.568,293.203,308.802C293.443,307.52,293.684,306.236,293.842,304.938ZM396.952,296.637C404.694,297.547,411.438,294.289,412.017,289.36C412.595,284.431,406.789,279.698,399.048,278.788C391.307,277.878,384.562,281.136,383.984,286.065C383.405,290.994,389.211,295.727,396.952,296.637ZM397.858,285.669C401.839,285.94,404.999,287.148,404.916,288.365C404.833,289.583,401.538,290.35,397.558,290.078C393.577,289.807,390.417,288.599,390.5,287.382C390.583,286.164,393.877,285.397,397.858,285.669ZM476.023,288.884Q477.544,288.87,478.231,290.348C478.47,290.863,478.856,291.301,479.343,291.606Q484.333,294.695,487.86,298.899Q485.551,300.64,481.05,302.994Q474.632,297.28,467.04,296.102C459.448,294.924,440.294,296.922,435.065,317.988C432.766,327.25,434.238,337.756,442.052,345.062C450.24,352.718,462.794,355.593,472.22,351.159C491.071,342.291,491.545,325.858,489.245,314.746C491.776,314.21,493.458,313.052,494.548,311.677Q501.112,333.836,487.708,352.192C485.105,355.763,481.946,358.119,477.646,359.246Q471.811,360.768,465.947,364.017C459.907,367.368,450.225,365.773,446.598,359.568Q442.796,353.056,436.053,350.099C434.684,349.499,433.604,348.398,433.041,347.026Q431.564,343.397,429.458,340.133C427.498,337.104,426.167,331.514,426.328,327.87C427.118,311.143,434.445,296.157,449.523,289.192Q452.302,287.904,456.016,288.431C461.364,289.198,467.086,289.073,472.677,288.95C473.799,288.926,474.916,288.901,476.023,288.884ZM492.61,306.435Q491.156,303.265,489.138,300.524Q489.678,303.796,485.105,307.337Q485.737,308.514,486.947,310.117C489.202,309.434,491.126,307.861,492.61,306.435ZM319.545,304.121C323.412,302.449,325.406,298.448,324.009,295.167C323.461,293.881,322.409,292.822,321.057,292.195C319.087,291.281,316.7,291.305,314.493,292.259C310.627,293.932,308.633,297.932,310.03,301.214C310.577,302.499,311.629,303.558,312.982,304.186C314.951,305.099,317.339,305.076,319.545,304.121ZM395.252,316.687C404.789,317.488,412.861,314.084,413.281,309.082C413.701,304.081,406.309,299.376,396.772,298.575C387.234,297.774,379.162,301.178,378.742,306.18C378.323,311.181,385.714,315.885,395.252,316.687ZM226.977,391.251C227.533,394.632,227.445,398.422,228.513,401.568C231.745,410.978,236.206,420.695,243.211,427.807Q243.848,428.453,243.722,428.686Q243.597,428.919,242.714,428.744Q235.562,427.383,227.05,426.959C226.707,426.94,226.428,426.679,226.392,426.344Q225.91,421.588,227.05,417.037Q227.899,413.671,227.358,410.217Q226.612,405.549,226.89,400.646Q226.933,399.797,226.451,399.11Q225.383,397.544,224.696,395.744C217.266,376.353,203.607,362.597,186.16,352.28C182.079,349.865,177.472,348.665,173.392,346.28C170.072,344.334,166.27,343.207,162.599,341.948C157.156,340.079,156.833,336.134,156.47,331.701C156.401,330.858,156.33,329.996,156.223,329.129C155.638,324.445,151.674,324.504,148.15,323.553C147.742,323.438,147.442,323.086,147.389,322.66L146.38,314.172Q146.263,313.177,147.17,312.738C152.391,310.265,157.597,307.001,163.169,305.714C172.222,303.621,182.108,301.455,191.278,301.997C191.983,302.041,192.61,302.466,192.916,303.109Q197.187,312.123,200.828,319.938Q209.793,339.182,218.261,357.534Q220.382,362.114,222.926,366.285Q225.296,370.163,226.67,375.226Q227.796,379.397,227.138,383.056Q226.348,387.373,226.977,391.251ZM455.005,315.327C458.977,313.61,461.027,309.501,459.592,306.134C459.03,304.815,457.951,303.729,456.563,303.085C454.538,302.145,452.083,302.169,449.814,303.149C445.842,304.866,443.792,308.974,445.227,312.342C445.789,313.661,446.868,314.747,448.256,315.391C450.281,316.331,452.736,316.307,455.005,315.327ZM397.133,305.06C402.702,305.431,407.147,306.783,407.061,308.082C406.974,309.38,402.39,310.132,396.821,309.762C391.252,309.392,386.807,308.039,386.893,306.741C386.98,305.443,391.564,304.69,397.133,305.06ZM100.341,315.445Q118.227,312.533,137.225,317.289Q139.229,317.787,140.486,319.192Q141.722,320.575,141.418,321.168Q141.115,321.76,139.272,321.563Q115.244,319.016,86.9449,321.563Q85.9036,321.651,85.4469,321.176Q84.9928,320.704,85.1168,319.675Q85.1606,319.265,85.3508,318.914Q86.3306,317.011,88.4512,316.865Q93.994,316.47,100.341,315.445ZM313.027,325.757C314.217,327.575,313.879,328.826,312.873,329.376C311.867,329.927,310.159,329.192,309.383,327.751C308.607,326.31,308.793,324.696,309.8,324.145C310.806,323.595,312.251,324.316,313.027,325.757ZM420.697,389.349C416.953,388.339,413.663,385.705,410.606,383.217C409.693,382.477,408.457,382.286,407.374,382.719C397.546,386.597,388.976,385.192,379.046,383.114C376.648,382.617,375.273,381.227,373.401,379.88C371.881,378.786,369.773,379.04,368.545,380.466Q365.986,383.451,362.067,383.656C349.475,384.344,341.446,379.485,339.705,366.431Q339.12,362.085,340.831,359.012Q346.023,349.631,355.412,348.109Q358.279,347.641,359.595,345.065Q366.63,331.441,380.918,328.119Q405.458,322.426,422.218,340.412C425.085,343.499,425.904,347.934,427.366,351.797C427.864,353.085,429.034,354.285,430.306,354.782C438.686,357.987,443.483,363.914,442.913,373.485C442.225,384.944,431.578,392.305,420.697,389.349ZM92.2829,328.163Q120.289,324.607,146.716,330.285Q147.974,330.548,149.305,330.841Q150.051,331.002,150.066,331.763L150.124,337.47C150.133,338.078,149.51,338.491,148.954,338.246Q146.907,337.338,144.83,336.943Q112.231,330.533,79.1206,337.807Q78.5214,337.938,78.2143,337.697Q77.9067,337.456,77.8921,336.841L77.7751,331.807Q77.7458,330.621,78.9305,330.548C83.5227,330.299,87.7346,328.748,92.2829,328.163ZM448.307,337.541C449.53,339.406,449.183,340.691,448.149,341.256C447.115,341.822,445.36,341.067,444.563,339.588C443.765,338.109,443.957,336.451,444.991,335.886C446.025,335.321,447.51,336.062,448.307,337.541ZM77.8464,341.77C79.0161,342.965,79.7493,344.145,79.4837,344.405C79.2183,344.665,78.0548,343.907,76.8849,342.712C75.7152,341.516,74.9819,340.336,75.2475,340.076C75.5129,339.816,76.6765,340.574,77.8464,341.77ZM132.794,452.525L133.452,454.896C133.604,455.47,134.073,455.908,134.658,456.022C135.245,456.137,135.847,455.911,136.216,455.437Q137.283,454.017,136.962,452.232Q135.675,444.944,127.514,442.925Q118.827,440.759,114.542,447.637Q114.306,448.005,114.063,448.01Q113.824,448.015,113.577,447.666Q107.551,439.091,96.5972,444.388Q89.5042,447.813,91.8003,455.305C91.9217,455.699,92.2007,456.031,92.5754,456.227Q93.3505,456.637,94.0818,456.198Q94.7545,455.788,94.9154,454.998Q95.2518,453.417,95.8806,451.954C96.4342,450.675,97.9683,450.157,99.1712,450.842Q100.941,451.822,101.716,454.091C101.873,454.545,101.698,455.051,101.292,455.32C96.1159,458.755,90.9978,458.8,85.2897,458.851C84.5786,458.857,83.8584,458.863,83.1278,458.876C79.7495,458.92,76.3857,460.135,73.4023,461.554C72.434,462.018,71.2768,461.758,70.609,460.925Q67.567,457.149,66.163,452.027C63.2381,441.403,60.123,431.232,59.304,419.964C58.1925,404.7,58.9384,389.846,63.4721,375.08Q69.0733,356.787,82.4258,346.368C88.1733,341.89,95.0616,341.758,103.12,341.275Q114.805,340.587,131.156,341.626Q140.823,342.226,147.301,348.241C153.151,353.656,158.928,360.27,161.736,367.763C168.478,385.749,169.239,404.598,167.688,424.09Q166.928,433.544,163.784,442.983Q160.581,452.627,155.652,461.613C155.463,461.966,154.994,462.057,154.672,461.803Q151.557,459.33,147.535,459.066C145.882,458.958,144.246,458.92,142.627,458.883C137.671,458.767,132.868,458.656,128.172,456.549C126.95,455.996,126.298,454.647,126.622,453.344Q127.105,451.413,129.488,450.695C130.903,450.266,132.395,451.092,132.794,452.525ZM256.52,365.245L250.465,353.378Q249.383,351.255,251.225,349.748Q255.115,346.543,259.693,345.592C260.571,345.41,261.448,345.221,262.324,345.033C267.856,343.844,273.375,342.658,279.144,343.075Q291.049,343.938,299.312,346.543Q311.202,350.319,322.419,360.607C326.046,363.943,331.296,363.08,333.373,358.851C333.595,358.385,334.16,358.199,334.616,358.441L335.142,358.704C335.442,358.865,335.527,359.252,335.318,359.509L333.826,361.382Q333.285,362.056,333.183,362.919C331.223,378.314,342.616,389.48,357.708,391.105C358.378,391.181,359.058,391.009,359.624,390.622C361.116,389.612,362.33,388.324,364.246,388.134Q367.668,387.812,370.695,386.612Q371.661,386.217,372.611,386.656Q381.123,390.651,386.417,391.514Q393.422,392.641,403.06,391.397C404.566,391.193,405.605,390.49,406.95,389.963C407.411,389.791,407.924,389.875,408.296,390.183Q416.529,396.885,424.573,396.929C438.028,396.988,450.327,386.144,449.918,372.358Q449.896,371.428,450.284,371.202Q450.672,370.976,451.468,371.451L457.874,375.27Q458.576,375.68,459.336,375.417C462.51,374.29,464.426,371.392,467.555,370.09C481.317,364.353,495.225,361.075,510.143,364.397Q515.276,365.539,520.38,366.475Q521.886,366.753,524.285,369.153C539.48,384.475,543.531,407.159,535.78,427.193Q532.387,435.959,524.914,443.291C514.399,453.593,501.587,459.681,487.664,464.247Q468.974,470.379,452.302,473.686Q438.306,476.466,414.862,477.476Q413.341,477.549,412.054,477.769Q409.919,478.149,407.696,478.018Q391.477,477.096,376.882,475.881Q356.524,474.169,338.725,469.544Q332.217,467.847,326.397,466.749Q321.585,465.842,317.081,463.822C311.187,461.188,304.84,460.164,298.77,456.388Q298.069,455.949,297.703,455.203L282.523,423.519Q282.553,421.353,284.264,421.192C301.155,419.568,311.173,403.968,307.093,387.899Q303.071,372.007,286.457,370.382Q271.993,368.948,265.017,384.402L258.611,369.87Q268.424,362.538,280.504,360.884Q287.67,359.904,294.091,361.762Q300.994,363.752,306.639,368.099C308.093,369.22,310.216,368.617,310.865,366.899Q311.86,364.221,309.476,362.377C301.579,356.289,293.301,355.25,283.575,355.06Q267.839,354.738,256.52,365.245ZM161.385,462.974C163.374,460.281,164.822,457.237,166.021,454.091Q181.187,414.212,169.37,371.685Q168.376,368.085,166.299,364.397C163.959,360.226,162.131,355.675,159.089,351.914Q157.173,349.529,155.272,347.26Q154.629,346.507,154.767,346.313Q154.906,346.119,155.828,346.485Q162.409,349.075,169.692,351.46C174.401,353.012,178.101,355.631,182.269,357.768C192.36,362.948,195.753,370.778,199.015,381.402Q206.678,406.324,200.521,432.286Q199.205,437.847,193.34,450.271C190.518,456.242,185.691,460.735,181.611,465.784C180.002,467.774,177.853,469.266,175.688,470.715Q174.942,471.198,174.211,470.686Q168.507,466.72,161.765,464.261Q161.242,464.072,161.145,463.754Q161.047,463.43,161.385,462.974ZM70.8722,349.06Q64.4373,355.982,60.9712,364.251C52.4596,384.607,51.2603,407.1,54.2584,429.271C55.3114,437.1,58.4557,443.964,60.7226,451.456Q62.3898,457.018,65.9144,462.344C66.3962,463.075,66.0725,464.061,65.2563,464.349Q58.7629,466.662,53.3956,471.564C52.7383,472.174,51.7231,472.187,51.041,471.593C44.7084,466.062,40.1747,459.066,35.6995,451.969C28.1239,439.954,25.2136,428.159,24.0436,414.359Q23.6341,409.427,24.1021,404.993Q24.5408,400.734,24.9503,396.666C25.5646,390.329,27.8022,384.227,29.2061,377.978Q30.1421,373.807,32.3797,370.573C34.4857,367.543,36.4454,363.856,39.3411,361.675Q48.4816,354.797,52.562,353.363Q60.8396,350.465,69.5267,347.085Q72.0072,346.126,72.3424,346.621Q72.6772,347.115,70.8722,349.06ZM83.8152,381.402L71.2817,372.709C70.4829,372.155,70.4461,370.986,71.2086,370.382L78.0091,365.055C78.472,364.693,79.1075,364.647,79.6178,364.938L94.0818,373.207C95.0238,373.744,95.0636,375.088,94.1549,375.68L85.4385,381.417C84.9453,381.744,84.3024,381.739,83.8152,381.402ZM368.812,373.615C367.942,375.93,364.277,376.693,360.625,375.32C356.973,373.946,354.718,370.956,355.588,368.641C356.457,366.326,360.123,365.563,363.774,366.936C367.426,368.31,369.681,371.3,368.812,373.615ZM104.155,374.171L104.169,373.439C104.194,372.178,105.234,371.176,106.494,371.2L144.716,371.935C145.976,371.959,146.978,373,146.954,374.261L146.94,374.993C146.915,376.253,145.875,377.255,144.615,377.231L106.393,376.497C105.133,376.473,104.131,375.431,104.155,374.171ZM426.959,375.091C427.409,377.54,424.662,380.096,420.825,380.801C416.988,381.505,413.513,380.092,413.064,377.643C412.615,375.195,415.362,372.639,419.199,371.934C423.036,371.229,426.51,372.643,426.959,375.091ZM498.063,394.441L494.407,395.187Q493.675,395.333,492.93,395.216C492.486,395.145,492.035,395.061,491.581,394.976C489.522,394.59,487.384,394.19,485.383,394.909Q473.128,399.358,471.08,413.348Q470.363,418.163,473.04,422.875Q477.003,429.885,484.125,432.958Q500.622,440.07,514.15,429.973C525.557,421.456,526.918,404.787,517.967,393.651Q514.881,389.816,510.567,386.45Q506.648,383.406,502.275,381.943Q489.478,377.655,476.316,380.26C474.181,380.685,474.02,382.514,472.001,382.88Q469.325,383.377,468.184,381.577C467.024,379.747,468.081,377.32,470.217,376.909C472.299,376.517,474.28,375.885,476.252,375.256C479.654,374.17,483.025,373.094,486.831,373.28C505.083,374.172,522.735,382.499,528.731,400.88C531.247,408.621,530.866,419.026,525.44,425.758C523.203,428.539,521.857,431.817,519.064,434.173Q513.477,438.87,506.165,440.919Q492.432,444.768,479.051,437.612Q471.402,433.529,467.921,426.826C466.444,423.973,466.386,420.709,465.45,417.607Q464.938,415.909,465.04,414.051Q465.874,399.036,478.553,390.943Q479.255,390.489,480.104,390.563Q483.014,390.826,485.866,390.226C489.913,389.375,493.842,390.545,497.734,391.704C498.596,391.961,499.456,392.217,500.315,392.451C504.966,393.709,507.247,397.894,509.265,401.846C510.962,405.168,510.377,409.353,509.733,412.924C508.432,420.27,502.523,422.539,495.913,423.168Q492.476,423.49,489.785,421.968C486.407,420.08,481.259,414.782,483.906,410.641C484.8,409.258,486.792,409.175,487.796,410.48C489.42,412.587,490.458,415.309,493.149,416.275Q499.145,418.426,503.884,412.499C507.276,408.27,503.299,403.031,499.906,399.738Q499.277,399.124,499.233,398.26L499.072,395.216C499.037,394.7,498.56,394.333,498.063,394.441ZM218.89,428.817C214.429,439.939,209.179,448.881,200.097,457.398C197.099,460.222,194.54,463.398,190.839,465.359Q190.07,465.763,189.91,465.592Q189.751,465.423,190.196,464.686Q193.165,459.666,196.792,454.881C199.541,451.266,200.477,446.378,202.817,442.091Q204.777,438.505,205.333,436.573Q208.755,424.749,209.077,417.461C209.749,402.519,207.556,388.529,202.963,374.656Q202.708,373.881,202.861,373.789Q203.014,373.697,203.578,374.29Q216.916,388.149,219.943,405.11Q220.893,410.437,220.674,420.081Q220.557,424.646,218.89,428.817ZM18.7055,421.822Q21.0309,436.764,25.5938,446.335Q29.7911,455.13,37.513,464.847Q37.6154,464.993,37.513,465.14L37.2205,465.564Q37.1182,465.696,37.0012,465.71Q36.8842,465.725,36.7525,465.622Q27.7436,458.232,21.5866,451.398C12.2121,441.008,5.76256,426.227,6.84483,412.076Q7.06419,409.12,6.87406,406.105Q6.71321,403.807,7.61994,401.568C9.5943,396.739,10.3694,390.929,13.5284,386.729Q18.53,380.056,23.5317,374.744Q24.328,373.896,24.6827,374.052Q25.0382,374.208,24.9503,375.373Q24.8772,376.339,24.5116,377.1Q19.3198,387.973,18.6324,399.3C18.6051,399.751,18.5772,400.205,18.5492,400.663C18.1257,407.561,17.6632,415.097,18.7055,421.822ZM269.039,390.358L270.605,394.105Q274.568,397.866,280.272,396.842Q282.655,396.403,285.098,392.832Q286.268,391.105,288.286,391.632L288.71,391.734C290.498,392.198,291.401,394.197,290.567,395.846Q285.478,405.959,273.676,402.344Q276.351,410.466,280.768,417.08C290.801,413.319,299.02,411.387,301.404,400.587C304.095,388.382,296.87,375.109,282.816,376.646Q270.897,377.948,269.039,390.358ZM117.878,388.821L117.981,385.616Q118.025,384.65,118.946,384.357Q124.05,382.748,127.911,384.533C128.594,384.846,129.154,385.376,129.505,386.04Q131.216,389.245,135.121,389.172C137.077,389.146,138.382,391.179,137.534,392.933Q137.066,393.899,137.007,395.026C136.974,395.732,137.374,396.387,138.017,396.679Q140.225,397.689,142.901,397.558Q145.461,397.44,145.812,394.894L147.625,381.782C147.709,381.217,147.204,380.741,146.645,380.86C144.7,381.249,143.052,380.848,141.366,380.437C140.01,380.106,138.629,379.77,137.051,379.835Q130.412,380.113,123.611,379.718C122.216,379.641,120.857,379.787,119.51,379.932C117.27,380.173,115.061,380.411,112.76,379.616C111.167,379.072,109.571,380.428,109.849,382.089Q110.829,387.943,110.405,394.119C110.337,395.116,111.083,395.98,112.072,396.05Q117.922,396.475,123.728,395.538C125.129,395.312,126.489,395.545,127.823,395.773C129.861,396.122,131.84,396.46,133.819,395.143C134.785,394.492,135.17,393.257,134.746,392.172C134.321,391.087,133.201,390.442,132.05,390.621Q126.507,391.514,120.92,391.821Q119.34,391.901,118.579,391.151Q117.82,390.401,117.878,388.821ZM81.431,390.549L70.7841,392.597Q68.7074,392.993,68.1078,390.973L67.4643,388.807Q67.1337,387.69,67.5448,387.049Q67.9522,386.414,69.0876,386.246C76.0637,385.251,83.4492,384.651,90.1766,382.324Q94.6372,380.787,99.7266,380.392C100.108,380.366,100.469,380.571,100.641,380.913C100.814,381.255,100.765,381.667,100.516,381.958L93.9498,389.436C93.201,390.286,93.1885,391.557,93.9205,392.422Q96.2166,395.144,95.3245,398.802C95.1967,399.352,95.6786,399.849,96.2313,399.739C99.27,399.109,100.864,400.311,102.873,401.827C103.339,402.179,103.828,402.548,104.363,402.915Q105.269,403.529,105.913,402.651L107.171,400.983Q107.624,400.368,108.384,400.31C113.571,399.97,118.359,400.353,123.106,400.733L123.108,400.734C126.74,401.025,130.349,401.314,134.095,401.276Q144.683,401.188,156.12,403.544Q157.348,403.793,157.173,405.051L155.564,416.466C155.49,416.981,155.145,417.416,154.662,417.607C154.178,417.797,153.629,417.714,153.224,417.388Q148.778,413.773,145.561,408.988Q145.502,408.915,145.414,408.959L145.093,409.149Q144.771,409.324,144.946,409.661Q147.813,415.12,153.078,418.003Q153.736,418.368,153.897,419.085C154.735,422.598,153.768,427.623,152.98,431.716C152.819,432.552,152.666,433.349,152.537,434.086C152.382,434.931,151.565,435.484,150.723,435.315C136.917,432.476,122.571,432.432,108.209,432.695Q107.375,432.71,107.302,431.876Q106.483,424.061,107.565,416.451Q107.682,415.676,107.302,414.988Q106.308,413.129,106.659,410.949Q106.79,410.159,106.161,409.676Q105.854,409.427,105.46,409.456Q104.407,409.515,103.909,410.451Q103.558,411.139,102.944,411.622Q102.45,412.015,102.027,411.948Q101.601,411.881,101.248,411.344Q99.3025,408.432,96.9771,407.422C96.8055,407.352,96.6091,407.383,96.4677,407.503C96.3263,407.623,96.2634,407.812,96.3044,407.993C97.723,413.817,98.542,419.993,98.0447,425.978Q97.7669,429.373,99.4048,432.256Q100.218,433.693,99.813,434.56Q99.4096,435.425,97.7961,435.725Q92.2972,436.734,87.5295,435.886Q86.9884,435.798,86.9006,435.242L82.9519,408.915Q82.6375,406.844,81.9905,406.734Q81.3433,406.624,80.3633,408.476C78.2135,412.5,73.5628,412.251,69.7458,413.29C69.2745,413.413,68.7902,413.142,68.6489,412.676Q68.4003,411.871,68.8244,411.183Q75.2447,400.705,81.9136,391.295Q82.25,390.812,82.1292,390.625Q82.0085,390.439,81.431,390.549ZM240.886,404.437Q241.178,406.383,241.822,407.773Q244.644,413.802,247.979,420.739Q248.607,422.049,248.41,422.188Q248.213,422.327,247.189,421.295C243.518,417.607,241.968,412.471,238.633,408.52Q238.209,408.007,238.238,407.349C238.319,405.22,237.602,403.647,236.88,402.063C236.038,400.216,235.19,398.355,235.591,395.583Q235.672,395.055,235.862,395.012Q236.052,394.969,236.352,395.407C238.151,397.997,237.536,401.232,240.198,403.251Q240.783,403.69,240.886,404.437ZM332.26,416.302Q336.075,416.727,338.979,415.445Q340.585,414.736,341.716,413.605Q341.782,413.539,341.925,413.398Q343.518,411.82,344.421,410.457Q346.021,408.044,346.477,405.253C346.743,403.633,348.126,402.432,349.768,402.398C349.792,402.398,349.815,402.397,349.839,402.397C350.023,402.397,350.207,402.412,350.389,402.442C351.281,402.588,352.078,403.082,352.605,403.816C353,404.364,353.222,405.018,353.244,405.694C353.245,405.73,353.245,405.767,353.245,405.803C353.245,405.988,353.23,406.172,353.201,406.354L353.2,406.356Q352.507,410.589,350.1,414.22Q349.344,415.361,348.312,416.546Q350.931,420.089,354.892,422.98Q359.57,426.396,365.893,428.749Q371.755,430.931,378.565,432.038Q384.882,433.065,391.245,433.052Q412.526,433.007,425.913,420.758Q425.787,420.504,425.668,420.246Q423.946,416.491,423.969,412.32L423.969,412.318C423.974,411.421,424.333,410.563,424.967,409.929L424.98,409.915C425.618,409.285,426.479,408.931,427.376,408.931L427.394,408.931C429.268,408.941,430.782,410.463,430.782,412.337L430.782,412.356Q430.767,415.021,431.861,417.406Q432.829,419.515,434.562,421.232Q436.086,422.741,437.833,423.617Q439.182,424.293,439.916,424.293C441.797,424.293,443.322,425.818,443.322,427.699C443.322,429.58,441.797,431.105,439.916,431.105Q437.569,431.105,434.779,429.706Q432.183,428.405,429.973,426.272Q414.782,439.815,391.259,439.864Q384.339,439.878,377.472,438.762Q370.003,437.548,363.516,435.133Q356.312,432.452,350.875,428.482Q346.282,425.13,343.125,420.984Q342.452,421.358,341.73,421.677Q337.147,423.699,331.509,423.073L331.507,423.073C329.875,422.891,328.604,421.571,328.486,419.933C328.48,419.852,328.477,419.77,328.477,419.687C328.477,419.562,328.484,419.436,328.498,419.311C328.679,417.679,329.999,416.409,331.637,416.29C331.719,416.284,331.801,416.281,331.883,416.281C332.009,416.281,332.135,416.288,332.26,416.302ZM124.516,403.91C124.566,403.79,124.484,403.656,124.355,403.646Q123.331,403.485,122.556,404.085C120.424,405.728,118.071,405.663,115.633,405.597L115.63,405.596C114.941,405.578,114.246,405.559,113.547,405.578Q112.928,405.593,112.651,405.908Q112.377,406.219,112.436,406.822Q112.816,410.568,111.368,413.51Q111.148,413.95,111.255,414.056Q111.362,414.16,111.792,413.934C113.805,412.874,116.36,412.824,118.856,412.774C120.185,412.748,121.498,412.722,122.702,412.544Q123.843,412.383,123.697,411.241Q123.243,407.7,124.516,403.91ZM129.525,404.249C129.547,404.015,128.847,403.759,127.962,403.677C127.078,403.595,126.343,403.718,126.321,403.951C126.3,404.185,126.999,404.44,127.884,404.523C128.769,404.605,129.503,404.482,129.525,404.249ZM138.936,414.212C139.13,414.244,139.321,414.142,139.404,413.963L142.387,407.583C142.507,407.336,142.373,407.041,142.109,406.968L131.77,404.393C131.5,404.328,131.239,404.526,131.228,404.802L130.907,412.544C130.896,412.766,131.053,412.961,131.272,412.998L138.936,414.212ZM123.347,419.35C123.359,418.719,122.858,418.198,122.228,418.186L113.835,418.025C113.205,418.013,112.685,418.514,112.673,419.144L112.551,425.495C112.539,426.125,113.04,426.646,113.67,426.658L122.063,426.819C122.693,426.831,123.213,426.33,123.225,425.7L123.347,419.35ZM131.93,418.266C131.051,418.198,130.298,418.891,130.292,419.773L130.263,425.466C130.259,426.208,130.79,426.845,131.521,426.973L137.034,427.983C137.897,428.141,138.715,427.538,138.819,426.666L139.579,420.461C139.691,419.598,139.057,418.817,138.19,418.749L131.93,418.266ZM94.4834,430.3C94.1724,429.949,93.3474,430.174,92.6407,430.802C91.9341,431.43,91.6134,432.223,91.9244,432.574C92.2354,432.924,93.0604,432.699,93.7671,432.071C94.4738,431.444,94.7945,430.651,94.4834,430.3ZM114.77,458.846C114.866,458.476,114.958,458.119,115.024,457.793Q115.931,453.535,118.695,449.188Q120.714,445.983,125.145,446.935C125.367,446.98,125.545,447.145,125.609,447.362C125.673,447.579,125.613,447.814,125.452,447.974L122.498,451.003Q121.913,451.603,121.854,452.437C121.255,462.505,136.318,462.432,142.578,462.257C145.503,462.169,148.954,463.252,151.352,464.832Q153.453,466.217,153.253,467.044Q153.054,467.869,150.563,468.14C149.685,468.242,147.901,468.096,146.994,467.905Q131.346,464.627,116.984,464.188C115.657,464.145,114.549,463.154,114.352,461.832C114.223,460.965,114.51,459.855,114.77,458.846ZM95.4711,461.715C98.6155,461.481,102.754,459.461,104.787,456.988Q107.756,453.359,103.427,449.013Q102.234,447.819,102.48,447.263Q102.726,446.708,104.407,446.788L106.03,446.861Q108.268,446.964,109.218,449.013Q110.242,451.237,111.705,453.417C113.249,455.693,113.343,457.89,113.447,460.306C113.469,460.842,113.493,461.389,113.533,461.949Q113.621,463.232,113.023,463.853Q112.434,464.466,111.178,464.437Q96.1877,464.101,83.5519,467.379C81.7384,467.847,79.2961,468.023,77.4534,467.818Q74.6553,467.518,74.4192,466.575Q74.1826,465.631,76.5174,464.042Q77.9945,463.047,81.3582,462.783Q88.2465,462.242,95.4711,461.715ZM251.152,487.574C250.772,477.096,255.642,466.647,263.232,459.344C264.059,458.546,265.425,458.781,265.952,459.813Q267.444,462.769,267.064,465.988C265.748,477.184,264.782,487.12,265.587,498.52Q266.23,507.711,267.239,516.974C267.265,517.19,267.163,517.402,266.977,517.515C266.791,517.628,266.557,517.623,266.377,517.501C255.174,509.979,251.62,500.54,251.152,487.574ZM336.883,487.559Q337.658,486.359,338.126,484.998Q338.856,482.856,338.246,482.359Q338.135,482.268,337.98,482.232Q335.976,481.779,334.484,483.374Q326.441,492.052,321.585,503.408C321.457,503.696,321.173,503.882,320.859,503.885C320.544,503.888,320.257,503.708,320.123,503.423Q312.752,487.12,304.825,470.291Q303.948,468.418,300.716,464.744C300.584,464.589,300.597,464.354,300.745,464.203L301.096,463.837Q301.154,463.779,301.242,463.837Q304.269,466.179,307.56,467.569Q316.876,471.491,325.505,472.998C330.389,473.862,334.426,476.466,339.193,477.023C342.426,477.388,344.298,477.813,346.886,479.906Q354.9,486.374,362.242,488.291Q366.732,489.462,366.659,490.142Q366.586,490.823,361.95,491.013C356.217,491.247,353.935,495.755,349.094,496.998C338.418,499.72,333.022,506.686,328.342,515.994Q327.609,517.46,326.931,517.435Q326.257,517.41,325.636,515.906L324.993,514.369C324.265,512.607,324.308,510.618,325.11,508.881Q330.097,498.008,336.883,487.559ZM165.729,478.003C166.292,476.629,165.887,475.051,164.734,474.125Q162.292,472.164,158.928,470.686C158.343,470.434,157.979,469.836,158.021,469.193Q158.065,468.432,158.767,468.008C161.063,466.647,165.787,469.852,167.586,471.476C168.902,472.662,170.394,473.115,172.032,473.73Q173.436,474.264,173.443,474.817Q173.451,475.369,172.061,475.94Q168.215,477.52,164.954,480.769C164.897,480.838,164.797,480.854,164.722,480.805C164.647,480.756,164.621,480.659,164.661,480.579L165.729,478.003ZM55.6186,474.871Q60.5032,470.013,67.0259,468.242C67.3654,468.148,67.7302,468.184,68.0496,468.344Q69.2196,468.93,68.7662,470.291Q68.4884,471.11,67.7279,471.535Q63.823,473.73,61.3515,477.081Q60.7957,477.842,59.9328,477.491L55.8086,475.837C55.4217,475.683,55.3223,475.178,55.6186,474.871ZM102.199,470.949Q125.949,468.959,149.758,475.223C152.844,476.027,158.68,477.066,159.264,480.871Q159.374,481.593,159.066,481.992Q158.755,482.393,158.021,482.467Q156.135,482.642,154.453,482.247Q147.418,480.579,141.861,480.067Q117.818,477.871,97.3431,479.467C95.5519,479.606,93.7627,479.614,91.9733,479.621C89.0583,479.634,86.1425,479.647,83.2155,480.228Q76.1956,481.618,69.3659,482.613C68.8078,482.701,68.2969,482.285,68.269,481.72Q68.0789,478.735,70.726,477.535C76.1664,475.062,81.9139,473.145,87.8955,472.427Q95.398,471.52,102.199,470.949ZM277.565,485.174Q292.043,516.623,304.781,543.974Q306.244,547.106,307.428,550.135C307.649,550.689,307.381,551.317,306.829,551.54Q302.207,553.37,298.697,556.311C294.076,560.204,286.296,562.18,280.753,562.253C279.374,562.27,278.312,561.04,278.53,559.677C279.305,554.614,279.393,549.404,278.413,544.34C277.813,541.238,278.223,538.165,277.506,535.062Q272.826,515.057,271.32,497.159Q270.793,490.852,271.963,474.959Q272,474.453,272.136,474.425Q272.271,474.397,272.504,474.842Q275.254,480.154,277.565,485.174ZM473.508,540.535C474.721,538.589,476.623,534.594,472.791,533.804Q471.87,533.628,471.563,534.506C470.963,536.16,470.553,537.33,469.398,538.735Q456.002,554.994,449.538,560.701Q442.62,566.819,435.571,573.624Q431.052,577.984,426.445,580.633Q415.462,586.955,404.201,592.956Q399.755,595.312,395.791,596.321C395.329,596.441,394.839,596.344,394.461,596.058C390.249,592.853,386.973,587.57,383.741,583.472Q381.781,580.985,376.399,575.116Q361.672,559.077,355.222,537.872Q353.613,532.589,353.146,526.94C352.429,517.896,352.341,509.335,355.325,500.686Q355.559,499.969,356.246,499.647C364.787,495.594,375.346,495.198,385.013,494.115Q389.239,493.633,393.583,492.696Q396.976,491.964,401.129,491.54Q417.056,489.93,434.957,485.715C441.728,484.106,447.987,480.506,454.978,479.554Q461.237,478.691,466.956,477.242C467.995,476.979,469.094,477.137,470.012,477.681C486.377,487.442,499.496,501.828,510.216,517.53Q518.128,529.091,521.521,543.272Q522.413,547.004,521.214,550.779C519.342,556.692,517.982,560.423,513.36,565.209C509.017,569.687,506.253,574.238,499.437,574.794Q485.515,575.936,471.138,572.058Q468.345,571.311,465.713,569.702C464.329,568.865,462.532,569.61,462.144,571.18L461.53,573.741Q461.34,574.487,460.594,574.706C456.119,576.024,451.658,577.502,447.051,578.409Q442.108,579.36,437.662,581.438Q436.492,581.98,435.088,581.541Q434.898,581.482,434.737,581.365C434.337,581.057,434.384,580.439,434.825,580.194Q442.766,575.819,449.874,568.399C453.282,564.828,456.309,561.111,461.34,559.662Q467.628,557.862,473.493,554.614Q475.438,553.545,475.497,551.365Q475.497,551.16,475.438,550.984Q475.101,550.053,474.481,549.79Q473.864,549.529,472.966,549.931L464.63,553.648C464.368,553.763,464.061,553.677,463.897,553.441C463.733,553.206,463.759,552.888,463.958,552.682Q469.369,547.165,473.508,540.535ZM369.496,482.13Q382.527,483.667,398.161,484.032Q403.66,484.15,406.453,481.062Q406.804,480.659,406.94,480.722Q407.074,480.784,406.994,481.31C406.409,484.823,401.451,486.432,398.468,486.374C396.477,486.335,394.602,486.527,392.721,486.719C390.306,486.965,387.884,487.213,385.203,486.974Q373.883,485.95,365.533,483.871Q362.067,483.008,358.615,481.076Q357.079,480.212,357.178,479.935Q357.278,479.657,359.01,479.964C362.505,480.608,365.781,481.706,369.496,482.13ZM548.825,517.34C553.359,522.975,564.752,523.37,571.274,522.316Q575.033,521.716,577.87,518.599Q588.312,507.126,586.031,490.399C585.738,488.233,585.197,485.847,582.828,484.999C577.417,483.067,570.704,482.891,564.898,482.701C563.739,482.668,562.7,483.409,562.353,484.516Q560.554,490.369,559.136,496.574Q556.971,506.043,549.293,512.482C547.839,513.703,547.631,515.864,548.825,517.34ZM115.522,490.94L115.609,486.491C115.633,485.472,116.478,484.666,117.496,484.691L117.701,484.691C140.049,485.12,158.098,487.175,158.065,489.286L158.051,489.784C158.022,491.89,139.848,493.256,117.54,492.828L117.335,492.813C116.317,492.797,115.505,491.958,115.522,490.94ZM109.92,494.115Q89.2263,492.111,73.2999,490.706Q72.2323,490.618,71.7058,489.725C71.4137,489.221,71.7047,488.579,72.2762,488.467Q82.9962,486.476,93.7161,485.115Q97.5625,484.632,101.16,484.881Q105.094,485.159,108.765,485.115C109.059,485.114,109.305,485.335,109.335,485.628L110.228,493.793Q110.25,493.97,110.172,494.05Q110.095,494.13,109.92,494.115ZM555.055,514.633C561.066,507.199,565.614,499.574,566.038,489.989C566.078,488.956,566.952,488.154,567.984,488.204L578.923,488.657C579.769,488.691,580.471,489.325,580.59,490.165C581.98,499.896,579.859,509.101,572.898,515.672Q570.674,517.75,567.428,517.75Q561.3,517.75,555.933,516.901C554.866,516.735,554.379,515.475,555.055,514.633ZM335.011,552.374C327.201,535.457,329.424,511.852,347.983,503.438C348.224,503.332,348.504,503.367,348.711,503.529C348.919,503.691,349.021,503.953,348.977,504.213Q347.354,513.535,347.617,522.872C347.764,528.301,349.299,533.482,350.235,538.882C351.873,548.365,357.123,558.784,362.388,565.97C362.484,566.099,362.499,566.273,362.426,566.419C362.352,566.566,362.204,566.663,362.037,566.672C357.357,566.833,352.809,565.736,348.407,564.214Q338.959,560.921,335.011,552.374ZM256.593,517.911L252.673,510.52C252.61,510.404,252.656,510.257,252.775,510.199L252.878,510.14C254.148,509.467,256.059,510.587,257.148,512.642L257.338,513.008C258.428,515.068,258.277,517.286,257.002,517.955L256.9,518.013C256.786,518.067,256.651,518.022,256.593,517.911ZM215.264,543.608C221.305,543.608,226.203,538.707,226.203,532.662C226.203,526.616,221.305,521.715,215.264,521.715C209.222,521.715,204.324,526.616,204.324,532.662C204.324,538.707,209.222,543.608,215.264,543.608ZM272.139,552.945Q270.925,550.033,269.755,547.296Q264.695,535.384,261.843,524.218Q261.463,522.743,261.973,522.306Q262.484,521.868,263.89,522.477Q264.797,522.872,265.25,523.077Q268.058,524.291,269.111,527.16Q273.616,539.467,273.294,552.726Q273.265,554.16,272.976,554.215Q272.687,554.269,272.139,552.945ZM215.22,526.369C218.79,526.369,221.684,529.265,221.684,532.837C221.684,536.41,218.79,539.306,215.22,539.306C211.65,539.306,208.756,536.41,208.756,532.837C208.756,529.265,211.65,526.369,215.22,526.369ZM27.117,544.457C28.4771,554.306,33.9321,575.189,44.8276,578.467C45.6725,578.723,46.6289,579.043,47.6545,579.385C52.1507,580.888,57.9768,582.835,61.573,581.775C62.1766,581.599,62.4865,580.93,62.2311,580.355Q59.0575,573.228,56.4104,565.311C55.5923,562.866,55.7371,560.465,55.8844,558.023C55.9425,557.061,56.0009,556.092,56.0009,555.111C56.0009,547.882,58.4725,540.535,62.041,534.345C62.5823,533.398,62.2949,532.191,61.3829,531.579Q58.6627,529.779,55.1527,529.355Q41.888,527.774,28.3747,528.901C27.4422,528.979,26.7486,529.797,26.8245,530.73C26.9865,532.767,26.936,534.789,26.8855,536.81C26.8221,539.351,26.7586,541.89,27.117,544.457ZM628.033,529.369L628.048,529.911Q628.063,530.322,627.88,530.45Q627.704,530.574,627.346,530.438C623.938,529.194,618.951,536.306,617.343,539.145C614.008,545.043,622.578,546.404,626.249,545.994C632.011,545.35,636.428,542.043,642.132,541.648Q648.552,541.209,654.636,541.413C654.905,541.423,655.145,541.585,655.254,541.831C655.363,542.077,655.322,542.364,655.148,542.57C652.852,545.277,650.848,548.028,649.634,551.423Q646.709,559.633,643.974,567.536Q639.397,580.721,626.673,589.341Q622.096,592.458,618.176,593.029Q609.255,594.346,599.851,590.863Q593.548,588.536,588.912,582.17Q578.865,568.384,582.155,550.311C583.749,541.487,593.753,534.623,601.621,532.399C602.504,532.15,603.374,531.891,604.239,531.634C608.361,530.409,612.346,529.224,616.831,529.369Q622.008,529.545,627.668,529.048Q627.844,529.033,627.935,529.114Q628.026,529.194,628.033,529.369ZM41.3177,569.336C38.1441,563.526,35.5555,557.687,34.0345,551.116Q32.3526,543.828,30.817,536.496C30.5713,535.327,31.3059,534.175,32.4696,533.906Q33.7859,533.599,35.6286,533.716Q45.3541,534.316,55.6646,535.311C55.9189,535.325,56.0742,535.597,55.9571,535.823Q50.2242,547.223,51.4526,558.945Q51.6574,560.936,51.4965,562.809C51.2013,566.34,53.0484,570.685,54.5299,574.169C54.6631,574.483,54.7933,574.789,54.9187,575.087Q55.1967,575.738,54.9917,575.98Q54.7868,576.221,54.0997,576.053C49.4929,574.926,43.7746,573.828,41.3177,569.336ZM577.007,568.414C578.762,575.994,583.077,583.341,588.21,589.033C588.548,589.417,588.457,590.013,588.02,590.277Q583.311,593.116,579.216,596.936C574.477,601.355,568.408,604.253,562.748,607.59C555.538,611.848,547.758,615.463,540.811,619.546Q540.302,619.845,539.948,619.716Q539.591,619.585,539.392,619.019Q530.983,594.302,519.4,570.55Q519.078,569.906,519.342,569.233C520.453,566.438,522.954,564.711,525.996,565.136Q531.129,565.853,536.248,565.633Q540.167,565.458,543.75,566.102Q552.174,567.609,560.525,566.906Q563.626,566.658,566.945,567.287Q571.187,568.092,575.326,567.302C576.093,567.165,576.832,567.654,577.007,568.414ZM319.011,569.028C323.691,573.272,332.993,571.297,337.263,567.404C338.174,566.579,339.529,566.476,340.554,567.155Q345.819,570.638,352.005,572.321Q355.544,573.272,358.264,575.745Q364.012,580.911,368.984,585.916Q369.379,586.318,369.295,586.498Q369.211,586.677,368.648,586.633Q347.69,585.141,329.717,578.028Q322.945,575.336,316.32,570.653C315.996,570.422,315.907,569.976,316.116,569.628Q316.423,569.102,316.964,568.794C317.619,568.425,318.442,568.519,319.011,569.028ZM377.701,587.409L364.143,573.784C364.06,573.699,364.06,573.563,364.143,573.477L364.173,573.448C365.183,572.449,369.04,574.693,372.801,578.467L373.05,578.716C376.812,582.494,379.051,586.383,378.037,587.38L378.008,587.409C377.922,587.493,377.786,587.493,377.701,587.409ZM310.763,574.428C322.082,583.619,333.899,588.448,348.29,590.307Q361.584,592.033,373.693,592.794Q374.293,592.838,374.337,593.424L375.2,603.492Q375.214,603.683,375.125,603.775Q375.031,603.873,374.819,603.858Q351.771,601.487,329.161,592.282C321.527,589.165,315.399,581.424,309.695,575.424Q309.491,575.212,309.512,575.026Q309.533,574.839,309.783,574.677L310.207,574.399Q310.485,574.209,310.763,574.428ZM377.116,612.639Q379.397,622.473,383.492,631.195C386.388,637.385,389.415,643.81,393.159,649.268Q396.289,653.834,401.685,654.507Q416.676,656.351,426.664,645.361C427.136,644.842,427.78,644.51,428.478,644.424Q437.282,643.414,444.463,636.449C449.538,631.517,450.927,624.917,445.355,620.146Q439.476,615.112,432.69,610.546Q431.344,609.653,430.467,608.336Q430.18,607.91,430.292,607.668Q430.403,607.428,430.906,607.37Q439.125,606.404,446.525,604.531Q453.808,602.673,462.1,600.638Q474.97,597.477,488.191,591.346Q495.489,587.951,500.212,584.672Q506.033,580.648,511.781,576.902Q512.598,576.376,513.205,576.557Q513.813,576.739,514.208,577.633Q525.133,602.131,532.431,626.922Q533.177,629.468,531.1,631.019C522.691,637.312,512.614,640.707,502.596,644.527Q495.489,647.234,488.747,649.195C482.253,651.083,476.14,653.688,469.603,655.312Q441.055,662.395,411.689,665.527C400.179,666.756,388.786,666.507,377.306,666.229Q367.77,665.995,357.314,663.244C356.791,663.103,356.355,662.752,356.114,662.278Q354.974,660.024,353.365,657.946C352.136,656.337,352.385,654.302,351.932,652.371Q346.988,631.458,344.575,613.151C344.224,610.56,343.288,607.985,342.689,605.336C342.521,604.621,343.181,603.984,343.903,604.165Q358.323,607.839,373.635,609.258C375.595,609.434,376.691,610.853,377.116,612.639ZM490.648,583.677C482.019,588.097,473.8,591.097,464.177,594.111Q456.119,596.629,447.271,598.282Q437.765,600.053,428.624,601.868C426.387,602.307,424.12,602.175,422.423,600.448Q418.855,596.804,415.754,593.233Q415.388,592.815,415.469,592.522Q415.551,592.231,416.076,592.063C420.888,590.511,425.026,588.58,430.189,587.658Q437.136,586.429,444.463,585.053C451.249,583.78,457.874,581.731,464.543,579.989C470.5,578.419,475.963,579.385,481.531,580.369C484.37,580.871,487.236,581.377,490.209,581.555Q492.255,581.68,492.366,582.209Q492.477,582.74,490.648,583.677ZM348.158,659.439C346.681,657.829,345.204,656.761,342.967,656.644Q330.667,655.985,318.631,654.493Q310.924,653.527,304.489,650.819C301.505,649.576,299.663,645.463,299.502,642.185Q297.849,610.678,306.712,586.209Q307.619,583.692,306.624,581.131C306.446,580.676,306.548,580.157,306.887,579.799L307.311,579.375Q307.465,579.214,307.593,579.232Q307.721,579.25,307.823,579.448Q313.995,590.848,326.148,597.141C330.214,599.248,336.254,599.043,339.018,603.156Q339.384,603.682,339.223,604.312Q338.491,607.37,338.799,611.161C340.042,626.629,343.259,640.341,346.711,654.917C347.076,656.468,347.954,657.419,348.934,658.634Q349.094,658.824,348.948,659.044L348.7,659.395Q348.574,659.58,348.436,659.589Q348.303,659.598,348.158,659.439ZM400.647,604.663Q401.788,607.809,403.075,610.458Q411.455,627.522,421.122,640.722C421.475,641.221,421.536,641.868,421.282,642.419C418.899,647.688,410.241,649.151,404.859,649.429Q399.067,649.736,396.289,644.907Q392.413,638.205,388.377,629.805C383.39,619.414,380.757,607.736,379.031,596.365Q378.812,594.915,379.288,594.631Q379.764,594.346,380.933,595.224C384.662,598.019,388.698,599.599,392.223,602.731C392.632,603.086,393.174,603.251,393.715,603.185L397.488,602.731Q399.842,602.438,400.647,604.663ZM424.866,635.658Q417.027,625.941,412.113,616.619Q407.784,608.38,403.206,601.238C403.013,600.931,403.104,600.525,403.411,600.331L411.879,595.151Q412.135,594.989,412.322,595.048Q412.508,595.107,412.625,595.385Q413.239,596.921,414.189,598.107Q425.451,612.361,440.646,622.59C449.318,628.429,430.745,642.961,424.866,635.658ZM256.798,637.78Q255.789,637.648,254.999,638.351Q254.414,638.877,253.771,638.424Q250.992,636.521,247.175,636.785C246.632,636.823,246.087,636.696,245.61,636.419C233.764,629.526,226.335,619.794,217.794,609.199C216.756,607.924,214.981,607.529,213.509,608.248C206.372,611.745,199.908,617.526,193.561,622.355Q191.718,623.76,191.104,626.16C190.966,626.688,191.074,627.247,191.396,627.682Q193.02,629.833,195.359,632.043Q209.765,645.638,225.019,650.555C230.152,652.224,235.066,652.458,240.024,653.848C243.344,654.785,246.444,653.526,248.608,650.965Q252.806,645.99,257.822,641.57C258.472,641,258.744,640.117,258.521,639.294C258.302,638.481,257.621,637.882,256.798,637.78ZM215.264,614.248C220.236,621.931,227.695,630.624,235.812,634.633Q236.792,635.116,237.596,635.731Q238.862,636.661,238.711,637.085Q238.56,637.509,236.996,637.429Q224.229,636.726,211.037,633.843Q203.944,632.307,198.021,628.794C196.976,628.183,196.899,626.701,197.875,625.985L213.977,614.014C214.387,613.706,214.976,613.813,215.264,614.248ZM604.479,658.118C609.694,657.964,613.797,653.607,613.642,648.388L613.576,646.165C613.421,640.946,609.068,636.841,603.852,636.996L601.952,637.052C596.736,637.207,592.634,641.564,592.789,646.783L592.854,649.006C593.009,654.225,597.363,658.33,602.578,658.175L604.479,658.118ZM236.923,649.165Q224.945,645.872,214.869,641.468Q213.421,640.838,212.471,639.565Q212.127,639.104,212.233,638.947Q212.339,638.79,212.895,638.936Q224.945,642.214,238.927,641.936C241.024,641.889,242.953,641.52,244.872,641.153C247.183,640.711,249.481,640.271,252.045,640.399C252.336,640.413,252.595,640.588,252.716,640.854C252.836,641.119,252.797,641.43,252.616,641.658C248.872,646.399,243.431,650.951,236.923,649.165ZM601.154,641.857C604.581,640.359,608.504,641.768,609.918,645.005C611.331,648.241,609.698,652.079,606.271,653.577C602.844,655.076,598.92,653.666,597.507,650.43C596.094,647.193,597.727,643.355,601.154,641.857ZM479.709,659.41Q486.597,657.127,493.778,654.624C499.511,652.634,504.849,649.985,510.845,648.332Q511.367,648.186,511.681,648.38Q511.999,648.576,512.102,649.122Q513.009,654.127,515.393,659.102Q516.724,661.898,516.534,665.015C516.457,666.222,516.478,667.38,516.499,668.487L516.499,668.49L516.499,668.492L516.499,668.493L516.499,668.495L516.499,668.497L516.499,668.498C516.577,672.651,516.641,676.07,511.459,678.669Q507.013,680.893,502.421,682.356C488.776,686.688,475.511,690.786,461.311,689.981C460.209,689.926,459.343,689.021,459.336,687.917C459.321,686.243,459.505,684.667,459.685,683.117C460.03,680.161,460.362,677.314,459.278,674.088Q457.947,670.166,457.61,665.673C457.576,665.261,457.828,664.875,458.225,664.737Q463.928,662.761,469.442,661.868Q475.029,660.961,479.709,659.41ZM347.881,664.049Q349.636,667.649,353.248,668.863Q360.853,671.41,371.105,672.756C371.863,672.856,372.438,673.5,372.465,674.278C372.699,681.888,371.09,688.327,362.666,689.981C351.367,692.203,340.201,691.224,328.952,690.238C325.832,689.964,322.705,689.69,319.567,689.483C316.306,689.264,310.222,685.298,312.606,681.171C315.925,675.42,315.15,668.805,314.17,662.454C314.043,661.677,314.73,661.012,315.501,661.166Q328.093,663.654,340.934,664.107C342.206,664.156,343.413,663.897,344.625,663.637C345.223,663.509,345.823,663.38,346.433,663.288Q347.427,663.141,347.881,664.049Z"
        fill-rule="evenodd" fill="red" fill-opacity="1"  />
</svg>