<?xml version="1.0" encoding="UTF-8"?>
<svg width="214px" height="149px" viewBox="0 0 214 149" version="1.1" xmlns="http://www.w3.org/2000/svg" xmlns:xlink="http://www.w3.org/1999/xlink">
    <!-- Generator: Sketch 57 (83077) - https://sketch.com -->
    <title>card_学堂在线</title>
    <desc>Created with Sketch.</desc>
    <defs>
        <path d="M0,0 L251,0 L251,168 C251,174.627417 245.627417,180 239,180 L0,180 L0,180 L0,0 Z" id="path-1"></path>
    </defs>
    <g id="首页改版-0228" stroke="none" stroke-width="1" fill="none" fill-rule="evenodd">
        <g id="1_01-办事大厅_首页改版_方案一" transform="translate(-987.000000, -1683.000000)">
            <g id="card_学堂在线" transform="translate(869.000000, 1652.000000)">
                <g id="资源-1@3x">
                    <g id="card_学堂在线" transform="translate(81.000000, 0.000000)">
                        <mask id="mask-2" fill="white">
                            <use xlink:href="#path-1"></use>
                        </mask>
                        <g id="蒙版"></g>
                        <g id="资源-2@3x" opacity="0.6" mask="url(#mask-2)">
                            <g transform="translate(148.000000, 126.500000) scale(-1, 1) translate(-148.000000, -126.500000) translate(37.000000, 32.000000)" id="编组">
                                <g transform="translate(118.000000, 0.000000)">
                                    <path d="M18.8590164,6.77757009 C17.9495873,7.36812352 17.1561859,8.1197612 16.5180328,8.9953271 C15.6827898,10.1220874 15.0524449,11.3864746 14.6557377,12.7308411 C13.9331333,12.1533323 13.1681479,11.6306838 12.3672131,11.1672897 C12.1639344,11.0495327 11.9672131,10.9383178 11.7704918,10.8401869 L11.4557377,10.6831776 L11.147541,10.5327103 L10.8327869,10.3953271 L10.5245902,10.264486 C9.83937396,9.98744587 9.12743887,9.78137939 8.4,9.64953271 L8.1442623,9.61028037 C7.47201055,9.51812725 6.79028453,9.51812725 6.11803279,9.61028037 C5.43138511,9.69932657 4.76562642,9.90744357 4.15081967,10.2252336 L10.4393443,6.3 L10.9639344,5.99252336 C13.042623,4.93271028 15.8229508,5.12897196 18.8918033,6.81028037" id="路径" fill="#3D93FA" fill-rule="nonzero"></path>
                                    <path d="M18.8590164,6.77757009 C17.9495873,7.36812352 17.1561859,8.1197612 16.5180328,8.9953271 C15.6827898,10.1220874 15.0524449,11.3864746 14.6557377,12.7308411 C13.9331333,12.1533323 13.1681479,11.6306838 12.3672131,11.1672897 C12.1639344,11.0495327 11.9672131,10.9383178 11.7704918,10.8401869 L11.4557377,10.6831776 L11.147541,10.5327103 L10.8327869,10.3953271 L10.5245902,10.264486 C9.83937396,9.98744587 9.12743887,9.78137939 8.4,9.64953271 L8.1442623,9.61028037 C7.47201055,9.51812725 6.79028453,9.51812725 6.11803279,9.61028037 C5.43138511,9.69932657 4.76562642,9.90744357 4.15081967,10.2252336 L10.4393443,6.3 L10.9639344,5.99252336 C13.0098361,4.9 15.7901639,5.09626168 18.8590164,6.77757009 Z" id="路径" stroke="#223893" stroke-width="1.2" stroke-linecap="round" stroke-linejoin="round"></path>
                                    <path d="M71.757377,64.9102804 C71.7777569,65.8235471 71.6126962,66.731485 71.2721311,67.5794393 C70.9821036,68.3208788 70.4630622,68.9509801 69.7901639,69.3785047 L69.6327869,69.4700935 C68.3672131,70.1242991 66.6491803,70.0392523 64.7540984,68.9401869 L12.3672131,38.7682243 C5.75737705,34.9607477 0.386885246,25.6841121 0.386885246,18.0626168 C0.386885246,14.3859813 1.62622951,11.7691589 3.66557377,10.4672897 L4.11803279,10.1990654 C4.73278798,9.88115053 5.39856917,9.6730265 6.0852459,9.58411215 C6.75750326,9.49204091 7.43921805,9.49204091 8.11147541,9.58411215 L8.36721311,9.62336449 C9.09465199,9.75521117 9.80658708,9.96127765 10.4918033,10.2383178 L10.8,10.3691589 L11.1147541,10.5065421 L11.4295082,10.6570093 L11.7442623,10.8140187 C11.9409836,10.9121495 12.1377049,11.0233645 12.3409836,11.1411215 C13.1419053,11.6045364 13.9068891,12.1271838 14.6295082,12.7046729 C15.0260883,11.3602566 15.6564438,10.0958481 16.4918033,8.96915888 C17.1305673,8.09594038 17.9239316,7.346555 18.8327869,6.75794393 C18.9836066,6.65327103 19.1344262,6.56168224 19.2852459,6.47009346 C19.9394334,6.10669008 20.6351683,5.8233353 21.357377,5.62616822 C24.4065574,4.80186916 28.1704918,5.44299065 32.2491803,7.79158879 C40.3606557,12.4691589 47.2131148,22.4196262 49.704918,32.1869159 C50.5681954,32.4854956 51.4004888,32.8667111 52.1901639,33.3252336 C58.4196721,36.9168224 63.5672131,45.2056075 64.3868852,52.5981308 L64.7540984,52.8009346 C68.6229508,55.0317757 71.757377,60.4485981 71.757377,64.9037383" id="路径" fill="#80C0FF" fill-rule="nonzero"></path>
                                    <path d="M71.757377,64.9102804 C71.7777569,65.8235471 71.6126962,66.731485 71.2721311,67.5794393 C70.9821036,68.3208788 70.4630622,68.9509801 69.7901639,69.3785047 L69.6327869,69.4700935 C68.3672131,70.1242991 66.6491803,70.0392523 64.7540984,68.9401869 L12.3672131,38.7682243 C5.75737705,34.9607477 0.386885246,25.6841121 0.386885246,18.0626168 C0.386885246,14.3859813 1.62622951,11.7691589 3.66557377,10.4672897 L4.11803279,10.1990654 C4.73278798,9.88115053 5.39856917,9.6730265 6.0852459,9.58411215 C6.75750326,9.49204091 7.43921805,9.49204091 8.11147541,9.58411215 L8.36721311,9.62336449 C9.09465199,9.75521117 9.80658708,9.96127765 10.4918033,10.2383178 L10.8,10.3691589 L11.1147541,10.5065421 L11.4295082,10.6570093 L11.7442623,10.8140187 C11.9409836,10.9121495 12.1377049,11.0233645 12.3409836,11.1411215 C13.1419053,11.6045364 13.9068891,12.1271838 14.6295082,12.7046729 C15.0260883,11.3602566 15.6564438,10.0958481 16.4918033,8.96915888 C17.1305673,8.09594038 17.9239316,7.346555 18.8327869,6.75794393 C18.9836066,6.65327103 19.1344262,6.56168224 19.2852459,6.47009346 C19.9394334,6.10669008 20.6351683,5.8233353 21.357377,5.62616822 C24.4065574,4.80186916 28.1704918,5.44299065 32.2491803,7.79158879 C40.3606557,12.4691589 47.2131148,22.4196262 49.704918,32.1869159 C50.5681954,32.4854956 51.4004888,32.8667111 52.1901639,33.3252336 C58.4196721,36.9168224 63.5672131,45.2056075 64.3868852,52.5981308 L64.7540984,52.8009346 C68.6229508,55.0317757 71.757377,60.4551402 71.757377,64.9102804 Z" id="路径" stroke="#223893" stroke-width="1.2" stroke-linecap="round" stroke-linejoin="round"></path>
                                    <path d="M49.704918,32.1934579 C48.7584403,31.8591844 47.7644669,31.6780811 46.7606557,31.6570093" id="路径" stroke="#223893" stroke-width="1.2" stroke-linecap="round" stroke-linejoin="round"></path>
                                    <path d="M14.6491803,12.7308411 C14.3161424,13.8509711 14.0964654,15.0015805 13.9934426,16.1654206" id="路径" stroke="#223893" stroke-width="1.2" stroke-linecap="round" stroke-linejoin="round"></path>
                                    <path d="M26.3278689,25.9130841 L36.2885246,31.6504673" id="路径" stroke="#223893" stroke-width="1.2" stroke-linecap="round" stroke-linejoin="round"></path>
                                    <path d="M19.3311475,21.8831776 L21.4622951,23.1065421" id="路径" stroke="#223893" stroke-width="1.2" stroke-linecap="round" stroke-linejoin="round"></path>
                                    <path d="M37.4360656,38.4476636 L41.0229508,40.5149533" id="路径" stroke="#223893" stroke-width="1.2" stroke-linecap="round" stroke-linejoin="round"></path>
                                    <path d="M19.3311475,28.0130841 L33.2196721,36.0140187" id="路径" stroke="#223893" stroke-width="1.2" stroke-linecap="round" stroke-linejoin="round"></path>
                                    <path d="M45.0229508,48.6598131 L49.0688525,50.988785" id="路径" stroke="#223893" stroke-width="1.2" stroke-linecap="round" stroke-linejoin="round"></path>
                                    <path d="M31.6918033,40.9794393 L39.8885246,45.7028037" id="路径" stroke="#223893" stroke-width="1.2" stroke-linecap="round" stroke-linejoin="round"></path>
                                    <path d="M19.3311475,33.8616822 L26.2754098,37.8588785" id="路径" stroke="#223893" stroke-width="1.2" stroke-linecap="round" stroke-linejoin="round"></path>
                                    <path d="M79.704918,60.1869159 C79.704918,62.3588785 78.957377,63.9028037 77.7377049,64.6551402 L77.5672131,64.753271 L69.7770492,69.3654206 C70.4475372,68.9351879 70.9658589,68.3059604 71.2590164,67.5663551 C71.5978515,66.717905 71.7628478,65.8103212 71.7442623,64.8971963 C71.7442623,60.4420561 68.6098361,55.0252336 64.7409836,52.7943925 L64.3737705,52.5915888 C63.5540984,45.1990654 58.4065574,36.8906542 52.1770492,33.3186916 C51.3876216,32.8596934 50.5552808,32.4784561 49.6918033,32.1803738 C47.2131148,22.4196262 40.3606557,12.4691589 32.2819672,7.81121495 C28.2098361,5.46261682 24.4131148,4.82149533 21.3901639,5.64579439 C20.6669145,5.83989289 19.9708112,6.12339773 19.3180328,6.48971963 L27.1868852,1.85140187 C30.5180328,-0.111214953 35.1540984,0.157009346 40.2622951,3.10093458 C48.3409836,7.7588785 55.2065574,17.7093458 57.6852459,27.4766355 C58.5488478,27.7744087 59.3812181,28.1556595 60.1704918,28.6149533 C66.4,32.2065421 71.547541,40.4953271 72.3672131,47.8878505 L72.7344262,48.0906542 C76.6032787,50.3214953 79.7377049,55.7383178 79.7377049,60.1934579" id="路径" fill="#3D93FA" fill-rule="nonzero"></path>
                                    <path d="M79.704918,60.1869159 C79.704918,62.3588785 78.957377,63.9028037 77.7377049,64.6551402 L77.5672131,64.753271 L69.7770492,69.3654206 C70.4475372,68.9351879 70.9658589,68.3059604 71.2590164,67.5663551 C71.5978515,66.717905 71.7628478,65.8103212 71.7442623,64.8971963 C71.7442623,60.4420561 68.6098361,55.0252336 64.7409836,52.7943925 L64.3737705,52.5915888 C63.5540984,45.1990654 58.4065574,36.8906542 52.1770492,33.3186916 C51.3876216,32.8596934 50.5552808,32.4784561 49.6918033,32.1803738 C47.2131148,22.4196262 40.3606557,12.4691589 32.2819672,7.81121495 C28.2098361,5.46261682 24.4131148,4.82149533 21.3901639,5.64579439 C20.6669145,5.83989289 19.9708112,6.12339773 19.3180328,6.48971963 L27.1868852,1.85140187 C30.5180328,-0.111214953 35.1540984,0.157009346 40.2622951,3.10093458 C48.3409836,7.7588785 55.2065574,17.7093458 57.6852459,27.4766355 C58.5488478,27.7744087 59.3812181,28.1556595 60.1704918,28.6149533 C66.4,32.2065421 71.547541,40.4953271 72.3672131,47.8878505 L72.7344262,48.0906542 C76.5770492,50.3214953 79.704918,55.7448598 79.704918,60.1869159 Z" id="路径" stroke="#223893" stroke-width="1.2" stroke-linecap="round" stroke-linejoin="round"></path>
                                </g>
                                <g>
                                    <path d="M6.5834187,51.0580125 C6.56730894,51.7819758 6.69778525,52.5017148 6.9669934,53.1739037 C7.19625287,53.7616564 7.60654208,54.2611492 8.13845126,54.6000558 L8.26285387,54.6726599 C9.26325815,55.1912606 10.6213199,55.1238425 12.1193346,54.2525933 L53.5298517,30.3606559 C58.7547611,27.3423994 63,19.9886406 63,13.9469416 C63,11.0324053 62.0203295,8.95800225 60.4082791,7.92598672 L60.0506216,7.71336041 C59.5646323,7.4614424 59.0383668,7.29646424 58.495589,7.22587569 C57.964182,7.15295392 57.4253125,7.15295392 56.8939055,7.22587569 L56.6917512,7.25699174 C56.1185,7.36188869 55.5574906,7.52523542 55.0174995,7.74447646 L54.7738778,7.84819661 L54.5250725,7.95710277 L54.2762673,8.07638095 L54.0274621,8.20084513 C53.8719589,8.27863525 53.7164556,8.36679738 53.5557689,8.46014551 C52.922733,8.82761786 52.3180408,9.24192433 51.7467477,9.69960135 C51.4328009,8.6298696 50.932712,7.62392987 50.2694668,6.72801895 C49.7607345,6.02468038 49.126314,5.42159465 48.3982443,4.94921832 C48.2790251,4.8662422 48.1598059,4.79363809 48.0405868,4.72621999 C47.5238219,4.43612023 46.9738236,4.20974311 46.4026191,4.05203899 C43.9923187,3.42453207 41.0118396,3.91201679 37.7877388,5.79453757 C31.4017384,9.48697503 25.9746747,17.3956367 24.0153337,25.1176022 C23.3329225,25.3542616 22.6750126,25.6564594 22.0508092,26.0199675 C17.1265395,28.8722717 13.0575376,35.4429434 12.4303411,41.3031321 L12.1400684,41.4638983 C9.06110391,43.2271409 6.5834187,47.5263413 6.5834187,51.0580125" id="路径" fill="#FFFFFF" fill-rule="nonzero"></path>
                                    <path d="M6.5834187,51.0580125 C6.56730894,51.7819758 6.69778525,52.5017148 6.9669934,53.1739037 C7.19625287,53.7616564 7.60654208,54.2611492 8.13845126,54.6000558 L8.26285387,54.6726599 C9.26325815,55.1912606 10.6213199,55.1238425 12.1193346,54.2525933 L53.5298517,30.3606559 C58.7547611,27.3423994 63,19.9886406 63,13.9469416 C63,11.0324053 62.0203295,8.95800225 60.4082791,7.92598672 L60.0506216,7.71336041 C59.5646323,7.4614424 59.0383668,7.29646424 58.495589,7.22587569 C57.964182,7.15295392 57.4253125,7.15295392 56.8939055,7.22587569 L56.6917512,7.25699174 C56.1185,7.36188869 55.5574906,7.52523542 55.0174995,7.74447646 L54.7738778,7.84819661 L54.5250725,7.95710277 L54.2762673,8.07638095 L54.0274621,8.20084513 C53.8719589,8.27863525 53.7164556,8.36679738 53.5557689,8.46014551 C52.922733,8.82761786 52.3180408,9.24192433 51.7467477,9.69960135 C51.4328009,8.6298696 50.932712,7.62392987 50.2694668,6.72801895 C49.7607345,6.02468038 49.126314,5.42159465 48.3982443,4.94921832 C48.2790251,4.8662422 48.1598059,4.79363809 48.0405868,4.72621999 C47.5238219,4.43612023 46.9738236,4.20974311 46.4026191,4.05203899 C43.9923187,3.42453207 41.0118396,3.91201679 37.7877388,5.79453757 C31.4017384,9.48697503 25.9746747,17.3956367 24.0153337,25.1176022 C23.3329225,25.3542616 22.6750126,25.6564594 22.0508092,26.0199675 C17.1265395,28.8722717 13.0575376,35.4429434 12.4303411,41.3031321 L12.1400684,41.4638983 C9.06110391,43.2271409 6.5834187,47.5263413 6.5834187,51.0580125 Z" id="路径" stroke="#223893" stroke-width="1.2" stroke-linecap="round" stroke-linejoin="round"></path>
                                    <path d="M24.4477612,25.5181034 C25.0523243,25.0345643 25.6871728,24.7720681 26.3283582,24.7405172" id="路径" stroke="#223893" stroke-width="1.2" stroke-linecap="round" stroke-linejoin="round"></path>
                                    <path d="M42.3134328,19.9137931 L34.7910448,24.6551724" id="路径" stroke="#223893" stroke-width="1.2" stroke-linecap="round" stroke-linejoin="round"></path>
                                    <path d="M33.8507463,30.3448276 L31.0298507,32.2413793" id="路径" stroke="#223893" stroke-width="1.2" stroke-linecap="round" stroke-linejoin="round"></path>
                                    <path d="M47.9552239,21.8103448 L36.6716418,28.4482759" id="路径" stroke="#223893" stroke-width="1.2" stroke-linecap="round" stroke-linejoin="round"></path>
                                    <path d="M27.2686567,37.9310345 L24.4477612,39.8275862" id="路径" stroke="#223893" stroke-width="1.2" stroke-linecap="round" stroke-linejoin="round"></path>
                                    <path d="M38.5522388,32.2413793 L31.9701493,36.0344828" id="路径" stroke="#223893" stroke-width="1.2" stroke-linecap="round" stroke-linejoin="round"></path>
                                    <path d="M47.9552239,26.5517241 L42.3134328,29.3965517" id="路径" stroke="#223893" stroke-width="1.2" stroke-linecap="round" stroke-linejoin="round"></path>
                                    <path d="M0,46.8390608 C0,48.545835 0.588439602,49.7590842 1.56222903,50.3502861 L1.69762222,50.4273994 L7.88404919,54.0517241 C7.34855811,53.7166022 6.93324108,53.2238711 6.69675512,52.6431213 C6.42794655,51.9763144 6.29692757,51.2631705 6.31140529,50.5456398 C6.31140529,47.0446963 8.80055689,42.7880425 11.8677332,41.0350004 L12.1853865,40.870492 C12.8363152,35.0612906 16.9241479,28.5323652 21.8712065,25.7254413 C22.498117,25.3647508 23.1591064,25.0651665 23.8448225,24.8309271 C25.7924013,17.1710067 31.2445807,9.33115533 37.6601346,5.67084438 C40.8939487,3.82526624 43.9090507,3.3214594 46.309676,3.96921105 C46.8840148,4.12178874 47.4368073,4.34457031 47.9552239,4.63238537 L41.7063077,0.987497075 C39.0869704,-0.549627891 35.4053173,-0.343992444 31.3487293,1.96940633 C24.9331754,5.62971729 19.4757886,13.4490052 17.5125875,21.1294891 C16.8267354,21.363394 16.1657137,21.662993 15.5389714,22.0240033 C10.5919128,24.8463498 6.50408021,31.3598526 5.85315144,37.169054 L5.56153536,37.3284214 C2.48915159,39.0763227 0,43.3381174 0,46.8390608" id="路径" fill="#E0E8F7" fill-rule="nonzero"></path>
                                    <path d="M0,46.8390608 C0,48.545835 0.588439602,49.7590842 1.56222903,50.3502861 L1.69762222,50.4273994 L7.88404919,54.0517241 C7.34855811,53.7166022 6.93324108,53.2238711 6.69675512,52.6431213 C6.42794655,51.9763144 6.29692757,51.2631705 6.31140529,50.5456398 C6.31140529,47.0446963 8.80055689,42.7880425 11.8677332,41.0350004 L12.1853865,40.870492 C12.8363152,35.0612906 16.9241479,28.5323652 21.8712065,25.7254413 C22.498117,25.3647508 23.1591064,25.0651665 23.8448225,24.8309271 C25.7924013,17.1710067 31.2445807,9.33115533 37.6601346,5.67084438 C40.8939487,3.82526624 43.9090507,3.3214594 46.309676,3.96921105 C46.8840148,4.12178874 47.4368073,4.34457031 47.9552239,4.63238537 L41.7063077,0.987497075 C39.0869704,-0.549627891 35.4053173,-0.343992444 31.3487293,1.96940633 C24.9331754,5.62971729 19.4757886,13.4490052 17.5125875,21.1294891 C16.8267354,21.363394 16.1657137,21.662993 15.5389714,22.0240033 C10.5919128,24.8463498 6.50408021,31.3598526 5.85315144,37.169054 L5.56153536,37.3284214 C2.48915159,39.0763227 0,43.3381174 0,46.8390608 Z" id="路径" stroke="#223893" stroke-width="1.2" stroke-linecap="round" stroke-linejoin="round"></path>
                                </g>
                                <g transform="translate(20.000000, 46.000000)">
                                    <path d="M201.398576,105.19968 C201.398576,106.381553 200.620647,107.563425 199.051715,108.464521 L195.6589,110.423425 L142.439417,141.112922 C139.314628,142.915114 134.241748,142.915114 131.116958,141.112922 L6.2168932,69.0840183 L2.81754045,67.1251142 C1.25514563,66.2240183 0.470679612,65.0421461 0.470679612,63.860274 C0.470679612,62.6784018 1.25514563,61.4965297 2.81754045,60.5954338 L29.5809061,45.1592694 L59.4298382,27.947032 C62.5546278,26.1448402 67.6275081,26.1448402 70.7522977,27.947032 L100.60123,45.1592694 L199.058252,101.93484 C200.620647,102.835936 201.398576,104.017808 201.398576,105.19968" id="路径" fill="#E0E8F7" fill-rule="nonzero"></path>
                                    <path d="M201.398576,79.0809589 L201.398576,89.5284475 C201.398576,90.7103196 200.620647,91.8921918 199.051715,92.7932877 L142.439417,125.441689 C139.314628,127.243881 134.241748,127.243881 131.116958,125.441689 L2.81754045,51.4538813 C1.25514563,50.5527854 0.470679612,49.3709132 0.470679612,48.1890411 L0.470679612,37.7415525 C0.470679612,36.5596804 1.25514563,35.3778082 2.81754045,34.4767123 L29.5809061,19.0405479 L100.60123,19.0405479 L199.058252,75.8161187 C200.620647,76.7172146 201.398576,77.8990868 201.398576,79.0809589" id="路径" fill="#E0E8F7" fill-rule="nonzero"></path>
                                    <path d="M201.398576,79.0809589 L201.398576,89.5284475 C201.398576,90.7103196 200.620647,91.8921918 199.051715,92.7932877 L142.439417,125.441689 C139.314628,127.243881 134.241748,127.243881 131.116958,125.441689 L2.81754045,51.4538813 C1.25514563,50.5527854 0.470679612,49.3709132 0.470679612,48.1890411 L0.470679612,37.7415525 C0.470679612,36.5596804 1.25514563,35.3778082 2.81754045,34.4767123 L29.5809061,19.0405479 L100.60123,19.0405479 L199.058252,75.8161187 C200.620647,76.7172146 201.398576,77.8990868 201.398576,79.0809589 Z" id="路径" stroke="#223893" stroke-width="1.2" stroke-linecap="round"></path>
                                    <path d="M201.398576,79.0809589 C201.398576,80.2628311 200.620647,81.4447032 199.051715,82.3457991 L195.6589,84.3047032 L142.439417,114.994201 C139.314628,116.796393 134.241748,116.796393 131.116958,114.994201 L6.2168932,42.9652968 L2.81754045,41.0063927 C1.25514563,40.1052968 0.470679612,38.9234247 0.470679612,37.7415525 C0.470679612,36.5596804 1.25514563,35.3778082 2.81754045,34.4767123 L29.5809061,19.0405479 L59.4298382,1.8283105 C62.5546278,0.0261187215 67.6275081,0.0261187215 70.7522977,1.8283105 L100.60123,19.0405479 L199.058252,75.8161187 C200.620647,76.7172146 201.398576,77.8990868 201.398576,79.0809589" id="路径" fill="#FFFFFF" fill-rule="nonzero"></path>
                                    <path d="M201.398576,79.0809589 C201.398576,80.2628311 200.620647,81.4447032 199.051715,82.3457991 L195.6589,84.3047032 L142.439417,114.994201 C139.314628,116.796393 134.241748,116.796393 131.116958,114.994201 L6.2168932,42.9652968 L2.81754045,41.0063927 C1.25514563,40.1052968 0.470679612,38.9234247 0.470679612,37.7415525 C0.470679612,36.5596804 1.25514563,35.3778082 2.81754045,34.4767123 L29.5809061,19.0405479 L59.4298382,1.8283105 C62.5546278,0.0261187215 67.6275081,0.0261187215 70.7522977,1.8283105 L100.60123,19.0405479 L199.058252,75.8161187 C200.620647,76.7172146 201.398576,77.8990868 201.398576,79.0809589 Z" id="路径" stroke="#223893" stroke-width="1.2" stroke-linecap="round" stroke-linejoin="round"></path>
                                    <polygon id="路径" fill="#80C0FF" fill-rule="nonzero" points="180.191845 71.4738813 123.579547 104.122283 21.677411 45.3551598 78.2897087 12.706758"></polygon>
                                    <polygon id="路径" stroke="#223893" stroke-width="1.2" stroke-linecap="round" stroke-linejoin="round" points="180.191845 71.4738813 123.579547 104.122283 21.677411 45.3551598 78.2897087 12.706758"></polygon>
                                    <path d="M40.5307443,20.8949772 C41.8381877,21.6393607 41.8381877,22.8538813 40.5307443,23.5917352 C39.0618633,24.3362825 37.3255153,24.3362825 35.8566343,23.5917352 C34.5491909,22.8473516 34.5491909,21.6328311 35.8566343,20.8949772 C37.3255153,20.1504299 39.0618633,20.1504299 40.5307443,20.8949772" id="路径" fill="#80C0FF" fill-rule="nonzero"></path>
                                    <path d="M40.5307443,20.8949772 C41.8381877,21.6393607 41.8381877,22.8538813 40.5307443,23.5917352 C39.0618633,24.3362825 37.3255153,24.3362825 35.8566343,23.5917352 C34.5491909,22.8473516 34.5491909,21.6328311 35.8566343,20.8949772 C37.3255153,20.1504299 39.0618633,20.1504299 40.5307443,20.8949772 L40.5307443,20.8949772 Z" id="路径" stroke="#223893" stroke-width="1.2" stroke-linecap="round" stroke-linejoin="round"></path>
                                    <path d="M166.130291,90.4556621 C168.784401,91.990137 168.784401,94.4714155 166.130291,96.0058904 C163.106095,97.5380927 159.531704,97.5380927 156.507508,96.0058904 C153.846861,94.4714155 153.846861,91.990137 156.507508,90.4556621 C159.531704,88.9234598 163.106095,88.9234598 166.130291,90.4556621" id="路径" fill="#3D93FA" fill-rule="nonzero"></path>
                                    <path d="M166.130291,90.4556621 C168.784401,91.990137 168.784401,94.4714155 166.130291,96.0058904 C163.106095,97.5380927 159.531704,97.5380927 156.507508,96.0058904 C153.846861,94.4714155 153.846861,91.990137 156.507508,90.4556621 C159.531704,88.9234598 163.106095,88.9234598 166.130291,90.4556621 Z" id="路径" stroke="#223893" stroke-width="1.2"></path>
                                    <path d="M40.491521,28.1886301 L55.2067961,19.7000457" id="路径" fill="#FFFFFF" fill-rule="nonzero"></path>
                                    <path d="M40.491521,28.1886301 L55.2067961,19.7000457" id="路径" stroke="#223893" stroke-width="1.2" stroke-linecap="round" stroke-linejoin="round"></path>
                                    <path d="M33.8039482,32.0411416 L36.8372168,30.2977169" id="路径" fill="#FFFFFF" fill-rule="nonzero"></path>
                                    <path d="M33.8039482,32.0411416 L36.8372168,30.2977169" id="路径" stroke="#223893" stroke-width="1.2" stroke-linecap="round" stroke-linejoin="round"></path>
                                    <path d="M106.02712,38.5251142 L66.3985113,61.3789954 C64.6193784,62.2806128 62.5164145,62.2806128 60.7372816,61.3789954 L35.8304854,47.0136986 C34.2680906,46.1126027 34.2680906,44.6499543 35.8304854,43.7488584 L75.4590939,20.8949772 C77.2382268,19.9933598 79.3411907,19.9933598 81.1203236,20.8949772 L106.02712,35.260274 C107.589515,36.1613699 107.589515,37.6240183 106.02712,38.5251142" id="路径" fill="#3D93FA" fill-rule="nonzero"></path>
                                    <path d="M106.02712,38.5251142 L66.3985113,61.3789954 C64.6193784,62.2806128 62.5164145,62.2806128 60.7372816,61.3789954 L35.8304854,47.0136986 C34.2680906,46.1126027 34.2680906,44.6499543 35.8304854,43.7488584 L75.4590939,20.8949772 C77.2382268,19.9933598 79.3411907,19.9933598 81.1203236,20.8949772 L106.02712,35.260274 C107.589515,36.1352511 107.589515,37.5978995 106.02712,38.5251142 Z" id="路径" stroke="#223893" stroke-width="1.2"></path>
                                    <path d="M119.631068,45.7077626 L78.871521,69.2146119 C77.4480119,69.9369825 75.764739,69.9369825 74.3412298,69.2146119 L71.5106149,67.5821918 C70.2620065,66.8639269 70.2620065,65.6951142 71.5106149,64.9703196 L112.270162,41.4634703 C113.693924,40.7421572 115.376691,40.7421572 116.800453,41.4634703 L119.631068,43.0958904 C120.879676,43.8206849 120.879676,44.9894977 119.631068,45.7077626" id="路径" fill="#80C0FF" fill-rule="nonzero"></path>
                                    <path d="M119.631068,45.7077626 L78.871521,69.2146119 C77.4480119,69.9369825 75.764739,69.9369825 74.3412298,69.2146119 L71.5106149,67.5821918 C70.2620065,66.8639269 70.2620065,65.6951142 71.5106149,64.9703196 L112.270162,41.4634703 C113.693924,40.7421572 115.376691,40.7421572 116.800453,41.4634703 L119.631068,43.0958904 C120.866602,43.7880365 120.866602,44.9568493 119.631068,45.7077626 Z" id="路径" stroke="#223893" stroke-width="1.2" stroke-linecap="round" stroke-linejoin="round"></path>
                                    <path d="M109.988673,66.250137 L91.8740453,76.6976256 C90.4502828,77.4189387 88.7675166,77.4189387 87.343754,76.6976256 L84.5131392,75.0652055 C83.2645307,74.3469406 83.2645307,73.1715982 84.5131392,72.4533333 L102.634304,62.0319635 C104.058067,61.3106503 105.740833,61.3106503 107.164595,62.0319635 L109.99521,63.6643836 C111.243819,64.3826484 111.243819,65.5579909 109.99521,66.2762557" id="路径" fill="#3D93FA" fill-rule="nonzero"></path>
                                    <path d="M109.988673,66.250137 L91.8740453,76.6976256 C90.4502828,77.4189387 88.7675166,77.4189387 87.343754,76.6976256 L84.5131392,75.0652055 C83.2645307,74.3469406 83.2645307,73.1715982 84.5131392,72.4533333 L102.634304,62.0319635 C104.058067,61.3106503 105.740833,61.3106503 107.164595,62.0319635 L109.99521,63.6643836 C111.243819,64.3565297 111.243819,65.5253425 109.988673,66.250137 Z" id="路径" stroke="#223893" stroke-width="1.2"></path>
                                    <path d="M138.131392,65.0356164 L104.896181,84.2328767 C103.472672,84.9552473 101.789399,84.9552473 100.36589,84.2328767 L97.5352751,82.6004566 C96.2866667,81.8821918 96.2866667,80.713379 97.5352751,79.9885845 L130.744337,60.7913242 C132.168099,60.0700111 133.850865,60.0700111 135.274628,60.7913242 L138.105243,62.4237443 C139.353851,63.1420091 139.353851,64.3173516 138.105243,65.0356164" id="路径" fill="#80C0FF" fill-rule="nonzero"></path>
                                    <path d="M138.131392,65.0356164 L104.896181,84.2328767 C103.472672,84.9552473 101.789399,84.9552473 100.36589,84.2328767 L97.5352751,82.6004566 C96.2866667,81.8821918 96.2866667,80.713379 97.5352751,79.9885845 L130.744337,60.7913242 C132.168099,60.0700111 133.850865,60.0700111 135.274628,60.7913242 L138.105243,62.4237443 C139.386537,63.1485388 139.386537,64.3173516 138.131392,65.0356164 Z" id="路径" stroke="#223893" stroke-width="1.2" stroke-linecap="round" stroke-linejoin="round"></path>
                                    <path d="M141.654951,78.0231507 L117.91178,91.7354795 C116.488017,92.4567926 114.805251,92.4567926 113.381489,91.7354795 L110.550874,90.1030594 C109.302265,89.3847945 109.302265,88.2094521 110.550874,87.4911872 L134.294045,73.7788584 C135.717808,73.0575453 137.400574,73.0575453 138.824337,73.7788584 L141.654951,75.4112785 C142.90356,76.1295434 142.90356,77.3048858 141.654951,78.0231507" id="路径" fill="#3D93FA" fill-rule="nonzero"></path>
                                    <path d="M141.654951,78.0231507 L117.91178,91.7354795 C116.488017,92.4567926 114.805251,92.4567926 113.381489,91.7354795 L110.550874,90.1030594 C109.302265,89.3847945 109.302265,88.2094521 110.550874,87.4911872 L134.294045,73.7788584 C135.717808,73.0575453 137.400574,73.0575453 138.824337,73.7788584 L141.654951,75.4112785 C142.910097,76.1295434 142.910097,77.2983562 141.654951,78.0231507 Z" id="路径" stroke="#223893" stroke-width="1.2"></path>
                                    <path d="M181.695405,98.2455708 L169.934951,105.029909" id="路径" fill="#E0E8F7" fill-rule="nonzero"></path>
                                    <path d="M181.695405,98.2455708 L169.934951,105.029909" id="路径" stroke="#223893" stroke-width="1.2" stroke-linecap="round"></path>
                                    <path d="M30.3653722,62.2147945 C30.3653722,63.2334247 29.7116505,63.7035616 28.9794822,63.2595434 C28.1241081,62.6471725 27.609953,61.6660746 27.5935922,60.6150228 C27.5935922,59.5963927 28.2146278,59.1262557 28.9794822,59.570274 C29.8348563,60.1826448 30.3490114,61.1637427 30.3653722,62.2147945" id="路径" fill="#223893" fill-rule="nonzero"></path>
                                    <path d="M62.7965049,37.5783105 L77.7928803,35.260274 C79.7540453,34.953379 81.584466,35.9981279 81.0614887,37.1408219 L77.0345631,45.8057078 C76.5050485,46.9484018 74.0339806,47.3271233 72.5827184,46.4913242 L61.5871197,40.1510046 C60.1358576,39.3152055 60.8026537,37.8917352 62.7768932,37.5848402" id="路径" fill="#80C0FF" fill-rule="nonzero"></path>
                                    <path d="M62.7965049,37.5783105 L77.7928803,35.260274 C79.7540453,34.953379 81.584466,35.9981279 81.0614887,37.1408219 L77.0345631,45.8057078 C76.5050485,46.9484018 74.0339806,47.3271233 72.5827184,46.4913242 L61.5871197,40.1510046 C60.1423948,39.3086758 60.7961165,37.8721461 62.7965049,37.5783105 Z" id="路径" stroke="#223893" stroke-width="1.2" stroke-linecap="round" stroke-linejoin="round"></path>
                                </g>
                            </g>
                        </g>
                    </g>
                </g>
            </g>
        </g>
    </g>
</svg>