<?xml version="1.0" encoding="UTF-8"?>
<svg width="242px" height="147px" viewBox="0 0 242 147" version="1.1" xmlns="http://www.w3.org/2000/svg" xmlns:xlink="http://www.w3.org/1999/xlink">
    <!-- Generator: Sketch 57 (83077) - https://sketch.com -->
    <title>编组 22</title>
    <desc>Created with Sketch.</desc>
    <defs>
        <path d="M0,0 L251,0 L251,168 C251,174.627417 245.627417,180 239,180 L0,180 L0,180 L0,0 Z" id="path-1"></path>
    </defs>
    <g id="首页改版-0228" stroke="none" stroke-width="1" fill="none" fill-rule="evenodd">
        <g id="1_01-办事大厅_首页改版_方案一" transform="translate(-607.000000, -1685.000000)">
            <g id="card_知识KMS" transform="translate(517.000000, 1652.000000)">
                <g id="编组-22" transform="translate(81.000000, 0.000000)">
                    <mask id="mask-2" fill="white">
                        <use xlink:href="#path-1"></use>
                    </mask>
                    <g id="蒙版"></g>
                    <g id="编组-40" opacity="0.6" mask="url(#mask-2)">
                        <g transform="translate(11.000000, 34.000000)">
                            <g id="资源-4@3x" transform="translate(0.000000, 64.000000)">
                                <polygon id="路径" fill="#E0E8F7" fill-rule="nonzero" points="66.8674699 63.0587278 32.5278024 83 0 64.1099708 45.8594841 37.483871 52.5226447 54.7296482"></polygon>
                                <polygon id="路径" fill="#E0E8F7" fill-rule="nonzero" points="67.1013646 49.671631 32.6415809 69.6129032 0 50.7228741 46.0198953 24.0967742 68.6506024 37.191489 57.0904908 43.8817077"></polygon>
                                <polygon id="路径" stroke="#223893" stroke-width="1.2" stroke-linecap="round" points="67.1013646 49.671631 32.6415809 69.6129032 0 50.7228741 46.0198953 24.0967742 68.6506024 37.191489 57.0904908 43.8817077"></polygon>
                                <polygon id="路径" fill="#FFFFFF" fill-rule="nonzero" points="67.1013646 45.2122949 32.6415809 65.1505376 0 46.2636625 46.0198953 19.6344086 68.6506024 32.7306746 57.0904908 39.4162941"></polygon>
                                <polygon id="路径" stroke="#223893" stroke-width="1.2" stroke-linecap="round" stroke-linejoin="round" points="67.1013646 45.2122949 32.6415809 65.1505376 0 46.2636625 46.0198953 19.6344086 68.6506024 32.7306746 57.0904908 39.4162941"></polygon>
                                <path d="M32.0963855,33.0215054 L45.4698795,40.1612903" id="路径" fill="#FFFFFF" fill-rule="nonzero"></path>
                                <path d="M32.0963855,33.0215054 L45.4698795,40.1612903" id="路径" stroke="#223893" stroke-width="1.2" stroke-linecap="round" stroke-linejoin="round"></path>
                                <path d="M34.7710843,40.1612903 L49.0361446,48.1935484" id="路径" fill="#FFFFFF" fill-rule="nonzero"></path>
                                <path d="M34.7710843,40.1612903 L49.0361446,48.1935484" id="路径" stroke="#223893" stroke-width="1.2" stroke-linecap="round" stroke-linejoin="round"></path>
                                <path d="M27.6385542,35.6989247 L32.0963855,38.3763441" id="路径" fill="#FFFFFF" fill-rule="nonzero"></path>
                                <path d="M27.6385542,35.6989247 L32.0963855,38.3763441" id="路径" stroke="#223893" stroke-width="1.2" stroke-linecap="round" stroke-linejoin="round"></path>
                                <path d="M23.1807229,38.3763441 L34.7710843,44.6236559" id="路径" fill="#FFFFFF" fill-rule="nonzero"></path>
                                <path d="M23.1807229,38.3763441 L34.7710843,44.6236559" id="路径" stroke="#223893" stroke-width="1.2" stroke-linecap="round" stroke-linejoin="round"></path>
                                <polygon id="路径" fill="#E0E8F7" fill-rule="nonzero" points="25.7335928 54.4408602 10.6987952 45.7561404 18.8447205 41.0537634 33.8795181 49.7384832"></polygon>
                                <polygon id="路径" stroke="#223893" stroke-width="1.2" stroke-linecap="round" points="25.7335928 54.4408602 10.6987952 45.7561404 18.8447205 41.0537634 33.8795181 49.7384832"></polygon>
                                <polygon id="路径" fill="#80C0FF" fill-rule="nonzero" points="74 0 45.6368798 21.6585986 41.0524515 32.1290323 38.3373494 19.4631851 73.9838387 0.00527743631"></polygon>
                                <polygon id="路径" stroke="#223893" stroke-width="1.2" stroke-linecap="round" stroke-linejoin="round" points="74 0 45.6368798 21.6585986 41.0524515 32.1290323 38.3373494 19.4631851 73.9838387 0.00527743631"></polygon>
                                <path d="M74,0.892473118 L38.2086561,20.5268817 L26.746988,16.6607085 C26.9038489,16.6074554 73.3292842,0.983003345 74,0.892473118 Z" id="路径" stroke="#223893" stroke-width="1.2" stroke-linecap="round" stroke-linejoin="round"></path>
                                <path d="M74,0 C73.9458014,0.154579258 60.1034899,26.7741935 60.1034899,26.7741935 L50.0767569,23.4214227 L45.4698795,21.8756302 L74,0 Z" id="路径" fill="#E0E8F7" fill-rule="nonzero"></path>
                                <path d="M74,0 C73.9458014,0.154579258 60.1034899,26.7741935 60.1034899,26.7741935 L50.0767569,23.4214227 L45.4698795,21.8756302 L74,0 Z" id="路径" stroke="#223893" stroke-width="1.2" stroke-linecap="round" stroke-linejoin="round"></path>
                                <polygon id="路径" fill="#3D93FA" fill-rule="nonzero" points="50.8192771 23.8772546 41.9036145 33.0215054 46.3614458 22.311828"></polygon>
                                <polygon id="路径" stroke="#223893" stroke-width="1.2" stroke-linecap="round" stroke-linejoin="round" points="50.8192771 23.8772546 41.9036145 33.0215054 46.3614458 22.311828"></polygon>
                            </g>
                            <g id="资源-2" transform="translate(176.000000, 90.000000) scale(-1, 1) translate(-176.000000, -90.000000) translate(101.000000, 0.000000)">
                                <path d="M138.5,138.525 L138.5,138.475" id="路径" stroke="#223893" stroke-width="1.2" stroke-linecap="round" stroke-linejoin="round"></path>
                                <path d="M1.43268056,174.696424 C0.546252643,174.231931 0,173.372359 0,172.441987 C0,171.511615 0.546252643,170.652043 1.43268056,170.18755 L5.39000791,168.119259 L136.263827,99.3485898 C137.149055,98.8838034 138.239701,98.8838034 139.124929,99.3485898 L148.567931,104.312488 C149.45414,104.778117 150,105.638226 150,106.568993 C150,107.49976 149.45414,108.359869 148.567931,108.825498 L13.7367845,179.652049 C12.8513058,180.115984 11.7611611,180.115984 10.8756824,179.652049 L1.43268056,174.696424 Z" id="路径" fill="#E0E8F7" fill-rule="nonzero"></path>
                                <path d="M10,79.7739482 L10,166.313924 C10,167.444659 10.416476,168.256991 11.1029748,168.677445 C11.1919297,168.731182 11.2852463,168.778939 11.382151,168.820318 L11.382151,168.820318 C12.1327231,169.134637 13.1212815,169.044832 14.2105263,168.485588 L30.0228833,160.358178 L129.98627,108.88322 L145.784897,100.747646 C148.114416,99.5475163 150,96.6329152 150,94.2163272 L150,7.67635143 C150,6.57419136 149.601831,5.77410479 148.942792,5.34548699 C148.828426,5.26943188 148.703901,5.20635616 148.572082,5.15771157 C147.733618,4.8849056 146.801315,4.96911347 146.04119,5.38630773 L145.908467,5.44753885 L145.784897,5.50468789 L140.091533,8.43561726 L14.215103,73.2548755 C11.8855835,74.4550054 10,77.3736885 10,79.7861945" id="路径" fill="#FFFFFF" fill-rule="nonzero"></path>
                                <path d="M10,79.7739482 L10,166.313924 C10,167.444659 10.416476,168.256991 11.1029748,168.677445 C11.1919297,168.731182 11.2852463,168.778939 11.382151,168.820318 L11.382151,168.820318 C12.1327231,169.134637 13.1212815,169.044832 14.2105263,168.485588 L30.0228833,160.358178 L129.98627,108.88322 L145.784897,100.747646 C148.114416,99.5475163 150,96.6329152 150,94.2163272 L150,7.67635143 C150,6.57419136 149.601831,5.77410479 148.942792,5.34548699 C148.828426,5.26943188 148.703901,5.20635616 148.572082,5.15771157 C147.733618,4.8849056 146.801315,4.96911347 146.04119,5.38630773 L145.908467,5.44753885 L145.784897,5.50468789 L140.091533,8.43561726 L14.215103,73.2548755 C11.8901602,74.4590875 10,77.3736885 10,79.7739482 Z" id="路径" stroke="#223893" stroke-width="1.2" stroke-linecap="round" stroke-linejoin="round"></path>
                                <path d="M129,28.2628672 L129,110 L144.787789,101.899448 C147.11571,100.704484 149,97.8024299 149,95.3962448 L149,18 L139.098331,23.0806273 L129,28.2628672 Z" id="路径" fill="#E0E8F7" fill-rule="nonzero"></path>
                                <path d="M129,28.2628672 L129,110 L144.787789,101.899448 C147.11571,100.704484 149,97.8024299 149,95.3962448 L149,18 L139.098331,23.0806273 L129,28.2628672 Z" id="路径" stroke="#223893" stroke-width="1.2" stroke-linecap="round" stroke-linejoin="round"></path>
                                <path d="M10,80.8224602 L10,89 L30.0228833,78.6343936 L129.98627,26.8638345 L140.091533,21.6297164 L150,16.4982281 L150,8.32068837 C150,5.53326392 148.114416,4.25244444 145.784897,5.44705492 L140.091533,8.40689737 L14.2334096,73.5932195 C11.9038902,74.8001456 10.0183066,78.0309306 10.0183066,80.8183551" id="路径" fill="#80C0FF" fill-rule="nonzero"></path>
                                <path d="M10,80.8224602 L10,89 L30.0228833,78.6343936 L129.98627,26.8638345 L140.091533,21.6297164 L150,16.4982281 L150,8.32068837 C150,5.53326392 148.114416,4.25244444 145.784897,5.44705492 L140.091533,8.40689737 L14.2334096,73.5932195 C11.8901602,74.8001456 10,78.0350358 10,80.8224602 Z" id="路径" stroke="#223893" stroke-width="1.2" stroke-linecap="round" stroke-linejoin="round"></path>
                                <path d="M141.011461,14.8937243 C141.092732,13.8049509 141.830301,12.8104768 143,12.2125514 C144.106017,11.7165344 145,12.1187104 145,13.1062757 C144.916128,14.1967004 144.174064,15.1915013 143,15.7874486 C141.893983,16.2834656 141,15.8812896 141,14.8937243" id="路径" fill="#223893" fill-rule="nonzero"></path>
                                <path d="M135,17.8937243 C135.084771,16.8035117 135.826617,15.8090037 137,15.2125514 C138.106017,14.7165344 139,15.1187104 139,16.1062757 C138.915229,17.1964883 138.173383,18.1909963 137,18.7874486 C135.893983,19.2834656 135,18.8812896 135,17.8937243" id="路径" fill="#223893" fill-rule="nonzero"></path>
                                <path d="M129,21.8937243 C129.083872,20.8032996 129.825936,19.8084987 131,19.2125514 C132.106017,18.7165344 133,19.1187104 133,20.1062757 C132.915229,21.1964883 132.173383,22.1909963 131,22.7874486 C129.893983,23.2834656 129,22.8812896 129,21.8937243" id="路径" fill="#223893" fill-rule="nonzero"></path>
                                <path d="M142.152476,53.5665615 L137.847524,55.8000806 C136.828047,56.331296 136,55.7678858 136,54.536432 L136,50.6368282 C136,49.4093987 136.828047,47.9807513 137.847524,47.449536 L142.152476,45.1999194 C143.171953,44.668704 144,45.2321142 144,46.463568 L144,50.3631718 C144,51.5906013 143.171953,53.0192487 142.152476,53.550464" id="路径" fill="#80C0FF" fill-rule="nonzero"></path>
                                <path d="M142.152476,53.5665615 L137.847524,55.8000806 C136.828047,56.331296 136,55.7678858 136,54.536432 L136,50.6368282 C136,49.4093987 136.828047,47.9807513 137.847524,47.449536 L142.152476,45.1999194 C143.171953,44.668704 144,45.2321142 144,46.463568 L144,50.3631718 C144,51.6066987 143.171953,53.0353461 142.152476,53.5665615 Z" id="路径" stroke="#223893" stroke-width="1.2" stroke-linecap="round" stroke-linejoin="round"></path>
                                <path d="M142.152476,38.550464 L137.847524,40.8000806 C136.828047,41.331296 136,40.7678858 136,39.536432 L136,35.6368282 C136,34.4093987 136.828047,32.9807513 137.847524,32.449536 L142.152476,30.1999194 C143.171953,29.668704 144,30.2321142 144,31.463568 L144,35.3551231 C144,36.5825525 143.171953,38.0111999 142.152476,38.5424153" id="路径" fill="#3D93FA" fill-rule="nonzero"></path>
                                <path d="M142.152476,38.550464 L137.847524,40.8000806 C136.828047,41.331296 136,40.7678858 136,39.536432 L136,35.6368282 C136,34.4093987 136.828047,32.9807513 137.847524,32.449536 L142.152476,30.1999194 C143.171953,29.668704 144,30.2321142 144,31.463568 L144,35.3551231 C144,36.5906013 143.171953,38.0192487 142.152476,38.550464 Z" id="路径" stroke="#223893" stroke-width="1.2" stroke-linecap="round" stroke-linejoin="round"></path>
                                <path d="M142.152476,67.550479 L137.847524,69.8000819 C136.828047,70.331294 136,69.7678872 136,68.5364409 L136,64.6368609 C136,63.4094389 136.828047,61.9808002 137.847524,61.4495881 L142.152476,59.1999852 C143.171953,58.6687731 144,59.2321799 144,60.4596018 L144,64.3591818 C144,65.5866038 143.171953,67.0152425 142.152476,67.5464546" id="路径" fill="#3D93FA" fill-rule="nonzero"></path>
                                <path d="M142.152476,67.550479 L137.847524,69.8000819 C136.828047,70.331294 136,69.7678872 136,68.5364409 L136,64.6368609 C136,63.4094389 136.828047,61.9808002 137.847524,61.4495881 L142.152476,59.1999852 C143.171953,58.6687731 144,59.2321799 144,60.4596018 L144,64.3591818 C144,65.5906281 143.171953,67.0192668 142.152476,67.550479 Z" id="路径" stroke="#223893" stroke-width="1.2" stroke-linecap="round" stroke-linejoin="round"></path>
                                <path d="M142.152476,80.5468369 L137.847524,82.7997229 C136.828047,83.3317103 136,82.7674813 136,81.538268 L136,77.6450875 C136,76.4158742 136.828047,74.9851505 137.847524,74.4531631 L142.152476,72.2002771 C143.171953,71.6682897 144,72.2325187 144,73.461732 L144,77.3670032 C144,78.5962165 143.171953,80.0269401 142.152476,80.5589275" id="路径" fill="#80C0FF" fill-rule="nonzero"></path>
                                <path d="M142.152476,80.5468369 L137.847524,82.7997229 C136.828047,83.3317103 136,82.7674813 136,81.538268 L136,77.6450875 C136,76.4158742 136.828047,74.9851505 137.847524,74.4531631 L142.152476,72.2002771 C143.171953,71.6682897 144,72.2325187 144,73.461732 L144,77.3670032 C144,78.5841258 143.171953,80.0108193 142.152476,80.5468369 Z" id="路径" stroke="#223893" stroke-width="1.2" stroke-linecap="round" stroke-linejoin="round"></path>
                                <path d="M142.152476,96.550464 L137.847524,98.8000806 C136.828047,99.331296 136,98.7678858 136,97.536432 L136,93.6368282 C136,92.4093987 136.828047,90.9807513 137.847524,90.449536 L142.152476,88.1999194 C143.171953,87.668704 144,88.2321142 144,89.463568 L144,93.3631718 C144,94.5906013 143.171953,96.0192487 142.152476,96.550464" id="路径" fill="#3D93FA" fill-rule="nonzero"></path>
                                <path d="M142.152476,96.550464 L137.847524,98.8000806 C136.828047,99.331296 136,98.7678858 136,97.536432 L136,93.6368282 C136,92.4093987 136.828047,90.9807513 137.847524,90.449536 L142.152476,88.1999194 C143.171953,87.668704 144,88.2321142 144,89.463568 L144,93.3631718 C144,94.5906013 143.171953,96.0192487 142.152476,96.550464 Z" id="路径" stroke="#223893" stroke-width="1.2" stroke-linecap="round" stroke-linejoin="round"></path>
                                <path d="M148,5.36404159 C147.265906,5.06591102 146.296178,5.15700647 145.240351,5.7160013 L139.616831,8.69316638 L14.9840321,74.4392401 C12.6775277,75.6566067 10.8105734,78.6172089 10.8105734,81.0643641 L10.8105734,90 L1,84.8075591 L1,75.8802046 C1,73.4496122 2.86695438,70.4972914 5.17345869,69.2550806 L135.438841,0.519419709 C136.539982,-0.0602786361 137.54143,-0.138951983 138.289118,0.204726322 L138.488502,0.308243883 L148,5.36404159 Z" id="路径" fill="#3D93FA" fill-rule="nonzero"></path>
                                <path d="M148,5.36404159 C147.265906,5.06591102 146.296178,5.15700647 145.240351,5.7160013 L139.616831,8.69316638 L14.9840321,74.4392401 C12.6775277,75.6566067 10.8105734,78.6172089 10.8105734,81.0643641 L10.8105734,90 L1,84.8075591 L1,75.8802046 C1,73.4496122 2.86695438,70.4972914 5.17345869,69.2550806 L135.438841,0.519419709 C136.539982,-0.0602786361 137.54143,-0.138951983 138.289118,0.204726322 L138.488502,0.308243883 L148,5.36404159 Z" id="路径" stroke="#223893" stroke-width="1.2" stroke-linecap="round" stroke-linejoin="round"></path>
                                <path d="M45.1553206,87.8721871 L120.844679,48.7060825 C121.557581,48.2480069 121.98618,47.5141347 122,46.7278733 L122,39.9077229 C122,39.1440611 121.483504,38.7947264 120.844679,39.1237509 L45.1553206,78.3020416 C44.4424189,78.7601172 44.0138203,79.4939894 44,80.2802508 L44,87.0922771 C44,87.8559389 44.5164963,88.2052736 45.1553206,87.8762491" id="路径" fill="#E0E8F7" fill-rule="nonzero"></path>
                                <path d="M45.1553206,87.8744495 L120.844679,48.7065318 C121.557581,48.248435 121.98618,47.5145288 122,46.728231 L122,39.907765 C122,39.1440677 121.483504,38.7947169 120.844679,39.1237566 L45.1553206,78.303861 C44.4424189,78.7619578 44.0138203,79.495864 44,80.2821618 L44,87.0945034 C44,87.8541384 44.5164963,88.2075515 45.1553206,87.8744495 Z" id="路径" stroke="#223893" stroke-width="1.2" stroke-linecap="round" stroke-linejoin="round"></path>
                                <path d="M21.1664125,99.8723414 L39.8335875,90 C40.5533335,89.5274598 40.986047,88.7704142 41,87.959325 L41,80.9363861 C41,80.1486101 40.478545,79.7882445 39.8335875,80.1276586 L21.1664125,90 C20.4466665,90.4725402 20.013953,91.2295858 20,92.040675 L20,99.0636139 C20,99.8513899 20.521455,100.211756 21.1664125,99.8723414" id="路径" fill="#80C0FF" fill-rule="nonzero"></path>
                                <path d="M21.1664125,99.8723414 L39.8335875,90 C40.5533335,89.5274598 40.986047,88.7704142 41,87.959325 L41,80.9363861 C41,80.1486101 40.478545,79.7882445 39.8335875,80.1276586 L21.1664125,90 C20.4466665,90.4725402 20.013953,91.2295858 20,92.040675 L20,99.0636139 C20,99.8513899 20.5077325,100.211756 21.1664125,99.8723414 Z" id="路径" stroke="#223893" stroke-width="1.2" stroke-linecap="round" stroke-linejoin="round"></path>
                                <path d="M66.3325581,97.7526958 L120.667442,70.3629928 C121.957209,69.712093 123,67.9670427 123,66.4695739 L123,52.7847055 C123,51.2832435 121.957209,50.5964044 120.667442,51.243311 L66.3325581,78.6330139 C65.0427907,79.2839137 64,81.028964 64,82.5264329 L64,96.2152945 C64,97.7167565 65.0427907,98.4035956 66.3325581,97.756689" id="路径" fill="#E0E8F7" fill-rule="nonzero"></path>
                                <path d="M66.3325581,97.7549146 L120.667442,70.3639117 C121.957209,69.7129811 123,67.9678479 123,66.470308 L123,52.7847902 C123,51.2832569 121.957209,50.5963853 120.667442,51.2433225 L66.3325581,78.6343253 C65.0427907,79.285256 64,81.0303891 64,82.527929 L64,96.2174403 C64,97.7149802 65.0473643,98.4058452 66.3325581,97.7549146 Z" id="路径" stroke="#223893" stroke-width="1.2" stroke-linecap="round" stroke-linejoin="round"></path>
                                <path d="M22.3478554,121.744896 L58.6521446,102.990185 C59.9503705,102.318755 61,100.518665 61,98.973966 L61,84.8409957 C61,83.2921771 59.9503705,82.5836749 58.6521446,83.2509851 L22.3478554,102.022173 C21.0496295,102.693602 20,104.493692 20,106.038392 L20,120.159004 C20,121.707823 21.0496295,122.416325 22.3478554,121.749015" id="路径" fill="#E0E8F7" fill-rule="nonzero"></path>
                                <path d="M22.3478696,121.747182 L58.6521455,102.991364 C59.9503709,102.319895 61,100.519699 61,98.9749084 L61,84.8411043 C61,83.2921943 59.9503709,82.5836503 58.6521455,83.2509999 L22.3478696,102.023295 C21.0496442,102.694764 20,104.49496 20,106.039751 L20,120.161197 C19.9954114,121.705987 21.0450405,122.418651 22.3478696,121.747182 Z" id="路径" stroke="#223893" stroke-width="1.2" stroke-linecap="round" stroke-linejoin="round"></path>
                                <path d="M25,92 L36,88" id="路径" fill="#E0E8F7" fill-rule="nonzero"></path>
                                <path d="M25,92 L36,88" id="路径" stroke="#223893" stroke-width="1.2" stroke-linecap="round" stroke-linejoin="round"></path>
                                <path d="M111,48 L119,44" id="路径" fill="#E0E8F7" fill-rule="nonzero"></path>
                                <path d="M111,48 L119,44" id="路径" stroke="#223893" stroke-width="1.2" stroke-linecap="round" stroke-linejoin="round"></path>
                                <path d="M86,60 L106,49" id="路径" fill="#E0E8F7" fill-rule="nonzero"></path>
                                <path d="M86,60 L106,49" id="路径" stroke="#223893" stroke-width="1.2" stroke-linecap="round" stroke-linejoin="round"></path>
                                <path d="M99,68 L119,58" id="路径" fill="#E0E8F7" fill-rule="nonzero"></path>
                                <path d="M99,68 L119,58" id="路径" stroke="#223893" stroke-width="1.2" stroke-linecap="round" stroke-linejoin="round"></path>
                                <path d="M42,97 L55,91" id="路径" fill="#E0E8F7" fill-rule="nonzero"></path>
                                <path d="M42,97 L55,91" id="路径" stroke="#223893" stroke-width="1.2" stroke-linecap="round" stroke-linejoin="round"></path>
                                <path d="M50,99 L55,95" id="路径" fill="#E0E8F7" fill-rule="nonzero"></path>
                                <path d="M50,99 L55,95" id="路径" stroke="#223893" stroke-width="1.2" stroke-linecap="round" stroke-linejoin="round"></path>
                                <path d="M26,111 L47,100" id="路径" fill="#E0E8F7" fill-rule="nonzero"></path>
                                <path d="M26,111 L47,100" id="路径" stroke="#223893" stroke-width="1.2" stroke-linecap="round" stroke-linejoin="round"></path>
                                <path d="M35,110 L55,100" id="路径" fill="#E0E8F7" fill-rule="nonzero"></path>
                                <path d="M35,110 L55,100" id="路径" stroke="#223893" stroke-width="1.2" stroke-linecap="round" stroke-linejoin="round"></path>
                                <path d="M99,78 L119,68" id="路径" fill="#E0E8F7" fill-rule="nonzero"></path>
                                <path d="M99,78 L119,68" id="路径" stroke="#223893" stroke-width="1.2" stroke-linecap="round" stroke-linejoin="round"></path>
                                <path d="M112,66 L119,62" id="路径" fill="#E0E8F7" fill-rule="nonzero"></path>
                                <path d="M112,66 L119,62" id="路径" stroke="#223893" stroke-width="1.2" stroke-linecap="round" stroke-linejoin="round"></path>
                                <path d="M78,84 L106,68" id="路径" fill="#E0E8F7" fill-rule="nonzero"></path>
                                <path d="M78,84 L106,68" id="路径" stroke="#223893" stroke-width="1.2" stroke-linecap="round" stroke-linejoin="round"></path>
                                <path d="M74,67 L84,63" id="路径" fill="#E0E8F7" fill-rule="nonzero"></path>
                                <path d="M74,67 L84,63" id="路径" stroke="#223893" stroke-width="1.2" stroke-linecap="round" stroke-linejoin="round"></path>
                                <path d="M121.731602,104.392928 L122.268398,104.161818 C123.232323,103.733836 124,104.187497 124,105.137616 C123.982835,106.117658 123.340484,107.033721 122.268398,107.607072 L121.731602,107.838182 C120.767677,108.266164 120,107.812503 120,106.862384 C120.017165,105.882342 120.659516,104.966279 121.731602,104.392928" id="路径" fill="#E0E8F7" fill-rule="nonzero"></path>
                                <path d="M121.731602,104.392928 L122.268398,104.161818 C123.232323,103.733836 124,104.187497 124,105.137616 C123.982835,106.117658 123.340484,107.033721 122.268398,107.607072 L121.731602,107.838182 C120.767677,108.266164 120,107.812503 120,106.862384 C120.017165,105.882342 120.659516,104.966279 121.731602,104.392928 L121.731602,104.392928 Z" id="路径" stroke="#223893" stroke-width="1.2" stroke-linecap="round"></path>
                                <path d="M65.35,133.003551 L71.65,130.134265 C72.4015,129.779155 73,130.155572 73,130.943915 C72.9866177,131.757086 72.4858252,132.517171 71.65,132.992898 L65.35,135.865735 C64.5985,136.220845 64,135.844428 64,135.056085 C64.0133823,134.242914 64.5141748,133.482829 65.35,133.007102" id="路径" fill="#80C0FF" fill-rule="nonzero"></path>
                                <path d="M65.35,133.003551 L71.65,130.134265 C72.4015,129.779155 73,130.155572 73,130.943915 C72.9866177,131.757086 72.4858252,132.517171 71.65,132.992898 L65.35,135.865735 C64.5985,136.220845 64,135.844428 64,135.056085 C64.0119624,134.241658 64.5129103,133.480019 65.35,133.003551 L65.35,133.003551 Z" id="路径" stroke="#223893" stroke-width="1.2" stroke-linecap="round" stroke-linejoin="round"></path>
                                <path d="M102.441318,112.577993 L113.558682,107.153515 C114.361016,106.747492 115,107.177877 115,108.07925 C114.985713,109.009009 114.451045,109.878072 113.558682,110.422007 L102.441318,115.846485 C101.638984,116.252508 101,115.822123 101,114.92075 C101.014287,113.990991 101.548955,113.121928 102.441318,112.577993" id="路径" fill="#E0E8F7" fill-rule="nonzero"></path>
                                <path d="M102.441318,112.577993 L113.558682,107.153515 C114.361016,106.747492 115,107.177877 115,108.07925 C114.985713,109.009009 114.451045,109.878072 113.558682,110.422007 L102.441318,115.846485 C101.638984,116.252508 101,115.822123 101,114.92075 C101.014287,113.990991 101.548955,113.121928 102.441318,112.577993 Z" id="路径" stroke="#223893" stroke-width="1.2" stroke-linecap="round"></path>
                                <path d="M78.3953488,126.385899 L95.6046512,117.163101 C96.3813953,116.731725 97,117.188983 97,118.146636 C96.9861682,119.134447 96.4685532,120.057773 95.6046512,120.63567 L78.3953488,129.836899 C77.6186047,130.268275 77,129.811017 77,128.853364 C77.0138318,127.865553 77.5314468,126.942227 78.3953488,126.36433" id="路径" fill="#E0E8F7" fill-rule="nonzero"></path>
                                <path d="M78.3953488,126.385899 L95.6046512,117.163101 C96.3813953,116.731725 97,117.188983 97,118.146636 C96.9861682,119.134447 96.4685532,120.057773 95.6046512,120.63567 L78.3953488,129.836899 C77.6186047,130.268275 77,129.811017 77,128.853364 C77.0211245,127.873194 77.5379424,126.959279 78.3953488,126.385899 L78.3953488,126.385899 Z" id="路径" stroke="#223893" stroke-width="1.2" stroke-linecap="round"></path>
                                <path d="M121.731602,78.3929278 L122.268398,78.1618176 C123.232323,77.7338357 124,78.1874965 124,79.1376164 C123.982835,80.1176581 123.340484,81.0337211 122.268398,81.6070722 L121.731602,81.8381824 C120.767677,82.2661643 120,81.8125035 120,80.8623836 C120.017165,79.8823419 120.659516,78.9662789 121.731602,78.3929278" id="路径" fill="#E0E8F7" fill-rule="nonzero"></path>
                                <path d="M121.731602,78.3929278 L122.268398,78.1618176 C123.232323,77.7338357 124,78.1874965 124,79.1376164 C123.982835,80.1176581 123.340484,81.0337211 122.268398,81.6070722 L121.731602,81.8381824 C120.767677,82.2661643 120,81.8125035 120,80.8623836 C120.017165,79.8823419 120.659516,78.9662789 121.731602,78.3929278 L121.731602,78.3929278 Z" id="路径" stroke="#223893" stroke-width="1.2" stroke-linecap="round"></path>
                                <path d="M95.8290398,92.1137082 L93.1709602,93.351292 C92.4459839,93.7731606 92.0116075,94.4471948 92,95.1683043 C92,95.8673974 92.5269321,96.1886023 93.1709602,95.8862918 L95.8290398,94.648708 C96.5540161,94.2268394 96.9883925,93.5528052 97,92.8316957 C97,92.1326026 96.4730679,91.8113977 95.8290398,92.1137082" id="路径" fill="#80C0FF" fill-rule="nonzero"></path>
                                <path d="M95.8289742,92.1137082 L93.1709401,93.351292 C92.4459762,93.7731606 92.0116073,94.4471948 92,95.1683043 C92,95.8673974 92.5269231,96.1886023 93.1709401,95.8862918 L95.8289742,94.648708 C96.5539381,94.2268394 96.9883071,93.5528052 96.9999144,92.8316957 C97.0077206,92.1326026 96.4807976,91.8113977 95.8289742,92.1137082 Z" id="路径" stroke="#223893" stroke-width="1.2" stroke-linecap="round" stroke-linejoin="round"></path>
                                <path d="M102.441318,87.5779932 L113.558682,82.1535153 C114.361016,81.7474916 115,82.1778768 115,83.0792496 C114.986478,84.0091714 114.451642,84.8785083 113.558682,85.4220068 L102.441318,90.8464847 C101.638984,91.2525084 101,90.8221232 101,89.9207504 C101.014287,88.990991 101.548955,88.1219278 102.441318,87.5779932" id="路径" fill="#E0E8F7" fill-rule="nonzero"></path>
                                <path d="M102.441318,87.5779932 L113.558682,82.1535153 C114.361016,81.7474916 115,82.1778768 115,83.0792496 C114.986478,84.0091714 114.451642,84.8785083 113.558682,85.4220068 L102.441318,90.8464847 C101.638984,91.2525084 101,90.8221232 101,89.9207504 C101.014287,88.990991 101.548955,88.1219278 102.441318,87.5779932 L102.441318,87.5779932 Z" id="路径" stroke="#223893" stroke-width="1.2" stroke-linecap="round"></path>
                                <path d="M84.6306252,97.1473724 L64.3739546,107.567121 C63.5232984,108.113887 63.0136197,108.987475 63,109.922074 C63,110.828139 63.6182796,111.244439 64.3739546,110.852628 L84.6260454,100.432879 C85.4767016,99.8861126 85.9863803,99.0125253 86,98.0779258 C86,97.1718607 85.3817204,96.7555605 84.6260454,97.1473724" id="路径" fill="#3D93FA" fill-rule="nonzero"></path>
                                <path d="M84.6304155,97.1473724 L64.3739413,107.567121 C63.5232933,108.113887 63.0136196,108.987475 63,109.922074 C63,110.828139 63.6182736,111.244439 64.3739413,110.852628 L84.6258357,100.432879 C85.4764836,99.8861126 85.9861574,99.0125253 86,98.0779258 C86.0135164,97.1718607 85.390663,96.7555605 84.6304155,97.1473724 Z" id="路径" stroke="#223893" stroke-width="1.2" stroke-linecap="round" stroke-linejoin="round"></path>
                                <path d="M121.731602,87.3929278 L122.268398,87.1618176 C123.232323,86.7338357 124,87.1874965 124,88.1376164 C123.982835,89.1176581 123.340484,90.0337211 122.268398,90.6070722 L121.731602,90.8381824 C120.767677,91.2661643 120,90.8125035 120,89.8623836 C120.017165,88.8823419 120.659516,87.9662789 121.731602,87.3929278" id="路径" fill="#80C0FF" fill-rule="nonzero"></path>
                                <path d="M121.731602,87.3929278 L122.268398,87.1618176 C123.232323,86.7338357 124,87.1874965 124,88.1376164 C123.982835,89.1176581 123.340484,90.0337211 122.268398,90.6070722 L121.731602,90.8381824 C120.767677,91.2661643 120,90.8125035 120,89.8623836 C120.017165,88.8823419 120.659516,87.9662789 121.731602,87.3929278 L121.731602,87.3929278 Z" id="路径" stroke="#223893" stroke-width="1.2" stroke-linecap="round" stroke-linejoin="round"></path>
                                <path d="M42.245283,128.732693 L50.754717,124.146575 C51.4479245,123.758907 52,124.169835 52,125.030459 C51.9876558,125.918187 51.5257088,126.747962 50.754717,127.267307 L42.245283,131.853425 C41.5520755,132.241093 41,131.830165 41,130.969541 C41.0123442,130.081813 41.4742912,129.252038 42.245283,128.732693" id="路径" fill="#E0E8F7" fill-rule="nonzero"></path>
                                <path d="M42.245283,128.732693 L50.754717,124.146575 C51.4479245,123.758907 52,124.169835 52,125.030459 C51.9876558,125.918187 51.5257088,126.747962 50.754717,127.267307 L42.245283,131.853425 C41.5520755,132.241093 41,131.830165 41,130.969541 C41.0123442,130.081813 41.4742912,129.252038 42.245283,128.732693 L42.245283,128.732693 Z" id="路径" stroke="#223893" stroke-width="1.2" stroke-linecap="round"></path>
                                <path d="M102.441318,95.5779932 L113.558682,90.1535153 C114.361016,89.7474916 115,90.1778768 115,91.0792496 C114.985713,92.009009 114.451045,92.8780722 113.558682,93.4220068 L102.441318,98.8464847 C101.638984,99.2525084 101,98.8221232 101,97.9207504 C101.014287,96.990991 101.548955,96.1219278 102.441318,95.5779932" id="路径" fill="#3D93FA" fill-rule="nonzero"></path>
                                <path d="M102.441318,95.5779932 L113.558682,90.1535153 C114.361016,89.7474916 115,90.1778768 115,91.0792496 C114.985713,92.009009 114.451045,92.8780722 113.558682,93.4220068 L102.441318,98.8464847 C101.638984,99.2525084 101,98.8221232 101,97.9207504 C101.014287,96.990991 101.548955,96.1219278 102.441318,95.5779932 L102.441318,95.5779932 Z" id="路径" stroke="#223893" stroke-width="1.2" stroke-linecap="round" stroke-linejoin="round"></path>
                                <path d="M58.4121699,119.515199 L96.5878301,100.156332 C97.373938,99.742858 98,100.181141 98,101.099054 C97.9860014,102.045874 97.4621465,102.930885 96.5878301,103.484801 L58.4121699,122.843668 C57.626062,123.257142 57,122.818859 57,121.900946 C57.0139986,120.954126 57.5378535,120.069115 58.4121699,119.515199" id="路径" fill="#E0E8F7" fill-rule="nonzero"></path>
                                <path d="M58.4121699,119.515199 L96.5878301,100.156332 C97.373938,99.742858 98,100.181141 98,101.099054 C97.9860014,102.045874 97.4621465,102.930885 96.5878301,103.484801 L58.4121699,122.843668 C57.626062,123.257142 57,122.818859 57,121.900946 C57.0139986,120.954126 57.5378535,120.069115 58.4121699,119.515199 L58.4121699,119.515199 Z" id="路径" stroke="#223893" stroke-width="1.2" stroke-linecap="round"></path>
                                <path d="M121.731602,95.3929278 L122.268398,95.1618176 C123.232323,94.7338357 124,95.1874965 124,96.1376164 C123.982835,97.1176581 123.340484,98.0337211 122.268398,98.6070722 L121.731602,98.8381824 C120.767677,99.2661643 120,98.8125035 120,97.8623836 C120.017165,96.8823419 120.659516,95.9662789 121.731602,95.3929278" id="路径" fill="#3D93FA" fill-rule="nonzero"></path>
                                <path d="M121.731602,95.3929278 L122.268398,95.1618176 C123.232323,94.7338357 124,95.1874965 124,96.1376164 C123.982835,97.1176581 123.340484,98.0337211 122.268398,98.6070722 L121.731602,98.8381824 C120.767677,99.2661643 120,98.8125035 120,97.8623836 C120.017165,96.8823419 120.659516,95.9662789 121.731602,95.3929278 L121.731602,95.3929278 Z" id="路径" stroke="#223893" stroke-width="1.2" stroke-linecap="round" stroke-linejoin="round"></path>
                                <path d="M52.3523666,131.536889 L79.6476334,117.155359 C80.4004508,116.744458 81,117.180013 81,118.092213 C80.9865943,119.033141 80.4849238,119.912643 79.6476334,120.463111 L52.3523666,134.844641 C51.5995492,135.255542 51,134.819987 51,133.907787 C51.0134057,132.966859 51.5150762,132.087357 52.3523666,131.536889" id="路径" fill="#E0E8F7" fill-rule="nonzero"></path>
                                <path d="M52.3523666,131.536889 L79.6476334,117.155359 C80.4004508,116.744458 81,117.180013 81,118.092213 C80.9865943,119.033141 80.4849238,119.912643 79.6476334,120.463111 L52.3523666,134.844641 C51.5995492,135.255542 51,134.819987 51,133.907787 C51.0134057,132.966859 51.5150762,132.087357 52.3523666,131.536889 Z" id="路径" stroke="#223893" stroke-width="1.2" stroke-linecap="round"></path>
                                <path d="M108.207591,102.261149 L112.792409,100.122868 C113.464635,99.7979014 114,100.142366 114,100.863792 C113.988029,101.607938 113.540065,102.303505 112.792409,102.738851 L108.207591,104.877132 C107.535365,105.202099 107,104.857634 107,104.136208 C107.011971,103.392062 107.459935,102.696495 108.207591,102.261149" id="路径" fill="#E0E8F7" fill-rule="nonzero"></path>
                                <path d="M108.207591,102.261149 L112.792409,100.122868 C113.464635,99.7979014 114,100.142366 114,100.863792 C113.988029,101.607938 113.540065,102.303505 112.792409,102.738851 L108.207591,104.877132 C107.535365,105.202099 107,104.857634 107,104.136208 C107.011971,103.392062 107.459935,102.696495 108.207591,102.261149 L108.207591,102.261149 Z" id="路径" stroke="#223893" stroke-width="1.2" stroke-linecap="round"></path>
                                <path d="M85.4469453,113.551797 L100.553055,106.154691 C101.358521,105.745559 102,106.179238 102,107.087511 C101.985657,108.024388 101.448902,108.900105 100.553055,109.448203 L85.4469453,116.845309 C84.6414791,117.254441 84,116.820762 84,115.912489 C84.0143433,114.975612 84.5510984,114.099895 85.4469453,113.551797" id="路径" fill="#80C0FF" fill-rule="nonzero"></path>
                                <path d="M85.4469453,113.551797 L100.553055,106.154691 C101.358521,105.745559 102,106.179238 102,107.087511 C101.985657,108.024388 101.448902,108.900105 100.553055,109.448203 L85.4469453,116.845309 C84.6414791,117.254441 84,116.820762 84,115.912489 C84.0143433,114.975612 84.5510984,114.099895 85.4469453,113.551797 L85.4469453,113.551797 Z" id="路径" stroke="#223893" stroke-width="1.2" stroke-linecap="round" stroke-linejoin="round"></path>
                            </g>
                        </g>
                    </g>
                </g>
            </g>
        </g>
    </g>
</svg>