<?xml version="1.0" encoding="UTF-8"?>
<svg width="167px" height="150px" viewBox="0 0 167 150" version="1.1" xmlns="http://www.w3.org/2000/svg" xmlns:xlink="http://www.w3.org/1999/xlink">
    <!-- Generator: Sketch 57 (83077) - https://sketch.com -->
    <title>资源 3@3x</title>
    <desc>Created with Sketch.</desc>
    <defs>
        <path d="M0,0 L180,0 L180,168 C180,174.627417 174.627417,180 168,180 L0,180 L0,180 L0,0 Z" id="path-1"></path>
    </defs>
    <g id="首页改版-0228" stroke="none" stroke-width="1" fill="none" fill-rule="evenodd">
        <g id="1_01-办事大厅_首页改版_方案一" transform="translate(-330.000000, -1682.000000)">
            <g id="card_公告信息" transform="translate(165.000000, 1652.000000)">
                <g id="资源-3@3x" transform="translate(152.000000, 0.000000)">
                    <mask id="mask-2" fill="white">
                        <use xlink:href="#path-1"></use>
                    </mask>
                    <g id="蒙版"></g>
                    <g opacity="0.6" mask="url(#mask-2)">
                        <g transform="translate(14.000000, 31.000000)">
                            <path d="M133,121.181396 C132.99547,122.521404 132.737093,123.849409 132.237523,125.10037 C131.835342,126.098599 131.311013,127.047249 130.675601,127.926297 C129.072089,130.147937 126.650647,132.245166 123.397412,134.049138 C122.796673,134.382384 122.177449,134.7023 121.548983,135 L121.548983,119.586258 C120.962107,119.661794 120.375231,119.728443 119.783734,119.799536 C116.773876,120.14315 113.742452,120.406784 110.689464,120.59044 C107.235983,120.797793 103.767098,120.902951 100.28281,120.905913 C96.9648799,120.905913 93.6792976,120.814085 90.4260628,120.630429 C87.1728281,120.446774 83.9149723,120.169809 80.6524954,119.799536 C77.6395564,119.455922 74.6712877,119.032329 71.7476895,118.528758 L71.5166359,118.488768 C70.3798521,118.293264 69.2476895,118.084429 68.12939,117.857822 L68,117.857822 C68,117.800059 68.0415896,117.742297 68.0600739,117.684534 C68.896488,115.311822 70.5924214,113.010203 73.1432532,110.93519 C74.3603517,109.959738 75.6638386,109.088498 77.038817,108.331428 C77.6210721,108.011512 78.2171904,107.700482 78.8271719,107.411669 C82.4497633,105.718894 86.3011092,104.522394 90.2689464,103.857044 C97.0801815,102.673908 104.060592,102.716093 110.855823,103.981456 C114.584105,104.65887 118.201892,105.810931 121.613678,107.407225 C122.229821,107.703444 122.82594,108.01003 123.402033,108.326984 C124.776629,109.084114 126.078708,109.956933 127.292976,110.93519 C129.848429,113.005759 131.548983,115.302936 132.376155,117.680091 C132.785003,118.811759 132.994293,120.001166 132.995379,121.199169" id="路径" stroke="none" fill="#E0E8F7" fill-rule="nonzero"></path>
                            <path d="M171.685923,82.4110459 C132.62175,60.5407015 69.3053508,60.5274468 30.2685148,82.3845364 C10.7500968,93.3064538 1,107.626006 1,121.949977 C1,123.980764 1.19680943,126.007058 1.58318336,128.002982 C3.95236575,140.259211 13.52933,152.16198 30.314076,161.581692 C56.4069751,176.19285 93.3252154,181.048508 126.594003,176.161922 C128.841689,175.832026 131.069632,175.456474 133.277832,175.035268 L125.208943,161.780514 C117.228274,163.066691 109.151635,163.711003 101.061507,163.706871 C77.515479,163.706871 54.7166546,158.294513 38.5059797,148.85271 C27.9858987,142.729014 20.9831423,135.38588 18.4590518,128.03391 C17.7723723,126.08473 17.4154203,124.040652 17.4020319,121.980905 C17.4020319,112.733505 25.0790941,102.955915 38.4695308,95.1621193 C54.6483128,85.7424074 77.4152444,80.338886 100.933936,80.338886 C124.452627,80.338886 147.278788,85.7512439 163.484907,95.1886289 C176.90268,103.000097 184.597967,112.795361 184.597967,122.060434 C184.581137,124.108349 184.224225,126.140263 183.540947,128.078092 C181.581816,133.759963 176.952798,139.432998 170.095837,144.540497 L179.46322,147.597927 L187.445542,150.200277 C194.612319,143.312223 198.917852,135.761431 200.416816,128.078092 C200.805273,126.086919 201,124.064835 201,122.038342 C201,107.701117 191.227122,93.363891 171.685923,82.4243006" id="路径" stroke="none" fill="#E0E8F7" fill-rule="nonzero"></path>
                            <path d="M185,100.920622 C184.986617,102.98941 184.62794,105.042444 183.937897,107 C181.387934,99.6106023 174.356078,92.230086 163.794561,86.0752151 C147.501349,76.6031085 124.588304,71.1676381 100.933619,71.1676381 C77.2789329,71.1676381 54.4254026,76.5986678 38.1688149,86.0663336 C27.6393438,92.2078823 20.6029103,99.5706356 18.0621032,106.93783 C17.3718865,104.978785 17.0132114,102.924263 17,100.854011 C17,91.5595337 24.7139821,81.7321676 38.1688149,73.8986955 C54.4254026,64.4310297 77.301823,59 100.933619,59 C124.565414,59 147.501349,64.4399112 163.785405,73.92534 C177.267706,81.7765751 185,91.6217041 185,100.933944" id="路径" stroke="none" fill="#E0E8F7" fill-rule="nonzero"></path>
                            <path d="M185,100.920622 C184.986617,102.98941 184.62794,105.042444 183.937897,107 C181.387934,99.6106023 174.356078,92.230086 163.794561,86.0752151 C147.501349,76.6031085 124.588304,71.1676381 100.933619,71.1676381 C77.2789329,71.1676381 54.4254026,76.5986678 38.1688149,86.0663336 C27.6393438,92.2078823 20.6029103,99.5706356 18.0621032,106.93783 C17.3718865,104.978785 17.0132114,102.924263 17,100.854011 C17,91.5595337 24.7139821,81.7321676 38.1688149,73.8986955 C54.4254026,64.4310297 77.301823,59 100.933619,59 C124.565414,59 147.501349,64.4399112 163.785405,73.92534 C177.267706,81.7765751 185,91.6217041 185,100.920622 Z" id="路径" stroke="#223893" stroke-width="1.2" fill="none" stroke-linecap="round" stroke-linejoin="round"></path>
                            <path d="M171.685881,60.4110459 C132.621718,38.5407015 69.3053339,38.5274468 30.2685075,60.3845364 C10.7500943,71.293199 1,85.6260065 1,99.9499775 C1,101.980764 1.19680938,104.007058 1.58318321,106.002982 C3.95236502,118.259211 13.5293269,130.16198 30.3140687,139.581692 C56.4069614,154.19285 93.3251925,159.048508 126.593972,154.161922 C128.841658,153.832026 131.0696,153.456474 133.277799,153.035268 L125.208912,139.780514 C117.228245,141.066691 109.151608,141.711003 101.061482,141.706871 C77.5154601,141.706871 54.7166413,136.294513 38.5059704,126.85271 C27.985892,120.729014 20.9831373,113.38588 18.4590475,106.03391 C17.7723681,104.08473 17.4154162,102.040652 17.4020279,99.9809052 C17.4020279,90.7335051 25.0790881,80.9559148 38.4695215,73.1621193 C54.6482995,63.7424074 77.4152254,58.338886 100.933911,58.338886 C124.452596,58.338886 147.278752,63.7512439 163.484867,73.1886289 C176.902637,81.0000973 184.597922,90.7953606 184.597922,100.060434 C184.584522,102.118737 184.227564,104.16136 183.540902,106.10902 C181.581771,111.790891 176.952754,117.463926 170.095795,122.571425 L179.463176,125.628854 L187.445496,128.231205 C194.612271,121.347569 198.936028,113.796777 200.416766,106.100183 C200.808352,104.093059 201.003614,102.05456 201,100.011833 C201,85.6746073 191.227074,71.3373815 171.685881,60.3977911" id="路径" stroke="none" fill="#FFFFFF" fill-rule="nonzero"></path>
                            <path d="M171.685881,60.4110459 C132.621718,38.5407015 69.3053339,38.5274468 30.2685075,60.3845364 C10.7500943,71.293199 1,85.6260065 1,99.9499775 C1,101.980764 1.19680938,104.007058 1.58318321,106.002982 C3.95236502,118.259211 13.5293269,130.16198 30.3140687,139.581692 C56.4069614,154.19285 93.3251925,159.048508 126.593972,154.161922 C128.841658,153.832026 131.0696,153.456474 133.277799,153.035268 L125.208912,139.780514 C117.228245,141.066691 109.151608,141.711003 101.061482,141.706871 C77.5154601,141.706871 54.7166413,136.294513 38.5059704,126.85271 C27.985892,120.729014 20.9831373,113.38588 18.4590475,106.03391 C17.7723681,104.08473 17.4154162,102.040652 17.4020279,99.9809052 C17.4020279,90.7335051 25.0790881,80.9559148 38.4695215,73.1621193 C54.6482995,63.7424074 77.4152254,58.338886 100.933911,58.338886 C124.452596,58.338886 147.278752,63.7512439 163.484867,73.1886289 C176.902637,81.0000973 184.597922,90.7953606 184.597922,100.060434 C184.584522,102.118737 184.227564,104.16136 183.540902,106.10902 C181.581771,111.790891 176.952754,117.463926 170.095795,122.571425 L179.463176,125.628854 L187.445496,128.231205 C194.612271,121.347569 198.936028,113.796777 200.416766,106.100183 C200.808352,104.093059 201.003614,102.05456 201,100.011833 C201,85.687862 191.227074,71.3506363 171.685881,60.4110459 Z" id="路径" stroke="#223893" stroke-width="1.2" fill="none" stroke-linecap="round" stroke-linejoin="round"></path>
                            <path d="M118.282902,97.3503083 C115.339735,97.6899259 112.375481,97.9504946 109.39014,98.1320144 C106.014686,98.3384199 102.61212,98.4438185 99.2140725,98.4438185 C95.9696603,98.4438185 92.7568789,98.3530586 89.5757282,98.1715388 C86.3493908,97.9929468 83.1637215,97.7192033 80.0187202,97.3503083 C77.072541,97.0136184 74.1700422,96.5949519 71.3112241,96.0943087 L71.0852901,96.0547842 C69.9736948,95.8615535 68.8666183,95.6551479 67.7730977,95.431176 L67.6465747,95.4092179 L67.1450012,95.308211 C67.1302092,95.3121324 67.1146065,95.3121324 67.0998144,95.308211 C54.5198096,92.747904 43.0242879,88.6637094 33.3362382,83.2268997 C29.2273905,80.9523299 25.3601496,78.2882903 21.7910111,75.2736992 C14.4662309,68.9980925 9.8436214,61.9715211 8.45186799,54.7385441 C8.15200029,53.1758452 8,51.589642 8,50 L8,100.556182 C8,102.145824 8.15200029,103.732027 8.45186799,105.294726 C10.4762366,115.790667 19.2966997,125.904538 33.3362382,133.774298 C50.8280481,143.593932 74.2212539,149 99.2140725,149 C106.164729,148.99783 113.10793,148.557746 120,147.682518 L120,97.1395112 C119.426128,97.2141685 118.852255,97.2800426 118.273864,97.3503083" id="路径" stroke="none" fill="#80C0FF" fill-rule="nonzero"></path>
                            <path d="M118.282902,97.3503083 C115.339735,97.6899259 112.375481,97.9504946 109.39014,98.1320144 C106.014686,98.3384199 102.61212,98.4438185 99.2140725,98.4438185 C95.9696603,98.4438185 92.7568789,98.3530586 89.5757282,98.1715388 C86.3493908,97.9929468 83.1637215,97.7192033 80.0187202,97.3503083 C77.072541,97.0136184 74.1700422,96.5949519 71.3112241,96.0943087 L71.0852901,96.0547842 C69.9736948,95.8615535 68.8666183,95.6551479 67.7730977,95.431176 L67.6465747,95.4092179 L67.1450012,95.308211 C67.1302092,95.3121324 67.1146065,95.3121324 67.0998144,95.308211 C54.5198096,92.747904 43.0242879,88.6637094 33.3362382,83.2268997 C29.2273905,80.9523299 25.3601496,78.2882903 21.7910111,75.2736992 C14.4662309,68.9980925 9.8436214,61.9715211 8.45186799,54.7385441 C8.15200029,53.1758452 8,51.589642 8,50 L8,100.556182 C8,102.145824 8.15200029,103.732027 8.45186799,105.294726 C10.4762366,115.790667 19.2966997,125.904538 33.3362382,133.774298 C50.8280481,143.593932 74.2212539,149 99.2140725,149 C106.164729,148.99783 113.10793,148.557746 120,147.682518 L120,97.1395112 C119.45324,97.2141685 118.861293,97.2800426 118.282902,97.3503083 Z" id="路径" stroke="#223893" stroke-width="1.2" fill="none" stroke-linecap="round" stroke-linejoin="round"></path>
                            <path d="M71,129 C69.3174603,128.690722 67.6507937,128.357388 66,128" id="路径" stroke="#223893" stroke-width="1.2" fill="none" stroke-linecap="round" stroke-linejoin="round"></path>
                            <path d="M82,129 C79.6384181,128.72549 77.3050847,128.392157 75,128" id="路径" stroke="#223893" stroke-width="1.2" fill="none" stroke-linecap="round" stroke-linejoin="round"></path>
                            <path d="M68,117.85 L66,117.15" id="路径" stroke="#223893" stroke-width="1.2" fill="none" stroke-linecap="round" stroke-linejoin="round"></path>
                            <path d="M78,120 C75.6307692,119.444444 73.2974359,118.777778 71,118" id="路径" stroke="#223893" stroke-width="1.2" fill="none" stroke-linecap="round" stroke-linejoin="round"></path>
                            <path d="M75,124.08 L79,124.92" id="路径" stroke="#223893" stroke-width="1.2" fill="none" stroke-linecap="round" stroke-linejoin="round"></path>
                            <path d="M65,121 C66.9714286,121.736462 68.9714286,122.403129 71,123" id="路径" stroke="#223893" stroke-width="1.2" fill="none" stroke-linecap="round" stroke-linejoin="round"></path>
                            <path d="M193,48.5459863 C193,50.1303342 192.849585,51.7113151 192.546436,53.2681188 C191.512332,58.6327781 188.795544,63.8302044 184.450496,68.7195699 L184.450496,79 C180.259656,74.2690658 174.585695,69.8505933 167.564678,65.9162164 C149.989459,56.0670715 126.518037,50.6628043 101.431962,50.6628043 C76.345887,50.6628043 52.9288912,56.0670715 35.3808849,65.894212 C31.2811052,68.1583549 27.4169318,70.8024151 23.8424697,73.7893711 C16.4903585,67.509331 11.8505005,60.4679405 10.4535541,53.2197092 C10.1525674,51.6537145 10,50.0641661 10,48.4711715 C10,36.2015487 19.0166546,24.3984179 35.399027,15.2270069 C52.9288912,5.40866804 76.3685647,0 101.431962,0 C126.495359,0 149.989459,5.41746978 167.564678,15.2534121 C183.969729,24.4424266 193,36.2631608 193,48.5459863" id="路径" stroke="none" fill="#3D93FA" fill-rule="nonzero"></path>
                            <path d="M193,48.5459863 C193,50.1303342 192.849585,51.7113151 192.546436,53.2681188 C191.512332,58.6327781 188.795544,63.8302044 184.450496,68.7195699 L184.450496,79 C180.259656,74.2690658 174.585695,69.8505933 167.564678,65.9162164 C149.989459,56.0670715 126.518037,50.6628043 101.431962,50.6628043 C76.345887,50.6628043 52.9288912,56.0670715 35.3808849,65.894212 C31.2811052,68.1583549 27.4169318,70.8024151 23.8424697,73.7893711 C16.4903585,67.509331 11.8505005,60.4679405 10.4535541,53.2197092 C10.1525674,51.6537145 10,50.0641661 10,48.4711715 C10,36.2015487 19.0166546,24.3984179 35.399027,15.2270069 C52.9288912,5.40866804 76.3685647,0 101.431962,0 C126.495359,0 149.989459,5.41746978 167.564678,15.2534121 C183.969729,24.4424266 193,36.2631608 193,48.5459863 Z" id="路径" stroke="#223893" stroke-width="1.2" fill="none" stroke-linecap="round" stroke-linejoin="round"></path>
                            <path d="M162,22 C163.031124,22.4900144 164.041743,22.9929998 165.031856,23.5089561 C168.154085,25.120346 171.151561,26.9556507 174,29" id="路径" stroke="#223893" stroke-width="1.2" fill="none" stroke-linecap="round" stroke-linejoin="round"></path>
                            <path d="M148,16 C152.08336,17.406899 156.090082,19.0763664 160,21" id="路径" stroke="#223893" stroke-width="1.2" fill="none" stroke-linecap="round" stroke-linejoin="round"></path>
                            <path d="M135,14 C137.385363,14.9174312 139.718696,15.9174312 142,17" id="路径" stroke="#223893" stroke-width="1.2" fill="none" stroke-linecap="round" stroke-linejoin="round"></path>
                            <path d="M108,9 C116.393322,9.46571109 124.749905,10.8027645 133,13" id="路径" stroke="#223893" stroke-width="1.2" fill="none" stroke-linecap="round" stroke-linejoin="round"></path>
                            <path d="M87,10 C91.4635485,9.33333333 96.0023517,9 100.597596,9 C102.071335,9 103.538803,9.03395062 105,9.10185185" id="路径" stroke="#223893" stroke-width="1.2" fill="none" stroke-linecap="round" stroke-linejoin="round"></path>
                            <path d="M66,14 C71.9451539,12.1733607 77.9544587,10.8379597 84,10" id="路径" stroke="#223893" stroke-width="1.2" fill="none" stroke-linecap="round" stroke-linejoin="round"></path>
                            <path d="M55,17 C57.5894701,15.880597 60.2561368,14.880597 63,14" id="路径" stroke="#223893" stroke-width="1.2" fill="none" stroke-linecap="round" stroke-linejoin="round"></path>
                            <path d="M35,24 C39.8286996,21.6469589 44.8432942,19.641121 50,18" id="路径" stroke="#223893" stroke-width="1.2" fill="none" stroke-linecap="round" stroke-linejoin="round"></path>
                            <path d="M165,30 C170.064071,32.4264057 174.769721,35.451467 179,39" id="路径" stroke="#223893" stroke-width="1.2" fill="none" stroke-linecap="round" stroke-linejoin="round"></path>
                            <path d="M154,24 C157.406339,25.4627355 160.744253,27.1316925 164,29" id="路径" stroke="#223893" stroke-width="1.2" fill="none" stroke-linecap="round" stroke-linejoin="round"></path>
                            <path d="M139,21 C142.45243,22.1596639 145.792688,23.4929972 149,25" id="路径" stroke="#223893" stroke-width="1.2" fill="none" stroke-linecap="round" stroke-linejoin="round"></path>
                            <path d="M122,18 C126.805636,18.75 131.485751,19.7535971 136,21" id="路径" stroke="#223893" stroke-width="1.2" fill="none" stroke-linecap="round" stroke-linejoin="round"></path>
                            <path d="M76,18 C82.627228,16.8601672 89.305794,16.1923106 96,16" id="路径" stroke="#223893" stroke-width="1.2" fill="none" stroke-linecap="round" stroke-linejoin="round"></path>
                            <path d="M63,22 C66.2405362,20.8405172 69.5738695,19.8405172 73,19" id="路径" stroke="#223893" stroke-width="1.2" fill="none" stroke-linecap="round" stroke-linejoin="round"></path>
                            <path d="M47,26 C51.251227,24.0452046 55.5913932,22.3759099 60,21" id="路径" stroke="#223893" stroke-width="1.2" fill="none" stroke-linecap="round" stroke-linejoin="round"></path>
                            <path d="M37,30 C38.9195781,28.5836791 40.9195781,27.2503458 43,26" id="路径" stroke="#223893" stroke-width="1.2" fill="none" stroke-linecap="round" stroke-linejoin="round"></path>
                            <path d="M162,36 C163.031124,36.4897119 164.041743,36.9923868 165.031856,37.5080247 C168.154134,39.1199587 171.151603,40.9555702 174,43" id="路径" stroke="#223893" stroke-width="1.2" fill="none" stroke-linecap="round" stroke-linejoin="round"></path>
                            <path d="M148,31 C152.083426,32.4066865 156.090158,34.0761585 160,36" id="路径" stroke="#223893" stroke-width="1.2" fill="none" stroke-linecap="round" stroke-linejoin="round"></path>
                            <path d="M135,27 C137.385363,27.9174312 139.718696,28.9174312 142,30" id="路径" stroke="#223893" stroke-width="1.2" fill="none" stroke-linecap="round" stroke-linejoin="round"></path>
                            <path d="M108,24 C116.393432,24.4664617 124.750034,25.803518 133,28" id="路径" stroke="#223893" stroke-width="1.2" fill="none" stroke-linecap="round" stroke-linejoin="round"></path>
                            <path d="M87,25 C91.4635485,24.3333333 96.0023517,24 100.597596,24 C102.071335,24 103.538803,24.0339506 105,24.1018519" id="路径" stroke="#223893" stroke-width="1.2" fill="none" stroke-linecap="round" stroke-linejoin="round"></path>
                            <path d="M66,28 C71.9451539,26.1733607 77.9544587,24.8379597 84,24" id="路径" stroke="#223893" stroke-width="1.2" fill="none" stroke-linecap="round" stroke-linejoin="round"></path>
                            <path d="M55,31 C57.5894701,29.880597 60.2561368,28.880597 63,28" id="路径" stroke="#223893" stroke-width="1.2" fill="none" stroke-linecap="round" stroke-linejoin="round"></path>
                            <path d="M35,37 C39.8286042,34.6467719 44.8432144,32.6409278 50,31" id="路径" stroke="#223893" stroke-width="1.2" fill="none" stroke-linecap="round" stroke-linejoin="round"></path>
                            <path d="M165,44 C170.064071,46.4264057 174.769721,49.451467 179,53" id="路径" stroke="#223893" stroke-width="1.2" fill="none" stroke-linecap="round" stroke-linejoin="round"></path>
                            <path d="M154,38 C157.40651,39.46269 160.744436,41.1316529 164,43" id="路径" stroke="#223893" stroke-width="1.2" fill="none" stroke-linecap="round" stroke-linejoin="round"></path>
                            <path d="M139,35 C142.45243,36.1596639 145.792688,37.4929972 149,39" id="路径" stroke="#223893" stroke-width="1.2" fill="none" stroke-linecap="round" stroke-linejoin="round"></path>
                            <path d="M122,32 C126.805636,32.75 131.485751,33.7535971 136,35" id="路径" stroke="#223893" stroke-width="1.2" fill="none" stroke-linecap="round" stroke-linejoin="round"></path>
                            <path d="M100,30.0000469 L101.793923,30.0000469 C108.210284,29.9954443 114.622033,30.3292682 121,31" id="路径" stroke="#223893" stroke-width="1.2" fill="none" stroke-linecap="round" stroke-linejoin="round"></path>
                            <path d="M76,32 C82.627228,30.8601672 89.305794,30.1923106 96,30" id="路径" stroke="#223893" stroke-width="1.2" fill="none" stroke-linecap="round" stroke-linejoin="round"></path>
                            <path d="M63,36 C66.2405362,34.8405172 69.5738695,33.8405172 73,33" id="路径" stroke="#223893" stroke-width="1.2" fill="none" stroke-linecap="round" stroke-linejoin="round"></path>
                            <path d="M47,40 C51.251227,38.0452046 55.5913932,36.3759099 60,35" id="路径" stroke="#223893" stroke-width="1.2" fill="none" stroke-linecap="round" stroke-linejoin="round"></path>
                            <path d="M37,44 C38.9195781,42.5836791 40.9195781,41.2503458 43,40" id="路径" stroke="#223893" stroke-width="1.2" fill="none" stroke-linecap="round" stroke-linejoin="round"></path>
                            <path d="M162,49 C163.031124,49.4897119 164.041743,49.9923868 165.031856,50.5080247 C168.154134,52.1199587 171.151603,53.9555702 174,56" id="路径" stroke="#223893" stroke-width="1.2" fill="none" stroke-linecap="round" stroke-linejoin="round"></path>
                            <path d="M148,45 C152.083426,46.4066865 156.090158,48.0761585 160,50" id="路径" stroke="#223893" stroke-width="1.2" fill="none" stroke-linecap="round" stroke-linejoin="round"></path>
                            <path d="M135,41 C137.385363,41.9174312 139.718696,42.9174312 142,44" id="路径" stroke="#223893" stroke-width="1.2" fill="none" stroke-linecap="round" stroke-linejoin="round"></path>
                            <path d="M108,37 C116.393432,37.4664617 124.750034,38.803518 133,41" id="路径" stroke="#223893" stroke-width="1.2" fill="none" stroke-linecap="round" stroke-linejoin="round"></path>
                            <path d="M87,38 C91.4635485,37.3333333 96.0023517,37 100.597596,37 C102.071335,37 103.538803,37.0339506 105,37.1018519" id="路径" stroke="#223893" stroke-width="1.2" fill="none" stroke-linecap="round" stroke-linejoin="round"></path>
                            <path d="M55,44 C57.5894701,42.880597 60.2561368,41.880597 63,41" id="路径" stroke="#223893" stroke-width="1.2" fill="none" stroke-linecap="round" stroke-linejoin="round"></path>
                            <path d="M35,51 C39.8286042,48.6467719 44.8432144,46.6409278 50,45" id="路径" stroke="#223893" stroke-width="1.2" fill="none" stroke-linecap="round" stroke-linejoin="round"></path>
                            <path d="M165,58 C170.064071,60.4264057 174.769721,63.451467 179,67" id="路径" stroke="#223893" stroke-width="1.2" fill="none" stroke-linecap="round" stroke-linejoin="round"></path>
                            <path d="M154,53 C157.406507,54.4626991 160.744432,56.1316618 164,58" id="路径" stroke="#223893" stroke-width="1.2" fill="none" stroke-linecap="round" stroke-linejoin="round"></path>
                            <path d="M139,48 C142.45243,49.1596639 145.792688,50.4929972 149,52" id="路径" stroke="#223893" stroke-width="1.2" fill="none" stroke-linecap="round" stroke-linejoin="round"></path>
                            <path d="M122,46 C126.805636,46.75 131.485751,47.7535971 136,49" id="路径" stroke="#223893" stroke-width="1.2" fill="none" stroke-linecap="round" stroke-linejoin="round"></path>
                            <path d="M100,45.0000514 L101.793923,45.0000514 C108.21029,44.9952334 114.622052,45.3290565 121,46" id="路径" stroke="#223893" stroke-width="1.2" fill="none" stroke-linecap="round" stroke-linejoin="round"></path>
                            <path d="M76,47 C82.6275709,45.854737 89.3061481,45.1868793 96,45" id="路径" stroke="#223893" stroke-width="1.2" fill="none" stroke-linecap="round" stroke-linejoin="round"></path>
                            <path d="M63,49 C66.2405362,47.8405172 69.5738695,46.8405172 73,46" id="路径" stroke="#223893" stroke-width="1.2" fill="none" stroke-linecap="round" stroke-linejoin="round"></path>
                            <path d="M47,54 C51.2511562,52.044967 55.5913337,50.3756679 60,49" id="路径" stroke="#223893" stroke-width="1.2" fill="none" stroke-linecap="round" stroke-linejoin="round"></path>
                            <path d="M37,59 C38.9195781,57.5836791 40.9195781,56.2503458 43,55" id="路径" stroke="#223893" stroke-width="1.2" fill="none" stroke-linecap="round" stroke-linejoin="round"></path>
                            <path d="M133,153.956609 L133,166.036909 C97.8866807,172.652626 57.4823132,168.193632 29.4695347,152.624645 C9.82623222,141.704301 0,127.38789 0,113.080299 L0,101 C0.00159252636,103.027214 0.197883908,105.049943 0.586367237,107.042355 C2.96848414,119.277021 12.5977336,131.158849 29.4741157,140.561988 C55.7094685,155.147438 92.8292633,159.994554 126.279682,155.116565 C128.539639,154.787249 130.779745,154.412359 133,153.991893" id="路径" stroke="none" fill="#E0E8F7" fill-rule="nonzero"></path>
                            <path d="M133,153.956609 L133,166.036909 C97.8866807,172.652626 57.4823132,168.193632 29.4695347,152.624645 C9.82623222,141.704301 0,127.38789 0,113.080299 L0,101 C0.00159252636,103.027214 0.197883908,105.049943 0.586367237,107.042355 C2.96848414,119.277021 12.5977336,131.158849 29.4741157,140.561988 C55.7094685,155.147438 92.8292633,159.994554 126.279682,155.116565 C128.539639,154.760787 130.779745,154.374135 133,153.956609 Z" id="路径" stroke="#223893" stroke-width="1.2" fill="none" stroke-linecap="round" stroke-linejoin="round"></path>
                            <path d="M23,84 L23,92.8886904 C23.0010452,93.7054966 23.3206779,94.4894634 23.890527,95.0728962 C26.8510222,98.0824884 30.3492301,100.506835 34.2028292,102.219582 C34.6939299,102.436659 35.007846,102.92749 34.9998508,103.465785 L34.9998508,109" id="路径" stroke="#223893" stroke-width="1.2" fill="none" stroke-linecap="round" stroke-linejoin="round"></path>
                            <path d="M32.4634498,94.8539925 C22.8618005,90.1856736 17.892947,83.9497324 16.4382972,81.8984359 C16.1355477,81.4629907 15.9834861,80.9564352 16.0014221,80.443095 L16.1022395,77.4201318 C16.1079234,77.2323095 16.2479608,77.0693466 16.4485921,77.0170778 C16.6492235,76.964809 16.864402,77.0352304 16.9807904,77.1912503 C18.853112,79.7089468 24.0091976,85.6728214 33.4764238,90.0517995 C33.8052607,90.2028159 34.0087066,90.5100663 33.9997137,90.8420885 L33.8892947,94.150074 C33.8838659,94.4561693 33.6987151,94.7368096 33.4026253,94.8877377 C33.1065356,95.0386657 32.7437519,95.0373283 32.4490473,94.8842222" id="路径" stroke="none" fill="#3D93FA" fill-rule="nonzero"></path>
                            <path d="M32.4634498,94.8905697 C22.8618005,90.2126869 17.892947,83.9639702 16.4382972,81.9084712 C16.1355477,81.472134 15.9834861,80.9645407 16.0014221,80.4501488 L16.1022395,77.4209925 C16.1079234,77.2327854 16.2479608,77.0694887 16.4485921,77.0171128 C16.6492235,76.9647369 16.864402,77.0353026 16.9807904,77.1916421 C18.853112,79.7144966 24.0091976,85.6905893 33.4764238,90.0785386 C33.8052607,90.2298643 34.0087066,90.5377442 33.9997137,90.8704466 L33.8892947,94.185209 C33.8699467,94.4825098 33.6823791,94.7499606 33.3927372,94.8932454 C33.1030954,95.0365303 32.7520702,95.0355196 32.4634498,94.8905697 Z" id="路径" stroke="#223893" stroke-width="1.2" fill="none" stroke-linecap="round" stroke-linejoin="round"></path>
                            <path d="M40,114.233087 L40,119.134364 C40.0004164,119.417092 39.8547845,119.682145 39.6100347,119.844106 C39.3652849,120.006066 39.0523546,120.044463 38.7720892,119.946921 C34.6020666,118.422618 30.7861916,116.142612 27.538311,113.234678 C27.2734471,112.998876 26.8860663,112.934348 26.5521112,113.070401 C26.2181561,113.206454 26.001286,113.517154 26,113.861385 L26,117.893917" id="路径" stroke="#223893" stroke-width="1.2" fill="none" stroke-linecap="round" stroke-linejoin="round"></path>
                            <path d="M32.463333,126.84971 C22.8617518,122.182511 17.8929336,115.948065 16.4382941,113.897261 C16.1355467,113.46192 15.9834862,112.955486 16.0014221,112.442269 L16.1022387,109.420031 C16.1079226,109.232254 16.247959,109.06933 16.448589,109.017074 C16.6492189,108.964817 16.8643959,109.035222 16.9807834,109.191204 C18.8530917,111.708297 24.0091408,117.670741 33.4762998,122.048669 C33.8067294,122.200326 34.0104515,122.509603 33.9995859,122.843086 L33.8891677,126.150278 C33.883739,126.4563 33.6985895,126.736873 33.4025018,126.887765 C33.1064142,127.038656 32.743633,127.037319 32.4489306,126.88425" id="路径" stroke="none" fill="#3D93FA" fill-rule="nonzero"></path>
                            <path d="M32.463333,126.890428 C22.8617518,122.212582 17.8929336,115.963915 16.4382941,113.908432 C16.1355467,113.472099 15.9834862,112.964509 16.0014221,112.450122 L16.1022387,109.420989 C16.1079226,109.232784 16.247959,109.069488 16.448589,109.017113 C16.6492189,108.964737 16.8643959,109.035302 16.9807834,109.191641 C18.8530917,111.714475 24.0091408,117.69052 33.4762998,122.078435 C33.8067294,122.230438 34.0104515,122.54042 33.9995859,122.874664 L33.8891677,126.1894 C33.868271,126.485919 33.6800904,126.752048 33.3907148,126.894323 C33.1013392,127.036597 32.7512252,127.035127 32.463333,126.890428 Z" id="路径" stroke="#223893" stroke-width="1.2" fill="none" stroke-linecap="round" stroke-linejoin="round"></path>
                            <path d="M57,133 L57,128.67111 C57.0003652,127.851348 56.4953046,127.127998 55.7565718,126.890267 C53.011445,125.978409 50.3687031,124.749745 47.8756902,123.226286 C47.33031,122.891907 46.995967,122.272306 47,121.603534 L47,118" id="路径" stroke="#223893" stroke-width="1.2" fill="none" stroke-linecap="round" stroke-linejoin="round"></path>
                            <path d="M43.4017205,127.111575 C51.6244534,131.504493 60.7403491,134.137116 70.1233405,134.828639 C70.617222,134.859516 71.0010437,135.253536 71,135.728588 L71,140.097841 C71.0006362,140.347849 70.892896,140.586845 70.7025974,140.757552 C70.5122988,140.92826 70.256594,141.015291 69.9967644,140.99779 C60.5653655,140.288437 51.4082574,137.615077 43.1626323,133.163733 C42.4424699,132.76037 42,132.020166 42,131.219843 L42,127.90353 C41.9986719,127.581371 42.17685,127.2831 42.4671895,127.121465 C42.757529,126.959831 43.1157368,126.959491 43.4064085,127.120574" id="路径" stroke="none" fill="#3D93FA" fill-rule="nonzero"></path>
                            <path d="M43.401769,127.117967 C51.6244875,131.508864 60.7403671,134.140275 70.1233421,134.831479 C70.6172227,134.862342 71.0010437,135.256181 71,135.731014 L71,140.098256 C71.0006362,140.348149 70.8928962,140.587035 70.7025979,140.757664 C70.5122997,140.928293 70.2565953,141.015284 69.9967662,140.997791 C60.5653838,140.288765 51.4082919,137.616635 43.1626813,133.16734 C42.4425201,132.764162 42,132.0243 42,131.224344 L42,127.909558 C41.9963159,127.587329 42.1725207,127.287796 42.4619815,127.124328 C42.7514424,126.960861 43.1099329,126.958434 43.401769,127.117967 L43.401769,127.117967 Z" id="路径" stroke="#223893" stroke-width="1.2" fill="none" stroke-linecap="round" stroke-linejoin="round"></path>
                            <path d="M55,107 L55,112.213824 C55.0001353,112.492798 54.8692898,112.75622 54.6454196,112.927677 C54.4215493,113.099134 54.1297121,113.159434 53.8545647,113.091085 C50.2153697,112.183155 46.6911382,110.877203 43.3478415,109.197674 C43.0634213,109.050819 42.7216716,109.060441 42.4462689,109.223059 C42.1708663,109.385678 42.0017038,109.677736 42,109.99354 L42,114" id="路径" stroke="#223893" stroke-width="1.2" fill="none" stroke-linecap="round" stroke-linejoin="round"></path>
                            <path d="M43.3883298,97.1160374 C51.6150524,101.507544 60.7353711,104.139321 70.1229152,104.830622 C70.6170363,104.861489 71.0010443,105.255382 71,105.730282 L71,110.098131 C71.0006365,110.348058 70.892844,110.586978 70.7024531,110.75763 C70.5120622,110.928283 70.2562333,111.015286 69.9962777,110.997791 C60.5647085,110.285636 51.4080839,107.611636 43.1631964,103.161752 C42.4426846,102.758519 42,102.018553 42,101.218487 L42,97.9032399 C41.9986712,97.5811838 42.1769358,97.2830087 42.4674162,97.121426 C42.7578966,96.9598434 43.1162782,96.9595038 43.4070909,97.1205357" id="路径" stroke="none" fill="#3D93FA" fill-rule="nonzero"></path>
                            <path d="M43.3883228,97.1104624 C51.6150475,101.503733 60.7353685,104.136566 70.1229149,104.828144 C70.6170362,104.859024 71.0010443,105.253076 71,105.728166 L71,110.097769 C71.0006365,110.347797 70.892844,110.586812 70.702453,110.757533 C70.5120621,110.928254 70.2562331,111.015293 69.9962774,110.99779 C60.5647059,110.285349 51.408079,107.610275 43.1631894,103.158605 C42.4426773,102.75521 42,102.014947 42,101.214559 L42,97.8979809 C42.0007503,97.5804845 42.1757984,97.2868558 42.4606532,97.1252735 C42.745508,96.9636911 43.0980223,96.9580629 43.3883228,97.1104624 Z" id="路径" stroke="#223893" stroke-width="1.2" fill="none" stroke-linecap="round" stroke-linejoin="round"></path>
                            <path d="M30.6432073,110.030951 C32.4187879,111.790284 38.1486592,116.62845 50.8947916,120.956597 C51.150899,121.043426 51.4317638,120.998424 51.6503752,120.835531 C51.8689867,120.672638 51.9989489,120.411524 52,120.133079 L52,116.436608 C51.9973069,116.059258 51.7595128,115.726694 51.4111595,115.61309 C39.7385286,111.724777 33.813887,107.373235 31.3815227,105.206822 C31.1326578,104.98772 30.783151,104.93817 30.4863465,105.079911 C30.1895421,105.221652 29.9996609,105.528791 30,105.866572 L30,108.468139 C29.9980611,109.055804 30.2288035,109.618739 30.6386778,110.026272" id="路径" stroke="none" fill="#3D93FA" fill-rule="nonzero"></path>
                            <path d="M30.6432079,110.030951 C32.4187885,111.790284 38.1486596,116.62845 50.8947917,120.956597 C51.150899,121.043426 51.4317638,120.998424 51.6503753,120.835531 C51.8689867,120.672638 51.9989489,120.411524 52,120.133079 L52,116.436608 C51.9973069,116.059258 51.7595128,115.726694 51.4111595,115.61309 C39.7385289,111.724777 33.8138876,107.373235 31.3815233,105.206822 C31.1326584,104.98772 30.7831516,104.93817 30.4863472,105.079911 C30.1895427,105.221652 29.9996615,105.528791 30,105.866572 L30,108.468139 C29.998004,109.058122 30.2305251,109.623094 30.6432079,110.030951 L30.6432079,110.030951 Z" id="路径" stroke="#223893" stroke-width="1.2" fill="none" stroke-linecap="round" stroke-linejoin="round"></path>
                            <path d="M101.664407,105.557803 C98.0316297,104.559751 94.1286351,104.910052 90.7637331,106.53616 C86.7228872,108.522911 84.0000034,112.243242 84.0000034,116.504245 C83.9995439,117.048908 84.0454524,117.592736 84.137295,118.130548 C85.0525489,123.7089 90.6950891,127.99997 97.504578,127.99997 C100.00623,128.004925 102.466313,127.400142 104.643558,126.244904 C108.460167,124.215242 111.000003,120.602187 111.000003,116.48708 C111.000003,111.372161 107.073557,107.046794 101.650678,105.540639 M102.437796,123.236885 C100.932474,124.032076 99.2323253,124.446149 97.504578,124.438484 C92.7910205,124.438484 88.8966152,121.464686 88.2559375,117.602751 C88.1916406,117.231041 88.159502,116.855065 88.1598332,116.478498 C88.1598332,113.530554 90.0406825,110.955931 92.8413594,109.587089 C95.1672449,108.460593 97.8666107,108.217778 100.378475,108.909105 C104.135592,109.938954 106.84932,112.938391 106.84932,116.478498 C106.79579,119.309361 105.11334,121.891612 102.451525,123.228303" id="形状" stroke="none" fill="#3D93FA" fill-rule="nonzero"></path>
                            <path d="M101.664362,105.557803 C98.0315943,104.559751 94.1286096,104.910052 90.763716,106.53616 C86.7228803,108.522911 84.0000034,112.243242 84.0000034,116.504245 C83.9995439,117.048908 84.0454523,117.592736 84.1372946,118.130548 C85.0525462,123.7089 90.6950722,127.99997 97.5045439,127.99997 C100.00619,128.004925 102.466266,127.400142 104.643506,126.244904 C108.460105,124.215242 110.999964,120.602187 110.999964,116.48708 C111.013657,111.372161 107.087228,107.03392 101.664362,105.557803 Z M102.451479,123.25405 C100.940366,124.045423 99.2352919,124.453628 97.5045439,124.438376 C92.7909983,124.438376 88.8966028,121.464686 88.2559267,117.602751 C88.19163,117.231041 88.1594915,116.855065 88.1598227,116.478498 C88.1598227,113.530554 90.0406673,110.955931 92.8413371,109.587089 C95.1672167,108.460593 97.8665757,108.217778 100.378434,108.909105 C104.135542,109.938954 106.849263,112.938391 106.849263,116.478498 C106.799026,119.312455 105.116114,121.898705 102.451479,123.236885 L102.451479,123.25405 Z" id="形状" stroke="#223893" stroke-width="1.2" fill="none" stroke-linecap="round" stroke-linejoin="round"></path>
                            <path d="M103,115.504344 C102.970114,117.103705 102.071808,118.562589 100.650442,119.320121 C99.8394925,119.770006 98.9248856,120.004206 97.9955752,120 C95.4734513,120 93.3938053,118.320124 93.0486726,116.135921 C93.0164015,115.925441 93.0001315,115.712855 93,115.499958 C93.0334976,113.839512 93.9975657,112.335909 95.5,111.600848 C96.7456391,110.964208 98.1907913,110.827558 99.5353982,111.21927 C101.519802,111.72343 102.929842,113.466045 102.995575,115.495572" id="路径" stroke="none" fill="#3D93FA" fill-rule="nonzero"></path>
                            <path d="M103,115.504344 C102.970114,117.103705 102.071808,118.562589 100.650442,119.320121 C99.8394925,119.770006 98.9248856,120.004206 97.9955752,120 C95.4734513,120 93.3938053,118.320124 93.0486726,116.135921 C93.0164015,115.925441 93.0001315,115.712855 93,115.499958 C93.0334976,113.839512 93.9975657,112.335909 95.5,111.600848 C96.7456391,110.964208 98.1907913,110.827558 99.5353982,111.21927 C101.524621,111.722685 102.93759,113.470268 103,115.504344 Z" id="路径" stroke="#223893" stroke-width="1.2" fill="none" stroke-linecap="round" stroke-linejoin="round"></path>
                            <path d="M94,109 L91,105" id="路径" stroke="#223893" stroke-width="1.2" fill="none" stroke-linecap="round" stroke-linejoin="round"></path>
                            <path d="M90,116 L85,117" id="路径" stroke="#223893" stroke-width="1.2" fill="none" stroke-linecap="round" stroke-linejoin="round"></path>
                            <path d="M105,126 L102,122" id="路径" stroke="#223893" stroke-width="1.2" fill="none" stroke-linecap="round" stroke-linejoin="round"></path>
                            <path d="M102,104 L100,108" id="路径" stroke="#223893" stroke-width="1.2" fill="none" stroke-linecap="round" stroke-linejoin="round"></path>
                            <path d="M104.14844,137 L91.8515601,137 C90.8289717,137 90,136.104569 90,135 C90,133.895431 90.8289717,133 91.8515601,133 L104.14844,133 C105.171028,133 106,133.895431 106,135 C106,136.104569 105.171028,137 104.14844,137" id="路径" stroke="none" fill="#3D93FA" fill-rule="nonzero"></path>
                            <path d="M104.14844,137 L91.8515601,137 C90.8289717,137 90,136.104569 90,135 C90,133.895431 90.8289717,133 91.8515601,133 L104.14844,133 C105.171028,133 106,133.895431 106,135 C106,136.104569 105.171028,137 104.14844,137 Z" id="路径" stroke="#223893" stroke-width="1.2" fill="none" stroke-linecap="round" stroke-linejoin="round"></path>
                            <path d="M110.208767,143 L90.7912334,143 C89.8019625,143 89,142.104569 89,141 C89,139.895431 89.8019625,139 90.7912334,139 L110.208767,139 C111.198037,139 112,139.895431 112,141 C112,142.104569 111.198037,143 110.208767,143" id="路径" stroke="none" fill="#3D93FA" fill-rule="nonzero"></path>
                            <path d="M110.208767,143 L90.7912334,143 C89.8019625,143 89,142.104569 89,141 C89,139.895431 89.8019625,139 90.7912334,139 L110.208767,139 C111.198037,139 112,139.895431 112,141 C112,142.104569 111.198037,143 110.208767,143 L110.208767,143 Z" id="路径" stroke="#223893" stroke-width="1.2" fill="none" stroke-linecap="round" stroke-linejoin="round"></path>
                            <path d="M133,98.1813963 C132.99547,99.521404 132.737093,100.849409 132.237523,102.10037 C131.835342,103.098599 131.311013,104.047249 130.675601,104.926297 C129.072089,107.147937 126.650647,109.245166 123.397412,111.049138 C122.796673,111.382384 122.177449,111.7023 121.548983,112 L121.548983,96.5862584 C120.962107,96.6617942 120.375231,96.7284434 119.783734,96.7995359 C116.773876,97.1431496 113.742452,97.4067843 110.689464,97.5904399 C107.235983,97.797793 103.767098,97.9029507 100.28281,97.9059128 C96.9648799,97.9059128 93.6792976,97.814085 90.4260628,97.6304294 C87.1728281,97.4467738 83.9149723,97.1698093 80.6524954,96.7995359 C77.6395564,96.4559222 74.6712877,96.0323294 71.7476895,95.5287575 L71.5166359,95.488768 C70.3798521,95.2932637 69.2476895,95.0844295 68.12939,94.8578221 L68,94.8578221 C68,94.8000595 68.0415896,94.7422968 68.0600739,94.6845342 C68.896488,92.3118221 70.5924214,90.0102026 73.1432532,87.9351904 C74.3603517,86.9597377 75.6638386,86.0884978 77.038817,85.3314278 C77.6210721,85.0115116 78.2171904,84.7004819 78.8271719,84.4116686 C82.4497633,82.7188941 86.3011092,81.5223935 90.2689464,80.8570439 C97.0801815,79.6739081 104.060592,79.7160925 110.855823,80.9814557 C114.584105,81.6588703 118.201892,82.8109311 121.613678,84.4072253 C122.229821,84.7034441 122.82594,85.0100305 123.402033,85.3269845 C124.776629,86.0841142 126.078708,86.956933 127.292976,87.9351904 C129.848429,90.0057593 131.548983,92.3029356 132.376155,94.6800909 C132.785003,95.8117587 132.994293,97.0011658 132.995379,98.1991694" id="路径" stroke="none" fill="#E0E8F7" fill-rule="nonzero"></path>
                            <path d="M133,98.1813963 C132.99547,99.521404 132.737093,100.849409 132.237523,102.10037 C131.835342,103.098599 131.311013,104.047249 130.675601,104.926297 C129.072089,107.147937 126.650647,109.245166 123.397412,111.049138 C122.796673,111.382384 122.177449,111.7023 121.548983,112 L121.548983,96.5862584 C120.962107,96.6617942 120.375231,96.7284434 119.783734,96.7995359 C116.773876,97.1431496 113.742452,97.4067843 110.689464,97.5904399 C107.235983,97.797793 103.767098,97.9029507 100.28281,97.9059128 C96.9648799,97.9059128 93.6792976,97.814085 90.4260628,97.6304294 C87.1728281,97.4467738 83.9149723,97.1698093 80.6524954,96.7995359 C77.6395564,96.4559222 74.6712877,96.0323294 71.7476895,95.5287575 L71.5166359,95.488768 C70.3798521,95.2932637 69.2476895,95.0844295 68.12939,94.8578221 L68,94.8578221 C68,94.8000595 68.0415896,94.7422968 68.0600739,94.6845342 C68.896488,92.3118221 70.5924214,90.0102026 73.1432532,87.9351904 C74.3603517,86.9597377 75.6638386,86.0884978 77.038817,85.3314278 C77.6210721,85.0115116 78.2171904,84.7004819 78.8271719,84.4116686 C82.4497633,82.7188941 86.3011092,81.5223935 90.2689464,80.8570439 C97.0801815,79.6739081 104.060592,79.7160925 110.855823,80.9814557 C114.584105,81.6588703 118.201892,82.8109311 121.613678,84.4072253 C122.229821,84.7034441 122.82594,85.0100305 123.402033,85.3269845 C124.776629,86.0841142 126.078708,86.956933 127.292976,87.9351904 C129.848429,90.0057593 131.548983,92.3029356 132.376155,94.6800909 C132.78455,95.8058649 132.995375,96.9891099 133,98.1813963 Z" id="路径" stroke="#223893" stroke-width="1.2" fill="none" stroke-linecap="round" stroke-linejoin="round"></path>
                            <path d="M133,98 L133,111.330783 C132.996405,112.656342 132.770756,113.97006 132.33414,115.207391 C131.196126,118.455478 128.625504,121.540941 124.614205,124.059417 C124.089588,124.389061 123.54883,124.705518 123,125 L123,111.669217 C123.556901,111.374735 124.097659,111.058278 124.614205,110.728634 C127.439064,108.944164 129.569814,106.878398 130.970137,104.671984 C131.525033,103.802439 131.982922,102.864045 132.33414,101.876608 C132.770407,100.63917 132.996044,99.3255216 133,98" id="路径" stroke="none" fill="#FFFFFF" fill-rule="nonzero"></path>
                            <path d="M133,98 L133,111.330783 C132.996405,112.656342 132.770756,113.97006 132.33414,115.207391 C131.196126,118.455478 128.625504,121.540941 124.614205,124.059417 C124.089588,124.389061 123.54883,124.705518 123,125 L123,111.669217 C123.556901,111.374735 124.097659,111.058278 124.614205,110.728634 C127.439064,108.944164 129.569814,106.878398 130.970137,104.671984 C131.525033,103.802439 131.982922,102.864045 132.33414,101.876608 C132.770407,100.63917 132.996044,99.3255216 133,98 Z" id="路径" stroke="#223893" stroke-width="1.2" fill="none" stroke-linecap="round"></path>
                            <path d="M129.191681,115.206913 C127.783074,117.035584 125.658553,118.667448 123,120 L123,116.133549 C125.650813,114.796897 127.775334,113.165033 129.191681,111.340462 C129.257468,111.258459 129.454828,111.004249 129.636708,111.000149 C130.252007,110.975548 130.073996,114.009666 129.191681,115.206913" id="路径" stroke="none" fill="#E0E8F7" fill-rule="nonzero"></path>
                            <path d="M129.184272,115.206913 C127.77735,117.035584 125.655372,118.667448 123,120 L123,116.133549 C125.647641,114.796897 127.76962,113.165033 129.184272,111.340462 C129.24998,111.258459 129.447104,111.004249 129.628767,111.000149 C130.262654,110.975548 130.065531,114.009666 129.184272,115.206913 Z" id="路径" stroke="#223893" stroke-width="1.2" fill="none" stroke-linecap="round" stroke-linejoin="round"></path>
                            <path d="M133,78.5067708 C132.996066,79.8695777 132.739919,81.2202518 132.244133,82.4924973 C131.845044,83.5064021 131.325284,84.4700725 130.69575,85.3633036 C129.106139,87.6202269 126.705688,89.7507625 123.480654,91.5833842 C110.791247,98.8055386 90.2133343,98.8055386 77.523927,91.5833842 C74.3172176,89.7507625 71.8938614,87.6292546 70.3042498,85.3633036 C69.6745886,84.4708833 69.1562584,83.5070124 68.7604482,82.4924973 C68.2612012,81.2210717 68.0034341,79.8700403 68,78.5067708 C68,73.7762596 71.1700613,69.0276931 77.519346,65.4166158 C90.2087533,58.1944614 110.786666,58.1944614 123.476073,65.4166158 C129.825358,69.0276931 132.995419,73.7627181 132.995419,78.5067708" id="路径" stroke="none" fill="#E0E8F7" fill-rule="nonzero"></path>
                            <path d="M133,78.5067708 C132.996066,79.8695777 132.739919,81.2202518 132.244133,82.4924973 C131.845044,83.5064021 131.325284,84.4700725 130.69575,85.3633036 C129.106139,87.6202269 126.705688,89.7507625 123.480654,91.5833842 C110.791247,98.8055386 90.2133343,98.8055386 77.523927,91.5833842 C74.3172176,89.7507625 71.8938614,87.6292546 70.3042498,85.3633036 C69.6745886,84.4708833 69.1562584,83.5070124 68.7604482,82.4924973 C68.2612012,81.2210717 68.0034341,79.8700403 68,78.5067708 C68,73.7762596 71.1700613,69.0276931 77.519346,65.4166158 C90.2087533,58.1944614 110.786666,58.1944614 123.476073,65.4166158 C129.839101,69.0502623 133,73.7898011 133,78.5067708 Z" id="路径" stroke="#223893" stroke-width="1.2" fill="none" stroke-linecap="round" stroke-linejoin="round"></path>
                            <path d="M132.986258,77 L132.986258,90.3374553 C132.984832,91.5247681 132.777394,92.7035767 132.372445,93.8255776 C132.331219,93.9529775 132.280832,94.0847706 132.230444,94.2121705 C130.938689,97.4542792 128.020789,100.538236 123.467583,103.059876 C122.872093,103.389359 122.25828,103.705662 121.635307,104 L121.635307,95.7277904 C121.053559,95.8024732 120.471811,95.8683697 119.885483,95.9386593 C116.901926,96.2783925 113.896993,96.5390498 110.870684,96.7206313 C107.447381,96.9256427 104.008809,97.0296128 100.554968,97.0325415 C97.2660324,97.0325415 94.0091614,96.9417507 90.7843552,96.7601692 C87.559549,96.5785877 84.3301621,96.3047511 81.0961945,95.9386593 C78.1095842,95.5989261 75.1672539,95.1801171 72.2692037,94.6822323 L72.0401691,94.6426944 C70.9133192,94.449398 69.79105,94.2429222 68.6825229,94.0188741 C68.6550388,93.9529775 68.636716,93.887081 68.6138125,93.8255776 C68.2091941,92.7034957 68.001766,91.5247406 68,90.3374553 L68,77 C68.0041385,78.3263334 68.2602601,79.6408418 68.755814,80.8791084 C69.1536659,81.8655806 69.6718326,82.8034383 70.2995067,83.6731207 L70.6384778,84.1124308 C70.872093,84.4111617 71.124031,84.7054995 71.3851304,84.9910511 C71.5179704,85.1404165 71.6553911,85.2853889 71.7928118,85.4303612 L72.1684285,85.8081679 L72.278365,85.9179954 C72.3928823,86.027823 72.5119803,86.1420436 72.6356589,86.2518711 L72.9425652,86.5286365 C73.1715997,86.7351123 73.4006342,86.9328018 73.6571529,87.1304914 C73.7991543,87.244712 73.9411557,87.3589326 74.0877378,87.4687602 C74.2343199,87.5785877 74.380902,87.6928083 74.5458069,87.8026359 L75.003876,88.1321185 L75.329105,88.3561666 L75.6863989,88.5933941 L76.0299507,88.8130491 C76.1765328,88.9096974 76.3231149,89.0019525 76.4880197,89.0898145 C76.8315715,89.3006834 77.1842847,89.502766 77.5461593,89.7048487 C90.239253,96.7338106 110.811135,96.7338106 123.504228,89.7048487 C123.866103,89.502766 124.218816,89.3006834 124.562368,89.0898145 C124.713531,89.0019525 124.860113,88.9096974 125.020437,88.8130491 C125.180761,88.7164009 125.44186,88.54507 125.647992,88.4044907 C126.046512,88.1365116 126.43129,87.8641393 126.797745,87.5873739 L127.1642,87.3018223 C127.237491,87.2491051 127.306202,87.1919948 127.374912,87.1348845 C127.544397,86.9943052 127.713883,86.8581191 127.874207,86.7175399 C128.034531,86.5769606 128.135307,86.4934917 128.258985,86.3792711 L128.258985,86.3792711 L128.258985,86.3792711 L128.295631,86.3441263 C128.42389,86.2255125 128.552149,86.1068988 128.675828,85.983892 L128.717054,85.9487472 L128.826991,85.8389196 L129.202607,85.4611129 C129.340028,85.3161406 129.477449,85.1711682 129.610289,85.0218028 C129.871388,84.727465 130.123326,84.4331272 130.356942,84.1431826 L130.695913,83.7038724 C131.324852,82.8342132 131.844539,81.8963855 132.244186,80.9098601 C132.739345,79.6714865 132.995453,78.3570482 133,77.0307517" id="路径" stroke="none" fill="#FFFFFF" fill-rule="nonzero"></path>
                            <path d="M133,77 L133,90.3374553 C132.998533,91.5247681 132.791051,92.7035767 132.386017,93.8255776 C132.344782,93.9529775 132.294384,94.0847706 132.243985,94.2121705 C130.951958,97.4542792 128.033443,100.538236 123.479277,103.059876 C122.883662,103.389359 122.26972,103.705662 121.646614,104 L121.646614,95.7277904 C121.064744,95.8024732 120.482874,95.8683697 119.896422,95.9386593 C116.912236,96.2783925 113.90667,96.5390498 110.879722,96.7206313 C107.455697,96.9256427 104.016401,97.0296128 100.561832,97.0325415 C97.2722025,97.0325415 94.0146448,96.9417507 90.7891587,96.7601692 C87.5636727,96.5785877 84.3336049,96.3047511 81.0989555,95.9386593 C78.1117156,95.5989261 75.168765,95.1801171 72.2701037,94.6822323 L72.0410209,94.6426944 C70.9139334,94.449398 69.7914276,94.2429222 68.6826668,94.0188741 C68.6551769,93.9529775 68.6368502,93.887081 68.613942,93.8255776 C68.2092382,92.7034957 68.0017664,91.5247406 68,90.3374553 L68,77 C68.0041393,78.3263334 68.260315,79.6408418 68.7559733,80.8791084 C69.1539091,81.8655806 69.672185,82.8034383 70.2999915,83.6731207 L70.6390341,84.1124308 C70.8726985,84.4111617 71.1246896,84.7054995 71.3858441,84.9910511 C71.5187121,85.1404165 71.6561618,85.2853889 71.7936115,85.4303612 L72.1693073,85.8081679 L72.279267,85.9179954 C72.3938084,86.027823 72.5129315,86.1420436 72.6366362,86.2518711 L72.9436072,86.5286365 C73.17269,86.7351123 73.4017728,86.9328018 73.6583456,87.1304914 C73.800377,87.244712 73.9424083,87.3589326 74.0890213,87.4687602 C74.2356343,87.5785877 74.3822473,87.6928083 74.5471869,87.8026359 L75.0053526,88.1321185 L75.3306502,88.3561666 L75.6880194,88.5933941 L76.0316436,88.8130491 C76.1782566,88.9096974 76.3248696,89.0019525 76.4898092,89.0898145 C76.8334335,89.3006834 77.186221,89.502766 77.5481719,89.7048487 C90.2439416,96.7338106 110.82016,96.7338106 123.51593,89.7048487 C123.877881,89.502766 124.230669,89.3006834 124.574293,89.0898145 C124.725487,89.0019525 124.8721,88.9096974 125.032458,88.8130491 C125.192816,88.7164009 125.453971,88.54507 125.660145,88.4044907 C126.058749,88.1365116 126.443609,87.8641393 126.810141,87.5873739 L127.176674,87.3018223 C127.24998,87.2491051 127.318705,87.1919948 127.38743,87.1348845 C127.556951,86.9943052 127.726472,86.8581191 127.88683,86.7175399 C128.047188,86.5769606 128.147985,86.4934917 128.271689,86.3792711 L128.271689,86.3792711 L128.271689,86.3792711 L128.308343,86.3441263 C128.436629,86.2255125 128.564915,86.1068988 128.68862,85.983892 L128.729855,85.9487472 L128.839815,85.8389196 L129.215511,85.4611129 C129.35296,85.3161406 129.49041,85.1711682 129.623278,85.0218028 C129.884432,84.727465 130.136424,84.4331272 130.370088,84.1431826 L130.709131,83.7038724 C131.338202,82.8342132 131.857999,81.8963855 132.25773,80.9098601 C132.752141,79.6609866 133.003704,78.3358173 133,77 Z" id="路径" stroke="#223893" stroke-width="1.2" fill="none" stroke-linecap="round"></path>
                            <path d="M80,97 C77.0176449,96.6570871 74.0795068,96.2306823 71.1855856,95.7207858 L71.0483607,95.5776569 C70.2478819,94.6831015 69.9825804,92.9431912 70.0008771,92.0709997 C70.0008771,91.6550314 70.1152312,90.3847627 71.0483607,91.3598281 C73.0289738,93.5067611 76.0067547,95.3853275 79.7026793,96.8613439 C79.8033109,96.9015989 79.9039426,96.9507995 80,97" id="路径" stroke="none" fill="#E0E8F7" fill-rule="nonzero"></path>
                            <path d="M80,97 C77.0176449,96.6570871 74.0795068,96.2306823 71.1855856,95.7207858 L71.0483607,95.5776569 C70.2478819,94.6831015 69.9825804,92.9431912 70.0008771,92.0709997 C70.0008771,91.6550314 70.1152312,90.3847627 71.0483607,91.3598281 C73.0289738,93.5067611 76.0067547,95.3853275 79.7026793,96.8613439 C79.8033109,96.9015989 79.9039426,96.9507995 80,97 Z" id="路径" stroke="#223893" stroke-width="1.2" fill="none" stroke-linecap="round" stroke-linejoin="round"></path>
                            <path d="M130.054865,95.2090715 C128.391913,97.032821 125.883779,98.6639498 122.745186,100 L122.745186,96.7664306 C122.16498,96.8361019 121.584774,96.8975767 121,96.9631497 C121.240555,96.7881962 121.504528,96.6408826 121.78579,96.5246301 C125.362965,95.1230069 128.218308,93.3525354 130.045727,91.3402635 C130.123393,91.2582972 130.356389,91.0083001 130.571111,91.0001035 C131.29751,90.9796119 131.087357,94.0082656 130.045727,95.2090715" id="路径" stroke="none" fill="#80C0FF" fill-rule="nonzero"></path>
                            <path d="M130.039474,95.2090186 C128.379349,97.0327883 125.875478,98.663935 122.74222,100 L122.74222,96.7663949 C122.163,96.836067 121.58378,96.8975424 121,96.9631162 C121.240146,96.7881607 121.503671,96.6408456 121.784455,96.5245918 C125.355549,95.1229531 128.206039,93.3524621 130.030353,91.340168 C130.107886,91.2582008 130.340486,91.0082009 130.554843,91 C131.311933,90.9959058 131.079333,94.0081995 130.039474,95.2090186 Z" id="路径" stroke="#223893" stroke-width="1.2" fill="none" stroke-linecap="round" stroke-linejoin="round"></path>
                            <path d="M133,56.5067708 C132.996066,57.8695777 132.739919,59.2202518 132.244133,60.4924973 C131.845044,61.5064021 131.325284,62.4700725 130.69575,63.3633036 C129.106139,65.6202269 126.705688,67.7507625 123.480654,69.5833842 C110.791247,76.8055386 90.2133343,76.8055386 77.523927,69.5833842 C74.3172176,67.7507625 71.8938614,65.6292546 70.3042498,63.3633036 C69.6745886,62.4708833 69.1562584,61.5070124 68.7604482,60.4924973 C68.2612012,59.2210717 68.0034341,57.8700403 68,56.5067708 C68,51.7762596 71.1700613,47.0276931 77.519346,43.4166158 C90.2087533,36.1944614 110.786666,36.1944614 123.476073,43.4166158 C129.825358,47.0276931 132.995419,51.7627181 132.995419,56.5067708" id="路径" stroke="none" fill="#E0E8F7" fill-rule="nonzero"></path>
                            <path d="M133,56.5067708 C132.996066,57.8695777 132.739919,59.2202518 132.244133,60.4924973 C131.845044,61.5064021 131.325284,62.4700725 130.69575,63.3633036 C129.106139,65.6202269 126.705688,67.7507625 123.480654,69.5833842 C110.791247,76.8055386 90.2133343,76.8055386 77.523927,69.5833842 C74.3172176,67.7507625 71.8938614,65.6292546 70.3042498,63.3633036 C69.6745886,62.4708833 69.1562584,61.5070124 68.7604482,60.4924973 C68.2612012,59.2210717 68.0034341,57.8700403 68,56.5067708 C68,51.7762596 71.1700613,47.0276931 77.519346,43.4166158 C90.2087533,36.1944614 110.786666,36.1944614 123.476073,43.4166158 C129.839101,47.0457484 133,51.7762596 133,56.5067708 Z" id="路径" stroke="#223893" stroke-width="1.2" fill="none" stroke-linecap="round" stroke-linejoin="round"></path>
                            <path d="M133,58 L133,71.1919518 C132.995964,72.5042571 132.73982,73.8048707 132.244133,75.0300056 C130.952287,78.2378015 128.038762,81.2891195 123.480654,83.7840718 C110.791247,90.7386427 90.2133343,90.7386427 77.523927,83.7840718 C72.9658186,81.2891195 70.043132,78.2378015 68.7604482,75.0300056 C68.2612012,73.8056868 68.0034341,72.5047116 68,71.1919518 L68,58 C68.0034341,59.3127599 68.2612012,60.613735 68.7604482,61.8380538 C69.1562584,62.8149808 69.6745886,63.74314 70.3042498,64.6024958 C71.8938614,66.7757992 74.2988935,68.8273976 77.523927,70.59212 C90.2133343,77.546691 110.791247,77.546691 123.480654,70.59212 C126.687363,68.8273976 129.11072,66.7844924 130.69575,64.6024958 C131.325284,63.7423592 131.845044,62.8143932 132.244133,61.8380538 C132.739919,60.6129455 132.996066,59.3123144 133,58" id="路径" stroke="none" fill="#FFFFFF" fill-rule="nonzero"></path>
                            <path d="M133,58 L133,71.1919518 C132.995964,72.5042571 132.73982,73.8048707 132.244133,75.0300056 C130.952287,78.2378015 128.038762,81.2891195 123.480654,83.7840718 C110.791247,90.7386427 90.2133343,90.7386427 77.523927,83.7840718 C72.9658186,81.2891195 70.043132,78.2378015 68.7604482,75.0300056 C68.2612012,73.8056868 68.0034341,72.5047116 68,71.1919518 L68,58 C68.0034341,59.3127599 68.2612012,60.613735 68.7604482,61.8380538 C69.1562584,62.8149808 69.6745886,63.74314 70.3042498,64.6024958 C71.8938614,66.7757992 74.2988935,68.8273976 77.523927,70.59212 C90.2133343,77.546691 110.791247,77.546691 123.480654,70.59212 C126.687363,68.8273976 129.11072,66.7844924 130.69575,64.6024958 C131.325284,63.7423592 131.845044,62.8143932 132.244133,61.8380538 C132.739919,60.6129455 132.996066,59.3123144 133,58 Z" id="路径" stroke="#223893" stroke-width="1.2" fill="none" stroke-linecap="round"></path>
                            <path d="M79.9309635,76.1529444 C76.5286917,74.8590974 73.7875049,73.203445 71.9642577,71.3157654 C71.1221112,70.4584443 71.0084215,71.579254 71,71.9410593 C71,72.7275925 71.2273796,74.2259382 71.9642577,75.0242693 C73.7875049,76.9119489 76.5286917,78.5636686 79.9309635,79.8614483 C81.4426165,80.4002236 82.457403,79.2912118 81.7921073,77.8557887 C81.4167604,77.0939179 80.7542519,76.4877591 79.9309635,76.1529444" id="路径" stroke="none" fill="#80C0FF" fill-rule="nonzero"></path>
                            <path d="M79.9309635,76.1529444 C76.5286917,74.8590974 73.7875049,73.203445 71.9642577,71.3157654 C71.1221112,70.4584443 71.0084215,71.579254 71,71.9410593 C71,72.7275925 71.2273796,74.2259382 71.9642577,75.0242693 C73.7875049,76.9119489 76.5286917,78.5636686 79.9309635,79.8614483 C81.4426165,80.4002236 82.457403,79.2912118 81.7921073,77.8557887 C81.4167604,77.0939179 80.7542519,76.4877591 79.9309635,76.1529444" id="路径" stroke="#223893" stroke-width="1.2" fill="none" stroke-linecap="round" stroke-linejoin="round"></path>
                            <path d="M108.194517,79.043105 C103.111092,79.7071514 97.9654295,79.7543288 92.8705718,79.1836007 C90.2491229,78.9353916 89.2749041,80.8601832 90.5691562,82.4103195 C91.1539226,83.0874442 91.9778773,83.5149976 92.8705718,83.6045333 C97.9654295,84.1752614 103.111092,84.128084 108.194517,83.4640376 C110.825378,83.0565999 111.799597,80.5229934 110.279439,79.4552258 C109.661681,79.0608739 108.916271,78.915205 108.194517,79.0477881" id="路径" stroke="none" fill="#E0E8F7" fill-rule="nonzero"></path>
                            <path d="M108.194517,79.043105 C103.111092,79.7071514 97.9654295,79.7543288 92.8705718,79.1836007 C90.2491229,78.9353916 89.2749041,80.8601832 90.5691562,82.4103195 C91.1539226,83.0874442 91.9778773,83.5149976 92.8705718,83.6045333 C97.9654295,84.1752614 103.111092,84.128084 108.194517,83.4640376 C110.825378,83.0565999 111.799597,80.5229934 110.279439,79.4552258 C109.661681,79.0608739 108.916271,78.915205 108.194517,79.0477881" id="路径" stroke="#223893" stroke-width="1.2" fill="none" stroke-linecap="round" stroke-linejoin="round"></path>
                            <path d="M129.081817,70.3562372 C127.319855,72.4586859 124.566788,74.316564 121.117747,75.7839874 C119.038631,76.7193625 118.236938,79.3924758 119.875563,79.9331055 C120.28814,80.0487168 120.729855,80.0136243 121.117747,79.8344191 C124.571193,78.362705 127.319855,76.5091176 129.081817,74.406669 C130.086136,73.1537812 130.284356,69.9786546 129.588381,70.0001082 C129.381351,70.0001082 129.147891,70.270423 129.081817,70.3562372" id="路径" stroke="none" fill="#80C0FF" fill-rule="nonzero"></path>
                            <path d="M129.081817,70.3562372 C127.319855,72.4586859 124.566788,74.316564 121.117747,75.7839874 C119.038631,76.7193625 118.236938,79.3924758 119.875563,79.9331055 C120.28814,80.0487168 120.729855,80.0136243 121.117747,79.8344191 C124.571193,78.362705 127.319855,76.5091176 129.081817,74.406669 C130.086136,73.1537812 130.284356,69.9786546 129.588381,70.0001082 C129.381351,70.0001082 129.147891,70.270423 129.081817,70.3562372" id="路径" stroke="#223893" stroke-width="1.2" fill="none" stroke-linecap="round" stroke-linejoin="round"></path>
                            <path d="M133,36.5022564 C132.996065,37.8647309 132.739864,39.2150755 132.243973,40.4870106 C131.849789,41.5031579 131.33453,42.4696298 130.709009,43.3661422 C129.119061,45.6225149 126.718102,47.7525308 123.492387,49.5847055 C110.800296,56.8050982 90.2180319,56.8050982 77.5259411,49.5847055 C74.3185535,47.7525308 71.8946849,45.6315404 70.3047371,43.3661422 C69.6749427,42.4739396 69.156503,41.5103038 68.7606091,40.4960361 C68.2601514,39.2220899 68.0023106,37.8682285 68,36.5022564 C68,31.7728991 71.1707317,27.0254909 77.5213591,23.4152945 C90.2134499,16.1949018 110.795714,16.1949018 123.487805,23.4152945 C129.838432,27.0570801 133,31.7864374 133,36.5022564" id="路径" stroke="none" fill="#E0E8F7" fill-rule="nonzero"></path>
                            <path d="M133,36.5022564 C132.996065,37.8647309 132.739864,39.2150755 132.243973,40.4870106 C131.849789,41.5031579 131.33453,42.4696298 130.709009,43.3661422 C129.119061,45.6225149 126.718102,47.7525308 123.492387,49.5847055 C110.800296,56.8050982 90.2180319,56.8050982 77.5259411,49.5847055 C74.3185535,47.7525308 71.8946849,45.6315404 70.3047371,43.3661422 C69.6749427,42.4739396 69.156503,41.5103038 68.7606091,40.4960361 C68.2601514,39.2220899 68.0023106,37.8682285 68,36.5022564 C68,31.7728991 71.1707317,27.0254909 77.5213591,23.4152945 C90.2134499,16.1949018 110.795714,16.1949018 123.487805,23.4152945 C129.838432,27.0570801 133,31.7864374 133,36.5022564 Z" id="路径" stroke="#223893" stroke-width="1.2" fill="none" stroke-linecap="round" stroke-linejoin="round"></path>
                            <path d="M133,37 L133,50.1919518 C132.995964,51.5042571 132.73982,52.8048707 132.244133,54.0300056 C130.952287,57.2378015 128.038762,60.2891195 123.480654,62.7840718 C110.791247,69.7386427 90.2133343,69.7386427 77.523927,62.7840718 C72.9658186,60.2891195 70.043132,57.2378015 68.7604482,54.0300056 C68.2612012,52.8056868 68.0034341,51.5047116 68,50.1919518 L68,37 C68.0034341,38.3127599 68.2612012,39.613735 68.7604482,40.8380538 C69.1562584,41.8149808 69.6745886,42.74314 70.3042498,43.6024958 C71.8938614,45.7757992 74.2988935,47.8273976 77.523927,49.59212 C90.2133343,56.546691 110.791247,56.546691 123.480654,49.59212 C126.687363,47.8273976 129.11072,45.7844924 130.69575,43.6024958 C131.325284,42.7423592 131.845044,41.8143932 132.244133,40.8380538 C132.739919,39.6129455 132.996066,38.3123144 133,37" id="路径" stroke="none" fill="#FFFFFF" fill-rule="nonzero"></path>
                            <path d="M133,37 L133,50.1919518 C132.995964,51.5042571 132.73982,52.8048707 132.244133,54.0300056 C130.952287,57.2378015 128.038762,60.2891195 123.480654,62.7840718 C110.791247,69.7386427 90.2133343,69.7386427 77.523927,62.7840718 C72.9658186,60.2891195 70.043132,57.2378015 68.7604482,54.0300056 C68.2612012,52.8056868 68.0034341,51.5047116 68,50.1919518 L68,37 C68.0034341,38.3127599 68.2612012,39.613735 68.7604482,40.8380538 C69.1562584,41.8149808 69.6745886,42.74314 70.3042498,43.6024958 C71.8938614,45.7757992 74.2988935,47.8273976 77.523927,49.59212 C90.2133343,56.546691 110.791247,56.546691 123.480654,49.59212 C126.687363,47.8273976 129.11072,45.7844924 130.69575,43.6024958 C131.325284,42.7423592 131.845044,41.8143932 132.244133,40.8380538 C132.739919,39.6129455 132.996066,38.3123144 133,37 Z" id="路径" stroke="#223893" stroke-width="1.2" fill="none" stroke-linecap="round"></path>
                            <path d="M79.9309635,55.1529444 C76.5286917,53.8590974 73.7875049,52.203445 71.9642577,50.3157654 C71.1221112,49.4584443 71.0084215,50.579254 71,50.9410593 C71,51.7275925 71.2273796,53.2259382 71.9642577,54.0242693 C73.7875049,55.9119489 76.5286917,57.5636686 79.9309635,58.8614483 C81.4426165,59.4002236 82.457403,58.2912118 81.7921073,56.8557887 C81.4167604,56.0939179 80.7542519,55.4877591 79.9309635,55.1529444" id="路径" stroke="none" fill="#E0E8F7" fill-rule="nonzero"></path>
                            <path d="M79.9309635,55.1529444 C76.5286917,53.8590974 73.7875049,52.203445 71.9642577,50.3157654 C71.1221112,49.4584443 71.0084215,50.579254 71,50.9410593 C71,51.7275925 71.2273796,53.2259382 71.9642577,54.0242693 C73.7875049,55.9119489 76.5286917,57.5636686 79.9309635,58.8614483 C81.4426165,59.4002236 82.457403,58.2912118 81.7921073,56.8557887 C81.4167604,56.0939179 80.7542519,55.4877591 79.9309635,55.1529444" id="路径" stroke="#223893" stroke-width="1.2" fill="none" stroke-linecap="round" stroke-linejoin="round"></path>
                            <path d="M108.193888,59.0433544 C105.282188,59.4270905 102.346841,59.6054581 99.4098304,59.5771214 C97.2248823,59.5596812 95.0423529,59.4284006 92.8712152,59.1838194 C90.2491788,58.9356646 89.2747415,60.8600349 90.5692838,62.4098318 C91.1541813,63.0868082 91.9783207,63.514268 92.8712152,63.6037842 C95.0423327,63.8485965 97.2248743,63.9798778 99.4098304,63.9970861 C102.346841,64.0254228 105.282188,63.8470552 108.193888,63.4633192 C110.825339,63.0559707 111.799777,60.5229189 110.279278,59.4553851 C109.661561,59.0606746 108.915806,58.915003 108.193888,59.0480366" id="路径" stroke="none" fill="#80C0FF" fill-rule="nonzero"></path>
                            <path d="M108.193888,59.0433544 C105.282188,59.4270905 102.346841,59.6054581 99.4098304,59.5771214 C97.2248823,59.5596812 95.0423529,59.4284006 92.8712152,59.1838194 C90.2491788,58.9356646 89.2747415,60.8600349 90.5692838,62.4098318 C91.1541813,63.0868082 91.9783207,63.514268 92.8712152,63.6037842 C95.0423327,63.8485965 97.2248743,63.9798778 99.4098304,63.9970861 C102.346841,64.0254228 105.282188,63.8470552 108.193888,63.4633192 C110.825339,63.0559707 111.799777,60.5229189 110.279278,59.4553851 C109.661561,59.0606746 108.915806,58.915003 108.193888,59.0480366" id="路径" stroke="#223893" stroke-width="1.2" fill="none" stroke-linecap="round" stroke-linejoin="round"></path>
                            <path d="M129.081817,50.3562372 C127.319855,52.4586859 124.566788,54.316564 121.117747,55.7839874 C119.038631,56.7193625 118.236938,59.3924758 119.875563,59.9331055 C120.28814,60.0487168 120.729855,60.0136243 121.117747,59.8344191 C124.571193,58.362705 127.319855,56.5091176 129.081817,54.406669 C130.086136,53.1537812 130.284356,49.9786546 129.588381,50.0001082 C129.381351,50.0001082 129.147891,50.270423 129.081817,50.3562372" id="路径" stroke="none" fill="#80C0FF" fill-rule="nonzero"></path>
                            <path d="M129.081817,50.3562372 C127.319855,52.4586859 124.566788,54.316564 121.117747,55.7839874 C119.038631,56.7193625 118.236938,59.3924758 119.875563,59.9331055 C120.28814,60.0487168 120.729855,60.0136243 121.117747,59.8344191 C124.571193,58.362705 127.319855,56.5091176 129.081817,54.406669 C130.086136,53.1537812 130.284356,49.9786546 129.588381,50.0001082 C129.381351,50.0001082 129.147891,50.270423 129.081817,50.3562372" id="路径" stroke="#223893" stroke-width="1.2" fill="none" stroke-linecap="round" stroke-linejoin="round"></path>
                            <path d="M125,26.4977726 C124.996618,27.4927559 124.80602,28.4787015 124.437661,29.4066986 C123.486713,31.8389705 121.333365,34.1554199 117.968473,36.0442171 C108.596152,41.3185943 93.403848,41.3185943 84.0315268,36.0442171 C80.6666349,34.1554199 78.5087151,31.8389705 77.5623393,29.4066986 C77.1941792,28.4786461 77.003588,27.4927367 77,26.4977726 C77,23.0453721 79.3407944,19.5929715 84.0315268,16.9557829 C93.403848,11.6814057 108.596152,11.6814057 117.968473,16.9557829 C122.654634,19.5929715 125,23.0453721 125,26.4977726" id="路径" stroke="none" fill="#80C0FF" fill-rule="nonzero"></path>
                            <path d="M125,26.4977726 C124.996618,27.4927559 124.80602,28.4787015 124.437661,29.4066986 C123.486713,31.8389705 121.333365,34.1554199 117.968473,36.0442171 C108.596152,41.3185943 93.403848,41.3185943 84.0315268,36.0442171 C80.6666349,34.1554199 78.5087151,31.8389705 77.5623393,29.4066986 C77.1941792,28.4786461 77.003588,27.4927367 77,26.4977726 C77,23.0453721 79.3407944,19.5929715 84.0315268,16.9557829 C93.403848,11.6814057 108.596152,11.6814057 117.968473,16.9557829 C122.654634,19.5929715 125,23.0453721 125,26.4977726 Z" id="路径" stroke="#223893" stroke-width="1.2" fill="none" stroke-linecap="round" stroke-linejoin="round"></path>
                            <path d="M109,27 L101,22" id="路径" stroke="#223893" stroke-width="1.2" fill="none" stroke-linecap="round"></path>
                            <path d="M97,24 L105,29" id="路径" stroke="#223893" stroke-width="1.2" fill="none" stroke-linecap="round"></path>
                            <path d="M101,31 L93,26" id="路径" stroke="#223893" stroke-width="1.2" fill="none" stroke-linecap="round"></path>
                            <path d="M125,27 L125,34.4022645 C125,37.8790857 122.654634,41.3559069 117.968473,44.0162358 C108.596152,49.3279214 93.403848,49.3279214 84.0315268,44.0162358 C79.3407944,41.3603931 77,37.8835719 77,34.4022645 L77,27 C77.003588,28.002002 77.1941792,28.9948852 77.5623393,29.9295022 C78.5087151,32.3789789 80.6666349,34.7118137 84.0315268,36.6139714 C93.403848,41.9256569 108.596152,41.9256569 117.968473,36.6139714 C121.333365,34.7118137 123.486713,32.3789789 124.437661,29.9295022 C124.80602,28.9949409 124.996618,28.0020212 125,27" id="路径" stroke="none" fill="#3D93FA" fill-rule="nonzero"></path>
                            <path d="M125,27 L125,34.4022645 C125,37.8790857 122.654634,41.3559069 117.968473,44.0162358 C108.596152,49.3279214 93.403848,49.3279214 84.0315268,44.0162358 C79.3407944,41.3603931 77,37.8835719 77,34.4022645 L77,27 C77.003588,28.002002 77.1941792,28.9948852 77.5623393,29.9295022 C78.5087151,32.3789789 80.6666349,34.7118137 84.0315268,36.6139714 C93.403848,41.9256569 108.596152,41.9256569 117.968473,36.6139714 C121.333365,34.7118137 123.486713,32.3789789 124.437661,29.9295022 C124.80602,28.9949409 124.996618,28.0020212 125,27 Z" id="路径" stroke="#223893" stroke-width="1.2" fill="none" stroke-linecap="round"></path>
                        </g>
                    </g>
                </g>
            </g>
        </g>
    </g>
</svg>